<svg version="1.1" viewBox="0.0 0.0 600.0 371.0" fill="none" stroke="none" stroke-linecap="square" stroke-miterlimit="10" width="600" height="371" xmlns:xlink="http://www.w3.org/1999/xlink" xmlns="http://www.w3.org/2000/svg"><path fill="#ffffff" d="M0 0L600.0 0L600.0 371.0L0 371.0L0 0Z" fill-rule="nonzero"/><path stroke="#333333" stroke-width="1.0" stroke-linecap="butt" d="M42.5 334.5L581.5 334.5" fill-rule="nonzero"/><path stroke="#cccccc" stroke-width="1.0" stroke-linecap="butt" d="M42.5 277.5L581.5 277.5" fill-rule="nonzero"/><path stroke="#cccccc" stroke-width="1.0" stroke-linecap="butt" d="M42.5 220.5L581.5 220.5" fill-rule="nonzero"/><path stroke="#cccccc" stroke-width="1.0" stroke-linecap="butt" d="M42.5 163.5L581.5 163.5" fill-rule="nonzero"/><path stroke="#cccccc" stroke-width="1.0" stroke-linecap="butt" d="M42.5 106.5L581.5 106.5" fill-rule="nonzero"/><path stroke="#cccccc" stroke-width="1.0" stroke-linecap="butt" d="M42.5 48.5L581.5 48.5" fill-rule="nonzero"/><clipPath id="id_0"><path d="M42.55 48.916668L581.45 48.916668L581.45 334.45L42.55 334.45L42.55 48.916668Z" clip-rule="nonzero"/></clipPath><path stroke="#5b9bd5" stroke-width="2.0" stroke-linecap="butt" clip-path="url(#id_0)" d="M76.23125 72.71111L143.59375 131.40407L210.95625 171.06148L278.31876 63.193333L345.68124 112.368515L413.04376 183.75185L480.40625 144.09445L547.76874 69.53852" fill-rule="nonzero"/><path stroke="#ed7d31" stroke-width="2.0" stroke-linecap="butt" clip-path="url(#id_0)" d="M76.23125 126.41857L143.59375 97.865234L210.95625 154.97191L278.31876 69.311905L345.68124 65.23286L413.04376 138.65572L480.40625 130.49762L547.76874 57.07476" fill-rule="nonzero"/><path stroke="#a5a5a5" stroke-width="2.0" stroke-linecap="butt" clip-path="url(#id_0)" d="M76.23125 274.3377L143.59375 294.37515L210.95625 266.32275L278.31876 294.37515L345.68124 274.3377L413.04376 266.32275L480.40625 266.32275L547.76874 282.3527" fill-rule="nonzero"/><path stroke="#ffc000" stroke-width="2.0" stroke-linecap="butt" clip-path="url(#id_0)" d="M76.23125 281.73615L143.59375 299.30743L210.95625 299.30743L278.31876 246.59358L345.68124 281.73615L413.04376 246.59358L480.40625 281.73615L547.76874 281.73615" fill-rule="nonzero"/><path fill="#000000" fill-opacity="0.0" clip-path="url(#id_0)" d="M79.23125 72.71111C79.23125 74.367966 77.88811 75.71111 76.23125 75.71111C74.574394 75.71111 73.23125 74.367966 73.23125 72.71111C73.23125 71.05426 74.574394 69.71111 76.23125 69.71111C77.88811 69.71111 79.23125 71.05426 79.23125 72.71111Z" fill-rule="nonzero"/><path fill="#000000" fill-opacity="0.0" clip-path="url(#id_0)" d="M146.59375 131.40407C146.59375 133.06093 145.25061 134.40407 143.59375 134.40407C141.93689 134.40407 140.59375 133.06093 140.59375 131.40407C140.59375 129.74722 141.93689 128.40407 143.59375 128.40407C145.25061 128.40407 146.59375 129.74722 146.59375 131.40407Z" fill-rule="nonzero"/><path fill="#000000" fill-opacity="0.0" clip-path="url(#id_0)" d="M213.95625 171.06148C213.95625 172.71834 212.6131 174.06148 210.95625 174.06148C209.2994 174.06148 207.95625 172.71834 207.95625 171.06148C207.95625 169.40463 209.2994 168.06148 210.95625 168.06148C212.6131 168.06148 213.95625 169.40463 213.95625 171.06148Z" fill-rule="nonzero"/><path fill="#000000" fill-opacity="0.0" clip-path="url(#id_0)" d="M281.31876 63.193333C281.31876 64.85019 279.97562 66.19334 278.31876 66.19334C276.6619 66.19334 275.31876 64.85019 275.31876 63.193333C275.31876 61.53648 276.6619 60.193333 278.31876 60.193333C279.97562 60.193333 281.31876 61.53648 281.31876 63.193333Z" fill-rule="nonzero"/><path fill="#000000" fill-opacity="0.0" clip-path="url(#id_0)" d="M348.68124 112.368515C348.68124 114.025375 347.3381 115.368515 345.68124 115.368515C344.02438 115.368515 342.68124 114.025375 342.68124 112.368515C342.68124 110.71166 344.02438 109.368515 345.68124 109.368515C347.3381 109.368515 348.68124 110.71166 348.68124 112.368515Z" fill-rule="nonzero"/><path fill="#000000" fill-opacity="0.0" clip-path="url(#id_0)" d="M416.04376 183.75185C416.04376 185.4087 414.7006 186.75185 413.04376 186.75185C411.3869 186.75185 410.04376 185.4087 410.04376 183.75185C410.04376 182.095 411.3869 180.75185 413.04376 180.75185C414.7006 180.75185 416.04376 182.095 416.04376 183.75185Z" fill-rule="nonzero"/><path fill="#000000" fill-opacity="0.0" clip-path="url(#id_0)" d="M483.40625 144.09445C483.40625 145.7513 482.0631 147.09445 480.40625 147.09445C478.7494 147.09445 477.40625 145.7513 477.40625 144.09445C477.40625 142.43759 478.7494 141.09445 480.40625 141.09445C482.0631 141.09445 483.40625 142.43759 483.40625 144.09445Z" fill-rule="nonzero"/><path fill="#000000" fill-opacity="0.0" clip-path="url(#id_0)" d="M550.76874 69.53852C550.76874 71.19537 549.4256 72.53852 547.76874 72.53852C546.1119 72.53852 544.76874 71.19537 544.76874 69.53852C544.76874 67.88166 546.1119 66.53852 547.76874 66.53852C549.4256 66.53852 550.76874 67.88166 550.76874 69.53852Z" fill-rule="nonzero"/><path fill="#000000" fill-opacity="0.0" clip-path="url(#id_0)" d="M79.23125 126.41857C79.23125 128.07542 77.88811 129.41856 76.23125 129.41856C74.574394 129.41856 73.23125 128.07542 73.23125 126.41857C73.23125 124.76172 74.574394 123.41857 76.23125 123.41857C77.88811 123.41857 79.23125 124.76172 79.23125 126.41857Z" fill-rule="nonzero"/><path fill="#000000" fill-opacity="0.0" clip-path="url(#id_0)" d="M146.59375 97.865234C146.59375 99.522095 145.25061 100.865234 143.59375 100.865234C141.93689 100.865234 140.59375 99.522095 140.59375 97.865234C140.59375 96.20838 141.93689 94.865234 143.59375 94.865234C145.25061 94.865234 146.59375 96.20838 146.59375 97.865234Z" fill-rule="nonzero"/><path fill="#000000" fill-opacity="0.0" clip-path="url(#id_0)" d="M213.95625 154.97191C213.95625 156.62875 212.6131 157.97191 210.95625 157.97191C209.2994 157.97191 207.95625 156.62875 207.95625 154.97191C207.95625 153.31505 209.2994 151.97191 210.95625 151.97191C212.6131 151.97191 213.95625 153.31505 213.95625 154.97191Z" fill-rule="nonzero"/><path fill="#000000" fill-opacity="0.0" clip-path="url(#id_0)" d="M281.31876 69.311905C281.31876 70.96876 279.97562 72.311905 278.31876 72.311905C276.6619 72.311905 275.31876 70.96876 275.31876 69.311905C275.31876 67.65505 276.6619 66.311905 278.31876 66.311905C279.97562 66.311905 281.31876 67.65505 281.31876 69.311905Z" fill-rule="nonzero"/><path fill="#000000" fill-opacity="0.0" clip-path="url(#id_0)" d="M348.68124 65.23286C348.68124 66.88971 347.3381 68.23286 345.68124 68.23286C344.02438 68.23286 342.68124 66.88971 342.68124 65.23286C342.68124 63.576004 344.02438 62.232857 345.68124 62.232857C347.3381 62.232857 348.68124 63.576004 348.68124 65.23286Z" fill-rule="nonzero"/><path fill="#000000" fill-opacity="0.0" clip-path="url(#id_0)" d="M416.04376 138.65572C416.04376 140.31256 414.7006 141.65572 413.04376 141.65572C411.3869 141.65572 410.04376 140.31256 410.04376 138.65572C410.04376 136.99886 411.3869 135.65572 413.04376 135.65572C414.7006 135.65572 416.04376 136.99886 416.04376 138.65572Z" fill-rule="nonzero"/><path fill="#000000" fill-opacity="0.0" clip-path="url(#id_0)" d="M483.40625 130.49762C483.40625 132.15448 482.0631 133.49762 480.40625 133.49762C478.7494 133.49762 477.40625 132.15448 477.40625 130.49762C477.40625 128.84076 478.7494 127.49762 480.40625 127.49762C482.0631 127.49762 483.40625 128.84076 483.40625 130.49762Z" fill-rule="nonzero"/><path fill="#000000" fill-opacity="0.0" clip-path="url(#id_0)" d="M550.76874 57.07476C550.76874 58.731617 549.4256 60.07476 547.76874 60.07476C546.1119 60.07476 544.76874 58.731617 544.76874 57.07476C544.76874 55.417908 546.1119 54.07476 547.76874 54.07476C549.4256 54.07476 550.76874 55.417908 550.76874 57.07476Z" fill-rule="nonzero"/><path fill="#000000" fill-opacity="0.0" clip-path="url(#id_0)" d="M79.23125 274.3377C79.23125 275.99457 77.88811 277.3377 76.23125 277.3377C74.574394 277.3377 73.23125 275.99457 73.23125 274.3377C73.23125 272.68088 74.574394 271.3377 76.23125 271.3377C77.88811 271.3377 79.23125 272.68088 79.23125 274.3377Z" fill-rule="nonzero"/><path fill="#000000" fill-opacity="0.0" clip-path="url(#id_0)" d="M146.59375 294.37515C146.59375 296.032 145.25061 297.37515 143.59375 297.37515C141.93689 297.37515 140.59375 296.032 140.59375 294.37515C140.59375 292.7183 141.93689 291.37515 143.59375 291.37515C145.25061 291.37515 146.59375 292.7183 146.59375 294.37515Z" fill-rule="nonzero"/><path fill="#000000" fill-opacity="0.0" clip-path="url(#id_0)" d="M213.95625 266.32275C213.95625 267.9796 212.6131 269.32275 210.95625 269.32275C209.2994 269.32275 207.95625 267.9796 207.95625 266.32275C207.95625 264.6659 209.2994 263.32275 210.95625 263.32275C212.6131 263.32275 213.95625 264.6659 213.95625 266.32275Z" fill-rule="nonzero"/><path fill="#000000" fill-opacity="0.0" clip-path="url(#id_0)" d="M281.31876 294.37515C281.31876 296.032 279.97562 297.37515 278.31876 297.37515C276.6619 297.37515 275.31876 296.032 275.31876 294.37515C275.31876 292.7183 276.6619 291.37515 278.31876 291.37515C279.97562 291.37515 281.31876 292.7183 281.31876 294.37515Z" fill-rule="nonzero"/><path fill="#000000" fill-opacity="0.0" clip-path="url(#id_0)" d="M348.68124 274.3377C348.68124 275.99457 347.3381 277.3377 345.68124 277.3377C344.02438 277.3377 342.68124 275.99457 342.68124 274.3377C342.68124 272.68088 344.02438 271.3377 345.68124 271.3377C347.3381 271.3377 348.68124 272.68088 348.68124 274.3377Z" fill-rule="nonzero"/><path fill="#000000" fill-opacity="0.0" clip-path="url(#id_0)" d="M416.04376 266.32275C416.04376 267.9796 414.7006 269.32275 413.04376 269.32275C411.3869 269.32275 410.04376 267.9796 410.04376 266.32275C410.04376 264.6659 411.3869 263.32275 413.04376 263.32275C414.7006 263.32275 416.04376 264.6659 416.04376 266.32275Z" fill-rule="nonzero"/><path fill="#000000" fill-opacity="0.0" clip-path="url(#id_0)" d="M483.40625 266.32275C483.40625 267.9796 482.0631 269.32275 480.40625 269.32275C478.7494 269.32275 477.40625 267.9796 477.40625 266.32275C477.40625 264.6659 478.7494 263.32275 480.40625 263.32275C482.0631 263.32275 483.40625 264.6659 483.40625 266.32275Z" fill-rule="nonzero"/><path fill="#000000" fill-opacity="0.0" clip-path="url(#id_0)" d="M550.76874 282.3527C550.76874 284.00955 549.4256 285.3527 547.76874 285.3527C546.1119 285.3527 544.76874 284.00955 544.76874 282.3527C544.76874 280.69583 546.1119 279.3527 547.76874 279.3527C549.4256 279.3527 550.76874 280.69583 550.76874 282.3527Z" fill-rule="nonzero"/><path fill="#000000" fill-opacity="0.0" clip-path="url(#id_0)" d="M79.23125 281.73615C79.23125 283.393 77.88811 284.73615 76.23125 284.73615C74.574394 284.73615 73.23125 283.393 73.23125 281.73615C73.23125 280.07928 74.574394 278.73615 76.23125 278.73615C77.88811 278.73615 79.23125 280.07928 79.23125 281.73615Z" fill-rule="nonzero"/><path fill="#000000" fill-opacity="0.0" clip-path="url(#id_0)" d="M146.59375 299.30743C146.59375 300.9643 145.25061 302.30743 143.59375 302.30743C141.93689 302.30743 140.59375 300.9643 140.59375 299.30743C140.59375 297.65057 141.93689 296.30743 143.59375 296.30743C145.25061 296.30743 146.59375 297.65057 146.59375 299.30743Z" fill-rule="nonzero"/><path fill="#000000" fill-opacity="0.0" clip-path="url(#id_0)" d="M213.95625 299.30743C213.95625 300.9643 212.6131 302.30743 210.95625 302.30743C209.2994 302.30743 207.95625 300.9643 207.95625 299.30743C207.95625 297.65057 209.2994 296.30743 210.95625 296.30743C212.6131 296.30743 213.95625 297.65057 213.95625 299.30743Z" fill-rule="nonzero"/><path fill="#000000" fill-opacity="0.0" clip-path="url(#id_0)" d="M281.31876 246.59358C281.31876 248.25044 279.97562 249.59358 278.31876 249.59358C276.6619 249.59358 275.31876 248.25044 275.31876 246.59358C275.31876 244.93674 276.6619 243.59358 278.31876 243.59358C279.97562 243.59358 281.31876 244.93674 281.31876 246.59358Z" fill-rule="nonzero"/><path fill="#000000" fill-opacity="0.0" clip-path="url(#id_0)" d="M348.68124 281.73615C348.68124 283.393 347.3381 284.73615 345.68124 284.73615C344.02438 284.73615 342.68124 283.393 342.68124 281.73615C342.68124 280.07928 344.02438 278.73615 345.68124 278.73615C347.3381 278.73615 348.68124 280.07928 348.68124 281.73615Z" fill-rule="nonzero"/><path fill="#000000" fill-opacity="0.0" clip-path="url(#id_0)" d="M416.04376 246.59358C416.04376 248.25044 414.7006 249.59358 413.04376 249.59358C411.3869 249.59358 410.04376 248.25044 410.04376 246.59358C410.04376 244.93674 411.3869 243.59358 413.04376 243.59358C414.7006 243.59358 416.04376 244.93674 416.04376 246.59358Z" fill-rule="nonzero"/><path fill="#000000" fill-opacity="0.0" clip-path="url(#id_0)" d="M483.40625 281.73615C483.40625 283.393 482.0631 284.73615 480.40625 284.73615C478.7494 284.73615 477.40625 283.393 477.40625 281.73615C477.40625 280.07928 478.7494 278.73615 480.40625 278.73615C482.0631 278.73615 483.40625 280.07928 483.40625 281.73615Z" fill-rule="nonzero"/><path fill="#000000" fill-opacity="0.0" clip-path="url(#id_0)" d="M550.76874 281.73615C550.76874 283.393 549.4256 284.73615 547.76874 284.73615C546.1119 284.73615 544.76874 283.393 544.76874 281.73615C544.76874 280.07928 546.1119 278.73615 547.76874 278.73615C549.4256 278.73615 550.76874 280.07928 550.76874 281.73615Z" fill-rule="nonzero"/><path fill="#000000" d="M36.221874 333.6375Q36.221874 334.5125 36.08125 335.23126Q35.940624 335.95 35.6125 336.48126Q35.3 336.9969 34.784374 337.27814Q34.26875 337.5594 33.51875 337.5594Q32.8 337.5594 32.3 337.3094Q31.815624 337.04376 31.51875 336.5594Q31.221874 336.0594 31.096874 335.34064Q30.971874 334.60626 30.971874 333.66876Q30.971874 332.8094 31.1125 332.09064Q31.253124 331.35626 31.565624 330.84064Q31.89375 330.325 32.409374 330.04376Q32.925 329.7625 33.675 329.7625Q34.39375 329.7625 34.878124 330.0125Q35.3625 330.2625 35.659374 330.7625Q35.971874 331.2625 36.096874 331.98126Q36.221874 332.7 36.221874 333.6375ZM35.190624 333.71564Q35.190624 333.1375 35.14375 332.7Q35.096874 332.2469 35.01875 331.90314Q34.940624 331.54376 34.815624 331.29376Q34.690624 331.04376 34.51875 330.8875Q34.346874 330.73126 34.1125 330.65314Q33.89375 330.575 33.6125 330.575Q33.1125 330.575 32.8 330.8094Q32.4875 331.04376 32.3 331.46564Q32.128124 331.8719 32.065624 332.41876Q32.003124 332.96564 32.003124 333.60626Q32.003124 334.45 32.08125 335.04376Q32.175 335.6375 32.3625 336.0125Q32.565624 336.3875 32.8625 336.5594Q33.159374 336.73126 33.58125 336.73126Q33.909374 336.73126 34.14375 336.6375Q34.39375 336.52814 34.565624 336.34064Q34.753124 336.1375 34.8625 335.85626Q34.9875 335.575 35.05 335.2469Q35.128124 334.91876 35.159374 334.52814Q35.190624 334.1375 35.190624 333.71564Z" fill-rule="nonzero"/><path fill="#000000" d="M35.9875 279.93707Q35.9875 280.06207 35.95625 280.1402Q35.940624 280.2027 35.909374 280.24957Q35.89375 280.29645 35.846874 280.3277Q35.815624 280.34332 35.76875 280.34332L31.815624 280.34332Q31.76875 280.34332 31.7375 280.3277Q31.70625 280.29645 31.659374 280.24957Q31.628124 280.2027 31.6125 280.1402Q31.596874 280.06207 31.596874 279.93707Q31.596874 279.84332 31.6125 279.7652Q31.628124 279.68707 31.659374 279.6402Q31.690624 279.59332 31.721874 279.56207Q31.76875 279.53082 31.815624 279.53082L33.39375 279.53082L33.39375 273.7652L31.925 274.6402Q31.815624 274.7027 31.7375 274.71832Q31.675 274.71832 31.628124 274.68707Q31.596874 274.6402 31.58125 274.56207Q31.565624 274.46832 31.565624 274.34332Q31.565624 274.23395 31.565624 274.17145Q31.58125 274.09332 31.596874 274.04645Q31.628124 273.99957 31.659374 273.96832Q31.690624 273.93707 31.7375 273.8902L33.4875 272.78082Q33.503124 272.7652 33.534374 272.74957Q33.58125 272.73395 33.628124 272.73395Q33.690624 272.71832 33.753124 272.71832Q33.83125 272.7027 33.925 272.7027Q34.065624 272.7027 34.159374 272.71832Q34.253124 272.73395 34.3 272.74957Q34.3625 272.7652 34.378124 272.81207Q34.39375 272.84332 34.39375 272.87457L34.39375 279.53082L35.76875 279.53082Q35.815624 279.53082 35.846874 279.56207Q35.89375 279.59332 35.925 279.6402Q35.95625 279.68707 35.971874 279.7652Q35.9875 279.84332 35.9875 279.93707Z" fill-rule="nonzero"/><path fill="#000000" d="M35.971874 222.79916Q35.971874 222.90854 35.95625 222.98666Q35.940624 223.06479 35.909374 223.12729Q35.878124 223.18979 35.83125 223.22104Q35.8 223.23666 35.7375 223.23666L31.55 223.23666Q31.471874 223.23666 31.409374 223.22104Q31.346874 223.18979 31.3 223.14291Q31.253124 223.09604 31.2375 223.01791Q31.221874 222.92416 31.221874 222.79916Q31.221874 222.67416 31.221874 222.59604Q31.2375 222.50229 31.26875 222.43979Q31.3 222.36166 31.33125 222.29916Q31.378124 222.23666 31.45625 222.15854L32.925 220.59604Q33.440624 220.06479 33.7375 219.64291Q34.05 219.20541 34.20625 218.86166Q34.378124 218.50229 34.425 218.22104Q34.4875 217.92416 34.4875 217.67416Q34.4875 217.42416 34.409374 217.20541Q34.33125 216.97104 34.175 216.79916Q34.01875 216.62729 33.784374 216.53354Q33.55 216.43979 33.2375 216.43979Q32.878124 216.43979 32.596874 216.53354Q32.315624 216.62729 32.096874 216.75229Q31.89375 216.86166 31.7375 216.97104Q31.596874 217.06479 31.534374 217.06479Q31.4875 217.06479 31.45625 217.04916Q31.425 217.01791 31.39375 216.97104Q31.378124 216.90854 31.3625 216.83041Q31.3625 216.73666 31.3625 216.61166Q31.3625 216.53354 31.3625 216.47104Q31.378124 216.39291 31.378124 216.34604Q31.39375 216.29916 31.409374 216.26791Q31.440624 216.22104 31.503124 216.15854Q31.58125 216.09604 31.753124 216.00229Q31.940624 215.89291 32.190624 215.79916Q32.45625 215.68979 32.76875 215.62729Q33.08125 215.54916 33.425 215.54916Q33.971874 215.54916 34.378124 215.70541Q34.8 215.84604 35.065624 216.12729Q35.346874 216.39291 35.471874 216.75229Q35.6125 217.11166 35.6125 217.51791Q35.6125 217.87729 35.55 218.23666Q35.4875 218.59604 35.284374 219.01791Q35.08125 219.43979 34.675 219.95541Q34.284374 220.45541 33.64375 221.12729L32.440624 222.37729L35.7375 222.37729Q35.784374 222.37729 35.83125 222.40854Q35.878124 222.43979 35.909374 222.48666Q35.940624 222.53354 35.95625 222.61166Q35.971874 222.68979 35.971874 222.79916Z" fill-rule="nonzero"/><path fill="#000000" d="M35.909374 163.95813Q35.909374 164.48938 35.721874 164.91125Q35.55 165.3175 35.20625 165.61438Q34.8625 165.91125 34.3625 166.08313Q33.8625 166.23938 33.2375 166.23938Q32.8625 166.23938 32.51875 166.17688Q32.190624 166.11438 31.925 166.03625Q31.675 165.9425 31.503124 165.86438Q31.346874 165.77063 31.3 165.72375Q31.253124 165.67688 31.221874 165.64563Q31.20625 165.59875 31.190624 165.55188Q31.175 165.48938 31.159374 165.41125Q31.159374 165.3175 31.159374 165.1925Q31.159374 164.97375 31.190624 164.89563Q31.2375 164.8175 31.315624 164.8175Q31.3625 164.8175 31.51875 164.91125Q31.675 165.005 31.909374 165.11438Q32.159374 165.22375 32.4875 165.3175Q32.815624 165.41125 33.20625 165.41125Q33.596874 165.41125 33.89375 165.3175Q34.190624 165.20813 34.378124 165.03625Q34.58125 164.84875 34.675 164.59875Q34.784374 164.34875 34.784374 164.05188Q34.784374 163.73938 34.659374 163.48938Q34.534374 163.22375 34.284374 163.03625Q34.05 162.84875 33.690624 162.755Q33.33125 162.64563 32.878124 162.64563L32.159374 162.64563Q32.1125 162.64563 32.065624 162.63Q32.034374 162.59875 31.9875 162.55188Q31.95625 162.505 31.940624 162.42688Q31.925 162.34875 31.925 162.23938Q31.925 162.11438 31.940624 162.05188Q31.95625 161.97375 31.9875 161.92688Q32.01875 161.88 32.05 161.86438Q32.096874 161.84875 32.159374 161.84875L32.815624 161.84875Q33.20625 161.84875 33.503124 161.755Q33.815624 161.64563 34.034374 161.45813Q34.253124 161.27063 34.3625 161.02063Q34.471874 160.755 34.471874 160.42688Q34.471874 160.1925 34.39375 159.98938Q34.33125 159.77063 34.175 159.61438Q34.01875 159.4425 33.784374 159.36438Q33.55 159.27063 33.2375 159.27063Q32.89375 159.27063 32.6125 159.38Q32.33125 159.47375 32.096874 159.59875Q31.878124 159.70813 31.721874 159.8175Q31.58125 159.91125 31.534374 159.91125Q31.4875 159.91125 31.45625 159.89563Q31.425 159.88 31.39375 159.84875Q31.378124 159.80188 31.3625 159.72375Q31.3625 159.63 31.3625 159.505Q31.3625 159.42688 31.3625 159.36438Q31.378124 159.28625 31.39375 159.23938Q31.409374 159.1925 31.425 159.14563Q31.45625 159.09875 31.503124 159.05188Q31.565624 158.98938 31.7375 158.89563Q31.909374 158.78625 32.159374 158.6925Q32.409374 158.58313 32.7375 158.52063Q33.065624 158.4425 33.440624 158.4425Q33.95625 158.4425 34.346874 158.58313Q34.753124 158.70813 35.01875 158.95813Q35.284374 159.1925 35.409374 159.53625Q35.55 159.88 35.55 160.30188Q35.55 160.66125 35.45625 160.97375Q35.3625 161.27063 35.175 161.505Q35.003124 161.73938 34.7375 161.91125Q34.471874 162.08313 34.128124 162.14563L34.128124 162.16125Q34.51875 162.1925 34.846874 162.34875Q35.175 162.505 35.409374 162.73938Q35.64375 162.97375 35.76875 163.28625Q35.909374 163.59875 35.909374 163.95813Z" fill-rule="nonzero"/><path fill="#000000" d="M36.284374 106.86708Q36.284374 107.05458 36.221874 107.17958Q36.175 107.288956 36.065624 107.288956L35.20625 107.288956L35.20625 108.882706Q35.20625 108.92958 35.175 108.96083Q35.159374 108.99208 35.096874 109.02333Q35.05 109.038956 34.95625 109.038956Q34.8625 109.05458 34.70625 109.05458Q34.565624 109.05458 34.471874 109.038956Q34.378124 109.038956 34.315624 109.02333Q34.26875 108.99208 34.253124 108.96083Q34.2375 108.92958 34.2375 108.882706L34.2375 107.288956L31.096874 107.288956Q31.034374 107.288956 30.9875 107.27333Q30.940624 107.24208 30.89375 107.195206Q30.8625 107.14833 30.846874 107.070206Q30.83125 106.976456 30.83125 106.83583Q30.83125 106.726456 30.83125 106.64833Q30.846874 106.55458 30.8625 106.476456Q30.878124 106.39833 30.909374 106.33583Q30.940624 106.27333 30.971874 106.195206L33.70625 101.58583Q33.7375 101.538956 33.784374 101.507706Q33.846874 101.476456 33.925 101.46083Q34.01875 101.42958 34.14375 101.413956Q34.284374 101.39833 34.45625 101.39833Q34.659374 101.39833 34.8 101.413956Q34.940624 101.42958 35.01875 101.46083Q35.1125 101.476456 35.159374 101.52333Q35.20625 101.55458 35.20625 101.61708L35.20625 106.445206L36.065624 106.445206Q36.159374 106.445206 36.221874 106.55458Q36.284374 106.64833 36.284374 106.86708ZM34.2375 102.288956L34.221874 102.288956L31.753124 106.445206L34.2375 106.445206L34.2375 102.288956Z" fill-rule="nonzero"/><path fill="#000000" d="M35.925 49.479168Q35.925 50.088543 35.721874 50.572918Q35.51875 51.041668 35.14375 51.369793Q34.76875 51.682293 34.253124 51.854168Q33.7375 52.026043 33.096874 52.026043Q32.753124 52.026043 32.425 51.979168Q32.1125 51.932293 31.8625 51.854168Q31.628124 51.776043 31.45625 51.713543Q31.3 51.635418 31.253124 51.604168Q31.221874 51.557293 31.20625 51.526043Q31.190624 51.494793 31.175 51.447918Q31.159374 51.385418 31.14375 51.307293Q31.14375 51.229168 31.14375 51.135418Q31.14375 51.026043 31.14375 50.947918Q31.159374 50.869793 31.175 50.822918Q31.20625 50.776043 31.2375 50.760418Q31.26875 50.729168 31.315624 50.729168Q31.378124 50.729168 31.4875 50.807293Q31.6125 50.869793 31.815624 50.963543Q32.034374 51.041668 32.33125 51.119793Q32.64375 51.197918 33.065624 51.197918Q33.45625 51.197918 33.784374 51.104168Q34.1125 51.010418 34.346874 50.807293Q34.596874 50.604168 34.721874 50.307293Q34.8625 50.010418 34.8625 49.572918Q34.8625 49.213543 34.7375 48.932293Q34.628124 48.651043 34.39375 48.463543Q34.159374 48.276043 33.8 48.197918Q33.440624 48.104168 32.925 48.104168Q32.565624 48.104168 32.3 48.135418Q32.05 48.166668 31.83125 48.166668Q31.675 48.166668 31.596874 48.104168Q31.534374 48.026043 31.534374 47.807293L31.534374 44.713543Q31.534374 44.526043 31.6125 44.432293Q31.70625 44.338543 31.878124 44.338543L35.2375 44.338543Q35.284374 44.338543 35.33125 44.369793Q35.378124 44.385418 35.39375 44.447918Q35.425 44.494793 35.440624 44.572918Q35.45625 44.651043 35.45625 44.760418Q35.45625 44.979168 35.39375 45.104168Q35.346874 45.213543 35.2375 45.213543L32.409374 45.213543L32.409374 47.338543Q32.6125 47.307293 32.815624 47.307293Q33.034374 47.291668 33.315624 47.291668Q33.971874 47.291668 34.45625 47.447918Q34.940624 47.604168 35.26875 47.901043Q35.596874 48.182293 35.753124 48.588543Q35.925 48.979168 35.925 49.479168Z" fill-rule="nonzero"/><path fill="#000000" d="M79.41875 349.09064Q79.46562 349.21564 79.46562 349.29376Q79.46562 349.3719 79.41875 349.41876Q79.37187 349.46564 79.2625 349.46564Q79.15312 349.48126 78.98125 349.48126Q78.79375 349.48126 78.68437 349.46564Q78.575 349.46564 78.5125 349.45Q78.46562 349.41876 78.43437 349.3875Q78.41875 349.35626 78.3875 349.3094L77.74687 347.45L74.59062 347.45L73.96562 349.27814Q73.95 349.325 73.91875 349.3719Q73.8875 349.40314 73.825 349.4344Q73.77812 349.46564 73.66875 349.46564Q73.575 349.48126 73.41875 349.48126Q73.24687 349.48126 73.1375 349.46564Q73.02812 349.45 72.98125 349.41876Q72.93437 349.3719 72.93437 349.29376Q72.95 349.21564 72.99687 349.09064L75.52812 342.04376Q75.55937 341.98126 75.59062 341.95Q75.6375 341.90314 75.7 341.8875Q75.77812 341.85626 75.8875 341.84064Q76.0125 341.825 76.18437 341.825Q76.37187 341.825 76.49687 341.84064Q76.62187 341.85626 76.68437 341.8875Q76.7625 341.90314 76.80937 341.95Q76.85625 341.98126 76.87187 342.04376L79.41875 349.09064ZM76.15312 342.8719L76.15312 342.8719L74.84062 346.65314L77.48125 346.65314L76.15312 342.8719Z" fill-rule="nonzero"/><path fill="#000000" d="M146.09375 347.27814Q146.09375 347.6375 146.0 347.9344Q145.92188 348.23126 145.75 348.48126Q145.59375 348.71564 145.35938 348.90314Q145.125 349.075 144.82812 349.2Q144.54688 349.325 144.21875 349.3875Q143.89062 349.45 143.45312 349.45L141.48438 349.45Q141.34375 349.45 141.21875 349.35626Q141.10938 349.2625 141.10938 349.04376L141.10938 342.27814Q141.10938 342.04376 141.21875 341.96564Q141.34375 341.8719 141.48438 341.8719L143.20312 341.8719Q143.875 341.8719 144.3125 341.9969Q144.75 342.1219 145.03125 342.3719Q145.32812 342.6219 145.46875 342.98126Q145.625 343.325 145.625 343.77814Q145.625 344.0594 145.54688 344.3094Q145.48438 344.54376 145.35938 344.7625Q145.23438 344.96564 145.04688 345.1375Q144.85938 345.29376 144.60938 345.3875Q144.92188 345.45 145.1875 345.60626Q145.46875 345.7625 145.65625 346.0125Q145.85938 346.2469 145.96875 346.575Q146.09375 346.8875 146.09375 347.27814ZM144.57812 343.8875Q144.57812 343.60626 144.5 343.3875Q144.4375 343.16876 144.26562 343.0125Q144.10938 342.85626 143.84375 342.77814Q143.57812 342.6844 143.14062 342.6844L142.09375 342.6844L142.09375 345.1375L143.25 345.1375Q143.64062 345.1375 143.875 345.04376Q144.125 344.9344 144.28125 344.7625Q144.4375 344.59064 144.5 344.35626Q144.57812 344.1219 144.57812 343.8875ZM145.04688 347.34064Q145.04688 346.9969 144.9375 346.7469Q144.82812 346.48126 144.60938 346.3094Q144.40625 346.1219 144.09375 346.04376Q143.78125 345.95 143.3125 345.95L142.09375 345.95L142.09375 348.6219L143.5625 348.6219Q143.90625 348.6219 144.15625 348.54376Q144.42188 348.45 144.60938 348.29376Q144.8125 348.1375 144.92188 347.90314Q145.04688 347.65314 145.04688 347.34064Z" fill-rule="nonzero"/><path fill="#000000" d="M214.03438 348.3719Q214.03438 348.46564 214.01875 348.54376Q214.01875 348.60626 214.00313 348.66876Q213.9875 348.71564 213.95625 348.7625Q213.94063 348.79376 213.87813 348.85626Q213.81563 348.91876 213.62813 349.04376Q213.44063 349.15314 213.15938 349.27814Q212.89375 349.3875 212.53438 349.46564Q212.175 349.54376 211.7375 349.54376Q211.00313 349.54376 210.40938 349.29376Q209.81563 349.04376 209.39375 348.575Q208.97188 348.09064 208.7375 347.3875Q208.51875 346.6844 208.51875 345.7625Q208.51875 344.8094 208.76875 344.075Q209.01875 343.34064 209.45625 342.825Q209.89375 342.3094 210.50313 342.04376Q211.1125 341.77814 211.8625 341.77814Q212.19063 341.77814 212.50313 341.84064Q212.81563 341.90314 213.06563 341.9969Q213.33125 342.09064 213.53438 342.21564Q213.75313 342.325 213.83125 342.40314Q213.90938 342.48126 213.925 342.52814Q213.95625 342.575 213.97188 342.6375Q213.9875 342.6844 213.9875 342.7625Q214.00313 342.84064 214.00313 342.9344Q214.00313 343.0594 213.9875 343.1375Q213.97188 343.21564 213.94063 343.27814Q213.925 343.325 213.89375 343.35626Q213.8625 343.3875 213.81563 343.3875Q213.7375 343.3875 213.58125 343.27814Q213.44063 343.15314 213.20625 343.02814Q212.97188 342.8875 212.64375 342.77814Q212.31563 342.65314 211.84688 342.65314Q211.34688 342.65314 210.925 342.85626Q210.51875 343.0594 210.22188 343.45Q209.94063 343.84064 209.76875 344.40314Q209.6125 344.96564 209.6125 345.7Q209.6125 346.41876 209.76875 346.98126Q209.925 347.52814 210.20625 347.90314Q210.50313 348.27814 210.925 348.46564Q211.34688 348.65314 211.87813 348.65314Q212.33125 348.65314 212.65938 348.54376Q213.00313 348.4344 213.2375 348.29376Q213.4875 348.15314 213.62813 348.04376Q213.78438 347.9344 213.87813 347.9344Q213.90938 347.9344 213.94063 347.95Q213.97188 347.96564 213.9875 348.0125Q214.00313 348.0594 214.01875 348.15314Q214.03438 348.2469 214.03438 348.3719Z" fill-rule="nonzero"/><path fill="#000000" d="M281.1625 345.54376Q281.1625 346.52814 280.89688 347.2625Q280.64688 347.9969 280.1625 348.48126Q279.69376 348.96564 278.99063 349.21564Q278.2875 349.45 277.30313 349.45L275.70938 349.45Q275.56876 349.45 275.44376 349.35626Q275.33438 349.2625 275.33438 349.04376L275.33438 342.27814Q275.33438 342.04376 275.44376 341.96564Q275.56876 341.8719 275.70938 341.8719L277.4125 341.8719Q278.39688 341.8719 279.06876 342.1219Q279.75626 342.3719 280.20938 342.85626Q280.67813 343.325 280.9125 344.0125Q281.1625 344.6844 281.1625 345.54376ZM280.1 345.59064Q280.1 344.96564 279.94376 344.45Q279.7875 343.91876 279.45938 343.52814Q279.14688 343.1375 278.64688 342.91876Q278.14688 342.7 277.36563 342.7L276.33438 342.7L276.33438 348.60626L277.36563 348.60626Q278.1 348.60626 278.6 348.4344Q279.1 348.2469 279.42813 347.8719Q279.75626 347.4969 279.92813 346.9344Q280.1 346.35626 280.1 345.59064Z" fill-rule="nonzero"/><path fill="#000000" d="M347.91562 349.02814Q347.91562 349.1375 347.9 349.21564Q347.88437 349.29376 347.85312 349.35626Q347.82187 349.40314 347.775 349.4344Q347.74374 349.45 347.69687 349.45L344.07187 349.45Q343.93124 349.45 343.80624 349.35626Q343.69687 349.2625 343.69687 349.04376L343.69687 342.27814Q343.69687 342.04376 343.80624 341.96564Q343.93124 341.8719 344.07187 341.8719L347.66562 341.8719Q347.7125 341.8719 347.74374 341.90314Q347.79062 341.91876 347.80624 341.96564Q347.8375 342.0125 347.85312 342.10626Q347.86874 342.1844 347.86874 342.29376Q347.86874 342.40314 347.85312 342.48126Q347.8375 342.5594 347.80624 342.60626Q347.79062 342.65314 347.74374 342.6844Q347.7125 342.7 347.66562 342.7L344.69687 342.7L344.69687 345.09064L347.24374 345.09064Q347.29062 345.09064 347.32187 345.1219Q347.36874 345.1375 347.38437 345.1844Q347.41562 345.23126 347.43124 345.3094Q347.44687 345.3875 347.44687 345.5125Q347.44687 345.60626 347.43124 345.6844Q347.41562 345.7625 347.38437 345.8094Q347.36874 345.85626 347.32187 345.8875Q347.29062 345.90314 347.24374 345.90314L344.69687 345.90314L344.69687 348.60626L347.69687 348.60626Q347.74374 348.60626 347.775 348.6375Q347.82187 348.65314 347.85312 348.71564Q347.88437 348.7625 347.9 348.84064Q347.91562 348.91876 347.91562 349.02814Z" fill-rule="nonzero"/><path fill="#000000" d="M415.04376 342.29376Q415.04376 342.41876 415.02814 342.4969Q415.0125 342.575 414.98126 342.6219Q414.95 342.66876 414.90314 342.7Q414.8719 342.71564 414.84064 342.71564L412.0594 342.71564L412.0594 345.29376L414.6844 345.29376Q414.73126 345.29376 414.7625 345.325Q414.8094 345.34064 414.825 345.3875Q414.85626 345.4344 414.8719 345.5125Q414.8875 345.59064 414.8875 345.71564Q414.8875 345.825 414.8719 345.90314Q414.85626 345.98126 414.825 346.04376Q414.8094 346.09064 414.7625 346.1219Q414.73126 346.1375 414.6844 346.1375L412.0594 346.1375L412.0594 349.29376Q412.0594 349.34064 412.02814 349.3875Q412.0125 349.41876 411.95 349.4344Q411.90314 349.45 411.8094 349.46564Q411.71564 349.48126 411.5594 349.48126Q411.41876 349.48126 411.3094 349.46564Q411.21564 349.45 411.15314 349.4344Q411.10626 349.41876 411.075 349.3875Q411.0594 349.34064 411.0594 349.29376L411.0594 342.27814Q411.0594 342.04376 411.16876 341.96564Q411.29376 341.8719 411.4344 341.8719L414.84064 341.8719Q414.8719 341.8719 414.90314 341.90314Q414.95 341.91876 414.98126 341.96564Q415.0125 342.0125 415.02814 342.10626Q415.04376 342.1844 415.04376 342.29376Z" fill-rule="nonzero"/><path fill="#000000" d="M483.10938 342.90314Q483.10938 343.0125 483.09375 343.10626Q483.09375 343.1844 483.0625 343.2469Q483.04688 343.29376 483.0 343.325Q482.96875 343.34064 482.92188 343.34064Q482.85938 343.34064 482.6875 343.23126Q482.53125 343.1219 482.25 342.98126Q481.98438 342.84064 481.59375 342.73126Q481.21875 342.6219 480.6875 342.6219Q480.0625 342.6219 479.5625 342.85626Q479.0625 343.075 478.71875 343.48126Q478.375 343.8875 478.1875 344.45Q478.0 344.9969 478.0 345.65314Q478.0 346.3719 478.20312 346.9344Q478.40625 347.4969 478.76562 347.8875Q479.125 348.27814 479.60938 348.48126Q480.10938 348.66876 480.70312 348.66876Q481.04688 348.66876 481.40625 348.59064Q481.78125 348.5125 482.07812 348.34064L482.07812 346.1219L480.32812 346.1219Q480.23438 346.1219 480.17188 346.02814Q480.125 345.9344 480.125 345.71564Q480.125 345.60626 480.14062 345.52814Q480.15625 345.45 480.17188 345.40314Q480.20312 345.34064 480.23438 345.325Q480.28125 345.29376 480.32812 345.29376L482.73438 345.29376Q482.79688 345.29376 482.85938 345.325Q482.92188 345.34064 482.96875 345.3875Q483.03125 345.4344 483.0625 345.52814Q483.09375 345.60626 483.09375 345.71564L483.09375 348.60626Q483.09375 348.7469 483.03125 348.8719Q482.98438 348.98126 482.8125 349.0594Q482.64062 349.1375 482.375 349.2469Q482.10938 349.34064 481.8125 349.41876Q481.53125 349.48126 481.23438 349.5125Q480.95312 349.5594 480.65625 349.5594Q479.78125 349.5594 479.09375 349.29376Q478.40625 349.0125 477.92188 348.5125Q477.4375 347.9969 477.1875 347.29376Q476.9375 346.59064 476.9375 345.73126Q476.9375 344.825 477.20312 344.09064Q477.48438 343.35626 477.96875 342.84064Q478.46875 342.325 479.15625 342.04376Q479.85938 341.7625 480.70312 341.7625Q481.14062 341.7625 481.51562 341.84064Q481.90625 341.91876 482.20312 342.02814Q482.5 342.1219 482.70312 342.2469Q482.90625 342.35626 482.96875 342.4344Q483.04688 342.5125 483.07812 342.6219Q483.10938 342.71564 483.10938 342.90314Z" fill-rule="nonzero"/><path fill="#000000" d="M550.2375 349.29376Q550.2375 349.34064 550.20624 349.3875Q550.1906 349.41876 550.1281 349.4344Q550.08124 349.45 549.97186 349.46564Q549.8781 349.48126 549.7375 349.48126Q549.58124 349.48126 549.4875 349.46564Q549.39374 349.45 549.33124 349.4344Q549.28436 349.41876 549.2531 349.3875Q549.2375 349.34064 549.2375 349.29376L549.2375 345.9344L545.78436 345.9344L545.78436 349.29376Q545.78436 349.34064 545.7531 349.3875Q545.7375 349.41876 545.675 349.4344Q545.6281 349.45 545.51874 349.46564Q545.425 349.48126 545.28436 349.48126Q545.14374 349.48126 545.03436 349.46564Q544.9406 349.45 544.8781 349.4344Q544.83124 349.41876 544.8 349.3875Q544.78436 349.34064 544.78436 349.29376L544.78436 342.0125Q544.78436 341.96564 544.8 341.9344Q544.83124 341.90314 544.8781 341.8875Q544.9406 341.85626 545.03436 341.84064Q545.14374 341.825 545.28436 341.825Q545.425 341.825 545.51874 341.84064Q545.6281 341.85626 545.675 341.8875Q545.7375 341.90314 545.7531 341.9344Q545.78436 341.96564 545.78436 342.0125L545.78436 345.0594L549.2375 345.0594L549.2375 342.0125Q549.2375 341.96564 549.2531 341.9344Q549.28436 341.90314 549.33124 341.8875Q549.39374 341.85626 549.4875 341.84064Q549.58124 341.825 549.7375 341.825Q549.8781 341.825 549.97186 341.84064Q550.08124 341.85626 550.1281 341.8875Q550.1906 341.90314 550.20624 341.9344Q550.2375 341.96564 550.2375 342.0125L550.2375 349.29376Z" fill-rule="nonzero"/><path stroke="#5b9bd5" stroke-width="4.0" stroke-linecap="butt" d="M162.0 24.55L174.0 24.55" fill-rule="nonzero"/><path fill="#1a1a1a" d="M191.25 27.39375Q191.25 27.440624 191.21875 27.4875Q191.20312 27.51875 191.14062 27.534374Q191.09375 27.55 191.0 27.565624Q190.90625 27.58125 190.76562 27.58125Q190.625 27.58125 190.53125 27.565624Q190.4375 27.55 190.375 27.534374Q190.32812 27.51875 190.29688 27.4875Q190.28125 27.440624 190.28125 27.39375L190.28125 20.8L190.26562 20.8L187.5625 27.425Q187.54688 27.471874 187.51562 27.503124Q187.48438 27.51875 187.42188 27.55Q187.35938 27.565624 187.26562 27.565624Q187.1875 27.58125 187.0625 27.58125Q186.95312 27.58125 186.85938 27.565624Q186.76562 27.565624 186.70312 27.55Q186.65625 27.51875 186.625 27.4875Q186.59375 27.45625 186.57812 27.425L184.0 20.8L183.98438 20.8L183.98438 27.39375Q183.98438 27.440624 183.95312 27.4875Q183.9375 27.51875 183.875 27.534374Q183.82812 27.55 183.73438 27.565624Q183.64062 27.58125 183.48438 27.58125Q183.34375 27.58125 183.25 27.565624Q183.15625 27.55 183.09375 27.534374Q183.04688 27.51875 183.03125 27.4875Q183.01562 27.440624 183.01562 27.39375L183.01562 20.425Q183.01562 20.175 183.14062 20.08125Q183.26562 19.971874 183.42188 19.971874L184.03125 19.971874Q184.21875 19.971874 184.35938 20.003124Q184.5 20.034374 184.60938 20.1125Q184.71875 20.190624 184.78125 20.315624Q184.85938 20.425 184.90625 20.58125L187.10938 26.065624L187.14062 26.065624L189.42188 20.596874Q189.48438 20.425 189.5625 20.3Q189.64062 20.175 189.71875 20.1125Q189.8125 20.034374 189.92188 20.003124Q190.04688 19.971874 190.1875 19.971874L190.82812 19.971874Q190.90625 19.971874 190.98438 20.003124Q191.07812 20.01875 191.125 20.08125Q191.1875 20.128124 191.21875 20.221874Q191.25 20.3 191.25 20.425L191.25 27.39375ZM196.875 27.409374Q196.875 27.471874 196.82812 27.51875Q196.78125 27.55 196.6875 27.565624Q196.60938 27.58125 196.45312 27.58125Q196.29688 27.58125 196.20312 27.565624Q196.125 27.55 196.07812 27.51875Q196.03125 27.471874 196.03125 27.409374L196.03125 26.878124Q195.6875 27.253124 195.26562 27.45625Q194.84375 27.659374 194.375 27.659374Q193.95312 27.659374 193.60938 27.55Q193.28125 27.440624 193.03125 27.2375Q192.79688 27.034374 192.67188 26.7375Q192.54688 26.440624 192.54688 26.05Q192.54688 25.6125 192.71875 25.284374Q192.90625 24.95625 193.23438 24.7375Q193.57812 24.51875 194.0625 24.409374Q194.5625 24.3 195.1875 24.3L195.90625 24.3L195.90625 23.89375Q195.90625 23.58125 195.84375 23.346874Q195.78125 23.1125 195.64062 22.971874Q195.5 22.815624 195.26562 22.7375Q195.03125 22.64375 194.70312 22.64375Q194.34375 22.64375 194.0625 22.7375Q193.78125 22.815624 193.5625 22.925Q193.34375 23.01875 193.20312 23.1125Q193.0625 23.190624 192.98438 23.190624Q192.9375 23.190624 192.90625 23.175Q192.875 23.14375 192.84375 23.096874Q192.82812 23.05 192.8125 22.9875Q192.79688 22.909374 192.79688 22.815624Q192.79688 22.675 192.8125 22.596874Q192.84375 22.503124 192.92188 22.425Q193.0 22.346874 193.1875 22.253124Q193.39062 22.14375 193.64062 22.065624Q193.89062 21.971874 194.1875 21.925Q194.48438 21.8625 194.79688 21.8625Q195.35938 21.8625 195.75 22.003124Q196.15625 22.128124 196.39062 22.378124Q196.64062 22.628124 196.75 23.003124Q196.875 23.3625 196.875 23.846874L196.875 27.409374ZM195.90625 25.003124L195.07812 25.003124Q194.6875 25.003124 194.39062 25.065624Q194.09375 25.128124 193.90625 25.26875Q193.71875 25.39375 193.625 25.58125Q193.53125 25.76875 193.53125 26.003124Q193.53125 26.425 193.78125 26.675Q194.04688 26.909374 194.51562 26.909374Q194.90625 26.909374 195.21875 26.721874Q195.54688 26.51875 195.90625 26.1125L195.90625 25.003124ZM200.85938 27.409374Q200.85938 27.45625 200.82812 27.4875Q200.8125 27.51875 200.76562 27.55Q200.71875 27.565624 200.625 27.565624Q200.53125 27.58125 200.375 27.58125Q200.23438 27.58125 200.14062 27.565624Q200.04688 27.565624 199.98438 27.55Q199.9375 27.51875 199.90625 27.4875Q199.89062 27.45625 199.89062 27.409374L199.89062 19.58125Q199.89062 19.534374 199.90625 19.503124Q199.9375 19.45625 199.98438 19.440624Q200.04688 19.409374 200.14062 19.409374Q200.23438 19.39375 200.375 19.39375Q200.53125 19.39375 200.625 19.409374Q200.71875 19.409374 200.76562 19.440624Q200.8125 19.45625 200.82812 19.503124Q200.85938 19.534374 200.85938 19.58125L200.85938 27.409374ZM208.39062 24.534374Q208.39062 24.76875 208.28125 24.8625Q208.17188 24.95625 208.01562 24.95625L204.5625 24.95625Q204.5625 25.39375 204.64062 25.753124Q204.73438 26.096874 204.9375 26.3625Q205.15625 26.6125 205.48438 26.753124Q205.8125 26.878124 206.28125 26.878124Q206.65625 26.878124 206.95312 26.815624Q207.25 26.753124 207.45312 26.675Q207.67188 26.596874 207.8125 26.534374Q207.95312 26.471874 208.01562 26.471874Q208.0625 26.471874 208.09375 26.503124Q208.125 26.51875 208.14062 26.565624Q208.15625 26.596874 208.15625 26.675Q208.17188 26.753124 208.17188 26.846874Q208.17188 26.925 208.15625 26.9875Q208.15625 27.034374 208.14062 27.08125Q208.14062 27.128124 208.125 27.159374Q208.10938 27.190624 208.07812 27.2375Q208.04688 27.26875 207.875 27.346874Q207.71875 27.409374 207.46875 27.4875Q207.21875 27.55 206.89062 27.596874Q206.5625 27.659374 206.1875 27.659374Q205.53125 27.659374 205.03125 27.4875Q204.54688 27.3 204.21875 26.940624Q203.89062 26.58125 203.71875 26.05Q203.54688 25.503124 203.54688 24.784374Q203.54688 24.1125 203.71875 23.565624Q203.89062 23.01875 204.21875 22.64375Q204.5625 22.26875 205.03125 22.065624Q205.5 21.8625 206.07812 21.8625Q206.70312 21.8625 207.14062 22.065624Q207.57812 22.26875 207.85938 22.6125Q208.14062 22.940624 208.26562 23.39375Q208.39062 23.846874 208.39062 24.3625L208.39062 24.534374ZM207.42188 24.253124Q207.4375 23.4875 207.07812 23.065624Q206.73438 22.628124 206.03125 22.628124Q205.67188 22.628124 205.40625 22.76875Q205.14062 22.89375 204.95312 23.1125Q204.78125 23.33125 204.67188 23.628124Q204.57812 23.925 204.5625 24.253124L207.42188 24.253124Z" fill-rule="nonzero"/><path stroke="#ed7d31" stroke-width="4.0" stroke-linecap="butt" d="M226.0 24.55L238.0 24.55" fill-rule="nonzero"/><path fill="#1a1a1a" d="M251.0 20.39375Q251.0 20.51875 250.98438 20.596874Q250.96875 20.675 250.9375 20.721874Q250.90625 20.76875 250.85938 20.8Q250.82812 20.815624 250.79688 20.815624L248.01562 20.815624L248.01562 23.39375L250.64062 23.39375Q250.6875 23.39375 250.71875 23.425Q250.76562 23.440624 250.78125 23.4875Q250.8125 23.534374 250.82812 23.6125Q250.84375 23.690624 250.84375 23.815624Q250.84375 23.925 250.82812 24.003124Q250.8125 24.08125 250.78125 24.14375Q250.76562 24.190624 250.71875 24.221874Q250.6875 24.2375 250.64062 24.2375L248.01562 24.2375L248.01562 27.39375Q248.01562 27.440624 247.98438 27.4875Q247.96875 27.51875 247.90625 27.534374Q247.85938 27.55 247.76562 27.565624Q247.67188 27.58125 247.51562 27.58125Q247.375 27.58125 247.26562 27.565624Q247.17188 27.55 247.10938 27.534374Q247.0625 27.51875 247.03125 27.4875Q247.01562 27.440624 247.01562 27.39375L247.01562 20.378124Q247.01562 20.14375 247.125 20.065624Q247.25 19.971874 247.39062 19.971874L250.79688 19.971874Q250.82812 19.971874 250.85938 20.003124Q250.90625 20.01875 250.9375 20.065624Q250.96875 20.1125 250.98438 20.20625Q251.0 20.284374 251.0 20.39375ZM257.39062 24.534374Q257.39062 24.76875 257.28125 24.8625Q257.17188 24.95625 257.01562 24.95625L253.5625 24.95625Q253.5625 25.39375 253.64062 25.753124Q253.73438 26.096874 253.9375 26.3625Q254.15625 26.6125 254.48438 26.753124Q254.8125 26.878124 255.28125 26.878124Q255.65625 26.878124 255.95312 26.815624Q256.25 26.753124 256.45312 26.675Q256.67188 26.596874 256.8125 26.534374Q256.95312 26.471874 257.01562 26.471874Q257.0625 26.471874 257.09375 26.503124Q257.125 26.51875 257.14062 26.565624Q257.15625 26.596874 257.15625 26.675Q257.17188 26.753124 257.17188 26.846874Q257.17188 26.925 257.15625 26.9875Q257.15625 27.034374 257.14062 27.08125Q257.14062 27.128124 257.125 27.159374Q257.10938 27.190624 257.07812 27.2375Q257.04688 27.26875 256.875 27.346874Q256.71875 27.409374 256.46875 27.4875Q256.21875 27.55 255.89062 27.596874Q255.5625 27.659374 255.1875 27.659374Q254.53125 27.659374 254.03125 27.4875Q253.54688 27.3 253.21875 26.940624Q252.89062 26.58125 252.71875 26.05Q252.54688 25.503124 252.54688 24.784374Q252.54688 24.1125 252.71875 23.565624Q252.89062 23.01875 253.21875 22.64375Q253.5625 22.26875 254.03125 22.065624Q254.5 21.8625 255.07812 21.8625Q255.70312 21.8625 256.14062 22.065624Q256.57812 22.26875 256.85938 22.6125Q257.14062 22.940624 257.26562 23.39375Q257.39062 23.846874 257.39062 24.3625L257.39062 24.534374ZM256.42188 24.253124Q256.4375 23.4875 256.07812 23.065624Q255.73438 22.628124 255.03125 22.628124Q254.67188 22.628124 254.40625 22.76875Q254.14062 22.89375 253.95312 23.1125Q253.78125 23.33125 253.67188 23.628124Q253.57812 23.925 253.5625 24.253124L256.42188 24.253124ZM267.71875 27.409374Q267.71875 27.45625 267.6875 27.4875Q267.67188 27.51875 267.60938 27.55Q267.5625 27.565624 267.46875 27.565624Q267.375 27.58125 267.23438 27.58125Q267.09375 27.58125 267.0 27.565624Q266.90625 27.565624 266.84375 27.55Q266.79688 27.51875 266.76562 27.4875Q266.75 27.45625 266.75 27.409374L266.75 24.190624Q266.75 23.8625 266.6875 23.596874Q266.625 23.315624 266.5 23.1125Q266.375 22.909374 266.17188 22.815624Q265.96875 22.70625 265.70312 22.70625Q265.375 22.70625 265.03125 22.971874Q264.70312 23.221874 264.29688 23.721874L264.29688 27.409374Q264.29688 27.45625 264.26562 27.4875Q264.25 27.51875 264.1875 27.55Q264.14062 27.565624 264.04688 27.565624Q263.95312 27.58125 263.8125 27.58125Q263.67188 27.58125 263.57812 27.565624Q263.48438 27.565624 263.42188 27.55Q263.35938 27.51875 263.34375 27.4875Q263.32812 27.45625 263.32812 27.409374L263.32812 24.190624Q263.32812 23.8625 263.26562 23.596874Q263.20312 23.315624 263.0625 23.1125Q262.9375 22.909374 262.73438 22.815624Q262.54688 22.70625 262.28125 22.70625Q261.9375 22.70625 261.59375 22.971874Q261.26562 23.221874 260.85938 23.721874L260.85938 27.409374Q260.85938 27.45625 260.82812 27.4875Q260.8125 27.51875 260.76562 27.55Q260.71875 27.565624 260.625 27.565624Q260.53125 27.58125 260.375 27.58125Q260.23438 27.58125 260.14062 27.565624Q260.04688 27.565624 259.98438 27.55Q259.9375 27.51875 259.90625 27.4875Q259.89062 27.45625 259.89062 27.409374L259.89062 22.128124Q259.89062 22.08125 259.90625 22.05Q259.9375 22.01875 259.98438 22.003124Q260.03125 21.971874 260.10938 21.95625Q260.20312 21.940624 260.34375 21.940624Q260.46875 21.940624 260.54688 21.95625Q260.64062 21.971874 260.6875 22.003124Q260.73438 22.01875 260.75 22.05Q260.76562 22.08125 260.76562 22.128124L260.76562 22.83125Q261.21875 22.33125 261.625 22.096874Q262.04688 21.8625 262.48438 21.8625Q262.8125 21.8625 263.0625 21.940624Q263.32812 22.01875 263.53125 22.159374Q263.73438 22.3 263.875 22.4875Q264.01562 22.675 264.10938 22.909374Q264.375 22.628124 264.60938 22.425Q264.84375 22.221874 265.0625 22.096874Q265.28125 21.971874 265.48438 21.925Q265.70312 21.8625 265.90625 21.8625Q266.42188 21.8625 266.76562 22.05Q267.10938 22.221874 267.3125 22.51875Q267.53125 22.815624 267.625 23.221874Q267.71875 23.628124 267.71875 24.065624L267.71875 27.409374ZM273.875 27.409374Q273.875 27.471874 273.82812 27.51875Q273.78125 27.55 273.6875 27.565624Q273.60938 27.58125 273.45312 27.58125Q273.29688 27.58125 273.20312 27.565624Q273.125 27.55 273.07812 27.51875Q273.03125 27.471874 273.03125 27.409374L273.03125 26.878124Q272.6875 27.253124 272.26562 27.45625Q271.84375 27.659374 271.375 27.659374Q270.95312 27.659374 270.60938 27.55Q270.28125 27.440624 270.03125 27.2375Q269.79688 27.034374 269.67188 26.7375Q269.54688 26.440624 269.54688 26.05Q269.54688 25.6125 269.71875 25.284374Q269.90625 24.95625 270.23438 24.7375Q270.57812 24.51875 271.0625 24.409374Q271.5625 24.3 272.1875 24.3L272.90625 24.3L272.90625 23.89375Q272.90625 23.58125 272.84375 23.346874Q272.78125 23.1125 272.64062 22.971874Q272.5 22.815624 272.26562 22.7375Q272.03125 22.64375 271.70312 22.64375Q271.34375 22.64375 271.0625 22.7375Q270.78125 22.815624 270.5625 22.925Q270.34375 23.01875 270.20312 23.1125Q270.0625 23.190624 269.98438 23.190624Q269.9375 23.190624 269.90625 23.175Q269.875 23.14375 269.84375 23.096874Q269.82812 23.05 269.8125 22.9875Q269.79688 22.909374 269.79688 22.815624Q269.79688 22.675 269.8125 22.596874Q269.84375 22.503124 269.92188 22.425Q270.0 22.346874 270.1875 22.253124Q270.39062 22.14375 270.64062 22.065624Q270.89062 21.971874 271.1875 21.925Q271.48438 21.8625 271.79688 21.8625Q272.35938 21.8625 272.75 22.003124Q273.15625 22.128124 273.39062 22.378124Q273.64062 22.628124 273.75 23.003124Q273.875 23.3625 273.875 23.846874L273.875 27.409374ZM272.90625 25.003124L272.07812 25.003124Q271.6875 25.003124 271.39062 25.065624Q271.09375 25.128124 270.90625 25.26875Q270.71875 25.39375 270.625 25.58125Q270.53125 25.76875 270.53125 26.003124Q270.53125 26.425 270.78125 26.675Q271.04688 26.909374 271.51562 26.909374Q271.90625 26.909374 272.21875 26.721874Q272.54688 26.51875 272.90625 26.1125L272.90625 25.003124ZM277.85938 27.409374Q277.85938 27.45625 277.82812 27.4875Q277.8125 27.51875 277.76562 27.55Q277.71875 27.565624 277.625 27.565624Q277.53125 27.58125 277.375 27.58125Q277.23438 27.58125 277.14062 27.565624Q277.04688 27.565624 276.98438 27.55Q276.9375 27.51875 276.90625 27.4875Q276.89062 27.45625 276.89062 27.409374L276.89062 19.58125Q276.89062 19.534374 276.90625 19.503124Q276.9375 19.45625 276.98438 19.440624Q277.04688 19.409374 277.14062 19.409374Q277.23438 19.39375 277.375 19.39375Q277.53125 19.39375 277.625 19.409374Q277.71875 19.409374 277.76562 19.440624Q277.8125 19.45625 277.82812 19.503124Q277.85938 19.534374 277.85938 19.58125L277.85938 27.409374ZM285.39062 24.534374Q285.39062 24.76875 285.28125 24.8625Q285.17188 24.95625 285.01562 24.95625L281.5625 24.95625Q281.5625 25.39375 281.64062 25.753124Q281.73438 26.096874 281.9375 26.3625Q282.15625 26.6125 282.48438 26.753124Q282.8125 26.878124 283.28125 26.878124Q283.65625 26.878124 283.95312 26.815624Q284.25 26.753124 284.45312 26.675Q284.67188 26.596874 284.8125 26.534374Q284.95312 26.471874 285.01562 26.471874Q285.0625 26.471874 285.09375 26.503124Q285.125 26.51875 285.14062 26.565624Q285.15625 26.596874 285.15625 26.675Q285.17188 26.753124 285.17188 26.846874Q285.17188 26.925 285.15625 26.9875Q285.15625 27.034374 285.14062 27.08125Q285.14062 27.128124 285.125 27.159374Q285.10938 27.190624 285.07812 27.2375Q285.04688 27.26875 284.875 27.346874Q284.71875 27.409374 284.46875 27.4875Q284.21875 27.55 283.89062 27.596874Q283.5625 27.659374 283.1875 27.659374Q282.53125 27.659374 282.03125 27.4875Q281.54688 27.3 281.21875 26.940624Q280.89062 26.58125 280.71875 26.05Q280.54688 25.503124 280.54688 24.784374Q280.54688 24.1125 280.71875 23.565624Q280.89062 23.01875 281.21875 22.64375Q281.5625 22.26875 282.03125 22.065624Q282.5 21.8625 283.07812 21.8625Q283.70312 21.8625 284.14062 22.065624Q284.57812 22.26875 284.85938 22.6125Q285.14062 22.940624 285.26562 23.39375Q285.39062 23.846874 285.39062 24.3625L285.39062 24.534374ZM284.42188 24.253124Q284.4375 23.4875 284.07812 23.065624Q283.73438 22.628124 283.03125 22.628124Q282.67188 22.628124 282.40625 22.76875Q282.14062 22.89375 281.95312 23.1125Q281.78125 23.33125 281.67188 23.628124Q281.57812 23.925 281.5625 24.253124L284.42188 24.253124Z" fill-rule="nonzero"/><path stroke="#a5a5a5" stroke-width="4.0" stroke-linecap="butt" d="M303.0 24.55L315.0 24.55" fill-rule="nonzero"/><path fill="#1a1a1a" d="M329.07812 26.471874Q329.07812 26.565624 329.0625 26.64375Q329.0625 26.70625 329.04688 26.76875Q329.03125 26.815624 329.0 26.8625Q328.98438 26.89375 328.92188 26.95625Q328.85938 27.01875 328.67188 27.14375Q328.48438 27.253124 328.20312 27.378124Q327.9375 27.4875 327.57812 27.565624Q327.21875 27.64375 326.78125 27.64375Q326.04688 27.64375 325.45312 27.39375Q324.85938 27.14375 324.4375 26.675Q324.01562 26.190624 323.78125 25.4875Q323.5625 24.784374 323.5625 23.8625Q323.5625 22.909374 323.8125 22.175Q324.0625 21.440624 324.5 20.925Q324.9375 20.409374 325.54688 20.14375Q326.15625 19.878124 326.90625 19.878124Q327.23438 19.878124 327.54688 19.940624Q327.85938 20.003124 328.10938 20.096874Q328.375 20.190624 328.57812 20.315624Q328.79688 20.425 328.875 20.503124Q328.95312 20.58125 328.96875 20.628124Q329.0 20.675 329.01562 20.7375Q329.03125 20.784374 329.03125 20.8625Q329.04688 20.940624 329.04688 21.034374Q329.04688 21.159374 329.03125 21.2375Q329.01562 21.315624 328.98438 21.378124Q328.96875 21.425 328.9375 21.45625Q328.90625 21.4875 328.85938 21.4875Q328.78125 21.4875 328.625 21.378124Q328.48438 21.253124 328.25 21.128124Q328.01562 20.9875 327.6875 20.878124Q327.35938 20.753124 326.89062 20.753124Q326.39062 20.753124 325.96875 20.95625Q325.5625 21.159374 325.26562 21.55Q324.98438 21.940624 324.8125 22.503124Q324.65625 23.065624 324.65625 23.8Q324.65625 24.51875 324.8125 25.08125Q324.96875 25.628124 325.25 26.003124Q325.54688 26.378124 325.96875 26.565624Q326.39062 26.753124 326.92188 26.753124Q327.375 26.753124 327.70312 26.64375Q328.04688 26.534374 328.28125 26.39375Q328.53125 26.253124 328.67188 26.14375Q328.82812 26.034374 328.92188 26.034374Q328.95312 26.034374 328.98438 26.05Q329.01562 26.065624 329.03125 26.1125Q329.04688 26.159374 329.0625 26.253124Q329.07812 26.346874 329.07812 26.471874ZM333.875 27.409374Q333.875 27.471874 333.82812 27.51875Q333.78125 27.55 333.6875 27.565624Q333.60938 27.58125 333.45312 27.58125Q333.29688 27.58125 333.20312 27.565624Q333.125 27.55 333.07812 27.51875Q333.03125 27.471874 333.03125 27.409374L333.03125 26.878124Q332.6875 27.253124 332.26562 27.45625Q331.84375 27.659374 331.375 27.659374Q330.95312 27.659374 330.60938 27.55Q330.28125 27.440624 330.03125 27.2375Q329.79688 27.034374 329.67188 26.7375Q329.54688 26.440624 329.54688 26.05Q329.54688 25.6125 329.71875 25.284374Q329.90625 24.95625 330.23438 24.7375Q330.57812 24.51875 331.0625 24.409374Q331.5625 24.3 332.1875 24.3L332.90625 24.3L332.90625 23.89375Q332.90625 23.58125 332.84375 23.346874Q332.78125 23.1125 332.64062 22.971874Q332.5 22.815624 332.26562 22.7375Q332.03125 22.64375 331.70312 22.64375Q331.34375 22.64375 331.0625 22.7375Q330.78125 22.815624 330.5625 22.925Q330.34375 23.01875 330.20312 23.1125Q330.0625 23.190624 329.98438 23.190624Q329.9375 23.190624 329.90625 23.175Q329.875 23.14375 329.84375 23.096874Q329.82812 23.05 329.8125 22.9875Q329.79688 22.909374 329.79688 22.815624Q329.79688 22.675 329.8125 22.596874Q329.84375 22.503124 329.92188 22.425Q330.0 22.346874 330.1875 22.253124Q330.39062 22.14375 330.64062 22.065624Q330.89062 21.971874 331.1875 21.925Q331.48438 21.8625 331.79688 21.8625Q332.35938 21.8625 332.75 22.003124Q333.15625 22.128124 333.39062 22.378124Q333.64062 22.628124 333.75 23.003124Q333.875 23.3625 333.875 23.846874L333.875 27.409374ZM332.90625 25.003124L332.07812 25.003124Q331.6875 25.003124 331.39062 25.065624Q331.09375 25.128124 330.90625 25.26875Q330.71875 25.39375 330.625 25.58125Q330.53125 25.76875 330.53125 26.003124Q330.53125 26.425 330.78125 26.675Q331.04688 26.909374 331.51562 26.909374Q331.90625 26.909374 332.21875 26.721874Q332.54688 26.51875 332.90625 26.1125L332.90625 25.003124ZM340.6875 26.596874Q340.6875 26.70625 340.67188 26.784374Q340.67188 26.846874 340.65625 26.89375Q340.64062 26.940624 340.625 26.9875Q340.60938 27.01875 340.53125 27.096874Q340.45312 27.175 340.28125 27.284374Q340.10938 27.378124 339.89062 27.471874Q339.67188 27.55 339.40625 27.596874Q339.15625 27.659374 338.875 27.659374Q338.3125 27.659374 337.875 27.471874Q337.4375 27.284374 337.14062 26.925Q336.84375 26.565624 336.6875 26.05Q336.53125 25.51875 336.53125 24.83125Q336.53125 24.05 336.71875 23.4875Q336.90625 22.925 337.23438 22.58125Q337.57812 22.221874 338.01562 22.05Q338.46875 21.878124 338.98438 21.878124Q339.23438 21.878124 339.46875 21.925Q339.71875 21.971874 339.90625 22.05Q340.10938 22.1125 340.26562 22.221874Q340.42188 22.315624 340.48438 22.39375Q340.5625 22.45625 340.59375 22.503124Q340.625 22.534374 340.64062 22.596874Q340.65625 22.64375 340.65625 22.721874Q340.67188 22.784374 340.67188 22.89375Q340.67188 23.128124 340.60938 23.221874Q340.5625 23.3 340.48438 23.3Q340.39062 23.3 340.28125 23.20625Q340.17188 23.1125 339.98438 23.003124Q339.8125 22.878124 339.5625 22.784374Q339.3125 22.690624 338.98438 22.690624Q338.28125 22.690624 337.90625 23.221874Q337.53125 23.753124 337.53125 24.784374Q337.53125 25.284374 337.625 25.675Q337.73438 26.05 337.92188 26.315624Q338.10938 26.565624 338.375 26.690624Q338.65625 26.815624 339.0 26.815624Q339.32812 26.815624 339.57812 26.721874Q339.84375 26.6125 340.01562 26.4875Q340.20312 26.3625 340.32812 26.26875Q340.45312 26.159374 340.53125 26.159374Q340.57812 26.159374 340.59375 26.190624Q340.625 26.20625 340.64062 26.26875Q340.67188 26.315624 340.67188 26.409374Q340.6875 26.4875 340.6875 26.596874ZM345.875 27.409374Q345.875 27.471874 345.82812 27.51875Q345.78125 27.55 345.6875 27.565624Q345.60938 27.58125 345.45312 27.58125Q345.29688 27.58125 345.20312 27.565624Q345.125 27.55 345.07812 27.51875Q345.03125 27.471874 345.03125 27.409374L345.03125 26.878124Q344.6875 27.253124 344.26562 27.45625Q343.84375 27.659374 343.375 27.659374Q342.95312 27.659374 342.60938 27.55Q342.28125 27.440624 342.03125 27.2375Q341.79688 27.034374 341.67188 26.7375Q341.54688 26.440624 341.54688 26.05Q341.54688 25.6125 341.71875 25.284374Q341.90625 24.95625 342.23438 24.7375Q342.57812 24.51875 343.0625 24.409374Q343.5625 24.3 344.1875 24.3L344.90625 24.3L344.90625 23.89375Q344.90625 23.58125 344.84375 23.346874Q344.78125 23.1125 344.64062 22.971874Q344.5 22.815624 344.26562 22.7375Q344.03125 22.64375 343.70312 22.64375Q343.34375 22.64375 343.0625 22.7375Q342.78125 22.815624 342.5625 22.925Q342.34375 23.01875 342.20312 23.1125Q342.0625 23.190624 341.98438 23.190624Q341.9375 23.190624 341.90625 23.175Q341.875 23.14375 341.84375 23.096874Q341.82812 23.05 341.8125 22.9875Q341.79688 22.909374 341.79688 22.815624Q341.79688 22.675 341.8125 22.596874Q341.84375 22.503124 341.92188 22.425Q342.0 22.346874 342.1875 22.253124Q342.39062 22.14375 342.64062 22.065624Q342.89062 21.971874 343.1875 21.925Q343.48438 21.8625 343.79688 21.8625Q344.35938 21.8625 344.75 22.003124Q345.15625 22.128124 345.39062 22.378124Q345.64062 22.628124 345.75 23.003124Q345.875 23.3625 345.875 23.846874L345.875 27.409374ZM344.90625 25.003124L344.07812 25.003124Q343.6875 25.003124 343.39062 25.065624Q343.09375 25.128124 342.90625 25.26875Q342.71875 25.39375 342.625 25.58125Q342.53125 25.76875 342.53125 26.003124Q342.53125 26.425 342.78125 26.675Q343.04688 26.909374 343.51562 26.909374Q343.90625 26.909374 344.21875 26.721874Q344.54688 26.51875 344.90625 26.1125L344.90625 25.003124ZM353.79688 24.70625Q353.79688 25.346874 353.625 25.89375Q353.46875 26.440624 353.125 26.83125Q352.78125 27.221874 352.28125 27.440624Q351.78125 27.659374 351.10938 27.659374Q350.45312 27.659374 349.96875 27.471874Q349.48438 27.26875 349.15625 26.909374Q348.84375 26.534374 348.6875 26.01875Q348.53125 25.4875 348.53125 24.815624Q348.53125 24.175 348.6875 23.628124Q348.85938 23.08125 349.1875 22.690624Q349.53125 22.3 350.03125 22.08125Q350.54688 21.8625 351.21875 21.8625Q351.875 21.8625 352.34375 22.065624Q352.82812 22.253124 353.15625 22.628124Q353.48438 22.9875 353.64062 23.51875Q353.79688 24.05 353.79688 24.70625ZM352.78125 24.76875Q352.78125 24.346874 352.70312 23.971874Q352.625 23.58125 352.4375 23.3Q352.26562 23.003124 351.95312 22.846874Q351.64062 22.675 351.17188 22.675Q350.75 22.675 350.4375 22.83125Q350.14062 22.971874 349.9375 23.253124Q349.73438 23.534374 349.64062 23.925Q349.54688 24.3 349.54688 24.753124Q349.54688 25.175 349.625 25.565624Q349.70312 25.940624 349.875 26.2375Q350.0625 26.51875 350.375 26.690624Q350.6875 26.846874 351.15625 26.846874Q351.57812 26.846874 351.89062 26.690624Q352.20312 26.534374 352.39062 26.26875Q352.59375 25.9875 352.6875 25.6125Q352.78125 25.221874 352.78125 24.76875Z" fill-rule="nonzero"/><path stroke="#ffc000" stroke-width="4.0" stroke-linecap="butt" d="M371.0 24.55L383.0 24.55" fill-rule="nonzero"/><path fill="#1a1a1a" d="M397.70312 21.003124Q397.70312 21.1125 397.6875 21.20625Q397.6875 21.284374 397.65625 21.346874Q397.64062 21.39375 397.59375 21.425Q397.5625 21.440624 397.51562 21.440624Q397.45312 21.440624 397.28125 21.33125Q397.125 21.221874 396.84375 21.08125Q396.57812 20.940624 396.1875 20.83125Q395.8125 20.721874 395.28125 20.721874Q394.65625 20.721874 394.15625 20.95625Q393.65625 21.175 393.3125 21.58125Q392.96875 21.9875 392.78125 22.55Q392.59375 23.096874 392.59375 23.753124Q392.59375 24.471874 392.79688 25.034374Q393.0 25.596874 393.35938 25.9875Q393.71875 26.378124 394.20312 26.58125Q394.70312 26.76875 395.29688 26.76875Q395.64062 26.76875 396.0 26.690624Q396.375 26.6125 396.67188 26.440624L396.67188 24.221874L394.92188 24.221874Q394.82812 24.221874 394.76562 24.128124Q394.71875 24.034374 394.71875 23.815624Q394.71875 23.70625 394.73438 23.628124Q394.75 23.55 394.76562 23.503124Q394.79688 23.440624 394.82812 23.425Q394.875 23.39375 394.92188 23.39375L397.32812 23.39375Q397.39062 23.39375 397.45312 23.425Q397.51562 23.440624 397.5625 23.4875Q397.625 23.534374 397.65625 23.628124Q397.6875 23.70625 397.6875 23.815624L397.6875 26.70625Q397.6875 26.846874 397.625 26.971874Q397.57812 27.08125 397.40625 27.159374Q397.23438 27.2375 396.96875 27.346874Q396.70312 27.440624 396.40625 27.51875Q396.125 27.58125 395.82812 27.6125Q395.54688 27.659374 395.25 27.659374Q394.375 27.659374 393.6875 27.39375Q393.0 27.1125 392.51562 26.6125Q392.03125 26.096874 391.78125 25.39375Q391.53125 24.690624 391.53125 23.83125Q391.53125 22.925 391.79688 22.190624Q392.07812 21.45625 392.5625 20.940624Q393.0625 20.425 393.75 20.14375Q394.45312 19.8625 395.29688 19.8625Q395.73438 19.8625 396.10938 19.940624Q396.5 20.01875 396.79688 20.128124Q397.09375 20.221874 397.29688 20.346874Q397.5 20.45625 397.5625 20.534374Q397.64062 20.6125 397.67188 20.721874Q397.70312 20.815624 397.70312 21.003124ZM402.98438 22.471874Q402.98438 22.596874 402.96875 22.690624Q402.96875 22.784374 402.95312 22.83125Q402.9375 22.878124 402.90625 22.909374Q402.875 22.925 402.82812 22.925Q402.78125 22.925 402.71875 22.909374Q402.65625 22.878124 402.5625 22.8625Q402.48438 22.83125 402.375 22.815624Q402.26562 22.784374 402.14062 22.784374Q402.0 22.784374 401.85938 22.846874Q401.71875 22.89375 401.5625 23.034374Q401.40625 23.159374 401.23438 23.39375Q401.0625 23.6125 400.85938 23.940624L400.85938 27.409374Q400.85938 27.45625 400.82812 27.4875Q400.8125 27.51875 400.76562 27.55Q400.71875 27.565624 400.625 27.565624Q400.53125 27.58125 400.375 27.58125Q400.23438 27.58125 400.14062 27.565624Q400.04688 27.565624 399.98438 27.55Q399.9375 27.51875 399.90625 27.4875Q399.89062 27.45625 399.89062 27.409374L399.89062 22.128124Q399.89062 22.08125 399.90625 22.05Q399.9375 22.01875 399.98438 22.003124Q400.03125 21.971874 400.10938 21.95625Q400.20312 21.940624 400.34375 21.940624Q400.46875 21.940624 400.54688 21.95625Q400.64062 21.971874 400.6875 22.003124Q400.73438 22.01875 400.75 22.05Q400.76562 22.08125 400.76562 22.128124L400.76562 22.89375Q400.98438 22.58125 401.17188 22.378124Q401.375 22.175 401.53125 22.065624Q401.70312 21.95625 401.875 21.909374Q402.04688 21.8625 402.21875 21.8625Q402.28125 21.8625 402.375 21.878124Q402.48438 21.878124 402.57812 21.909374Q402.6875 21.925 402.76562 21.95625Q402.85938 21.9875 402.89062 22.01875Q402.9375 22.05 402.9375 22.08125Q402.95312 22.096874 402.95312 22.14375Q402.96875 22.175 402.96875 22.26875Q402.98438 22.346874 402.98438 22.471874ZM404.85938 27.409374Q404.85938 27.45625 404.82812 27.4875Q404.8125 27.51875 404.76562 27.55Q404.71875 27.565624 404.625 27.565624Q404.53125 27.58125 404.375 27.58125Q404.23438 27.58125 404.14062 27.565624Q404.04688 27.565624 403.98438 27.55Q403.9375 27.51875 403.90625 27.4875Q403.89062 27.45625 403.89062 27.409374L403.89062 22.128124Q403.89062 22.08125 403.90625 22.05Q403.9375 22.01875 403.98438 22.003124Q404.04688 21.971874 404.14062 21.95625Q404.23438 21.940624 404.375 21.940624Q404.53125 21.940624 404.625 21.95625Q404.71875 21.971874 404.76562 22.003124Q404.8125 22.01875 404.82812 22.05Q404.85938 22.08125 404.85938 22.128124L404.85938 27.409374ZM404.96875 20.346874Q404.96875 20.690624 404.84375 20.815624Q404.71875 20.940624 404.375 20.940624Q404.03125 20.940624 403.90625 20.815624Q403.78125 20.690624 403.78125 20.3625Q403.78125 20.01875 403.90625 19.89375Q404.03125 19.76875 404.39062 19.76875Q404.71875 19.76875 404.84375 19.89375Q404.96875 20.01875 404.96875 20.346874ZM412.4375 27.409374Q412.4375 27.45625 412.40625 27.4875Q412.39062 27.51875 412.32812 27.55Q412.28125 27.565624 412.1875 27.565624Q412.09375 27.58125 411.95312 27.58125Q411.8125 27.58125 411.71875 27.565624Q411.625 27.565624 411.5625 27.55Q411.51562 27.51875 411.48438 27.4875Q411.46875 27.45625 411.46875 27.409374L411.46875 24.315624Q411.46875 23.8625 411.39062 23.596874Q411.32812 23.315624 411.1875 23.1125Q411.0625 22.909374 410.84375 22.815624Q410.64062 22.70625 410.35938 22.70625Q409.98438 22.70625 409.625 22.971874Q409.26562 23.221874 408.85938 23.721874L408.85938 27.409374Q408.85938 27.45625 408.82812 27.4875Q408.8125 27.51875 408.76562 27.55Q408.71875 27.565624 408.625 27.565624Q408.53125 27.58125 408.375 27.58125Q408.23438 27.58125 408.14062 27.565624Q408.04688 27.565624 407.98438 27.55Q407.9375 27.51875 407.90625 27.4875Q407.89062 27.45625 407.89062 27.409374L407.89062 22.128124Q407.89062 22.08125 407.90625 22.05Q407.9375 22.01875 407.98438 22.003124Q408.03125 21.971874 408.10938 21.95625Q408.20312 21.940624 408.34375 21.940624Q408.46875 21.940624 408.54688 21.95625Q408.64062 21.971874 408.6875 22.003124Q408.73438 22.01875 408.75 22.05Q408.76562 22.08125 408.76562 22.128124L408.76562 22.83125Q409.21875 22.33125 409.65625 22.096874Q410.09375 21.8625 410.54688 21.8625Q411.07812 21.8625 411.4375 22.05Q411.79688 22.221874 412.01562 22.51875Q412.25 22.815624 412.34375 23.221874Q412.4375 23.628124 412.4375 24.190624L412.4375 27.409374ZM419.42188 27.409374Q419.42188 27.45625 419.39062 27.4875Q419.375 27.51875 419.32812 27.55Q419.28125 27.565624 419.1875 27.565624Q419.10938 27.58125 419.0 27.58125Q418.875 27.58125 418.78125 27.565624Q418.70312 27.565624 418.64062 27.55Q418.59375 27.51875 418.5625 27.4875Q418.54688 27.45625 418.54688 27.409374L418.54688 26.70625Q418.14062 27.159374 417.6875 27.409374Q417.23438 27.659374 416.70312 27.659374Q416.125 27.659374 415.71875 27.440624Q415.3125 27.20625 415.04688 26.83125Q414.79688 26.440624 414.67188 25.925Q414.5625 25.409374 414.5625 24.83125Q414.5625 24.14375 414.70312 23.596874Q414.85938 23.05 415.14062 22.675Q415.4375 22.284374 415.85938 22.08125Q416.28125 21.8625 416.84375 21.8625Q417.29688 21.8625 417.67188 22.065624Q418.0625 22.26875 418.4375 22.659374L418.4375 19.596874Q418.4375 19.55 418.45312 19.51875Q418.48438 19.4875 418.53125 19.471874Q418.59375 19.440624 418.6875 19.425Q418.78125 19.409374 418.92188 19.409374Q419.0625 19.409374 419.15625 19.425Q419.25 19.440624 419.29688 19.471874Q419.35938 19.4875 419.39062 19.51875Q419.42188 19.55 419.42188 19.596874L419.42188 27.409374ZM418.4375 23.690624Q418.04688 23.20625 417.67188 22.95625Q417.3125 22.690624 416.92188 22.690624Q416.54688 22.690624 416.28125 22.878124Q416.03125 23.05 415.875 23.346874Q415.71875 23.628124 415.64062 23.9875Q415.5625 24.346874 415.5625 24.721874Q415.5625 25.128124 415.625 25.503124Q415.6875 25.878124 415.84375 26.175Q416.0 26.471874 416.25 26.659374Q416.5 26.83125 416.875 26.83125Q417.07812 26.83125 417.25 26.784374Q417.42188 26.721874 417.60938 26.6125Q417.79688 26.4875 418.0 26.3Q418.21875 26.096874 418.4375 25.8L418.4375 23.690624ZM422.85938 27.409374Q422.85938 27.45625 422.82812 27.4875Q422.8125 27.51875 422.76562 27.55Q422.71875 27.565624 422.625 27.565624Q422.53125 27.58125 422.375 27.58125Q422.23438 27.58125 422.14062 27.565624Q422.04688 27.565624 421.98438 27.55Q421.9375 27.51875 421.90625 27.4875Q421.89062 27.45625 421.89062 27.409374L421.89062 22.128124Q421.89062 22.08125 421.90625 22.05Q421.9375 22.01875 421.98438 22.003124Q422.04688 21.971874 422.14062 21.95625Q422.23438 21.940624 422.375 21.940624Q422.53125 21.940624 422.625 21.95625Q422.71875 21.971874 422.76562 22.003124Q422.8125 22.01875 422.82812 22.05Q422.85938 22.08125 422.85938 22.128124L422.85938 27.409374ZM422.96875 20.346874Q422.96875 20.690624 422.84375 20.815624Q422.71875 20.940624 422.375 20.940624Q422.03125 20.940624 421.90625 20.815624Q421.78125 20.690624 421.78125 20.3625Q421.78125 20.01875 421.90625 19.89375Q422.03125 19.76875 422.39062 19.76875Q422.71875 19.76875 422.84375 19.89375Q422.96875 20.01875 422.96875 20.346874ZM430.4375 27.409374Q430.4375 27.45625 430.40625 27.4875Q430.39062 27.51875 430.32812 27.55Q430.28125 27.565624 430.1875 27.565624Q430.09375 27.58125 429.95312 27.58125Q429.8125 27.58125 429.71875 27.565624Q429.625 27.565624 429.5625 27.55Q429.51562 27.51875 429.48438 27.4875Q429.46875 27.45625 429.46875 27.409374L429.46875 24.315624Q429.46875 23.8625 429.39062 23.596874Q429.32812 23.315624 429.1875 23.1125Q429.0625 22.909374 428.84375 22.815624Q428.64062 22.70625 428.35938 22.70625Q427.98438 22.70625 427.625 22.971874Q427.26562 23.221874 426.85938 23.721874L426.85938 27.409374Q426.85938 27.45625 426.82812 27.4875Q426.8125 27.51875 426.76562 27.55Q426.71875 27.565624 426.625 27.565624Q426.53125 27.58125 426.375 27.58125Q426.23438 27.58125 426.14062 27.565624Q426.04688 27.565624 425.98438 27.55Q425.9375 27.51875 425.90625 27.4875Q425.89062 27.45625 425.89062 27.409374L425.89062 22.128124Q425.89062 22.08125 425.90625 22.05Q425.9375 22.01875 425.98438 22.003124Q426.03125 21.971874 426.10938 21.95625Q426.20312 21.940624 426.34375 21.940624Q426.46875 21.940624 426.54688 21.95625Q426.64062 21.971874 426.6875 22.003124Q426.73438 22.01875 426.75 22.05Q426.76562 22.08125 426.76562 22.128124L426.76562 22.83125Q427.21875 22.33125 427.65625 22.096874Q428.09375 21.8625 428.54688 21.8625Q429.07812 21.8625 429.4375 22.05Q429.79688 22.221874 430.01562 22.51875Q430.25 22.815624 430.34375 23.221874Q430.4375 23.628124 430.4375 24.190624L430.4375 27.409374ZM437.29688 22.3625Q437.29688 22.58125 437.23438 22.675Q437.1875 22.753124 437.10938 22.753124L436.34375 22.753124Q436.54688 22.971874 436.625 23.221874Q436.71875 23.471874 436.71875 23.753124Q436.71875 24.20625 436.5625 24.565624Q436.42188 24.909374 436.14062 25.159374Q435.875 25.39375 435.5 25.534374Q435.125 25.659374 434.67188 25.659374Q434.34375 25.659374 434.04688 25.58125Q433.76562 25.4875 433.60938 25.3625Q433.5 25.45625 433.4375 25.596874Q433.375 25.7375 433.375 25.909374Q433.375 26.1125 433.5625 26.253124Q433.75 26.378124 434.0625 26.39375L435.45312 26.45625Q435.84375 26.471874 436.17188 26.565624Q436.5 26.659374 436.73438 26.846874Q436.96875 27.01875 437.10938 27.284374Q437.25 27.534374 437.25 27.878124Q437.25 28.253124 437.09375 28.58125Q436.9375 28.909374 436.625 29.159374Q436.3125 29.409374 435.82812 29.55Q435.34375 29.690624 434.67188 29.690624Q434.04688 29.690624 433.59375 29.58125Q433.14062 29.471874 432.84375 29.284374Q432.5625 29.096874 432.4375 28.83125Q432.3125 28.58125 432.3125 28.26875Q432.3125 28.08125 432.35938 27.89375Q432.40625 27.721874 432.5 27.55Q432.59375 27.378124 432.73438 27.2375Q432.89062 27.08125 433.07812 26.940624Q432.78125 26.8 432.64062 26.58125Q432.51562 26.346874 432.51562 26.096874Q432.51562 25.7375 432.65625 25.45625Q432.79688 25.175 433.01562 24.940624Q432.84375 24.7375 432.73438 24.471874Q432.625 24.190624 432.625 23.8Q432.625 23.346874 432.78125 22.9875Q432.9375 22.628124 433.20312 22.39375Q433.46875 22.14375 433.84375 22.01875Q434.23438 21.878124 434.67188 21.878124Q434.90625 21.878124 435.10938 21.909374Q435.32812 21.925 435.51562 21.971874L437.10938 21.971874Q437.20312 21.971874 437.25 22.08125Q437.29688 22.175 437.29688 22.3625ZM435.79688 23.753124Q435.79688 23.221874 435.5 22.925Q435.20312 22.6125 434.65625 22.6125Q434.375 22.6125 434.15625 22.70625Q433.95312 22.8 433.8125 22.971874Q433.6875 23.128124 433.60938 23.346874Q433.54688 23.565624 433.54688 23.8Q433.54688 24.315624 433.84375 24.6125Q434.14062 24.909374 434.67188 24.909374Q434.95312 24.909374 435.15625 24.83125Q435.375 24.7375 435.51562 24.58125Q435.65625 24.409374 435.71875 24.20625Q435.79688 23.9875 435.79688 23.753124ZM436.28125 27.940624Q436.28125 27.596874 436.0 27.409374Q435.71875 27.221874 435.25 27.221874L433.875 27.175Q433.6875 27.315624 433.5625 27.45625Q433.45312 27.58125 433.375 27.690624Q433.3125 27.815624 433.28125 27.925Q433.26562 28.05 433.26562 28.175Q433.26562 28.565624 433.64062 28.753124Q434.03125 28.95625 434.71875 28.95625Q435.17188 28.95625 435.45312 28.8625Q435.75 28.784374 435.9375 28.64375Q436.125 28.503124 436.20312 28.315624Q436.28125 28.14375 436.28125 27.940624Z" fill-rule="nonzero"/></svg>