<svg version="1.1" viewBox="0.0 0.0 600.0 371.0" fill="none" stroke="none" stroke-linecap="square" stroke-miterlimit="10" width="600" height="371" xmlns:xlink="http://www.w3.org/1999/xlink" xmlns="http://www.w3.org/2000/svg"><path fill="#ffffff" d="M0 0L600.0 0L600.0 371.0L0 371.0L0 0Z" fill-rule="nonzero"/><path stroke="#333333" stroke-width="1.0" stroke-linecap="butt" d="M42.5 334.5L492.5 334.5" fill-rule="nonzero"/><path stroke="#cccccc" stroke-width="1.0" stroke-linecap="butt" d="M42.5 231.5L492.5 231.5" fill-rule="nonzero"/><path stroke="#cccccc" stroke-width="1.0" stroke-linecap="butt" d="M42.5 127.5L492.5 127.5" fill-rule="nonzero"/><path stroke="#cccccc" stroke-width="1.0" stroke-linecap="butt" d="M42.5 24.5L492.5 24.5" fill-rule="nonzero"/><clipPath id="id_0"><path d="M42.55 24.55L492.19 24.55L492.19 334.45L42.55 334.45L42.55 24.55Z" clip-rule="nonzero"/></clipPath><path stroke="#5b9bd5" stroke-width="2.0" stroke-linecap="butt" clip-path="url(#id_0)" d="M70.6525 87.26786L126.8575 79.88928L183.0625 179.5L239.2675 90.957146L295.4725 142.60715L351.6775 186.87857L407.8825 186.87857L464.0875 83.578575" fill-rule="nonzero"/><path stroke="#ed7d31" stroke-width="2.0" stroke-linecap="butt" clip-path="url(#id_0)" d="M70.6525 97.72083L126.8575 153.675L183.0625 209.62917L239.2675 63.2875L295.4725 149.37083L351.6775 192.4125L407.8825 188.10834L464.0875 89.1125" fill-rule="nonzero"/><path stroke="#a5a5a5" stroke-width="2.0" stroke-linecap="butt" clip-path="url(#id_0)" d="M70.6525 166.5875L126.8575 196.71666L183.0625 188.10834L239.2675 97.72083L295.4725 84.808334L351.6775 222.54167L407.8825 162.28334L464.0875 102.025" fill-rule="nonzero"/><path stroke="#ffc000" stroke-width="2.0" stroke-linecap="butt" clip-path="url(#id_0)" d="M70.6525 97.72083L126.8575 149.37083L183.0625 153.675L239.2675 110.63333L295.4725 106.32917L351.6775 145.06667L407.8825 93.416664L464.0875 93.416664" fill-rule="nonzero"/><path stroke="#4472c4" stroke-width="2.0" stroke-linecap="butt" clip-path="url(#id_0)" d="M70.6525 280.08157L126.8575 298.20438L183.0625 272.83246L239.2675 298.20438L295.4725 280.08157L351.6775 272.83246L407.8825 272.83246L464.0875 287.3307" fill-rule="nonzero"/><path stroke="#70ad47" stroke-width="2.0" stroke-linecap="butt" clip-path="url(#id_0)" d="M70.6525 286.77307L126.8575 302.66537L183.0625 302.66537L239.2675 254.98846L295.4725 286.77307L351.6775 254.98846L407.8825 286.77307L464.0875 286.77307" fill-rule="nonzero"/><path fill="#000000" fill-opacity="0.0" clip-path="url(#id_0)" d="M73.6525 87.26786C73.6525 88.92471 72.30936 90.26786 70.6525 90.26786C68.99564 90.26786 67.6525 88.92471 67.6525 87.26786C67.6525 85.611 68.99564 84.26786 70.6525 84.26786C72.30936 84.26786 73.6525 85.611 73.6525 87.26786Z" fill-rule="nonzero"/><path fill="#000000" fill-opacity="0.0" clip-path="url(#id_0)" d="M129.8575 79.88928C129.8575 81.54614 128.51436 82.88928 126.8575 82.88928C125.200645 82.88928 123.8575 81.54614 123.8575 79.88928C123.8575 78.23243 125.200645 76.88928 126.8575 76.88928C128.51436 76.88928 129.8575 78.23243 129.8575 79.88928Z" fill-rule="nonzero"/><path fill="#000000" fill-opacity="0.0" clip-path="url(#id_0)" d="M186.0625 179.5C186.0625 181.15686 184.71936 182.5 183.0625 182.5C181.40564 182.5 180.0625 181.15686 180.0625 179.5C180.0625 177.84314 181.40564 176.5 183.0625 176.5C184.71936 176.5 186.0625 177.84314 186.0625 179.5Z" fill-rule="nonzero"/><path fill="#000000" fill-opacity="0.0" clip-path="url(#id_0)" d="M242.2675 90.957146C242.2675 92.614 240.92435 93.957146 239.2675 93.957146C237.61064 93.957146 236.2675 92.614 236.2675 90.957146C236.2675 89.300285 237.61064 87.957146 239.2675 87.957146C240.92435 87.957146 242.2675 89.300285 242.2675 90.957146Z" fill-rule="nonzero"/><path fill="#000000" fill-opacity="0.0" clip-path="url(#id_0)" d="M298.4725 142.60715C298.4725 144.26399 297.12936 145.60715 295.4725 145.60715C293.81564 145.60715 292.4725 144.26399 292.4725 142.60715C292.4725 140.95029 293.81564 139.60715 295.4725 139.60715C297.12936 139.60715 298.4725 140.95029 298.4725 142.60715Z" fill-rule="nonzero"/><path fill="#000000" fill-opacity="0.0" clip-path="url(#id_0)" d="M354.6775 186.87857C354.6775 188.53543 353.33435 189.87857 351.6775 189.87857C350.02066 189.87857 348.6775 188.53543 348.6775 186.87857C348.6775 185.22171 350.02066 183.87857 351.6775 183.87857C353.33435 183.87857 354.6775 185.22171 354.6775 186.87857Z" fill-rule="nonzero"/><path fill="#000000" fill-opacity="0.0" clip-path="url(#id_0)" d="M410.8825 186.87857C410.8825 188.53543 409.53937 189.87857 407.8825 189.87857C406.22565 189.87857 404.8825 188.53543 404.8825 186.87857C404.8825 185.22171 406.22565 183.87857 407.8825 183.87857C409.53937 183.87857 410.8825 185.22171 410.8825 186.87857Z" fill-rule="nonzero"/><path fill="#000000" fill-opacity="0.0" clip-path="url(#id_0)" d="M467.0875 83.578575C467.0875 85.23543 465.74435 86.578575 464.0875 86.578575C462.43063 86.578575 461.0875 85.23543 461.0875 83.578575C461.0875 81.921715 462.43063 80.578575 464.0875 80.578575C465.74435 80.578575 467.0875 81.921715 467.0875 83.578575Z" fill-rule="nonzero"/><path fill="#000000" fill-opacity="0.0" clip-path="url(#id_0)" d="M73.6525 97.72083C73.6525 99.377686 72.30936 100.72083 70.6525 100.72083C68.99564 100.72083 67.6525 99.377686 67.6525 97.72083C67.6525 96.06398 68.99564 94.72083 70.6525 94.72083C72.30936 94.72083 73.6525 96.06398 73.6525 97.72083Z" fill-rule="nonzero"/><path fill="#000000" fill-opacity="0.0" clip-path="url(#id_0)" d="M129.8575 153.675C129.8575 155.33185 128.51436 156.675 126.8575 156.675C125.200645 156.675 123.8575 155.33185 123.8575 153.675C123.8575 152.01814 125.200645 150.675 126.8575 150.675C128.51436 150.675 129.8575 152.01814 129.8575 153.675Z" fill-rule="nonzero"/><path fill="#000000" fill-opacity="0.0" clip-path="url(#id_0)" d="M186.0625 209.62917C186.0625 211.28603 184.71936 212.62917 183.0625 212.62917C181.40564 212.62917 180.0625 211.28603 180.0625 209.62917C180.0625 207.9723 181.40564 206.62917 183.0625 206.62917C184.71936 206.62917 186.0625 207.9723 186.0625 209.62917Z" fill-rule="nonzero"/><path fill="#000000" fill-opacity="0.0" clip-path="url(#id_0)" d="M242.2675 63.2875C242.2675 64.94435 240.92435 66.2875 239.2675 66.2875C237.61064 66.2875 236.2675 64.94435 236.2675 63.2875C236.2675 61.630646 237.61064 60.2875 239.2675 60.2875C240.92435 60.2875 242.2675 61.630646 242.2675 63.2875Z" fill-rule="nonzero"/><path fill="#000000" fill-opacity="0.0" clip-path="url(#id_0)" d="M298.4725 149.37083C298.4725 151.0277 297.12936 152.37083 295.4725 152.37083C293.81564 152.37083 292.4725 151.0277 292.4725 149.37083C292.4725 147.71397 293.81564 146.37083 295.4725 146.37083C297.12936 146.37083 298.4725 147.71397 298.4725 149.37083Z" fill-rule="nonzero"/><path fill="#000000" fill-opacity="0.0" clip-path="url(#id_0)" d="M354.6775 192.4125C354.6775 194.06935 353.33435 195.4125 351.6775 195.4125C350.02066 195.4125 348.6775 194.06935 348.6775 192.4125C348.6775 190.75565 350.02066 189.4125 351.6775 189.4125C353.33435 189.4125 354.6775 190.75565 354.6775 192.4125Z" fill-rule="nonzero"/><path fill="#000000" fill-opacity="0.0" clip-path="url(#id_0)" d="M410.8825 188.10834C410.8825 189.76518 409.53937 191.10834 407.8825 191.10834C406.22565 191.10834 404.8825 189.76518 404.8825 188.10834C404.8825 186.45148 406.22565 185.10834 407.8825 185.10834C409.53937 185.10834 410.8825 186.45148 410.8825 188.10834Z" fill-rule="nonzero"/><path fill="#000000" fill-opacity="0.0" clip-path="url(#id_0)" d="M467.0875 89.1125C467.0875 90.769356 465.74435 92.1125 464.0875 92.1125C462.43063 92.1125 461.0875 90.769356 461.0875 89.1125C461.0875 87.45564 462.43063 86.1125 464.0875 86.1125C465.74435 86.1125 467.0875 87.45564 467.0875 89.1125Z" fill-rule="nonzero"/><path fill="#000000" fill-opacity="0.0" clip-path="url(#id_0)" d="M73.6525 166.5875C73.6525 168.24435 72.30936 169.5875 70.6525 169.5875C68.99564 169.5875 67.6525 168.24435 67.6525 166.5875C67.6525 164.93065 68.99564 163.5875 70.6525 163.5875C72.30936 163.5875 73.6525 164.93065 73.6525 166.5875Z" fill-rule="nonzero"/><path fill="#000000" fill-opacity="0.0" clip-path="url(#id_0)" d="M129.8575 196.71666C129.8575 198.37352 128.51436 199.71666 126.8575 199.71666C125.200645 199.71666 123.8575 198.37352 123.8575 196.71666C123.8575 195.05981 125.200645 193.71666 126.8575 193.71666C128.51436 193.71666 129.8575 195.05981 129.8575 196.71666Z" fill-rule="nonzero"/><path fill="#000000" fill-opacity="0.0" clip-path="url(#id_0)" d="M186.0625 188.10834C186.0625 189.76518 184.71936 191.10834 183.0625 191.10834C181.40564 191.10834 180.0625 189.76518 180.0625 188.10834C180.0625 186.45148 181.40564 185.10834 183.0625 185.10834C184.71936 185.10834 186.0625 186.45148 186.0625 188.10834Z" fill-rule="nonzero"/><path fill="#000000" fill-opacity="0.0" clip-path="url(#id_0)" d="M242.2675 97.72083C242.2675 99.377686 240.92435 100.72083 239.2675 100.72083C237.61064 100.72083 236.2675 99.377686 236.2675 97.72083C236.2675 96.06398 237.61064 94.72083 239.2675 94.72083C240.92435 94.72083 242.2675 96.06398 242.2675 97.72083Z" fill-rule="nonzero"/><path fill="#000000" fill-opacity="0.0" clip-path="url(#id_0)" d="M298.4725 84.808334C298.4725 86.46519 297.12936 87.808334 295.4725 87.808334C293.81564 87.808334 292.4725 86.46519 292.4725 84.808334C292.4725 83.15148 293.81564 81.808334 295.4725 81.808334C297.12936 81.808334 298.4725 83.15148 298.4725 84.808334Z" fill-rule="nonzero"/><path fill="#000000" fill-opacity="0.0" clip-path="url(#id_0)" d="M354.6775 222.54167C354.6775 224.19852 353.33435 225.54167 351.6775 225.54167C350.02066 225.54167 348.6775 224.19852 348.6775 222.54167C348.6775 220.88481 350.02066 219.54167 351.6775 219.54167C353.33435 219.54167 354.6775 220.88481 354.6775 222.54167Z" fill-rule="nonzero"/><path fill="#000000" fill-opacity="0.0" clip-path="url(#id_0)" d="M410.8825 162.28334C410.8825 163.94019 409.53937 165.28334 407.8825 165.28334C406.22565 165.28334 404.8825 163.94019 404.8825 162.28334C404.8825 160.62648 406.22565 159.28334 407.8825 159.28334C409.53937 159.28334 410.8825 160.62648 410.8825 162.28334Z" fill-rule="nonzero"/><path fill="#000000" fill-opacity="0.0" clip-path="url(#id_0)" d="M467.0875 102.025C467.0875 103.681854 465.74435 105.025 464.0875 105.025C462.43063 105.025 461.0875 103.681854 461.0875 102.025C461.0875 100.36815 462.43063 99.025 464.0875 99.025C465.74435 99.025 467.0875 100.36815 467.0875 102.025Z" fill-rule="nonzero"/><path fill="#000000" fill-opacity="0.0" clip-path="url(#id_0)" d="M73.6525 97.72083C73.6525 99.377686 72.30936 100.72083 70.6525 100.72083C68.99564 100.72083 67.6525 99.377686 67.6525 97.72083C67.6525 96.06398 68.99564 94.72083 70.6525 94.72083C72.30936 94.72083 73.6525 96.06398 73.6525 97.72083Z" fill-rule="nonzero"/><path fill="#000000" fill-opacity="0.0" clip-path="url(#id_0)" d="M129.8575 149.37083C129.8575 151.0277 128.51436 152.37083 126.8575 152.37083C125.200645 152.37083 123.8575 151.0277 123.8575 149.37083C123.8575 147.71397 125.200645 146.37083 126.8575 146.37083C128.51436 146.37083 129.8575 147.71397 129.8575 149.37083Z" fill-rule="nonzero"/><path fill="#000000" fill-opacity="0.0" clip-path="url(#id_0)" d="M186.0625 153.675C186.0625 155.33185 184.71936 156.675 183.0625 156.675C181.40564 156.675 180.0625 155.33185 180.0625 153.675C180.0625 152.01814 181.40564 150.675 183.0625 150.675C184.71936 150.675 186.0625 152.01814 186.0625 153.675Z" fill-rule="nonzero"/><path fill="#000000" fill-opacity="0.0" clip-path="url(#id_0)" d="M242.2675 110.63333C242.2675 112.290184 240.92435 113.63333 239.2675 113.63333C237.61064 113.63333 236.2675 112.290184 236.2675 110.63333C236.2675 108.97648 237.61064 107.63333 239.2675 107.63333C240.92435 107.63333 242.2675 108.97648 242.2675 110.63333Z" fill-rule="nonzero"/><path fill="#000000" fill-opacity="0.0" clip-path="url(#id_0)" d="M298.4725 106.32917C298.4725 107.98602 297.12936 109.32917 295.4725 109.32917C293.81564 109.32917 292.4725 107.98602 292.4725 106.32917C292.4725 104.67231 293.81564 103.32917 295.4725 103.32917C297.12936 103.32917 298.4725 104.67231 298.4725 106.32917Z" fill-rule="nonzero"/><path fill="#000000" fill-opacity="0.0" clip-path="url(#id_0)" d="M354.6775 145.06667C354.6775 146.72353 353.33435 148.06667 351.6775 148.06667C350.02066 148.06667 348.6775 146.72353 348.6775 145.06667C348.6775 143.4098 350.02066 142.06667 351.6775 142.06667C353.33435 142.06667 354.6775 143.4098 354.6775 145.06667Z" fill-rule="nonzero"/><path fill="#000000" fill-opacity="0.0" clip-path="url(#id_0)" d="M410.8825 93.416664C410.8825 95.073524 409.53937 96.416664 407.8825 96.416664C406.22565 96.416664 404.8825 95.073524 404.8825 93.416664C404.8825 91.75981 406.22565 90.416664 407.8825 90.416664C409.53937 90.416664 410.8825 91.75981 410.8825 93.416664Z" fill-rule="nonzero"/><path fill="#000000" fill-opacity="0.0" clip-path="url(#id_0)" d="M467.0875 93.416664C467.0875 95.073524 465.74435 96.416664 464.0875 96.416664C462.43063 96.416664 461.0875 95.073524 461.0875 93.416664C461.0875 91.75981 462.43063 90.416664 464.0875 90.416664C465.74435 90.416664 467.0875 91.75981 467.0875 93.416664Z" fill-rule="nonzero"/><path fill="#000000" fill-opacity="0.0" clip-path="url(#id_0)" d="M73.6525 280.08157C73.6525 281.73843 72.30936 283.08157 70.6525 283.08157C68.99564 283.08157 67.6525 281.73843 67.6525 280.08157C67.6525 278.4247 68.99564 277.08157 70.6525 277.08157C72.30936 277.08157 73.6525 278.4247 73.6525 280.08157Z" fill-rule="nonzero"/><path fill="#000000" fill-opacity="0.0" clip-path="url(#id_0)" d="M129.8575 298.20438C129.8575 299.86124 128.51436 301.20438 126.8575 301.20438C125.200645 301.20438 123.8575 299.86124 123.8575 298.20438C123.8575 296.54755 125.200645 295.20438 126.8575 295.20438C128.51436 295.20438 129.8575 296.54755 129.8575 298.20438Z" fill-rule="nonzero"/><path fill="#000000" fill-opacity="0.0" clip-path="url(#id_0)" d="M186.0625 272.83246C186.0625 274.48932 184.71936 275.83246 183.0625 275.83246C181.40564 275.83246 180.0625 274.48932 180.0625 272.83246C180.0625 271.1756 181.40564 269.83246 183.0625 269.83246C184.71936 269.83246 186.0625 271.1756 186.0625 272.83246Z" fill-rule="nonzero"/><path fill="#000000" fill-opacity="0.0" clip-path="url(#id_0)" d="M242.2675 298.20438C242.2675 299.86124 240.92435 301.20438 239.2675 301.20438C237.61064 301.20438 236.2675 299.86124 236.2675 298.20438C236.2675 296.54755 237.61064 295.20438 239.2675 295.20438C240.92435 295.20438 242.2675 296.54755 242.2675 298.20438Z" fill-rule="nonzero"/><path fill="#000000" fill-opacity="0.0" clip-path="url(#id_0)" d="M298.4725 280.08157C298.4725 281.73843 297.12936 283.08157 295.4725 283.08157C293.81564 283.08157 292.4725 281.73843 292.4725 280.08157C292.4725 278.4247 293.81564 277.08157 295.4725 277.08157C297.12936 277.08157 298.4725 278.4247 298.4725 280.08157Z" fill-rule="nonzero"/><path fill="#000000" fill-opacity="0.0" clip-path="url(#id_0)" d="M354.6775 272.83246C354.6775 274.48932 353.33435 275.83246 351.6775 275.83246C350.02066 275.83246 348.6775 274.48932 348.6775 272.83246C348.6775 271.1756 350.02066 269.83246 351.6775 269.83246C353.33435 269.83246 354.6775 271.1756 354.6775 272.83246Z" fill-rule="nonzero"/><path fill="#000000" fill-opacity="0.0" clip-path="url(#id_0)" d="M410.8825 272.83246C410.8825 274.48932 409.53937 275.83246 407.8825 275.83246C406.22565 275.83246 404.8825 274.48932 404.8825 272.83246C404.8825 271.1756 406.22565 269.83246 407.8825 269.83246C409.53937 269.83246 410.8825 271.1756 410.8825 272.83246Z" fill-rule="nonzero"/><path fill="#000000" fill-opacity="0.0" clip-path="url(#id_0)" d="M467.0875 287.3307C467.0875 288.98755 465.74435 290.3307 464.0875 290.3307C462.43063 290.3307 461.0875 288.98755 461.0875 287.3307C461.0875 285.67386 462.43063 284.3307 464.0875 284.3307C465.74435 284.3307 467.0875 285.67386 467.0875 287.3307Z" fill-rule="nonzero"/><path fill="#000000" fill-opacity="0.0" clip-path="url(#id_0)" d="M73.6525 286.77307C73.6525 288.42993 72.30936 289.77307 70.6525 289.77307C68.99564 289.77307 67.6525 288.42993 67.6525 286.77307C67.6525 285.1162 68.99564 283.77307 70.6525 283.77307C72.30936 283.77307 73.6525 285.1162 73.6525 286.77307Z" fill-rule="nonzero"/><path fill="#000000" fill-opacity="0.0" clip-path="url(#id_0)" d="M129.8575 302.66537C129.8575 304.32224 128.51436 305.66537 126.8575 305.66537C125.200645 305.66537 123.8575 304.32224 123.8575 302.66537C123.8575 301.00854 125.200645 299.66537 126.8575 299.66537C128.51436 299.66537 129.8575 301.00854 129.8575 302.66537Z" fill-rule="nonzero"/><path fill="#000000" fill-opacity="0.0" clip-path="url(#id_0)" d="M186.0625 302.66537C186.0625 304.32224 184.71936 305.66537 183.0625 305.66537C181.40564 305.66537 180.0625 304.32224 180.0625 302.66537C180.0625 301.00854 181.40564 299.66537 183.0625 299.66537C184.71936 299.66537 186.0625 301.00854 186.0625 302.66537Z" fill-rule="nonzero"/><path fill="#000000" fill-opacity="0.0" clip-path="url(#id_0)" d="M242.2675 254.98846C242.2675 256.64532 240.92435 257.98846 239.2675 257.98846C237.61064 257.98846 236.2675 256.64532 236.2675 254.98846C236.2675 253.3316 237.61064 251.98846 239.2675 251.98846C240.92435 251.98846 242.2675 253.3316 242.2675 254.98846Z" fill-rule="nonzero"/><path fill="#000000" fill-opacity="0.0" clip-path="url(#id_0)" d="M298.4725 286.77307C298.4725 288.42993 297.12936 289.77307 295.4725 289.77307C293.81564 289.77307 292.4725 288.42993 292.4725 286.77307C292.4725 285.1162 293.81564 283.77307 295.4725 283.77307C297.12936 283.77307 298.4725 285.1162 298.4725 286.77307Z" fill-rule="nonzero"/><path fill="#000000" fill-opacity="0.0" clip-path="url(#id_0)" d="M354.6775 254.98846C354.6775 256.64532 353.33435 257.98846 351.6775 257.98846C350.02066 257.98846 348.6775 256.64532 348.6775 254.98846C348.6775 253.3316 350.02066 251.98846 351.6775 251.98846C353.33435 251.98846 354.6775 253.3316 354.6775 254.98846Z" fill-rule="nonzero"/><path fill="#000000" fill-opacity="0.0" clip-path="url(#id_0)" d="M410.8825 286.77307C410.8825 288.42993 409.53937 289.77307 407.8825 289.77307C406.22565 289.77307 404.8825 288.42993 404.8825 286.77307C404.8825 285.1162 406.22565 283.77307 407.8825 283.77307C409.53937 283.77307 410.8825 285.1162 410.8825 286.77307Z" fill-rule="nonzero"/><path fill="#000000" fill-opacity="0.0" clip-path="url(#id_0)" d="M467.0875 286.77307C467.0875 288.42993 465.74435 289.77307 464.0875 289.77307C462.43063 289.77307 461.0875 288.42993 461.0875 286.77307C461.0875 285.1162 462.43063 283.77307 464.0875 283.77307C465.74435 283.77307 467.0875 285.1162 467.0875 286.77307Z" fill-rule="nonzero"/><path fill="#000000" d="M36.221874 333.6375Q36.221874 334.5125 36.08125 335.23126Q35.940624 335.95 35.6125 336.48126Q35.3 336.9969 34.784374 337.27814Q34.26875 337.5594 33.51875 337.5594Q32.8 337.5594 32.3 337.3094Q31.815624 337.04376 31.51875 336.5594Q31.221874 336.0594 31.096874 335.34064Q30.971874 334.60626 30.971874 333.66876Q30.971874 332.8094 31.1125 332.09064Q31.253124 331.35626 31.565624 330.84064Q31.89375 330.325 32.409374 330.04376Q32.925 329.7625 33.675 329.7625Q34.39375 329.7625 34.878124 330.0125Q35.3625 330.2625 35.659374 330.7625Q35.971874 331.2625 36.096874 331.98126Q36.221874 332.7 36.221874 333.6375ZM35.190624 333.71564Q35.190624 333.1375 35.14375 332.7Q35.096874 332.2469 35.01875 331.90314Q34.940624 331.54376 34.815624 331.29376Q34.690624 331.04376 34.51875 330.8875Q34.346874 330.73126 34.1125 330.65314Q33.89375 330.575 33.6125 330.575Q33.1125 330.575 32.8 330.8094Q32.4875 331.04376 32.3 331.46564Q32.128124 331.8719 32.065624 332.41876Q32.003124 332.96564 32.003124 333.60626Q32.003124 334.45 32.08125 335.04376Q32.175 335.6375 32.3625 336.0125Q32.565624 336.3875 32.8625 336.5594Q33.159374 336.73126 33.58125 336.73126Q33.909374 336.73126 34.14375 336.6375Q34.39375 336.52814 34.565624 336.34064Q34.753124 336.1375 34.8625 335.85626Q34.9875 335.575 35.05 335.2469Q35.128124 334.91876 35.159374 334.52814Q35.190624 334.1375 35.190624 333.71564Z" fill-rule="nonzero"/><path fill="#000000" d="M35.971874 233.7125Q35.971874 233.82187 35.95625 233.9Q35.940624 233.97812 35.909374 234.04062Q35.878124 234.10312 35.83125 234.13437Q35.8 234.15 35.7375 234.15L31.55 234.15Q31.471874 234.15 31.409374 234.13437Q31.346874 234.10312 31.3 234.05624Q31.253124 234.00937 31.2375 233.93124Q31.221874 233.8375 31.221874 233.7125Q31.221874 233.5875 31.221874 233.50937Q31.2375 233.41562 31.26875 233.35312Q31.3 233.275 31.33125 233.2125Q31.378124 233.15 31.45625 233.07187L32.925 231.50937Q33.440624 230.97812 33.7375 230.55624Q34.05 230.11874 34.20625 229.775Q34.378124 229.41562 34.425 229.13437Q34.4875 228.8375 34.4875 228.5875Q34.4875 228.3375 34.409374 228.11874Q34.33125 227.88437 34.175 227.7125Q34.01875 227.54062 33.784374 227.44687Q33.55 227.35312 33.2375 227.35312Q32.878124 227.35312 32.596874 227.44687Q32.315624 227.54062 32.096874 227.66562Q31.89375 227.775 31.7375 227.88437Q31.596874 227.97812 31.534374 227.97812Q31.4875 227.97812 31.45625 227.9625Q31.425 227.93124 31.39375 227.88437Q31.378124 227.82187 31.3625 227.74374Q31.3625 227.65 31.3625 227.525Q31.3625 227.44687 31.3625 227.38437Q31.378124 227.30624 31.378124 227.25937Q31.39375 227.2125 31.409374 227.18124Q31.440624 227.13437 31.503124 227.07187Q31.58125 227.00937 31.753124 226.91562Q31.940624 226.80624 32.190624 226.7125Q32.45625 226.60312 32.76875 226.54062Q33.08125 226.4625 33.425 226.4625Q33.971874 226.4625 34.378124 226.61874Q34.8 226.75937 35.065624 227.04062Q35.346874 227.30624 35.471874 227.66562Q35.6125 228.025 35.6125 228.43124Q35.6125 228.79062 35.55 229.15Q35.4875 229.50937 35.284374 229.93124Q35.08125 230.35312 34.675 230.86874Q34.284374 231.36874 33.64375 232.04062L32.440624 233.29062L35.7375 233.29062Q35.784374 233.29062 35.83125 233.32187Q35.878124 233.35312 35.909374 233.4Q35.940624 233.44687 35.95625 233.525Q35.971874 233.60312 35.971874 233.7125Z" fill-rule="nonzero"/><path fill="#000000" d="M36.284374 128.69376Q36.284374 128.88126 36.221874 129.00626Q36.175 129.11563 36.065624 129.11563L35.20625 129.11563L35.20625 130.70938Q35.20625 130.75626 35.175 130.7875Q35.159374 130.81876 35.096874 130.85Q35.05 130.86563 34.95625 130.86563Q34.8625 130.88126 34.70625 130.88126Q34.565624 130.88126 34.471874 130.86563Q34.378124 130.86563 34.315624 130.85Q34.26875 130.81876 34.253124 130.7875Q34.2375 130.75626 34.2375 130.70938L34.2375 129.11563L31.096874 129.11563Q31.034374 129.11563 30.9875 129.1Q30.940624 129.06876 30.89375 129.02188Q30.8625 128.975 30.846874 128.89688Q30.83125 128.80313 30.83125 128.6625Q30.83125 128.55313 30.83125 128.475Q30.846874 128.38126 30.8625 128.30313Q30.878124 128.225 30.909374 128.1625Q30.940624 128.1 30.971874 128.02188L33.70625 123.412506Q33.7375 123.36563 33.784374 123.33438Q33.846874 123.30313 33.925 123.287506Q34.01875 123.256256 34.14375 123.24063Q34.284374 123.225006 34.45625 123.225006Q34.659374 123.225006 34.8 123.24063Q34.940624 123.256256 35.01875 123.287506Q35.1125 123.30313 35.159374 123.350006Q35.20625 123.381256 35.20625 123.443756L35.20625 128.27188L36.065624 128.27188Q36.159374 128.27188 36.221874 128.38126Q36.284374 128.475 36.284374 128.69376ZM34.2375 124.11563L34.221874 124.11563L31.753124 128.27188L34.2375 128.27188L34.2375 124.11563Z" fill-rule="nonzero"/><path fill="#000000" d="M36.159374 25.096874Q36.159374 25.596874 36.003124 26.065624Q35.846874 26.51875 35.534374 26.878124Q35.221874 27.2375 34.7375 27.45625Q34.253124 27.659374 33.58125 27.659374Q33.1125 27.659374 32.7375 27.55Q32.378124 27.425 32.1125 27.20625Q31.846874 26.9875 31.659374 26.675Q31.4875 26.3625 31.378124 25.95625Q31.26875 25.55 31.221874 25.08125Q31.175 24.596874 31.175 24.034374Q31.175 23.55 31.221874 23.05Q31.284374 22.55 31.409374 22.096874Q31.55 21.628124 31.784374 21.221874Q32.01875 20.815624 32.3625 20.51875Q32.70625 20.20625 33.190624 20.034374Q33.690624 19.8625 34.33125 19.8625Q34.55 19.8625 34.76875 19.89375Q34.9875 19.909374 35.175 19.95625Q35.3625 20.003124 35.4875 20.065624Q35.628124 20.1125 35.659374 20.14375Q35.70625 20.175 35.721874 20.221874Q35.753124 20.253124 35.753124 20.3Q35.76875 20.33125 35.76875 20.39375Q35.784374 20.440624 35.784374 20.534374Q35.784374 20.628124 35.784374 20.70625Q35.784374 20.784374 35.753124 20.83125Q35.7375 20.878124 35.70625 20.909374Q35.675 20.925 35.6125 20.925Q35.55 20.925 35.440624 20.89375Q35.33125 20.846874 35.175 20.8Q35.01875 20.753124 34.784374 20.70625Q34.565624 20.659374 34.26875 20.659374Q33.721874 20.659374 33.33125 20.89375Q32.940624 21.1125 32.690624 21.4875Q32.440624 21.8625 32.315624 22.3625Q32.190624 22.846874 32.175 23.39375Q32.33125 23.3 32.51875 23.221874Q32.70625 23.128124 32.925 23.065624Q33.159374 22.9875 33.409374 22.940624Q33.675 22.89375 33.95625 22.89375Q34.565624 22.89375 34.9875 23.065624Q35.409374 23.2375 35.675 23.534374Q35.940624 23.815624 36.05 24.221874Q36.159374 24.628124 36.159374 25.096874ZM35.14375 25.190624Q35.14375 24.846874 35.065624 24.565624Q35.003124 24.284374 34.846874 24.096874Q34.690624 23.909374 34.425 23.8Q34.159374 23.690624 33.76875 23.690624Q33.55 23.690624 33.33125 23.7375Q33.128124 23.76875 32.925 23.846874Q32.721874 23.909374 32.534374 24.003124Q32.346874 24.08125 32.190624 24.190624Q32.190624 24.940624 32.284374 25.45625Q32.39375 25.971874 32.565624 26.284374Q32.753124 26.58125 33.034374 26.721874Q33.315624 26.846874 33.675 26.846874Q34.05 26.846874 34.33125 26.70625Q34.6125 26.565624 34.784374 26.33125Q34.971874 26.096874 35.05 25.8Q35.14375 25.503124 35.14375 25.190624Z" fill-rule="nonzero"/><path fill="#000000" d="M73.84 349.09064Q73.88687 349.21564 73.88687 349.29376Q73.88687 349.3719 73.84 349.41876Q73.79312 349.46564 73.68375 349.46564Q73.57437 349.48126 73.4025 349.48126Q73.215 349.48126 73.10562 349.46564Q72.99625 349.46564 72.93375 349.45Q72.88687 349.41876 72.85562 349.3875Q72.84 349.35626 72.80875 349.3094L72.16812 347.45L69.01187 347.45L68.38687 349.27814Q68.37125 349.325 68.34 349.3719Q68.30875 349.40314 68.24625 349.4344Q68.19937 349.46564 68.09 349.46564Q67.99625 349.48126 67.84 349.48126Q67.66812 349.48126 67.55875 349.46564Q67.44937 349.45 67.4025 349.41876Q67.35562 349.3719 67.35562 349.29376Q67.37125 349.21564 67.41812 349.09064L69.94937 342.04376Q69.98062 341.98126 70.01187 341.95Q70.05875 341.90314 70.12125 341.8875Q70.19937 341.85626 70.30875 341.84064Q70.43375 341.825 70.60562 341.825Q70.79312 341.825 70.91812 341.84064Q71.04312 341.85626 71.10562 341.8875Q71.18375 341.90314 71.23062 341.95Q71.2775 341.98126 71.29312 342.04376L73.84 349.09064ZM70.57437 342.8719L70.57437 342.8719L69.26187 346.65314L71.9025 346.65314L70.57437 342.8719Z" fill-rule="nonzero"/><path fill="#000000" d="M129.3575 347.27814Q129.3575 347.6375 129.26375 347.9344Q129.18562 348.23126 129.01375 348.48126Q128.8575 348.71564 128.62312 348.90314Q128.38875 349.075 128.09187 349.2Q127.81062 349.325 127.4825 349.3875Q127.15437 349.45 126.71687 349.45L124.74812 349.45Q124.6075 349.45 124.4825 349.35626Q124.37312 349.2625 124.37312 349.04376L124.37312 342.27814Q124.37312 342.04376 124.4825 341.96564Q124.6075 341.8719 124.74812 341.8719L126.46687 341.8719Q127.13875 341.8719 127.57625 341.9969Q128.01375 342.1219 128.295 342.3719Q128.59187 342.6219 128.7325 342.98126Q128.88875 343.325 128.88875 343.77814Q128.88875 344.0594 128.81062 344.3094Q128.74812 344.54376 128.62312 344.7625Q128.49812 344.96564 128.31062 345.1375Q128.12312 345.29376 127.87312 345.3875Q128.18562 345.45 128.45125 345.60626Q128.7325 345.7625 128.92 346.0125Q129.12312 346.2469 129.2325 346.575Q129.3575 346.8875 129.3575 347.27814ZM127.84187 343.8875Q127.84187 343.60626 127.76375 343.3875Q127.70125 343.16876 127.52937 343.0125Q127.37312 342.85626 127.1075 342.77814Q126.84187 342.6844 126.40437 342.6844L125.3575 342.6844L125.3575 345.1375L126.51375 345.1375Q126.90437 345.1375 127.13875 345.04376Q127.38875 344.9344 127.545 344.7625Q127.70125 344.59064 127.76375 344.35626Q127.84187 344.1219 127.84187 343.8875ZM128.31062 347.34064Q128.31062 346.9969 128.20125 346.7469Q128.09187 346.48126 127.87312 346.3094Q127.67 346.1219 127.3575 346.04376Q127.045 345.95 126.57625 345.95L125.3575 345.95L125.3575 348.6219L126.82625 348.6219Q127.17 348.6219 127.42 348.54376Q127.68562 348.45 127.87312 348.29376Q128.07625 348.1375 128.18562 347.90314Q128.31062 347.65314 128.31062 347.34064Z" fill-rule="nonzero"/><path fill="#000000" d="M186.14062 348.3719Q186.14062 348.46564 186.125 348.54376Q186.125 348.60626 186.10938 348.66876Q186.09375 348.71564 186.0625 348.7625Q186.04688 348.79376 185.98438 348.85626Q185.92188 348.91876 185.73438 349.04376Q185.54688 349.15314 185.26562 349.27814Q185.0 349.3875 184.64062 349.46564Q184.28125 349.54376 183.84375 349.54376Q183.10938 349.54376 182.51562 349.29376Q181.92188 349.04376 181.5 348.575Q181.07812 348.09064 180.84375 347.3875Q180.625 346.6844 180.625 345.7625Q180.625 344.8094 180.875 344.075Q181.125 343.34064 181.5625 342.825Q182.0 342.3094 182.60938 342.04376Q183.21875 341.77814 183.96875 341.77814Q184.29688 341.77814 184.60938 341.84064Q184.92188 341.90314 185.17188 341.9969Q185.4375 342.09064 185.64062 342.21564Q185.85938 342.325 185.9375 342.40314Q186.01562 342.48126 186.03125 342.52814Q186.0625 342.575 186.07812 342.6375Q186.09375 342.6844 186.09375 342.7625Q186.10938 342.84064 186.10938 342.9344Q186.10938 343.0594 186.09375 343.1375Q186.07812 343.21564 186.04688 343.27814Q186.03125 343.325 186.0 343.35626Q185.96875 343.3875 185.92188 343.3875Q185.84375 343.3875 185.6875 343.27814Q185.54688 343.15314 185.3125 343.02814Q185.07812 342.8875 184.75 342.77814Q184.42188 342.65314 183.95312 342.65314Q183.45312 342.65314 183.03125 342.85626Q182.625 343.0594 182.32812 343.45Q182.04688 343.84064 181.875 344.40314Q181.71875 344.96564 181.71875 345.7Q181.71875 346.41876 181.875 346.98126Q182.03125 347.52814 182.3125 347.90314Q182.60938 348.27814 183.03125 348.46564Q183.45312 348.65314 183.98438 348.65314Q184.4375 348.65314 184.76562 348.54376Q185.10938 348.4344 185.34375 348.29376Q185.59375 348.15314 185.73438 348.04376Q185.89062 347.9344 185.98438 347.9344Q186.01562 347.9344 186.04688 347.95Q186.07812 347.96564 186.09375 348.0125Q186.10938 348.0594 186.125 348.15314Q186.14062 348.2469 186.14062 348.3719Z" fill-rule="nonzero"/><path fill="#000000" d="M242.11125 345.54376Q242.11125 346.52814 241.84563 347.2625Q241.59563 347.9969 241.11125 348.48126Q240.6425 348.96564 239.93938 349.21564Q239.23625 349.45 238.25188 349.45L236.65813 349.45Q236.5175 349.45 236.3925 349.35626Q236.28313 349.2625 236.28313 349.04376L236.28313 342.27814Q236.28313 342.04376 236.3925 341.96564Q236.5175 341.8719 236.65813 341.8719L238.36125 341.8719Q239.34563 341.8719 240.0175 342.1219Q240.705 342.3719 241.15813 342.85626Q241.62688 343.325 241.86125 344.0125Q242.11125 344.6844 242.11125 345.54376ZM241.04875 345.59064Q241.04875 344.96564 240.8925 344.45Q240.73625 343.91876 240.40813 343.52814Q240.09563 343.1375 239.59563 342.91876Q239.09563 342.7 238.31438 342.7L237.28313 342.7L237.28313 348.60626L238.31438 348.60626Q239.04875 348.60626 239.54875 348.4344Q240.04875 348.2469 240.37688 347.8719Q240.705 347.4969 240.87688 346.9344Q241.04875 346.35626 241.04875 345.59064Z" fill-rule="nonzero"/><path fill="#000000" d="M297.70688 349.02814Q297.70688 349.1375 297.69125 349.21564Q297.67563 349.29376 297.64438 349.35626Q297.61313 349.40314 297.56625 349.4344Q297.535 349.45 297.48813 349.45L293.86313 349.45Q293.7225 349.45 293.5975 349.35626Q293.48813 349.2625 293.48813 349.04376L293.48813 342.27814Q293.48813 342.04376 293.5975 341.96564Q293.7225 341.8719 293.86313 341.8719L297.45688 341.8719Q297.50375 341.8719 297.535 341.90314Q297.58188 341.91876 297.5975 341.96564Q297.62875 342.0125 297.64438 342.10626Q297.66 342.1844 297.66 342.29376Q297.66 342.40314 297.64438 342.48126Q297.62875 342.5594 297.5975 342.60626Q297.58188 342.65314 297.535 342.6844Q297.50375 342.7 297.45688 342.7L294.48813 342.7L294.48813 345.09064L297.035 345.09064Q297.08188 345.09064 297.11313 345.1219Q297.16 345.1375 297.17563 345.1844Q297.20688 345.23126 297.2225 345.3094Q297.23813 345.3875 297.23813 345.5125Q297.23813 345.60626 297.2225 345.6844Q297.20688 345.7625 297.17563 345.8094Q297.16 345.85626 297.11313 345.8875Q297.08188 345.90314 297.035 345.90314L294.48813 345.90314L294.48813 348.60626L297.48813 348.60626Q297.535 348.60626 297.56625 348.6375Q297.61313 348.65314 297.64438 348.71564Q297.67563 348.7625 297.69125 348.84064Q297.70688 348.91876 297.70688 349.02814Z" fill-rule="nonzero"/><path fill="#000000" d="M353.6775 342.29376Q353.6775 342.41876 353.66187 342.4969Q353.64624 342.575 353.615 342.6219Q353.58374 342.66876 353.53687 342.7Q353.5056 342.71564 353.47437 342.71564L350.6931 342.71564L350.6931 345.29376L353.3181 345.29376Q353.365 345.29376 353.39624 345.325Q353.4431 345.34064 353.45874 345.3875Q353.49 345.4344 353.5056 345.5125Q353.52124 345.59064 353.52124 345.71564Q353.52124 345.825 353.5056 345.90314Q353.49 345.98126 353.45874 346.04376Q353.4431 346.09064 353.39624 346.1219Q353.365 346.1375 353.3181 346.1375L350.6931 346.1375L350.6931 349.29376Q350.6931 349.34064 350.66187 349.3875Q350.64624 349.41876 350.58374 349.4344Q350.53687 349.45 350.4431 349.46564Q350.34937 349.48126 350.1931 349.48126Q350.0525 349.48126 349.9431 349.46564Q349.84937 349.45 349.78687 349.4344Q349.74 349.41876 349.70874 349.3875Q349.6931 349.34064 349.6931 349.29376L349.6931 342.27814Q349.6931 342.04376 349.8025 341.96564Q349.9275 341.8719 350.0681 341.8719L353.47437 341.8719Q353.5056 341.8719 353.53687 341.90314Q353.58374 341.91876 353.615 341.96564Q353.64624 342.0125 353.66187 342.10626Q353.6775 342.1844 353.6775 342.29376Z" fill-rule="nonzero"/><path fill="#000000" d="M410.58563 342.90314Q410.58563 343.0125 410.57 343.10626Q410.57 343.1844 410.53876 343.2469Q410.52313 343.29376 410.47626 343.325Q410.445 343.34064 410.39813 343.34064Q410.33563 343.34064 410.16376 343.23126Q410.0075 343.1219 409.72626 342.98126Q409.46063 342.84064 409.07 342.73126Q408.695 342.6219 408.16376 342.6219Q407.53876 342.6219 407.03876 342.85626Q406.53876 343.075 406.195 343.48126Q405.85126 343.8875 405.66376 344.45Q405.47626 344.9969 405.47626 345.65314Q405.47626 346.3719 405.67938 346.9344Q405.8825 347.4969 406.24188 347.8875Q406.60126 348.27814 407.08563 348.48126Q407.58563 348.66876 408.17938 348.66876Q408.52313 348.66876 408.8825 348.59064Q409.2575 348.5125 409.55438 348.34064L409.55438 346.1219L407.80438 346.1219Q407.71063 346.1219 407.64813 346.02814Q407.60126 345.9344 407.60126 345.71564Q407.60126 345.60626 407.61688 345.52814Q407.6325 345.45 407.64813 345.40314Q407.67938 345.34064 407.71063 345.325Q407.7575 345.29376 407.80438 345.29376L410.21063 345.29376Q410.27313 345.29376 410.33563 345.325Q410.39813 345.34064 410.445 345.3875Q410.5075 345.4344 410.53876 345.52814Q410.57 345.60626 410.57 345.71564L410.57 348.60626Q410.57 348.7469 410.5075 348.8719Q410.46063 348.98126 410.28876 349.0594Q410.11688 349.1375 409.85126 349.2469Q409.58563 349.34064 409.28876 349.41876Q409.0075 349.48126 408.71063 349.5125Q408.42938 349.5594 408.1325 349.5594Q407.2575 349.5594 406.57 349.29376Q405.8825 349.0125 405.39813 348.5125Q404.91376 347.9969 404.66376 347.29376Q404.41376 346.59064 404.41376 345.73126Q404.41376 344.825 404.67938 344.09064Q404.96063 343.35626 405.445 342.84064Q405.945 342.325 406.6325 342.04376Q407.33563 341.7625 408.17938 341.7625Q408.61688 341.7625 408.99188 341.84064Q409.3825 341.91876 409.67938 342.02814Q409.97626 342.1219 410.17938 342.2469Q410.3825 342.35626 410.445 342.4344Q410.52313 342.5125 410.55438 342.6219Q410.58563 342.71564 410.58563 342.90314Z" fill-rule="nonzero"/><path fill="#000000" d="M466.55624 349.29376Q466.55624 349.34064 466.525 349.3875Q466.50937 349.41876 466.44687 349.4344Q466.4 349.45 466.29062 349.46564Q466.19687 349.48126 466.05624 349.48126Q465.9 349.48126 465.80624 349.46564Q465.7125 349.45 465.65 349.4344Q465.60312 349.41876 465.57187 349.3875Q465.55624 349.34064 465.55624 349.29376L465.55624 345.9344L462.10312 345.9344L462.10312 349.29376Q462.10312 349.34064 462.07187 349.3875Q462.05624 349.41876 461.99374 349.4344Q461.94687 349.45 461.8375 349.46564Q461.74374 349.48126 461.60312 349.48126Q461.4625 349.48126 461.35312 349.46564Q461.25937 349.45 461.19687 349.4344Q461.15 349.41876 461.11874 349.3875Q461.10312 349.34064 461.10312 349.29376L461.10312 342.0125Q461.10312 341.96564 461.11874 341.9344Q461.15 341.90314 461.19687 341.8875Q461.25937 341.85626 461.35312 341.84064Q461.4625 341.825 461.60312 341.825Q461.74374 341.825 461.8375 341.84064Q461.94687 341.85626 461.99374 341.8875Q462.05624 341.90314 462.07187 341.9344Q462.10312 341.96564 462.10312 342.0125L462.10312 345.0594L465.55624 345.0594L465.55624 342.0125Q465.55624 341.96564 465.57187 341.9344Q465.60312 341.90314 465.65 341.8875Q465.7125 341.85626 465.80624 341.84064Q465.9 341.825 466.05624 341.825Q466.19687 341.825 466.29062 341.84064Q466.4 341.85626 466.44687 341.8875Q466.50937 341.90314 466.525 341.9344Q466.55624 341.96564 466.55624 342.0125L466.55624 349.29376Z" fill-rule="nonzero"/><path stroke="#5b9bd5" stroke-width="4.0" stroke-linecap="butt" d="M514.45 24.55L526.45 24.55" fill-rule="nonzero"/><path fill="#1a1a1a" d="M540.1219 23.7375Q540.1219 24.6125 539.98126 25.33125Q539.84064 26.05 539.5125 26.58125Q539.2 27.096874 538.6844 27.378124Q538.16876 27.659374 537.41876 27.659374Q536.7 27.659374 536.2 27.409374Q535.71564 27.14375 535.41876 26.659374Q535.1219 26.159374 534.9969 25.440624Q534.8719 24.70625 534.8719 23.76875Q534.8719 22.909374 535.0125 22.190624Q535.15314 21.45625 535.46564 20.940624Q535.79376 20.425 536.3094 20.14375Q536.825 19.8625 537.575 19.8625Q538.29376 19.8625 538.77814 20.1125Q539.2625 20.3625 539.5594 20.8625Q539.8719 21.3625 539.9969 22.08125Q540.1219 22.8 540.1219 23.7375ZM539.09064 23.815624Q539.09064 23.2375 539.04376 22.8Q538.9969 22.346874 538.91876 22.003124Q538.84064 21.64375 538.71564 21.39375Q538.59064 21.14375 538.41876 20.9875Q538.2469 20.83125 538.0125 20.753124Q537.79376 20.675 537.5125 20.675Q537.0125 20.675 536.7 20.909374Q536.3875 21.14375 536.2 21.565624Q536.02814 21.971874 535.96564 22.51875Q535.90314 23.065624 535.90314 23.70625Q535.90314 24.55 535.98126 25.14375Q536.075 25.7375 536.2625 26.1125Q536.46564 26.4875 536.7625 26.659374Q537.0594 26.83125 537.48126 26.83125Q537.8094 26.83125 538.04376 26.7375Q538.29376 26.628124 538.46564 26.440624Q538.65314 26.2375 538.7625 25.95625Q538.8875 25.675 538.95 25.346874Q539.02814 25.01875 539.0594 24.628124Q539.09064 24.2375 539.09064 23.815624Z" fill-rule="nonzero"/><path stroke="#ed7d31" stroke-width="4.0" stroke-linecap="butt" d="M514.45 46.55L526.45 46.55" fill-rule="nonzero"/><path fill="#1a1a1a" d="M539.8875 49.14375Q539.8875 49.26875 539.85626 49.346874Q539.84064 49.409374 539.8094 49.45625Q539.79376 49.503124 539.7469 49.534374Q539.71564 49.55 539.66876 49.55L535.71564 49.55Q535.66876 49.55 535.6375 49.534374Q535.60626 49.503124 535.5594 49.45625Q535.52814 49.409374 535.5125 49.346874Q535.4969 49.26875 535.4969 49.14375Q535.4969 49.05 535.5125 48.971874Q535.52814 48.89375 535.5594 48.846874Q535.59064 48.8 535.6219 48.76875Q535.66876 48.7375 535.71564 48.7375L537.29376 48.7375L537.29376 42.971874L535.825 43.846874Q535.71564 43.909374 535.6375 43.925Q535.575 43.925 535.52814 43.89375Q535.4969 43.846874 535.48126 43.76875Q535.46564 43.675 535.46564 43.55Q535.46564 43.440624 535.46564 43.378124Q535.48126 43.3 535.4969 43.253124Q535.52814 43.20625 535.5594 43.175Q535.59064 43.14375 535.6375 43.096874L537.3875 41.9875Q537.40314 41.971874 537.4344 41.95625Q537.48126 41.940624 537.52814 41.940624Q537.59064 41.925 537.65314 41.925Q537.73126 41.909374 537.825 41.909374Q537.96564 41.909374 538.0594 41.925Q538.15314 41.940624 538.2 41.95625Q538.2625 41.971874 538.27814 42.01875Q538.29376 42.05 538.29376 42.08125L538.29376 48.7375L539.66876 48.7375Q539.71564 48.7375 539.7469 48.76875Q539.79376 48.8 539.825 48.846874Q539.85626 48.89375 539.8719 48.971874Q539.8875 49.05 539.8875 49.14375Z" fill-rule="nonzero"/><path stroke="#a5a5a5" stroke-width="4.0" stroke-linecap="butt" d="M514.45 68.55L526.45 68.55" fill-rule="nonzero"/><path fill="#1a1a1a" d="M539.8719 71.1125Q539.8719 71.22188 539.85626 71.3Q539.84064 71.37813 539.8094 71.44063Q539.77814 71.50313 539.73126 71.53438Q539.7 71.55 539.6375 71.55L535.45 71.55Q535.3719 71.55 535.3094 71.53438Q535.2469 71.50313 535.2 71.45625Q535.15314 71.40938 535.1375 71.33125Q535.1219 71.2375 535.1219 71.1125Q535.1219 70.9875 535.1219 70.90938Q535.1375 70.81563 535.16876 70.75313Q535.2 70.675 535.23126 70.6125Q535.27814 70.55 535.35626 70.47188L536.825 68.90938Q537.34064 68.37813 537.6375 67.95625Q537.95 67.51875 538.10626 67.175Q538.27814 66.81563 538.325 66.53438Q538.3875 66.2375 538.3875 65.9875Q538.3875 65.7375 538.3094 65.51875Q538.23126 65.28438 538.075 65.1125Q537.91876 64.94063 537.6844 64.84688Q537.45 64.75313 537.1375 64.75313Q536.77814 64.75313 536.4969 64.84688Q536.21564 64.94063 535.9969 65.06563Q535.79376 65.175 535.6375 65.28438Q535.4969 65.37813 535.4344 65.37813Q535.3875 65.37813 535.35626 65.3625Q535.325 65.33125 535.29376 65.28438Q535.27814 65.22188 535.2625 65.14375Q535.2625 65.05 535.2625 64.925Q535.2625 64.84688 535.2625 64.78438Q535.27814 64.70625 535.27814 64.65938Q535.29376 64.6125 535.3094 64.58125Q535.34064 64.53438 535.40314 64.47188Q535.48126 64.40938 535.65314 64.31563Q535.84064 64.20625 536.09064 64.1125Q536.35626 64.00313 536.66876 63.940628Q536.98126 63.862503 537.325 63.862503Q537.8719 63.862503 538.27814 64.01875Q538.7 64.15938 538.96564 64.44063Q539.2469 64.70625 539.3719 65.06563Q539.5125 65.425 539.5125 65.83125Q539.5125 66.19063 539.45 66.55Q539.3875 66.90938 539.1844 67.33125Q538.98126 67.75313 538.575 68.26875Q538.1844 68.76875 537.54376 69.44063L536.34064 70.69063L539.6375 70.69063Q539.6844 70.69063 539.73126 70.72188Q539.77814 70.75313 539.8094 70.8Q539.84064 70.84688 539.85626 70.925Q539.8719 71.00313 539.8719 71.1125Z" fill-rule="nonzero"/><path stroke="#ffc000" stroke-width="4.0" stroke-linecap="butt" d="M514.45 90.55L526.45 90.55" fill-rule="nonzero"/><path fill="#1a1a1a" d="M539.8094 91.37813Q539.8094 91.90938 539.6219 92.33125Q539.45 92.7375 539.10626 93.03438Q538.7625 93.33125 538.2625 93.50313Q537.7625 93.65938 537.1375 93.65938Q536.7625 93.65938 536.41876 93.59688Q536.09064 93.53438 535.825 93.45625Q535.575 93.3625 535.40314 93.28438Q535.2469 93.19063 535.2 93.14375Q535.15314 93.09688 535.1219 93.06563Q535.10626 93.01875 535.09064 92.97188Q535.075 92.90938 535.0594 92.83125Q535.0594 92.7375 535.0594 92.6125Q535.0594 92.39375 535.09064 92.31563Q535.1375 92.2375 535.21564 92.2375Q535.2625 92.2375 535.41876 92.33125Q535.575 92.425 535.8094 92.53438Q536.0594 92.64375 536.3875 92.7375Q536.71564 92.83125 537.10626 92.83125Q537.4969 92.83125 537.79376 92.7375Q538.09064 92.62813 538.27814 92.45625Q538.48126 92.26875 538.575 92.01875Q538.6844 91.76875 538.6844 91.47188Q538.6844 91.15938 538.5594 90.90938Q538.4344 90.64375 538.1844 90.45625Q537.95 90.26875 537.59064 90.175Q537.23126 90.06563 536.77814 90.06563L536.0594 90.06563Q536.0125 90.06563 535.96564 90.05Q535.9344 90.01875 535.8875 89.97188Q535.85626 89.925 535.84064 89.84688Q535.825 89.76875 535.825 89.65938Q535.825 89.53438 535.84064 89.47188Q535.85626 89.39375 535.8875 89.34688Q535.91876 89.3 535.95 89.28438Q535.9969 89.26875 536.0594 89.26875L536.71564 89.26875Q537.10626 89.26875 537.40314 89.175Q537.71564 89.06563 537.9344 88.87813Q538.15314 88.69063 538.2625 88.44063Q538.3719 88.175 538.3719 87.84688Q538.3719 87.6125 538.29376 87.40938Q538.23126 87.19063 538.075 87.03438Q537.91876 86.8625 537.6844 86.78438Q537.45 86.69063 537.1375 86.69063Q536.79376 86.69063 536.5125 86.8Q536.23126 86.89375 535.9969 87.01875Q535.77814 87.12813 535.6219 87.2375Q535.48126 87.33125 535.4344 87.33125Q535.3875 87.33125 535.35626 87.31563Q535.325 87.3 535.29376 87.26875Q535.27814 87.22188 535.2625 87.14375Q535.2625 87.05 535.2625 86.925Q535.2625 86.84688 535.2625 86.78438Q535.27814 86.70625 535.29376 86.65938Q535.3094 86.6125 535.325 86.56563Q535.35626 86.51875 535.40314 86.47188Q535.46564 86.40938 535.6375 86.31563Q535.8094 86.20625 536.0594 86.1125Q536.3094 86.00313 536.6375 85.94063Q536.96564 85.8625 537.34064 85.8625Q537.85626 85.8625 538.2469 86.00313Q538.65314 86.12813 538.91876 86.37813Q539.1844 86.6125 539.3094 86.95625Q539.45 87.3 539.45 87.72188Q539.45 88.08125 539.35626 88.39375Q539.2625 88.69063 539.075 88.925Q538.90314 89.15938 538.6375 89.33125Q538.3719 89.50313 538.02814 89.56563L538.02814 89.58125Q538.41876 89.6125 538.7469 89.76875Q539.075 89.925 539.3094 90.15938Q539.54376 90.39375 539.66876 90.70625Q539.8094 91.01875 539.8094 91.37813Z" fill-rule="nonzero"/><path stroke="#4472c4" stroke-width="4.0" stroke-linecap="butt" d="M514.45 112.55L526.45 112.55" fill-rule="nonzero"/><path fill="#1a1a1a" d="M540.52814 114.47188Q540.52814 114.56563 540.5125 114.64375Q540.5125 114.70625 540.4969 114.76875Q540.48126 114.81563 540.45 114.8625Q540.4344 114.89375 540.3719 114.95625Q540.3094 115.01875 540.1219 115.14375Q539.9344 115.25313 539.65314 115.37813Q539.3875 115.4875 539.02814 115.56563Q538.66876 115.64375 538.23126 115.64375Q537.4969 115.64375 536.90314 115.39375Q536.3094 115.14375 535.8875 114.675Q535.46564 114.19063 535.23126 113.4875Q535.0125 112.78438 535.0125 111.8625Q535.0125 110.90938 535.2625 110.175Q535.5125 109.44063 535.95 108.925Q536.3875 108.40938 536.9969 108.14375Q537.60626 107.87813 538.35626 107.87813Q538.6844 107.87813 538.9969 107.94063Q539.3094 108.00313 539.5594 108.09688Q539.825 108.19063 540.02814 108.31563Q540.2469 108.425 540.325 108.50313Q540.40314 108.58125 540.41876 108.62813Q540.45 108.675 540.46564 108.7375Q540.48126 108.78438 540.48126 108.8625Q540.4969 108.94063 540.4969 109.03438Q540.4969 109.15938 540.48126 109.2375Q540.46564 109.31563 540.4344 109.37813Q540.41876 109.425 540.3875 109.45625Q540.35626 109.4875 540.3094 109.4875Q540.23126 109.4875 540.075 109.37813Q539.9344 109.25313 539.7 109.12813Q539.46564 108.9875 539.1375 108.87813Q538.8094 108.75313 538.34064 108.75313Q537.84064 108.75313 537.41876 108.95625Q537.0125 109.15938 536.71564 109.55Q536.4344 109.94063 536.2625 110.50313Q536.10626 111.06563 536.10626 111.8Q536.10626 112.51875 536.2625 113.08125Q536.41876 113.62813 536.7 114.00313Q536.9969 114.37813 537.41876 114.56563Q537.84064 114.75313 538.3719 114.75313Q538.825 114.75313 539.15314 114.64375Q539.4969 114.53438 539.73126 114.39375Q539.98126 114.25313 540.1219 114.14375Q540.27814 114.03438 540.3719 114.03438Q540.40314 114.03438 540.4344 114.05Q540.46564 114.06563 540.48126 114.1125Q540.4969 114.15938 540.5125 114.25313Q540.52814 114.34688 540.52814 114.47188ZM545.325 115.40938Q545.325 115.47188 545.27814 115.51875Q545.23126 115.55 545.1375 115.56563Q545.0594 115.58125 544.90314 115.58125Q544.7469 115.58125 544.65314 115.56563Q544.575 115.55 544.52814 115.51875Q544.48126 115.47188 544.48126 115.40938L544.48126 114.87813Q544.1375 115.25313 543.71564 115.45625Q543.29376 115.65938 542.825 115.65938Q542.40314 115.65938 542.0594 115.55Q541.73126 115.44063 541.48126 115.2375Q541.2469 115.03438 541.1219 114.7375Q540.9969 114.44063 540.9969 114.05Q540.9969 113.6125 541.16876 113.28438Q541.35626 112.95625 541.6844 112.7375Q542.02814 112.51875 542.5125 112.40938Q543.0125 112.3 543.6375 112.3L544.35626 112.3L544.35626 111.89375Q544.35626 111.58125 544.29376 111.34688Q544.23126 111.1125 544.09064 110.97188Q543.95 110.81563 543.71564 110.7375Q543.48126 110.64375 543.15314 110.64375Q542.79376 110.64375 542.5125 110.7375Q542.23126 110.81563 542.0125 110.925Q541.79376 111.01875 541.65314 111.1125Q541.5125 111.19063 541.4344 111.19063Q541.3875 111.19063 541.35626 111.175Q541.325 111.14375 541.29376 111.09688Q541.27814 111.05 541.2625 110.9875Q541.2469 110.90938 541.2469 110.81563Q541.2469 110.675 541.2625 110.59688Q541.29376 110.50313 541.3719 110.425Q541.45 110.34688 541.6375 110.25313Q541.84064 110.14375 542.09064 110.06563Q542.34064 109.97188 542.6375 109.925Q542.9344 109.8625 543.2469 109.8625Q543.8094 109.8625 544.2 110.00313Q544.60626 110.12813 544.84064 110.37813Q545.09064 110.62813 545.2 111.00313Q545.325 111.3625 545.325 111.84688L545.325 115.40938ZM544.35626 113.00313L543.52814 113.00313Q543.1375 113.00313 542.84064 113.06563Q542.54376 113.12813 542.35626 113.26875Q542.16876 113.39375 542.075 113.58125Q541.98126 113.76875 541.98126 114.00313Q541.98126 114.425 542.23126 114.675Q542.4969 114.90938 542.96564 114.90938Q543.35626 114.90938 543.66876 114.72188Q543.9969 114.51875 544.35626 114.1125L544.35626 113.00313ZM552.1375 114.59688Q552.1375 114.70625 552.1219 114.78438Q552.1219 114.84688 552.10626 114.89375Q552.09064 114.94063 552.075 114.9875Q552.0594 115.01875 551.98126 115.09688Q551.90314 115.175 551.73126 115.28438Q551.5594 115.37813 551.34064 115.47188Q551.1219 115.55 550.85626 115.59688Q550.60626 115.65938 550.325 115.65938Q549.7625 115.65938 549.325 115.47188Q548.8875 115.28438 548.59064 114.925Q548.29376 114.56563 548.1375 114.05Q547.98126 113.51875 547.98126 112.83125Q547.98126 112.05 548.16876 111.4875Q548.35626 110.925 548.6844 110.58125Q549.02814 110.22188 549.46564 110.05Q549.91876 109.87813 550.4344 109.87813Q550.6844 109.87813 550.91876 109.925Q551.16876 109.97188 551.35626 110.05Q551.5594 110.1125 551.71564 110.22188Q551.8719 110.31563 551.9344 110.39375Q552.0125 110.45625 552.04376 110.50313Q552.075 110.53438 552.09064 110.59688Q552.10626 110.64375 552.10626 110.72188Q552.1219 110.78438 552.1219 110.89375Q552.1219 111.12813 552.0594 111.22188Q552.0125 111.3 551.9344 111.3Q551.84064 111.3 551.73126 111.20625Q551.6219 111.1125 551.4344 111.00313Q551.2625 110.87813 551.0125 110.78438Q550.7625 110.69063 550.4344 110.69063Q549.73126 110.69063 549.35626 111.22188Q548.98126 111.75313 548.98126 112.78438Q548.98126 113.28438 549.075 113.675Q549.1844 114.05 549.3719 114.31563Q549.5594 114.56563 549.825 114.69063Q550.10626 114.81563 550.45 114.81563Q550.77814 114.81563 551.02814 114.72188Q551.29376 114.6125 551.46564 114.4875Q551.65314 114.3625 551.77814 114.26875Q551.90314 114.15938 551.98126 114.15938Q552.02814 114.15938 552.04376 114.19063Q552.075 114.20625 552.09064 114.26875Q552.1219 114.31563 552.1219 114.40938Q552.1375 114.4875 552.1375 114.59688ZM557.325 115.40938Q557.325 115.47188 557.27814 115.51875Q557.23126 115.55 557.1375 115.56563Q557.0594 115.58125 556.90314 115.58125Q556.7469 115.58125 556.65314 115.56563Q556.575 115.55 556.52814 115.51875Q556.48126 115.47188 556.48126 115.40938L556.48126 114.87813Q556.1375 115.25313 555.71564 115.45625Q555.29376 115.65938 554.825 115.65938Q554.40314 115.65938 554.0594 115.55Q553.73126 115.44063 553.48126 115.2375Q553.2469 115.03438 553.1219 114.7375Q552.9969 114.44063 552.9969 114.05Q552.9969 113.6125 553.16876 113.28438Q553.35626 112.95625 553.6844 112.7375Q554.02814 112.51875 554.5125 112.40938Q555.0125 112.3 555.6375 112.3L556.35626 112.3L556.35626 111.89375Q556.35626 111.58125 556.29376 111.34688Q556.23126 111.1125 556.09064 110.97188Q555.95 110.81563 555.71564 110.7375Q555.48126 110.64375 555.15314 110.64375Q554.79376 110.64375 554.5125 110.7375Q554.23126 110.81563 554.0125 110.925Q553.79376 111.01875 553.65314 111.1125Q553.5125 111.19063 553.4344 111.19063Q553.3875 111.19063 553.35626 111.175Q553.325 111.14375 553.29376 111.09688Q553.27814 111.05 553.2625 110.9875Q553.2469 110.90938 553.2469 110.81563Q553.2469 110.675 553.2625 110.59688Q553.29376 110.50313 553.3719 110.425Q553.45 110.34688 553.6375 110.25313Q553.84064 110.14375 554.09064 110.06563Q554.34064 109.97188 554.6375 109.925Q554.9344 109.8625 555.2469 109.8625Q555.8094 109.8625 556.2 110.00313Q556.60626 110.12813 556.84064 110.37813Q557.09064 110.62813 557.2 111.00313Q557.325 111.3625 557.325 111.84688L557.325 115.40938ZM556.35626 113.00313L555.52814 113.00313Q555.1375 113.00313 554.84064 113.06563Q554.54376 113.12813 554.35626 113.26875Q554.16876 113.39375 554.075 113.58125Q553.98126 113.76875 553.98126 114.00313Q553.98126 114.425 554.23126 114.675Q554.4969 114.90938 554.96564 114.90938Q555.35626 114.90938 555.66876 114.72188Q555.9969 114.51875 556.35626 114.1125L556.35626 113.00313ZM565.2469 112.70625Q565.2469 113.34688 565.075 113.89375Q564.91876 114.44063 564.575 114.83125Q564.23126 115.22188 563.73126 115.44063Q563.23126 115.65938 562.5594 115.65938Q561.90314 115.65938 561.41876 115.47188Q560.9344 115.26875 560.60626 114.90938Q560.29376 114.53438 560.1375 114.01875Q559.98126 113.4875 559.98126 112.81563Q559.98126 112.175 560.1375 111.62813Q560.3094 111.08125 560.6375 110.69063Q560.98126 110.3 561.48126 110.08125Q561.9969 109.8625 562.66876 109.8625Q563.325 109.8625 563.79376 110.06563Q564.27814 110.25313 564.60626 110.62813Q564.9344 110.9875 565.09064 111.51875Q565.2469 112.05 565.2469 112.70625ZM564.23126 112.76875Q564.23126 112.34688 564.15314 111.97188Q564.075 111.58125 563.8875 111.3Q563.71564 111.00313 563.40314 110.84688Q563.09064 110.675 562.6219 110.675Q562.2 110.675 561.8875 110.83125Q561.59064 110.97188 561.3875 111.25313Q561.1844 111.53438 561.09064 111.925Q560.9969 112.3 560.9969 112.75313Q560.9969 113.175 561.075 113.56563Q561.15314 113.94063 561.325 114.2375Q561.5125 114.51875 561.825 114.69063Q562.1375 114.84688 562.60626 114.84688Q563.02814 114.84688 563.34064 114.69063Q563.65314 114.53438 563.84064 114.26875Q564.04376 113.9875 564.1375 113.6125Q564.23126 113.22188 564.23126 112.76875Z" fill-rule="nonzero"/><path stroke="#70ad47" stroke-width="4.0" stroke-linecap="butt" d="M514.45 134.55L526.45 134.55" fill-rule="nonzero"/><path fill="#1a1a1a" d="M541.15314 131.00313Q541.15314 131.1125 541.1375 131.20625Q541.1375 131.28438 541.10626 131.34688Q541.09064 131.39375 541.04376 131.425Q541.0125 131.44063 540.96564 131.44063Q540.90314 131.44063 540.73126 131.33125Q540.575 131.22188 540.29376 131.08125Q540.02814 130.94063 539.6375 130.83125Q539.2625 130.72188 538.73126 130.72188Q538.10626 130.72188 537.60626 130.95625Q537.10626 131.175 536.7625 131.58125Q536.41876 131.9875 536.23126 132.55Q536.04376 133.09688 536.04376 133.75313Q536.04376 134.47188 536.2469 135.03438Q536.45 135.59688 536.8094 135.9875Q537.16876 136.37813 537.65314 136.58125Q538.15314 136.76875 538.7469 136.76875Q539.09064 136.76875 539.45 136.69063Q539.825 136.6125 540.1219 136.44063L540.1219 134.22188L538.3719 134.22188Q538.27814 134.22188 538.21564 134.12813Q538.16876 134.03438 538.16876 133.81563Q538.16876 133.70625 538.1844 133.62813Q538.2 133.55 538.21564 133.50313Q538.2469 133.44063 538.27814 133.425Q538.325 133.39375 538.3719 133.39375L540.77814 133.39375Q540.84064 133.39375 540.90314 133.425Q540.96564 133.44063 541.0125 133.4875Q541.075 133.53438 541.10626 133.62813Q541.1375 133.70625 541.1375 133.81563L541.1375 136.70625Q541.1375 136.84688 541.075 136.97188Q541.02814 137.08125 540.85626 137.15938Q540.6844 137.2375 540.41876 137.34688Q540.15314 137.44063 539.85626 137.51875Q539.575 137.58125 539.27814 137.6125Q538.9969 137.65938 538.7 137.65938Q537.825 137.65938 537.1375 137.39375Q536.45 137.1125 535.96564 136.6125Q535.48126 136.09688 535.23126 135.39375Q534.98126 134.69063 534.98126 133.83125Q534.98126 132.925 535.2469 132.19063Q535.52814 131.45625 536.0125 130.94063Q536.5125 130.425 537.2 130.14375Q537.90314 129.8625 538.7469 129.8625Q539.1844 129.8625 539.5594 129.94063Q539.95 130.01875 540.2469 130.12813Q540.54376 130.22188 540.7469 130.34688Q540.95 130.45625 541.0125 130.53438Q541.09064 130.6125 541.1219 130.72188Q541.15314 130.81563 541.15314 131.00313ZM546.4344 132.47188Q546.4344 132.59688 546.41876 132.69063Q546.41876 132.78438 546.40314 132.83125Q546.3875 132.87813 546.35626 132.90938Q546.325 132.925 546.27814 132.925Q546.23126 132.925 546.16876 132.90938Q546.10626 132.87813 546.0125 132.8625Q545.9344 132.83125 545.825 132.81563Q545.71564 132.78438 545.59064 132.78438Q545.45 132.78438 545.3094 132.84688Q545.16876 132.89375 545.0125 133.03438Q544.85626 133.15938 544.6844 133.39375Q544.5125 133.6125 544.3094 133.94063L544.3094 137.40938Q544.3094 137.45625 544.27814 137.4875Q544.2625 137.51875 544.21564 137.55Q544.16876 137.56563 544.075 137.56563Q543.98126 137.58125 543.825 137.58125Q543.6844 137.58125 543.59064 137.56563Q543.4969 137.56563 543.4344 137.55Q543.3875 137.51875 543.35626 137.4875Q543.34064 137.45625 543.34064 137.40938L543.34064 132.12813Q543.34064 132.08125 543.35626 132.05Q543.3875 132.01875 543.4344 132.00313Q543.48126 131.97188 543.5594 131.95625Q543.65314 131.94063 543.79376 131.94063Q543.91876 131.94063 543.9969 131.95625Q544.09064 131.97188 544.1375 132.00313Q544.1844 132.01875 544.2 132.05Q544.21564 132.08125 544.21564 132.12813L544.21564 132.89375Q544.4344 132.58125 544.6219 132.37813Q544.825 132.175 544.98126 132.06563Q545.15314 131.95625 545.325 131.90938Q545.4969 131.8625 545.66876 131.8625Q545.73126 131.8625 545.825 131.87813Q545.9344 131.87813 546.02814 131.90938Q546.1375 131.925 546.21564 131.95625Q546.3094 131.9875 546.34064 132.01875Q546.3875 132.05 546.3875 132.08125Q546.40314 132.09688 546.40314 132.14375Q546.41876 132.175 546.41876 132.26875Q546.4344 132.34688 546.4344 132.47188ZM548.3094 137.40938Q548.3094 137.45625 548.27814 137.4875Q548.2625 137.51875 548.21564 137.55Q548.16876 137.56563 548.075 137.56563Q547.98126 137.58125 547.825 137.58125Q547.6844 137.58125 547.59064 137.56563Q547.4969 137.56563 547.4344 137.55Q547.3875 137.51875 547.35626 137.4875Q547.34064 137.45625 547.34064 137.40938L547.34064 132.12813Q547.34064 132.08125 547.35626 132.05Q547.3875 132.01875 547.4344 132.00313Q547.4969 131.97188 547.59064 131.95625Q547.6844 131.94063 547.825 131.94063Q547.98126 131.94063 548.075 131.95625Q548.16876 131.97188 548.21564 132.00313Q548.2625 132.01875 548.27814 132.05Q548.3094 132.08125 548.3094 132.12813L548.3094 137.40938ZM548.41876 130.34688Q548.41876 130.69063 548.29376 130.81563Q548.16876 130.94063 547.825 130.94063Q547.48126 130.94063 547.35626 130.81563Q547.23126 130.69063 547.23126 130.3625Q547.23126 130.01875 547.35626 129.89375Q547.48126 129.76875 547.84064 129.76875Q548.16876 129.76875 548.29376 129.89375Q548.41876 130.01875 548.41876 130.34688ZM555.8875 137.40938Q555.8875 137.45625 555.85626 137.4875Q555.84064 137.51875 555.77814 137.55Q555.73126 137.56563 555.6375 137.56563Q555.54376 137.58125 555.40314 137.58125Q555.2625 137.58125 555.16876 137.56563Q555.075 137.56563 555.0125 137.55Q554.96564 137.51875 554.9344 137.4875Q554.91876 137.45625 554.91876 137.40938L554.91876 134.31563Q554.91876 133.8625 554.84064 133.59688Q554.77814 133.31563 554.6375 133.1125Q554.5125 132.90938 554.29376 132.81563Q554.09064 132.70625 553.8094 132.70625Q553.4344 132.70625 553.075 132.97188Q552.71564 133.22188 552.3094 133.72188L552.3094 137.40938Q552.3094 137.45625 552.27814 137.4875Q552.2625 137.51875 552.21564 137.55Q552.16876 137.56563 552.075 137.56563Q551.98126 137.58125 551.825 137.58125Q551.6844 137.58125 551.59064 137.56563Q551.4969 137.56563 551.4344 137.55Q551.3875 137.51875 551.35626 137.4875Q551.34064 137.45625 551.34064 137.40938L551.34064 132.12813Q551.34064 132.08125 551.35626 132.05Q551.3875 132.01875 551.4344 132.00313Q551.48126 131.97188 551.5594 131.95625Q551.65314 131.94063 551.79376 131.94063Q551.91876 131.94063 551.9969 131.95625Q552.09064 131.97188 552.1375 132.00313Q552.1844 132.01875 552.2 132.05Q552.21564 132.08125 552.21564 132.12813L552.21564 132.83125Q552.66876 132.33125 553.10626 132.09688Q553.54376 131.8625 553.9969 131.8625Q554.52814 131.8625 554.8875 132.05Q555.2469 132.22188 555.46564 132.51875Q555.7 132.81563 555.79376 133.22188Q555.8875 133.62813 555.8875 134.19063L555.8875 137.40938ZM562.8719 137.40938Q562.8719 137.45625 562.84064 137.4875Q562.825 137.51875 562.77814 137.55Q562.73126 137.56563 562.6375 137.56563Q562.5594 137.58125 562.45 137.58125Q562.325 137.58125 562.23126 137.56563Q562.15314 137.56563 562.09064 137.55Q562.04376 137.51875 562.0125 137.4875Q561.9969 137.45625 561.9969 137.40938L561.9969 136.70625Q561.59064 137.15938 561.1375 137.40938Q560.6844 137.65938 560.15314 137.65938Q559.575 137.65938 559.16876 137.44063Q558.7625 137.20625 558.4969 136.83125Q558.2469 136.44063 558.1219 135.925Q558.0125 135.40938 558.0125 134.83125Q558.0125 134.14375 558.15314 133.59688Q558.3094 133.05 558.59064 132.675Q558.8875 132.28438 559.3094 132.08125Q559.73126 131.8625 560.29376 131.8625Q560.7469 131.8625 561.1219 132.06563Q561.5125 132.26875 561.8875 132.65938L561.8875 129.59688Q561.8875 129.55 561.90314 129.51875Q561.9344 129.4875 561.98126 129.47188Q562.04376 129.44063 562.1375 129.425Q562.23126 129.40938 562.3719 129.40938Q562.5125 129.40938 562.60626 129.425Q562.7 129.44063 562.7469 129.47188Q562.8094 129.4875 562.84064 129.51875Q562.8719 129.55 562.8719 129.59688L562.8719 137.40938ZM561.8875 133.69063Q561.4969 133.20625 561.1219 132.95625Q560.7625 132.69063 560.3719 132.69063Q559.9969 132.69063 559.73126 132.87813Q559.48126 133.05 559.325 133.34688Q559.16876 133.62813 559.09064 133.9875Q559.0125 134.34688 559.0125 134.72188Q559.0125 135.12813 559.075 135.50313Q559.1375 135.87813 559.29376 136.175Q559.45 136.47188 559.7 136.65938Q559.95 136.83125 560.325 136.83125Q560.52814 136.83125 560.7 136.78438Q560.8719 136.72188 561.0594 136.6125Q561.2469 136.4875 561.45 136.3Q561.66876 136.09688 561.8875 135.8L561.8875 133.69063ZM566.3094 137.40938Q566.3094 137.45625 566.27814 137.4875Q566.2625 137.51875 566.21564 137.55Q566.16876 137.56563 566.075 137.56563Q565.98126 137.58125 565.825 137.58125Q565.6844 137.58125 565.59064 137.56563Q565.4969 137.56563 565.4344 137.55Q565.3875 137.51875 565.35626 137.4875Q565.34064 137.45625 565.34064 137.40938L565.34064 132.12813Q565.34064 132.08125 565.35626 132.05Q565.3875 132.01875 565.4344 132.00313Q565.4969 131.97188 565.59064 131.95625Q565.6844 131.94063 565.825 131.94063Q565.98126 131.94063 566.075 131.95625Q566.16876 131.97188 566.21564 132.00313Q566.2625 132.01875 566.27814 132.05Q566.3094 132.08125 566.3094 132.12813L566.3094 137.40938ZM566.41876 130.34688Q566.41876 130.69063 566.29376 130.81563Q566.16876 130.94063 565.825 130.94063Q565.48126 130.94063 565.35626 130.81563Q565.23126 130.69063 565.23126 130.3625Q565.23126 130.01875 565.35626 129.89375Q565.48126 129.76875 565.84064 129.76875Q566.16876 129.76875 566.29376 129.89375Q566.41876 130.01875 566.41876 130.34688ZM573.8875 137.40938Q573.8875 137.45625 573.85626 137.4875Q573.84064 137.51875 573.77814 137.55Q573.73126 137.56563 573.6375 137.56563Q573.54376 137.58125 573.40314 137.58125Q573.2625 137.58125 573.16876 137.56563Q573.075 137.56563 573.0125 137.55Q572.96564 137.51875 572.9344 137.4875Q572.91876 137.45625 572.91876 137.40938L572.91876 134.31563Q572.91876 133.8625 572.84064 133.59688Q572.77814 133.31563 572.6375 133.1125Q572.5125 132.90938 572.29376 132.81563Q572.09064 132.70625 571.8094 132.70625Q571.4344 132.70625 571.075 132.97188Q570.71564 133.22188 570.3094 133.72188L570.3094 137.40938Q570.3094 137.45625 570.27814 137.4875Q570.2625 137.51875 570.21564 137.55Q570.16876 137.56563 570.075 137.56563Q569.98126 137.58125 569.825 137.58125Q569.6844 137.58125 569.59064 137.56563Q569.4969 137.56563 569.4344 137.55Q569.3875 137.51875 569.35626 137.4875Q569.34064 137.45625 569.34064 137.40938L569.34064 132.12813Q569.34064 132.08125 569.35626 132.05Q569.3875 132.01875 569.4344 132.00313Q569.48126 131.97188 569.5594 131.95625Q569.65314 131.94063 569.79376 131.94063Q569.91876 131.94063 569.9969 131.95625Q570.09064 131.97188 570.1375 132.00313Q570.1844 132.01875 570.2 132.05Q570.21564 132.08125 570.21564 132.12813L570.21564 132.83125Q570.66876 132.33125 571.10626 132.09688Q571.54376 131.8625 571.9969 131.8625Q572.52814 131.8625 572.8875 132.05Q573.2469 132.22188 573.46564 132.51875Q573.7 132.81563 573.79376 133.22188Q573.8875 133.62813 573.8875 134.19063L573.8875 137.40938ZM580.7469 132.3625Q580.7469 132.58125 580.6844 132.675Q580.6375 132.75313 580.5594 132.75313L579.79376 132.75313Q579.9969 132.97188 580.075 133.22188Q580.16876 133.47188 580.16876 133.75313Q580.16876 134.20625 580.0125 134.56563Q579.8719 134.90938 579.59064 135.15938Q579.325 135.39375 578.95 135.53438Q578.575 135.65938 578.1219 135.65938Q577.79376 135.65938 577.4969 135.58125Q577.21564 135.4875 577.0594 135.3625Q576.95 135.45625 576.8875 135.59688Q576.825 135.7375 576.825 135.90938Q576.825 136.1125 577.0125 136.25313Q577.2 136.37813 577.5125 136.39375L578.90314 136.45625Q579.29376 136.47188 579.6219 136.56563Q579.95 136.65938 580.1844 136.84688Q580.41876 137.01875 580.5594 137.28438Q580.7 137.53438 580.7 137.87813Q580.7 138.25313 580.54376 138.58125Q580.3875 138.90938 580.075 139.15938Q579.7625 139.40938 579.27814 139.55Q578.79376 139.69063 578.1219 139.69063Q577.4969 139.69063 577.04376 139.58125Q576.59064 139.47188 576.29376 139.28438Q576.0125 139.09688 575.8875 138.83125Q575.7625 138.58125 575.7625 138.26875Q575.7625 138.08125 575.8094 137.89375Q575.85626 137.72188 575.95 137.55Q576.04376 137.37813 576.1844 137.2375Q576.34064 137.08125 576.52814 136.94063Q576.23126 136.8 576.09064 136.58125Q575.96564 136.34688 575.96564 136.09688Q575.96564 135.7375 576.10626 135.45625Q576.2469 135.175 576.46564 134.94063Q576.29376 134.7375 576.1844 134.47188Q576.075 134.19063 576.075 133.8Q576.075 133.34688 576.23126 132.9875Q576.3875 132.62813 576.65314 132.39375Q576.91876 132.14375 577.29376 132.01875Q577.6844 131.87813 578.1219 131.87813Q578.35626 131.87813 578.5594 131.90938Q578.77814 131.925 578.96564 131.97188L580.5594 131.97188Q580.65314 131.97188 580.7 132.08125Q580.7469 132.175 580.7469 132.3625ZM579.2469 133.75313Q579.2469 133.22188 578.95 132.925Q578.65314 132.6125 578.10626 132.6125Q577.825 132.6125 577.60626 132.70625Q577.40314 132.8 577.2625 132.97188Q577.1375 133.12813 577.0594 133.34688Q576.9969 133.56563 576.9969 133.8Q576.9969 134.31563 577.29376 134.6125Q577.59064 134.90938 578.1219 134.90938Q578.40314 134.90938 578.60626 134.83125Q578.825 134.7375 578.96564 134.58125Q579.10626 134.40938 579.16876 134.20625Q579.2469 133.9875 579.2469 133.75313ZM579.73126 137.94063Q579.73126 137.59688 579.45 137.40938Q579.16876 137.22188 578.7 137.22188L577.325 137.175Q577.1375 137.31563 577.0125 137.45625Q576.90314 137.58125 576.825 137.69063Q576.7625 137.81563 576.73126 137.925Q576.71564 138.05 576.71564 138.175Q576.71564 138.56563 577.09064 138.75313Q577.48126 138.95625 578.16876 138.95625Q578.6219 138.95625 578.90314 138.8625Q579.2 138.78438 579.3875 138.64375Q579.575 138.50313 579.65314 138.31563Q579.73126 138.14375 579.73126 137.94063Z" fill-rule="nonzero"/></svg>