<svg version="1.1" viewBox="0.0 0.0 600.0 371.0" fill="none" stroke="none" stroke-linecap="square" stroke-miterlimit="10" width="600" height="371" xmlns:xlink="http://www.w3.org/1999/xlink" xmlns="http://www.w3.org/2000/svg"><path fill="#ffffff" d="M0 0L600.0 0L600.0 371.0L0 371.0L0 0Z" fill-rule="nonzero"/><path stroke="#333333" stroke-width="1.0" stroke-linecap="butt" d="M42.5 334.5L581.5 334.5" fill-rule="nonzero"/><path stroke="#cccccc" stroke-width="1.0" stroke-linecap="butt" d="M42.5 239.5L581.5 239.5" fill-rule="nonzero"/><path stroke="#cccccc" stroke-width="1.0" stroke-linecap="butt" d="M42.5 144.5L581.5 144.5" fill-rule="nonzero"/><path stroke="#cccccc" stroke-width="1.0" stroke-linecap="butt" d="M42.5 48.5L581.5 48.5" fill-rule="nonzero"/><clipPath id="id_0"><path d="M42.55 48.916668L581.45 48.916668L581.45 334.45L42.55 334.45L42.55 48.916668Z" clip-rule="nonzero"/></clipPath><path stroke="#5b9bd5" stroke-width="2.0" stroke-linecap="butt" clip-path="url(#id_0)" d="M76.23125 152.02592L143.59375 128.23148L210.95625 255.13518L278.31876 96.505554L345.68124 128.23148L413.04376 223.40926L480.40625 175.82037L547.76874 175.82037" fill-rule="nonzero"/><path stroke="#ed7d31" stroke-width="2.0" stroke-linecap="butt" clip-path="url(#id_0)" d="M76.23125 126.24861L143.59375 163.42743L210.95625 181.27327L278.31876 111.37708L345.68124 135.17152L413.04376 194.65764L480.40625 154.50452L547.76874 112.864235" fill-rule="nonzero"/><path stroke="#a5a5a5" stroke-width="2.0" stroke-linecap="butt" clip-path="url(#id_0)" d="M76.23125 124.26574L143.59375 155.99167L210.95625 199.61482L278.31876 112.368515L345.68124 152.02592L413.04376 195.64908L480.40625 219.44351L547.76874 72.71111" fill-rule="nonzero"/><path stroke="#ffc000" stroke-width="2.0" stroke-linecap="butt" clip-path="url(#id_0)" d="M76.23125 284.35645L143.59375 301.0543L210.95625 277.67728L278.31876 301.0543L345.68124 284.35645L413.04376 277.67728L480.40625 277.67728L547.76874 291.03558" fill-rule="nonzero"/><path stroke="#4472c4" stroke-width="2.0" stroke-linecap="butt" clip-path="url(#id_0)" d="M76.23125 290.5218L143.59375 305.16452L210.95625 305.16452L278.31876 261.23633L345.68124 290.5218L413.04376 261.23633L480.40625 290.5218L547.76874 290.5218" fill-rule="nonzero"/><path fill="#000000" fill-opacity="0.0" clip-path="url(#id_0)" d="M79.23125 152.02592C79.23125 153.68279 77.88811 155.02592 76.23125 155.02592C74.574394 155.02592 73.23125 153.68279 73.23125 152.02592C73.23125 150.36906 74.574394 149.02592 76.23125 149.02592C77.88811 149.02592 79.23125 150.36906 79.23125 152.02592Z" fill-rule="nonzero"/><path fill="#000000" fill-opacity="0.0" clip-path="url(#id_0)" d="M146.59375 128.23148C146.59375 129.88834 145.25061 131.23148 143.59375 131.23148C141.93689 131.23148 140.59375 129.88834 140.59375 128.23148C140.59375 126.57463 141.93689 125.23148 143.59375 125.23148C145.25061 125.23148 146.59375 126.57463 146.59375 128.23148Z" fill-rule="nonzero"/><path fill="#000000" fill-opacity="0.0" clip-path="url(#id_0)" d="M213.95625 255.13518C213.95625 256.79205 212.6131 258.1352 210.95625 258.1352C209.2994 258.1352 207.95625 256.79205 207.95625 255.13518C207.95625 253.47833 209.2994 252.13518 210.95625 252.13518C212.6131 252.13518 213.95625 253.47833 213.95625 255.13518Z" fill-rule="nonzero"/><path fill="#000000" fill-opacity="0.0" clip-path="url(#id_0)" d="M281.31876 96.505554C281.31876 98.16241 279.97562 99.505554 278.31876 99.505554C276.6619 99.505554 275.31876 98.16241 275.31876 96.505554C275.31876 94.8487 276.6619 93.505554 278.31876 93.505554C279.97562 93.505554 281.31876 94.8487 281.31876 96.505554Z" fill-rule="nonzero"/><path fill="#000000" fill-opacity="0.0" clip-path="url(#id_0)" d="M348.68124 128.23148C348.68124 129.88834 347.3381 131.23148 345.68124 131.23148C344.02438 131.23148 342.68124 129.88834 342.68124 128.23148C342.68124 126.57463 344.02438 125.23148 345.68124 125.23148C347.3381 125.23148 348.68124 126.57463 348.68124 128.23148Z" fill-rule="nonzero"/><path fill="#000000" fill-opacity="0.0" clip-path="url(#id_0)" d="M416.04376 223.40926C416.04376 225.06612 414.7006 226.40926 413.04376 226.40926C411.3869 226.40926 410.04376 225.06612 410.04376 223.40926C410.04376 221.75241 411.3869 220.40926 413.04376 220.40926C414.7006 220.40926 416.04376 221.75241 416.04376 223.40926Z" fill-rule="nonzero"/><path fill="#000000" fill-opacity="0.0" clip-path="url(#id_0)" d="M483.40625 175.82037C483.40625 177.47722 482.0631 178.82037 480.40625 178.82037C478.7494 178.82037 477.40625 177.47722 477.40625 175.82037C477.40625 174.16351 478.7494 172.82037 480.40625 172.82037C482.0631 172.82037 483.40625 174.16351 483.40625 175.82037Z" fill-rule="nonzero"/><path fill="#000000" fill-opacity="0.0" clip-path="url(#id_0)" d="M550.76874 175.82037C550.76874 177.47722 549.4256 178.82037 547.76874 178.82037C546.1119 178.82037 544.76874 177.47722 544.76874 175.82037C544.76874 174.16351 546.1119 172.82037 547.76874 172.82037C549.4256 172.82037 550.76874 174.16351 550.76874 175.82037Z" fill-rule="nonzero"/><path fill="#000000" fill-opacity="0.0" clip-path="url(#id_0)" d="M79.23125 126.24861C79.23125 127.905464 77.88811 129.24861 76.23125 129.24861C74.574394 129.24861 73.23125 127.905464 73.23125 126.24861C73.23125 124.59176 74.574394 123.24861 76.23125 123.24861C77.88811 123.24861 79.23125 124.59176 79.23125 126.24861Z" fill-rule="nonzero"/><path fill="#000000" fill-opacity="0.0" clip-path="url(#id_0)" d="M146.59375 163.42743C146.59375 165.08429 145.25061 166.42743 143.59375 166.42743C141.93689 166.42743 140.59375 165.08429 140.59375 163.42743C140.59375 161.77057 141.93689 160.42743 143.59375 160.42743C145.25061 160.42743 146.59375 161.77057 146.59375 163.42743Z" fill-rule="nonzero"/><path fill="#000000" fill-opacity="0.0" clip-path="url(#id_0)" d="M213.95625 181.27327C213.95625 182.93011 212.6131 184.27327 210.95625 184.27327C209.2994 184.27327 207.95625 182.93011 207.95625 181.27327C207.95625 179.61641 209.2994 178.27327 210.95625 178.27327C212.6131 178.27327 213.95625 179.61641 213.95625 181.27327Z" fill-rule="nonzero"/><path fill="#000000" fill-opacity="0.0" clip-path="url(#id_0)" d="M281.31876 111.37708C281.31876 113.033936 279.97562 114.37708 278.31876 114.37708C276.6619 114.37708 275.31876 113.033936 275.31876 111.37708C275.31876 109.72023 276.6619 108.37708 278.31876 108.37708C279.97562 108.37708 281.31876 109.72023 281.31876 111.37708Z" fill-rule="nonzero"/><path fill="#000000" fill-opacity="0.0" clip-path="url(#id_0)" d="M348.68124 135.17152C348.68124 136.82838 347.3381 138.17152 345.68124 138.17152C344.02438 138.17152 342.68124 136.82838 342.68124 135.17152C342.68124 133.51468 344.02438 132.17152 345.68124 132.17152C347.3381 132.17152 348.68124 133.51468 348.68124 135.17152Z" fill-rule="nonzero"/><path fill="#000000" fill-opacity="0.0" clip-path="url(#id_0)" d="M416.04376 194.65764C416.04376 196.3145 414.7006 197.65764 413.04376 197.65764C411.3869 197.65764 410.04376 196.3145 410.04376 194.65764C410.04376 193.00078 411.3869 191.65764 413.04376 191.65764C414.7006 191.65764 416.04376 193.00078 416.04376 194.65764Z" fill-rule="nonzero"/><path fill="#000000" fill-opacity="0.0" clip-path="url(#id_0)" d="M483.40625 154.50452C483.40625 156.16136 482.0631 157.50452 480.40625 157.50452C478.7494 157.50452 477.40625 156.16136 477.40625 154.50452C477.40625 152.84766 478.7494 151.50452 480.40625 151.50452C482.0631 151.50452 483.40625 152.84766 483.40625 154.50452Z" fill-rule="nonzero"/><path fill="#000000" fill-opacity="0.0" clip-path="url(#id_0)" d="M550.76874 112.864235C550.76874 114.52109 549.4256 115.864235 547.76874 115.864235C546.1119 115.864235 544.76874 114.52109 544.76874 112.864235C544.76874 111.20738 546.1119 109.864235 547.76874 109.864235C549.4256 109.864235 550.76874 111.20738 550.76874 112.864235Z" fill-rule="nonzero"/><path fill="#000000" fill-opacity="0.0" clip-path="url(#id_0)" d="M79.23125 124.26574C79.23125 125.92259 77.88811 127.26574 76.23125 127.26574C74.574394 127.26574 73.23125 125.92259 73.23125 124.26574C73.23125 122.60889 74.574394 121.26574 76.23125 121.26574C77.88811 121.26574 79.23125 122.60889 79.23125 124.26574Z" fill-rule="nonzero"/><path fill="#000000" fill-opacity="0.0" clip-path="url(#id_0)" d="M146.59375 155.99167C146.59375 157.64851 145.25061 158.99167 143.59375 158.99167C141.93689 158.99167 140.59375 157.64851 140.59375 155.99167C140.59375 154.33481 141.93689 152.99167 143.59375 152.99167C145.25061 152.99167 146.59375 154.33481 146.59375 155.99167Z" fill-rule="nonzero"/><path fill="#000000" fill-opacity="0.0" clip-path="url(#id_0)" d="M213.95625 199.61482C213.95625 201.27167 212.6131 202.61482 210.95625 202.61482C209.2994 202.61482 207.95625 201.27167 207.95625 199.61482C207.95625 197.95796 209.2994 196.61482 210.95625 196.61482C212.6131 196.61482 213.95625 197.95796 213.95625 199.61482Z" fill-rule="nonzero"/><path fill="#000000" fill-opacity="0.0" clip-path="url(#id_0)" d="M281.31876 112.368515C281.31876 114.025375 279.97562 115.368515 278.31876 115.368515C276.6619 115.368515 275.31876 114.025375 275.31876 112.368515C275.31876 110.71166 276.6619 109.368515 278.31876 109.368515C279.97562 109.368515 281.31876 110.71166 281.31876 112.368515Z" fill-rule="nonzero"/><path fill="#000000" fill-opacity="0.0" clip-path="url(#id_0)" d="M348.68124 152.02592C348.68124 153.68279 347.3381 155.02592 345.68124 155.02592C344.02438 155.02592 342.68124 153.68279 342.68124 152.02592C342.68124 150.36906 344.02438 149.02592 345.68124 149.02592C347.3381 149.02592 348.68124 150.36906 348.68124 152.02592Z" fill-rule="nonzero"/><path fill="#000000" fill-opacity="0.0" clip-path="url(#id_0)" d="M416.04376 195.64908C416.04376 197.30592 414.7006 198.64908 413.04376 198.64908C411.3869 198.64908 410.04376 197.30592 410.04376 195.64908C410.04376 193.99222 411.3869 192.64908 413.04376 192.64908C414.7006 192.64908 416.04376 193.99222 416.04376 195.64908Z" fill-rule="nonzero"/><path fill="#000000" fill-opacity="0.0" clip-path="url(#id_0)" d="M483.40625 219.44351C483.40625 221.10037 482.0631 222.44351 480.40625 222.44351C478.7494 222.44351 477.40625 221.10037 477.40625 219.44351C477.40625 217.78667 478.7494 216.44351 480.40625 216.44351C482.0631 216.44351 483.40625 217.78667 483.40625 219.44351Z" fill-rule="nonzero"/><path fill="#000000" fill-opacity="0.0" clip-path="url(#id_0)" d="M550.76874 72.71111C550.76874 74.367966 549.4256 75.71111 547.76874 75.71111C546.1119 75.71111 544.76874 74.367966 544.76874 72.71111C544.76874 71.05426 546.1119 69.71111 547.76874 69.71111C549.4256 69.71111 550.76874 71.05426 550.76874 72.71111Z" fill-rule="nonzero"/><path fill="#000000" fill-opacity="0.0" clip-path="url(#id_0)" d="M79.23125 284.35645C79.23125 286.01328 77.88811 287.35645 76.23125 287.35645C74.574394 287.35645 73.23125 286.01328 73.23125 284.35645C73.23125 282.6996 74.574394 281.35645 76.23125 281.35645C77.88811 281.35645 79.23125 282.6996 79.23125 284.35645Z" fill-rule="nonzero"/><path fill="#000000" fill-opacity="0.0" clip-path="url(#id_0)" d="M146.59375 301.0543C146.59375 302.71115 145.25061 304.0543 143.59375 304.0543C141.93689 304.0543 140.59375 302.71115 140.59375 301.0543C140.59375 299.39743 141.93689 298.0543 143.59375 298.0543C145.25061 298.0543 146.59375 299.39743 146.59375 301.0543Z" fill-rule="nonzero"/><path fill="#000000" fill-opacity="0.0" clip-path="url(#id_0)" d="M213.95625 277.67728C213.95625 279.33414 212.6131 280.67728 210.95625 280.67728C209.2994 280.67728 207.95625 279.33414 207.95625 277.67728C207.95625 276.02045 209.2994 274.67728 210.95625 274.67728C212.6131 274.67728 213.95625 276.02045 213.95625 277.67728Z" fill-rule="nonzero"/><path fill="#000000" fill-opacity="0.0" clip-path="url(#id_0)" d="M281.31876 301.0543C281.31876 302.71115 279.97562 304.0543 278.31876 304.0543C276.6619 304.0543 275.31876 302.71115 275.31876 301.0543C275.31876 299.39743 276.6619 298.0543 278.31876 298.0543C279.97562 298.0543 281.31876 299.39743 281.31876 301.0543Z" fill-rule="nonzero"/><path fill="#000000" fill-opacity="0.0" clip-path="url(#id_0)" d="M348.68124 284.35645C348.68124 286.01328 347.3381 287.35645 345.68124 287.35645C344.02438 287.35645 342.68124 286.01328 342.68124 284.35645C342.68124 282.6996 344.02438 281.35645 345.68124 281.35645C347.3381 281.35645 348.68124 282.6996 348.68124 284.35645Z" fill-rule="nonzero"/><path fill="#000000" fill-opacity="0.0" clip-path="url(#id_0)" d="M416.04376 277.67728C416.04376 279.33414 414.7006 280.67728 413.04376 280.67728C411.3869 280.67728 410.04376 279.33414 410.04376 277.67728C410.04376 276.02045 411.3869 274.67728 413.04376 274.67728C414.7006 274.67728 416.04376 276.02045 416.04376 277.67728Z" fill-rule="nonzero"/><path fill="#000000" fill-opacity="0.0" clip-path="url(#id_0)" d="M483.40625 277.67728C483.40625 279.33414 482.0631 280.67728 480.40625 280.67728C478.7494 280.67728 477.40625 279.33414 477.40625 277.67728C477.40625 276.02045 478.7494 274.67728 480.40625 274.67728C482.0631 274.67728 483.40625 276.02045 483.40625 277.67728Z" fill-rule="nonzero"/><path fill="#000000" fill-opacity="0.0" clip-path="url(#id_0)" d="M550.76874 291.03558C550.76874 292.69244 549.4256 294.03558 547.76874 294.03558C546.1119 294.03558 544.76874 292.69244 544.76874 291.03558C544.76874 289.37872 546.1119 288.03558 547.76874 288.03558C549.4256 288.03558 550.76874 289.37872 550.76874 291.03558Z" fill-rule="nonzero"/><path fill="#000000" fill-opacity="0.0" clip-path="url(#id_0)" d="M79.23125 290.5218C79.23125 292.17865 77.88811 293.5218 76.23125 293.5218C74.574394 293.5218 73.23125 292.17865 73.23125 290.5218C73.23125 288.86493 74.574394 287.5218 76.23125 287.5218C77.88811 287.5218 79.23125 288.86493 79.23125 290.5218Z" fill-rule="nonzero"/><path fill="#000000" fill-opacity="0.0" clip-path="url(#id_0)" d="M146.59375 305.16452C146.59375 306.82138 145.25061 308.16452 143.59375 308.16452C141.93689 308.16452 140.59375 306.82138 140.59375 305.16452C140.59375 303.5077 141.93689 302.16452 143.59375 302.16452C145.25061 302.16452 146.59375 303.5077 146.59375 305.16452Z" fill-rule="nonzero"/><path fill="#000000" fill-opacity="0.0" clip-path="url(#id_0)" d="M213.95625 305.16452C213.95625 306.82138 212.6131 308.16452 210.95625 308.16452C209.2994 308.16452 207.95625 306.82138 207.95625 305.16452C207.95625 303.5077 209.2994 302.16452 210.95625 302.16452C212.6131 302.16452 213.95625 303.5077 213.95625 305.16452Z" fill-rule="nonzero"/><path fill="#000000" fill-opacity="0.0" clip-path="url(#id_0)" d="M281.31876 261.23633C281.31876 262.8932 279.97562 264.23633 278.31876 264.23633C276.6619 264.23633 275.31876 262.8932 275.31876 261.23633C275.31876 259.57947 276.6619 258.23633 278.31876 258.23633C279.97562 258.23633 281.31876 259.57947 281.31876 261.23633Z" fill-rule="nonzero"/><path fill="#000000" fill-opacity="0.0" clip-path="url(#id_0)" d="M348.68124 290.5218C348.68124 292.17865 347.3381 293.5218 345.68124 293.5218C344.02438 293.5218 342.68124 292.17865 342.68124 290.5218C342.68124 288.86493 344.02438 287.5218 345.68124 287.5218C347.3381 287.5218 348.68124 288.86493 348.68124 290.5218Z" fill-rule="nonzero"/><path fill="#000000" fill-opacity="0.0" clip-path="url(#id_0)" d="M416.04376 261.23633C416.04376 262.8932 414.7006 264.23633 413.04376 264.23633C411.3869 264.23633 410.04376 262.8932 410.04376 261.23633C410.04376 259.57947 411.3869 258.23633 413.04376 258.23633C414.7006 258.23633 416.04376 259.57947 416.04376 261.23633Z" fill-rule="nonzero"/><path fill="#000000" fill-opacity="0.0" clip-path="url(#id_0)" d="M483.40625 290.5218C483.40625 292.17865 482.0631 293.5218 480.40625 293.5218C478.7494 293.5218 477.40625 292.17865 477.40625 290.5218C477.40625 288.86493 478.7494 287.5218 480.40625 287.5218C482.0631 287.5218 483.40625 288.86493 483.40625 290.5218Z" fill-rule="nonzero"/><path fill="#000000" fill-opacity="0.0" clip-path="url(#id_0)" d="M550.76874 290.5218C550.76874 292.17865 549.4256 293.5218 547.76874 293.5218C546.1119 293.5218 544.76874 292.17865 544.76874 290.5218C544.76874 288.86493 546.1119 287.5218 547.76874 287.5218C549.4256 287.5218 550.76874 288.86493 550.76874 290.5218Z" fill-rule="nonzero"/><path fill="#000000" d="M36.221874 333.6375Q36.221874 334.5125 36.08125 335.23126Q35.940624 335.95 35.6125 336.48126Q35.3 336.9969 34.784374 337.27814Q34.26875 337.5594 33.51875 337.5594Q32.8 337.5594 32.3 337.3094Q31.815624 337.04376 31.51875 336.5594Q31.221874 336.0594 31.096874 335.34064Q30.971874 334.60626 30.971874 333.66876Q30.971874 332.8094 31.1125 332.09064Q31.253124 331.35626 31.565624 330.84064Q31.89375 330.325 32.409374 330.04376Q32.925 329.7625 33.675 329.7625Q34.39375 329.7625 34.878124 330.0125Q35.3625 330.2625 35.659374 330.7625Q35.971874 331.2625 36.096874 331.98126Q36.221874 332.7 36.221874 333.6375ZM35.190624 333.71564Q35.190624 333.1375 35.14375 332.7Q35.096874 332.2469 35.01875 331.90314Q34.940624 331.54376 34.815624 331.29376Q34.690624 331.04376 34.51875 330.8875Q34.346874 330.73126 34.1125 330.65314Q33.89375 330.575 33.6125 330.575Q33.1125 330.575 32.8 330.8094Q32.4875 331.04376 32.3 331.46564Q32.128124 331.8719 32.065624 332.41876Q32.003124 332.96564 32.003124 333.60626Q32.003124 334.45 32.08125 335.04376Q32.175 335.6375 32.3625 336.0125Q32.565624 336.3875 32.8625 336.5594Q33.159374 336.73126 33.58125 336.73126Q33.909374 336.73126 34.14375 336.6375Q34.39375 336.52814 34.565624 336.34064Q34.753124 336.1375 34.8625 335.85626Q34.9875 335.575 35.05 335.2469Q35.128124 334.91876 35.159374 334.52814Q35.190624 334.1375 35.190624 333.71564Z" fill-rule="nonzero"/><path fill="#000000" d="M35.971874 241.83472Q35.971874 241.94409 35.95625 242.02222Q35.940624 242.10034 35.909374 242.16284Q35.878124 242.22534 35.83125 242.25659Q35.8 242.27222 35.7375 242.27222L31.55 242.27222Q31.471874 242.27222 31.409374 242.25659Q31.346874 242.22534 31.3 242.17847Q31.253124 242.13159 31.2375 242.05347Q31.221874 241.95972 31.221874 241.83472Q31.221874 241.70972 31.221874 241.63159Q31.2375 241.53784 31.26875 241.47534Q31.3 241.39722 31.33125 241.33472Q31.378124 241.27222 31.45625 241.19409L32.925 239.63159Q33.440624 239.10034 33.7375 238.67847Q34.05 238.24097 34.20625 237.89722Q34.378124 237.53784 34.425 237.25659Q34.4875 236.95972 34.4875 236.70972Q34.4875 236.45972 34.409374 236.24097Q34.33125 236.00659 34.175 235.83472Q34.01875 235.66284 33.784374 235.56909Q33.55 235.47534 33.2375 235.47534Q32.878124 235.47534 32.596874 235.56909Q32.315624 235.66284 32.096874 235.78784Q31.89375 235.89722 31.7375 236.00659Q31.596874 236.10034 31.534374 236.10034Q31.4875 236.10034 31.45625 236.08472Q31.425 236.05347 31.39375 236.00659Q31.378124 235.94409 31.3625 235.86597Q31.3625 235.77222 31.3625 235.64722Q31.3625 235.56909 31.3625 235.50659Q31.378124 235.42847 31.378124 235.38159Q31.39375 235.33472 31.409374 235.30347Q31.440624 235.25659 31.503124 235.19409Q31.58125 235.13159 31.753124 235.03784Q31.940624 234.92847 32.190624 234.83472Q32.45625 234.72534 32.76875 234.66284Q33.08125 234.58472 33.425 234.58472Q33.971874 234.58472 34.378124 234.74097Q34.8 234.88159 35.065624 235.16284Q35.346874 235.42847 35.471874 235.78784Q35.6125 236.14722 35.6125 236.55347Q35.6125 236.91284 35.55 237.27222Q35.4875 237.63159 35.284374 238.05347Q35.08125 238.47534 34.675 238.99097Q34.284374 239.49097 33.64375 240.16284L32.440624 241.41284L35.7375 241.41284Q35.784374 241.41284 35.83125 241.44409Q35.878124 241.47534 35.909374 241.52222Q35.940624 241.56909 35.95625 241.64722Q35.971874 241.72534 35.971874 241.83472Z" fill-rule="nonzero"/><path fill="#000000" d="M36.284374 144.9382Q36.284374 145.1257 36.221874 145.2507Q36.175 145.36008 36.065624 145.36008L35.20625 145.36008L35.20625 146.95383Q35.20625 147.0007 35.175 147.03195Q35.159374 147.0632 35.096874 147.09445Q35.05 147.11008 34.95625 147.11008Q34.8625 147.1257 34.70625 147.1257Q34.565624 147.1257 34.471874 147.11008Q34.378124 147.11008 34.315624 147.09445Q34.26875 147.0632 34.253124 147.03195Q34.2375 147.0007 34.2375 146.95383L34.2375 145.36008L31.096874 145.36008Q31.034374 145.36008 30.9875 145.34445Q30.940624 145.3132 30.89375 145.26633Q30.8625 145.21945 30.846874 145.14133Q30.83125 145.04758 30.83125 144.90695Q30.83125 144.79758 30.83125 144.71945Q30.846874 144.6257 30.8625 144.54758Q30.878124 144.46945 30.909374 144.40695Q30.940624 144.34445 30.971874 144.26633L33.70625 139.65695Q33.7375 139.61008 33.784374 139.57883Q33.846874 139.54758 33.925 139.53195Q34.01875 139.5007 34.14375 139.48508Q34.284374 139.46945 34.45625 139.46945Q34.659374 139.46945 34.8 139.48508Q34.940624 139.5007 35.01875 139.53195Q35.1125 139.54758 35.159374 139.59445Q35.20625 139.6257 35.20625 139.6882L35.20625 144.51633L36.065624 144.51633Q36.159374 144.51633 36.221874 144.6257Q36.284374 144.71945 36.284374 144.9382ZM34.2375 140.36008L34.221874 140.36008L31.753124 144.51633L34.2375 144.51633L34.2375 140.36008Z" fill-rule="nonzero"/><path fill="#000000" d="M36.159374 49.463543Q36.159374 49.963543 36.003124 50.432293Q35.846874 50.885418 35.534374 51.244793Q35.221874 51.604168 34.7375 51.822918Q34.253124 52.026043 33.58125 52.026043Q33.1125 52.026043 32.7375 51.916668Q32.378124 51.791668 32.1125 51.572918Q31.846874 51.354168 31.659374 51.041668Q31.4875 50.729168 31.378124 50.322918Q31.26875 49.916668 31.221874 49.447918Q31.175 48.963543 31.175 48.401043Q31.175 47.916668 31.221874 47.416668Q31.284374 46.916668 31.409374 46.463543Q31.55 45.994793 31.784374 45.588543Q32.01875 45.182293 32.3625 44.885418Q32.70625 44.572918 33.190624 44.401043Q33.690624 44.229168 34.33125 44.229168Q34.55 44.229168 34.76875 44.260418Q34.9875 44.276043 35.175 44.322918Q35.3625 44.369793 35.4875 44.432293Q35.628124 44.479168 35.659374 44.510418Q35.70625 44.541668 35.721874 44.588543Q35.753124 44.619793 35.753124 44.666668Q35.76875 44.697918 35.76875 44.760418Q35.784374 44.807293 35.784374 44.901043Q35.784374 44.994793 35.784374 45.072918Q35.784374 45.151043 35.753124 45.197918Q35.7375 45.244793 35.70625 45.276043Q35.675 45.291668 35.6125 45.291668Q35.55 45.291668 35.440624 45.260418Q35.33125 45.213543 35.175 45.166668Q35.01875 45.119793 34.784374 45.072918Q34.565624 45.026043 34.26875 45.026043Q33.721874 45.026043 33.33125 45.260418Q32.940624 45.479168 32.690624 45.854168Q32.440624 46.229168 32.315624 46.729168Q32.190624 47.213543 32.175 47.760418Q32.33125 47.666668 32.51875 47.588543Q32.70625 47.494793 32.925 47.432293Q33.159374 47.354168 33.409374 47.307293Q33.675 47.260418 33.95625 47.260418Q34.565624 47.260418 34.9875 47.432293Q35.409374 47.604168 35.675 47.901043Q35.940624 48.182293 36.05 48.588543Q36.159374 48.994793 36.159374 49.463543ZM35.14375 49.557293Q35.14375 49.213543 35.065624 48.932293Q35.003124 48.651043 34.846874 48.463543Q34.690624 48.276043 34.425 48.166668Q34.159374 48.057293 33.76875 48.057293Q33.55 48.057293 33.33125 48.104168Q33.128124 48.135418 32.925 48.213543Q32.721874 48.276043 32.534374 48.369793Q32.346874 48.447918 32.190624 48.557293Q32.190624 49.307293 32.284374 49.822918Q32.39375 50.338543 32.565624 50.651043Q32.753124 50.947918 33.034374 51.088543Q33.315624 51.213543 33.675 51.213543Q34.05 51.213543 34.33125 51.072918Q34.6125 50.932293 34.784374 50.697918Q34.971874 50.463543 35.05 50.166668Q35.14375 49.869793 35.14375 49.557293Z" fill-rule="nonzero"/><path fill="#000000" d="M79.41875 349.09064Q79.46562 349.21564 79.46562 349.29376Q79.46562 349.3719 79.41875 349.41876Q79.37187 349.46564 79.2625 349.46564Q79.15312 349.48126 78.98125 349.48126Q78.79375 349.48126 78.68437 349.46564Q78.575 349.46564 78.5125 349.45Q78.46562 349.41876 78.43437 349.3875Q78.41875 349.35626 78.3875 349.3094L77.74687 347.45L74.59062 347.45L73.96562 349.27814Q73.95 349.325 73.91875 349.3719Q73.8875 349.40314 73.825 349.4344Q73.77812 349.46564 73.66875 349.46564Q73.575 349.48126 73.41875 349.48126Q73.24687 349.48126 73.1375 349.46564Q73.02812 349.45 72.98125 349.41876Q72.93437 349.3719 72.93437 349.29376Q72.95 349.21564 72.99687 349.09064L75.52812 342.04376Q75.55937 341.98126 75.59062 341.95Q75.6375 341.90314 75.7 341.8875Q75.77812 341.85626 75.8875 341.84064Q76.0125 341.825 76.18437 341.825Q76.37187 341.825 76.49687 341.84064Q76.62187 341.85626 76.68437 341.8875Q76.7625 341.90314 76.80937 341.95Q76.85625 341.98126 76.87187 342.04376L79.41875 349.09064ZM76.15312 342.8719L76.15312 342.8719L74.84062 346.65314L77.48125 346.65314L76.15312 342.8719Z" fill-rule="nonzero"/><path fill="#000000" d="M146.09375 347.27814Q146.09375 347.6375 146.0 347.9344Q145.92188 348.23126 145.75 348.48126Q145.59375 348.71564 145.35938 348.90314Q145.125 349.075 144.82812 349.2Q144.54688 349.325 144.21875 349.3875Q143.89062 349.45 143.45312 349.45L141.48438 349.45Q141.34375 349.45 141.21875 349.35626Q141.10938 349.2625 141.10938 349.04376L141.10938 342.27814Q141.10938 342.04376 141.21875 341.96564Q141.34375 341.8719 141.48438 341.8719L143.20312 341.8719Q143.875 341.8719 144.3125 341.9969Q144.75 342.1219 145.03125 342.3719Q145.32812 342.6219 145.46875 342.98126Q145.625 343.325 145.625 343.77814Q145.625 344.0594 145.54688 344.3094Q145.48438 344.54376 145.35938 344.7625Q145.23438 344.96564 145.04688 345.1375Q144.85938 345.29376 144.60938 345.3875Q144.92188 345.45 145.1875 345.60626Q145.46875 345.7625 145.65625 346.0125Q145.85938 346.2469 145.96875 346.575Q146.09375 346.8875 146.09375 347.27814ZM144.57812 343.8875Q144.57812 343.60626 144.5 343.3875Q144.4375 343.16876 144.26562 343.0125Q144.10938 342.85626 143.84375 342.77814Q143.57812 342.6844 143.14062 342.6844L142.09375 342.6844L142.09375 345.1375L143.25 345.1375Q143.64062 345.1375 143.875 345.04376Q144.125 344.9344 144.28125 344.7625Q144.4375 344.59064 144.5 344.35626Q144.57812 344.1219 144.57812 343.8875ZM145.04688 347.34064Q145.04688 346.9969 144.9375 346.7469Q144.82812 346.48126 144.60938 346.3094Q144.40625 346.1219 144.09375 346.04376Q143.78125 345.95 143.3125 345.95L142.09375 345.95L142.09375 348.6219L143.5625 348.6219Q143.90625 348.6219 144.15625 348.54376Q144.42188 348.45 144.60938 348.29376Q144.8125 348.1375 144.92188 347.90314Q145.04688 347.65314 145.04688 347.34064Z" fill-rule="nonzero"/><path fill="#000000" d="M214.03438 348.3719Q214.03438 348.46564 214.01875 348.54376Q214.01875 348.60626 214.00313 348.66876Q213.9875 348.71564 213.95625 348.7625Q213.94063 348.79376 213.87813 348.85626Q213.81563 348.91876 213.62813 349.04376Q213.44063 349.15314 213.15938 349.27814Q212.89375 349.3875 212.53438 349.46564Q212.175 349.54376 211.7375 349.54376Q211.00313 349.54376 210.40938 349.29376Q209.81563 349.04376 209.39375 348.575Q208.97188 348.09064 208.7375 347.3875Q208.51875 346.6844 208.51875 345.7625Q208.51875 344.8094 208.76875 344.075Q209.01875 343.34064 209.45625 342.825Q209.89375 342.3094 210.50313 342.04376Q211.1125 341.77814 211.8625 341.77814Q212.19063 341.77814 212.50313 341.84064Q212.81563 341.90314 213.06563 341.9969Q213.33125 342.09064 213.53438 342.21564Q213.75313 342.325 213.83125 342.40314Q213.90938 342.48126 213.925 342.52814Q213.95625 342.575 213.97188 342.6375Q213.9875 342.6844 213.9875 342.7625Q214.00313 342.84064 214.00313 342.9344Q214.00313 343.0594 213.9875 343.1375Q213.97188 343.21564 213.94063 343.27814Q213.925 343.325 213.89375 343.35626Q213.8625 343.3875 213.81563 343.3875Q213.7375 343.3875 213.58125 343.27814Q213.44063 343.15314 213.20625 343.02814Q212.97188 342.8875 212.64375 342.77814Q212.31563 342.65314 211.84688 342.65314Q211.34688 342.65314 210.925 342.85626Q210.51875 343.0594 210.22188 343.45Q209.94063 343.84064 209.76875 344.40314Q209.6125 344.96564 209.6125 345.7Q209.6125 346.41876 209.76875 346.98126Q209.925 347.52814 210.20625 347.90314Q210.50313 348.27814 210.925 348.46564Q211.34688 348.65314 211.87813 348.65314Q212.33125 348.65314 212.65938 348.54376Q213.00313 348.4344 213.2375 348.29376Q213.4875 348.15314 213.62813 348.04376Q213.78438 347.9344 213.87813 347.9344Q213.90938 347.9344 213.94063 347.95Q213.97188 347.96564 213.9875 348.0125Q214.00313 348.0594 214.01875 348.15314Q214.03438 348.2469 214.03438 348.3719Z" fill-rule="nonzero"/><path fill="#000000" d="M281.1625 345.54376Q281.1625 346.52814 280.89688 347.2625Q280.64688 347.9969 280.1625 348.48126Q279.69376 348.96564 278.99063 349.21564Q278.2875 349.45 277.30313 349.45L275.70938 349.45Q275.56876 349.45 275.44376 349.35626Q275.33438 349.2625 275.33438 349.04376L275.33438 342.27814Q275.33438 342.04376 275.44376 341.96564Q275.56876 341.8719 275.70938 341.8719L277.4125 341.8719Q278.39688 341.8719 279.06876 342.1219Q279.75626 342.3719 280.20938 342.85626Q280.67813 343.325 280.9125 344.0125Q281.1625 344.6844 281.1625 345.54376ZM280.1 345.59064Q280.1 344.96564 279.94376 344.45Q279.7875 343.91876 279.45938 343.52814Q279.14688 343.1375 278.64688 342.91876Q278.14688 342.7 277.36563 342.7L276.33438 342.7L276.33438 348.60626L277.36563 348.60626Q278.1 348.60626 278.6 348.4344Q279.1 348.2469 279.42813 347.8719Q279.75626 347.4969 279.92813 346.9344Q280.1 346.35626 280.1 345.59064Z" fill-rule="nonzero"/><path fill="#000000" d="M347.91562 349.02814Q347.91562 349.1375 347.9 349.21564Q347.88437 349.29376 347.85312 349.35626Q347.82187 349.40314 347.775 349.4344Q347.74374 349.45 347.69687 349.45L344.07187 349.45Q343.93124 349.45 343.80624 349.35626Q343.69687 349.2625 343.69687 349.04376L343.69687 342.27814Q343.69687 342.04376 343.80624 341.96564Q343.93124 341.8719 344.07187 341.8719L347.66562 341.8719Q347.7125 341.8719 347.74374 341.90314Q347.79062 341.91876 347.80624 341.96564Q347.8375 342.0125 347.85312 342.10626Q347.86874 342.1844 347.86874 342.29376Q347.86874 342.40314 347.85312 342.48126Q347.8375 342.5594 347.80624 342.60626Q347.79062 342.65314 347.74374 342.6844Q347.7125 342.7 347.66562 342.7L344.69687 342.7L344.69687 345.09064L347.24374 345.09064Q347.29062 345.09064 347.32187 345.1219Q347.36874 345.1375 347.38437 345.1844Q347.41562 345.23126 347.43124 345.3094Q347.44687 345.3875 347.44687 345.5125Q347.44687 345.60626 347.43124 345.6844Q347.41562 345.7625 347.38437 345.8094Q347.36874 345.85626 347.32187 345.8875Q347.29062 345.90314 347.24374 345.90314L344.69687 345.90314L344.69687 348.60626L347.69687 348.60626Q347.74374 348.60626 347.775 348.6375Q347.82187 348.65314 347.85312 348.71564Q347.88437 348.7625 347.9 348.84064Q347.91562 348.91876 347.91562 349.02814Z" fill-rule="nonzero"/><path fill="#000000" d="M415.04376 342.29376Q415.04376 342.41876 415.02814 342.4969Q415.0125 342.575 414.98126 342.6219Q414.95 342.66876 414.90314 342.7Q414.8719 342.71564 414.84064 342.71564L412.0594 342.71564L412.0594 345.29376L414.6844 345.29376Q414.73126 345.29376 414.7625 345.325Q414.8094 345.34064 414.825 345.3875Q414.85626 345.4344 414.8719 345.5125Q414.8875 345.59064 414.8875 345.71564Q414.8875 345.825 414.8719 345.90314Q414.85626 345.98126 414.825 346.04376Q414.8094 346.09064 414.7625 346.1219Q414.73126 346.1375 414.6844 346.1375L412.0594 346.1375L412.0594 349.29376Q412.0594 349.34064 412.02814 349.3875Q412.0125 349.41876 411.95 349.4344Q411.90314 349.45 411.8094 349.46564Q411.71564 349.48126 411.5594 349.48126Q411.41876 349.48126 411.3094 349.46564Q411.21564 349.45 411.15314 349.4344Q411.10626 349.41876 411.075 349.3875Q411.0594 349.34064 411.0594 349.29376L411.0594 342.27814Q411.0594 342.04376 411.16876 341.96564Q411.29376 341.8719 411.4344 341.8719L414.84064 341.8719Q414.8719 341.8719 414.90314 341.90314Q414.95 341.91876 414.98126 341.96564Q415.0125 342.0125 415.02814 342.10626Q415.04376 342.1844 415.04376 342.29376Z" fill-rule="nonzero"/><path fill="#000000" d="M483.10938 342.90314Q483.10938 343.0125 483.09375 343.10626Q483.09375 343.1844 483.0625 343.2469Q483.04688 343.29376 483.0 343.325Q482.96875 343.34064 482.92188 343.34064Q482.85938 343.34064 482.6875 343.23126Q482.53125 343.1219 482.25 342.98126Q481.98438 342.84064 481.59375 342.73126Q481.21875 342.6219 480.6875 342.6219Q480.0625 342.6219 479.5625 342.85626Q479.0625 343.075 478.71875 343.48126Q478.375 343.8875 478.1875 344.45Q478.0 344.9969 478.0 345.65314Q478.0 346.3719 478.20312 346.9344Q478.40625 347.4969 478.76562 347.8875Q479.125 348.27814 479.60938 348.48126Q480.10938 348.66876 480.70312 348.66876Q481.04688 348.66876 481.40625 348.59064Q481.78125 348.5125 482.07812 348.34064L482.07812 346.1219L480.32812 346.1219Q480.23438 346.1219 480.17188 346.02814Q480.125 345.9344 480.125 345.71564Q480.125 345.60626 480.14062 345.52814Q480.15625 345.45 480.17188 345.40314Q480.20312 345.34064 480.23438 345.325Q480.28125 345.29376 480.32812 345.29376L482.73438 345.29376Q482.79688 345.29376 482.85938 345.325Q482.92188 345.34064 482.96875 345.3875Q483.03125 345.4344 483.0625 345.52814Q483.09375 345.60626 483.09375 345.71564L483.09375 348.60626Q483.09375 348.7469 483.03125 348.8719Q482.98438 348.98126 482.8125 349.0594Q482.64062 349.1375 482.375 349.2469Q482.10938 349.34064 481.8125 349.41876Q481.53125 349.48126 481.23438 349.5125Q480.95312 349.5594 480.65625 349.5594Q479.78125 349.5594 479.09375 349.29376Q478.40625 349.0125 477.92188 348.5125Q477.4375 347.9969 477.1875 347.29376Q476.9375 346.59064 476.9375 345.73126Q476.9375 344.825 477.20312 344.09064Q477.48438 343.35626 477.96875 342.84064Q478.46875 342.325 479.15625 342.04376Q479.85938 341.7625 480.70312 341.7625Q481.14062 341.7625 481.51562 341.84064Q481.90625 341.91876 482.20312 342.02814Q482.5 342.1219 482.70312 342.2469Q482.90625 342.35626 482.96875 342.4344Q483.04688 342.5125 483.07812 342.6219Q483.10938 342.71564 483.10938 342.90314Z" fill-rule="nonzero"/><path fill="#000000" d="M550.2375 349.29376Q550.2375 349.34064 550.20624 349.3875Q550.1906 349.41876 550.1281 349.4344Q550.08124 349.45 549.97186 349.46564Q549.8781 349.48126 549.7375 349.48126Q549.58124 349.48126 549.4875 349.46564Q549.39374 349.45 549.33124 349.4344Q549.28436 349.41876 549.2531 349.3875Q549.2375 349.34064 549.2375 349.29376L549.2375 345.9344L545.78436 345.9344L545.78436 349.29376Q545.78436 349.34064 545.7531 349.3875Q545.7375 349.41876 545.675 349.4344Q545.6281 349.45 545.51874 349.46564Q545.425 349.48126 545.28436 349.48126Q545.14374 349.48126 545.03436 349.46564Q544.9406 349.45 544.8781 349.4344Q544.83124 349.41876 544.8 349.3875Q544.78436 349.34064 544.78436 349.29376L544.78436 342.0125Q544.78436 341.96564 544.8 341.9344Q544.83124 341.90314 544.8781 341.8875Q544.9406 341.85626 545.03436 341.84064Q545.14374 341.825 545.28436 341.825Q545.425 341.825 545.51874 341.84064Q545.6281 341.85626 545.675 341.8875Q545.7375 341.90314 545.7531 341.9344Q545.78436 341.96564 545.78436 342.0125L545.78436 345.0594L549.2375 345.0594L549.2375 342.0125Q549.2375 341.96564 549.2531 341.9344Q549.28436 341.90314 549.33124 341.8875Q549.39374 341.85626 549.4875 341.84064Q549.58124 341.825 549.7375 341.825Q549.8781 341.825 549.97186 341.84064Q550.08124 341.85626 550.1281 341.8875Q550.1906 341.90314 550.20624 341.9344Q550.2375 341.96564 550.2375 342.0125L550.2375 349.29376Z" fill-rule="nonzero"/><path stroke="#5b9bd5" stroke-width="4.0" stroke-linecap="butt" d="M136.5 24.55L148.5 24.55" fill-rule="nonzero"/><path fill="#1a1a1a" d="M161.9375 27.14375Q161.9375 27.26875 161.90625 27.346874Q161.89062 27.409374 161.85938 27.45625Q161.84375 27.503124 161.79688 27.534374Q161.76562 27.55 161.71875 27.55L157.76562 27.55Q157.71875 27.55 157.6875 27.534374Q157.65625 27.503124 157.60938 27.45625Q157.57812 27.409374 157.5625 27.346874Q157.54688 27.26875 157.54688 27.14375Q157.54688 27.05 157.5625 26.971874Q157.57812 26.89375 157.60938 26.846874Q157.64062 26.8 157.67188 26.76875Q157.71875 26.7375 157.76562 26.7375L159.34375 26.7375L159.34375 20.971874L157.875 21.846874Q157.76562 21.909374 157.6875 21.925Q157.625 21.925 157.57812 21.89375Q157.54688 21.846874 157.53125 21.76875Q157.51562 21.675 157.51562 21.55Q157.51562 21.440624 157.51562 21.378124Q157.53125 21.3 157.54688 21.253124Q157.57812 21.20625 157.60938 21.175Q157.64062 21.14375 157.6875 21.096874L159.4375 19.9875Q159.45312 19.971874 159.48438 19.95625Q159.53125 19.940624 159.57812 19.940624Q159.64062 19.925 159.70312 19.925Q159.78125 19.909374 159.875 19.909374Q160.01562 19.909374 160.10938 19.925Q160.20312 19.940624 160.25 19.95625Q160.3125 19.971874 160.32812 20.01875Q160.34375 20.05 160.34375 20.08125L160.34375 26.7375L161.71875 26.7375Q161.76562 26.7375 161.79688 26.76875Q161.84375 26.8 161.875 26.846874Q161.90625 26.89375 161.92188 26.971874Q161.9375 27.05 161.9375 27.14375ZM165.76562 24.596874Q165.76562 24.815624 165.71875 24.909374Q165.67188 24.9875 165.5625 24.9875L163.10938 24.9875Q163.01562 24.9875 162.95312 24.909374Q162.90625 24.815624 162.90625 24.596874Q162.90625 24.3625 162.95312 24.284374Q163.01562 24.190624 163.10938 24.190624L165.5625 24.190624Q165.60938 24.190624 165.64062 24.20625Q165.6875 24.221874 165.70312 24.284374Q165.73438 24.33125 165.75 24.409374Q165.76562 24.471874 165.76562 24.596874ZM171.85938 25.378124Q171.85938 25.909374 171.67188 26.33125Q171.5 26.7375 171.15625 27.034374Q170.8125 27.33125 170.3125 27.503124Q169.8125 27.659374 169.1875 27.659374Q168.8125 27.659374 168.46875 27.596874Q168.14062 27.534374 167.875 27.45625Q167.625 27.3625 167.45312 27.284374Q167.29688 27.190624 167.25 27.14375Q167.20312 27.096874 167.17188 27.065624Q167.15625 27.01875 167.14062 26.971874Q167.125 26.909374 167.10938 26.83125Q167.10938 26.7375 167.10938 26.6125Q167.10938 26.39375 167.14062 26.315624Q167.1875 26.2375 167.26562 26.2375Q167.3125 26.2375 167.46875 26.33125Q167.625 26.425 167.85938 26.534374Q168.10938 26.64375 168.4375 26.7375Q168.76562 26.83125 169.15625 26.83125Q169.54688 26.83125 169.84375 26.7375Q170.14062 26.628124 170.32812 26.45625Q170.53125 26.26875 170.625 26.01875Q170.73438 25.76875 170.73438 25.471874Q170.73438 25.159374 170.60938 24.909374Q170.48438 24.64375 170.23438 24.45625Q170.0 24.26875 169.64062 24.175Q169.28125 24.065624 168.82812 24.065624L168.10938 24.065624Q168.0625 24.065624 168.01562 24.05Q167.98438 24.01875 167.9375 23.971874Q167.90625 23.925 167.89062 23.846874Q167.875 23.76875 167.875 23.659374Q167.875 23.534374 167.89062 23.471874Q167.90625 23.39375 167.9375 23.346874Q167.96875 23.3 168.0 23.284374Q168.04688 23.26875 168.10938 23.26875L168.76562 23.26875Q169.15625 23.26875 169.45312 23.175Q169.76562 23.065624 169.98438 22.878124Q170.20312 22.690624 170.3125 22.440624Q170.42188 22.175 170.42188 21.846874Q170.42188 21.6125 170.34375 21.409374Q170.28125 21.190624 170.125 21.034374Q169.96875 20.8625 169.73438 20.784374Q169.5 20.690624 169.1875 20.690624Q168.84375 20.690624 168.5625 20.8Q168.28125 20.89375 168.04688 21.01875Q167.82812 21.128124 167.67188 21.2375Q167.53125 21.33125 167.48438 21.33125Q167.4375 21.33125 167.40625 21.315624Q167.375 21.3 167.34375 21.26875Q167.32812 21.221874 167.3125 21.14375Q167.3125 21.05 167.3125 20.925Q167.3125 20.846874 167.3125 20.784374Q167.32812 20.70625 167.34375 20.659374Q167.35938 20.6125 167.375 20.565624Q167.40625 20.51875 167.45312 20.471874Q167.51562 20.409374 167.6875 20.315624Q167.85938 20.20625 168.10938 20.1125Q168.35938 20.003124 168.6875 19.940624Q169.01562 19.8625 169.39062 19.8625Q169.90625 19.8625 170.29688 20.003124Q170.70312 20.128124 170.96875 20.378124Q171.23438 20.6125 171.35938 20.95625Q171.5 21.3 171.5 21.721874Q171.5 22.08125 171.40625 22.39375Q171.3125 22.690624 171.125 22.925Q170.95312 23.159374 170.6875 23.33125Q170.42188 23.503124 170.07812 23.565624L170.07812 23.58125Q170.46875 23.6125 170.79688 23.76875Q171.125 23.925 171.35938 24.159374Q171.59375 24.39375 171.71875 24.70625Q171.85938 25.01875 171.85938 25.378124ZM178.17188 23.7375Q178.17188 24.6125 178.03125 25.33125Q177.89062 26.05 177.5625 26.58125Q177.25 27.096874 176.73438 27.378124Q176.21875 27.659374 175.46875 27.659374Q174.75 27.659374 174.25 27.409374Q173.76562 27.14375 173.46875 26.659374Q173.17188 26.159374 173.04688 25.440624Q172.92188 24.70625 172.92188 23.76875Q172.92188 22.909374 173.0625 22.190624Q173.20312 21.45625 173.51562 20.940624Q173.84375 20.425 174.35938 20.14375Q174.875 19.8625 175.625 19.8625Q176.34375 19.8625 176.82812 20.1125Q177.3125 20.3625 177.60938 20.8625Q177.92188 21.3625 178.04688 22.08125Q178.17188 22.8 178.17188 23.7375ZM177.14062 23.815624Q177.14062 23.2375 177.09375 22.8Q177.04688 22.346874 176.96875 22.003124Q176.89062 21.64375 176.76562 21.39375Q176.64062 21.14375 176.46875 20.9875Q176.29688 20.83125 176.0625 20.753124Q175.84375 20.675 175.5625 20.675Q175.0625 20.675 174.75 20.909374Q174.4375 21.14375 174.25 21.565624Q174.07812 21.971874 174.01562 22.51875Q173.95312 23.065624 173.95312 23.70625Q173.95312 24.55 174.03125 25.14375Q174.125 25.7375 174.3125 26.1125Q174.51562 26.4875 174.8125 26.659374Q175.10938 26.83125 175.53125 26.83125Q175.85938 26.83125 176.09375 26.7375Q176.34375 26.628124 176.51562 26.440624Q176.70312 26.2375 176.8125 25.95625Q176.9375 25.675 177.0 25.346874Q177.07812 25.01875 177.10938 24.628124Q177.14062 24.2375 177.14062 23.815624Z" fill-rule="nonzero"/><path stroke="#ed7d31" stroke-width="4.0" stroke-linecap="butt" d="M194.5 24.55L206.5 24.55" fill-rule="nonzero"/><path fill="#1a1a1a" d="M219.85938 25.378124Q219.85938 25.909374 219.67188 26.33125Q219.5 26.7375 219.15625 27.034374Q218.8125 27.33125 218.3125 27.503124Q217.8125 27.659374 217.1875 27.659374Q216.8125 27.659374 216.46875 27.596874Q216.14062 27.534374 215.875 27.45625Q215.625 27.3625 215.45312 27.284374Q215.29688 27.190624 215.25 27.14375Q215.20312 27.096874 215.17188 27.065624Q215.15625 27.01875 215.14062 26.971874Q215.125 26.909374 215.10938 26.83125Q215.10938 26.7375 215.10938 26.6125Q215.10938 26.39375 215.14062 26.315624Q215.1875 26.2375 215.26562 26.2375Q215.3125 26.2375 215.46875 26.33125Q215.625 26.425 215.85938 26.534374Q216.10938 26.64375 216.4375 26.7375Q216.76562 26.83125 217.15625 26.83125Q217.54688 26.83125 217.84375 26.7375Q218.14062 26.628124 218.32812 26.45625Q218.53125 26.26875 218.625 26.01875Q218.73438 25.76875 218.73438 25.471874Q218.73438 25.159374 218.60938 24.909374Q218.48438 24.64375 218.23438 24.45625Q218.0 24.26875 217.64062 24.175Q217.28125 24.065624 216.82812 24.065624L216.10938 24.065624Q216.0625 24.065624 216.01562 24.05Q215.98438 24.01875 215.9375 23.971874Q215.90625 23.925 215.89062 23.846874Q215.875 23.76875 215.875 23.659374Q215.875 23.534374 215.89062 23.471874Q215.90625 23.39375 215.9375 23.346874Q215.96875 23.3 216.0 23.284374Q216.04688 23.26875 216.10938 23.26875L216.76562 23.26875Q217.15625 23.26875 217.45312 23.175Q217.76562 23.065624 217.98438 22.878124Q218.20312 22.690624 218.3125 22.440624Q218.42188 22.175 218.42188 21.846874Q218.42188 21.6125 218.34375 21.409374Q218.28125 21.190624 218.125 21.034374Q217.96875 20.8625 217.73438 20.784374Q217.5 20.690624 217.1875 20.690624Q216.84375 20.690624 216.5625 20.8Q216.28125 20.89375 216.04688 21.01875Q215.82812 21.128124 215.67188 21.2375Q215.53125 21.33125 215.48438 21.33125Q215.4375 21.33125 215.40625 21.315624Q215.375 21.3 215.34375 21.26875Q215.32812 21.221874 215.3125 21.14375Q215.3125 21.05 215.3125 20.925Q215.3125 20.846874 215.3125 20.784374Q215.32812 20.70625 215.34375 20.659374Q215.35938 20.6125 215.375 20.565624Q215.40625 20.51875 215.45312 20.471874Q215.51562 20.409374 215.6875 20.315624Q215.85938 20.20625 216.10938 20.1125Q216.35938 20.003124 216.6875 19.940624Q217.01562 19.8625 217.39062 19.8625Q217.90625 19.8625 218.29688 20.003124Q218.70312 20.128124 218.96875 20.378124Q219.23438 20.6125 219.35938 20.95625Q219.5 21.3 219.5 21.721874Q219.5 22.08125 219.40625 22.39375Q219.3125 22.690624 219.125 22.925Q218.95312 23.159374 218.6875 23.33125Q218.42188 23.503124 218.07812 23.565624L218.07812 23.58125Q218.46875 23.6125 218.79688 23.76875Q219.125 23.925 219.35938 24.159374Q219.59375 24.39375 219.71875 24.70625Q219.85938 25.01875 219.85938 25.378124ZM226.17188 23.7375Q226.17188 24.6125 226.03125 25.33125Q225.89062 26.05 225.5625 26.58125Q225.25 27.096874 224.73438 27.378124Q224.21875 27.659374 223.46875 27.659374Q222.75 27.659374 222.25 27.409374Q221.76562 27.14375 221.46875 26.659374Q221.17188 26.159374 221.04688 25.440624Q220.92188 24.70625 220.92188 23.76875Q220.92188 22.909374 221.0625 22.190624Q221.20312 21.45625 221.51562 20.940624Q221.84375 20.425 222.35938 20.14375Q222.875 19.8625 223.625 19.8625Q224.34375 19.8625 224.82812 20.1125Q225.3125 20.3625 225.60938 20.8625Q225.92188 21.3625 226.04688 22.08125Q226.17188 22.8 226.17188 23.7375ZM225.14062 23.815624Q225.14062 23.2375 225.09375 22.8Q225.04688 22.346874 224.96875 22.003124Q224.89062 21.64375 224.76562 21.39375Q224.64062 21.14375 224.46875 20.9875Q224.29688 20.83125 224.0625 20.753124Q223.84375 20.675 223.5625 20.675Q223.0625 20.675 222.75 20.909374Q222.4375 21.14375 222.25 21.565624Q222.07812 21.971874 222.01562 22.51875Q221.95312 23.065624 221.95312 23.70625Q221.95312 24.55 222.03125 25.14375Q222.125 25.7375 222.3125 26.1125Q222.51562 26.4875 222.8125 26.659374Q223.10938 26.83125 223.53125 26.83125Q223.85938 26.83125 224.09375 26.7375Q224.34375 26.628124 224.51562 26.440624Q224.70312 26.2375 224.8125 25.95625Q224.9375 25.675 225.0 25.346874Q225.07812 25.01875 225.10938 24.628124Q225.14062 24.2375 225.14062 23.815624ZM229.76562 24.596874Q229.76562 24.815624 229.71875 24.909374Q229.67188 24.9875 229.5625 24.9875L227.10938 24.9875Q227.01562 24.9875 226.95312 24.909374Q226.90625 24.815624 226.90625 24.596874Q226.90625 24.3625 226.95312 24.284374Q227.01562 24.190624 227.10938 24.190624L229.5625 24.190624Q229.60938 24.190624 229.64062 24.20625Q229.6875 24.221874 229.70312 24.284374Q229.73438 24.33125 229.75 24.409374Q229.76562 24.471874 229.76562 24.596874ZM235.875 25.1125Q235.875 25.721874 235.67188 26.20625Q235.46875 26.675 235.09375 27.003124Q234.71875 27.315624 234.20312 27.4875Q233.6875 27.659374 233.04688 27.659374Q232.70312 27.659374 232.375 27.6125Q232.0625 27.565624 231.8125 27.4875Q231.57812 27.409374 231.40625 27.346874Q231.25 27.26875 231.20312 27.2375Q231.17188 27.190624 231.15625 27.159374Q231.14062 27.128124 231.125 27.08125Q231.10938 27.01875 231.09375 26.940624Q231.09375 26.8625 231.09375 26.76875Q231.09375 26.659374 231.09375 26.58125Q231.10938 26.503124 231.125 26.45625Q231.15625 26.409374 231.1875 26.39375Q231.21875 26.3625 231.26562 26.3625Q231.32812 26.3625 231.4375 26.440624Q231.5625 26.503124 231.76562 26.596874Q231.98438 26.675 232.28125 26.753124Q232.59375 26.83125 233.01562 26.83125Q233.40625 26.83125 233.73438 26.7375Q234.0625 26.64375 234.29688 26.440624Q234.54688 26.2375 234.67188 25.940624Q234.8125 25.64375 234.8125 25.20625Q234.8125 24.846874 234.6875 24.565624Q234.57812 24.284374 234.34375 24.096874Q234.10938 23.909374 233.75 23.83125Q233.39062 23.7375 232.875 23.7375Q232.51562 23.7375 232.25 23.76875Q232.0 23.8 231.78125 23.8Q231.625 23.8 231.54688 23.7375Q231.48438 23.659374 231.48438 23.440624L231.48438 20.346874Q231.48438 20.159374 231.5625 20.065624Q231.65625 19.971874 231.82812 19.971874L235.1875 19.971874Q235.23438 19.971874 235.28125 20.003124Q235.32812 20.01875 235.34375 20.08125Q235.375 20.128124 235.39062 20.20625Q235.40625 20.284374 235.40625 20.39375Q235.40625 20.6125 235.34375 20.7375Q235.29688 20.846874 235.1875 20.846874L232.35938 20.846874L232.35938 22.971874Q232.5625 22.940624 232.76562 22.940624Q232.98438 22.925 233.26562 22.925Q233.92188 22.925 234.40625 23.08125Q234.89062 23.2375 235.21875 23.534374Q235.54688 23.815624 235.70312 24.221874Q235.875 24.6125 235.875 25.1125ZM242.17188 23.7375Q242.17188 24.6125 242.03125 25.33125Q241.89062 26.05 241.5625 26.58125Q241.25 27.096874 240.73438 27.378124Q240.21875 27.659374 239.46875 27.659374Q238.75 27.659374 238.25 27.409374Q237.76562 27.14375 237.46875 26.659374Q237.17188 26.159374 237.04688 25.440624Q236.92188 24.70625 236.92188 23.76875Q236.92188 22.909374 237.0625 22.190624Q237.20312 21.45625 237.51562 20.940624Q237.84375 20.425 238.35938 20.14375Q238.875 19.8625 239.625 19.8625Q240.34375 19.8625 240.82812 20.1125Q241.3125 20.3625 241.60938 20.8625Q241.92188 21.3625 242.04688 22.08125Q242.17188 22.8 242.17188 23.7375ZM241.14062 23.815624Q241.14062 23.2375 241.09375 22.8Q241.04688 22.346874 240.96875 22.003124Q240.89062 21.64375 240.76562 21.39375Q240.64062 21.14375 240.46875 20.9875Q240.29688 20.83125 240.0625 20.753124Q239.84375 20.675 239.5625 20.675Q239.0625 20.675 238.75 20.909374Q238.4375 21.14375 238.25 21.565624Q238.07812 21.971874 238.01562 22.51875Q237.95312 23.065624 237.95312 23.70625Q237.95312 24.55 238.03125 25.14375Q238.125 25.7375 238.3125 26.1125Q238.51562 26.4875 238.8125 26.659374Q239.10938 26.83125 239.53125 26.83125Q239.85938 26.83125 240.09375 26.7375Q240.34375 26.628124 240.51562 26.440624Q240.70312 26.2375 240.8125 25.95625Q240.9375 25.675 241.0 25.346874Q241.07812 25.01875 241.10938 24.628124Q241.14062 24.2375 241.14062 23.815624Z" fill-rule="nonzero"/><path stroke="#a5a5a5" stroke-width="4.0" stroke-linecap="butt" d="M258.5 24.55L270.5 24.55" fill-rule="nonzero"/><path fill="#1a1a1a" d="M283.875 25.1125Q283.875 25.721874 283.67188 26.20625Q283.46875 26.675 283.09375 27.003124Q282.71875 27.315624 282.20312 27.4875Q281.6875 27.659374 281.04688 27.659374Q280.70312 27.659374 280.375 27.6125Q280.0625 27.565624 279.8125 27.4875Q279.57812 27.409374 279.40625 27.346874Q279.25 27.26875 279.20312 27.2375Q279.17188 27.190624 279.15625 27.159374Q279.14062 27.128124 279.125 27.08125Q279.10938 27.01875 279.09375 26.940624Q279.09375 26.8625 279.09375 26.76875Q279.09375 26.659374 279.09375 26.58125Q279.10938 26.503124 279.125 26.45625Q279.15625 26.409374 279.1875 26.39375Q279.21875 26.3625 279.26562 26.3625Q279.32812 26.3625 279.4375 26.440624Q279.5625 26.503124 279.76562 26.596874Q279.98438 26.675 280.28125 26.753124Q280.59375 26.83125 281.01562 26.83125Q281.40625 26.83125 281.73438 26.7375Q282.0625 26.64375 282.29688 26.440624Q282.54688 26.2375 282.67188 25.940624Q282.8125 25.64375 282.8125 25.20625Q282.8125 24.846874 282.6875 24.565624Q282.57812 24.284374 282.34375 24.096874Q282.10938 23.909374 281.75 23.83125Q281.39062 23.7375 280.875 23.7375Q280.51562 23.7375 280.25 23.76875Q280.0 23.8 279.78125 23.8Q279.625 23.8 279.54688 23.7375Q279.48438 23.659374 279.48438 23.440624L279.48438 20.346874Q279.48438 20.159374 279.5625 20.065624Q279.65625 19.971874 279.82812 19.971874L283.1875 19.971874Q283.23438 19.971874 283.28125 20.003124Q283.32812 20.01875 283.34375 20.08125Q283.375 20.128124 283.39062 20.20625Q283.40625 20.284374 283.40625 20.39375Q283.40625 20.6125 283.34375 20.7375Q283.29688 20.846874 283.1875 20.846874L280.35938 20.846874L280.35938 22.971874Q280.5625 22.940624 280.76562 22.940624Q280.98438 22.925 281.26562 22.925Q281.92188 22.925 282.40625 23.08125Q282.89062 23.2375 283.21875 23.534374Q283.54688 23.815624 283.70312 24.221874Q283.875 24.6125 283.875 25.1125ZM290.17188 23.7375Q290.17188 24.6125 290.03125 25.33125Q289.89062 26.05 289.5625 26.58125Q289.25 27.096874 288.73438 27.378124Q288.21875 27.659374 287.46875 27.659374Q286.75 27.659374 286.25 27.409374Q285.76562 27.14375 285.46875 26.659374Q285.17188 26.159374 285.04688 25.440624Q284.92188 24.70625 284.92188 23.76875Q284.92188 22.909374 285.0625 22.190624Q285.20312 21.45625 285.51562 20.940624Q285.84375 20.425 286.35938 20.14375Q286.875 19.8625 287.625 19.8625Q288.34375 19.8625 288.82812 20.1125Q289.3125 20.3625 289.60938 20.8625Q289.92188 21.3625 290.04688 22.08125Q290.17188 22.8 290.17188 23.7375ZM289.14062 23.815624Q289.14062 23.2375 289.09375 22.8Q289.04688 22.346874 288.96875 22.003124Q288.89062 21.64375 288.76562 21.39375Q288.64062 21.14375 288.46875 20.9875Q288.29688 20.83125 288.0625 20.753124Q287.84375 20.675 287.5625 20.675Q287.0625 20.675 286.75 20.909374Q286.4375 21.14375 286.25 21.565624Q286.07812 21.971874 286.01562 22.51875Q285.95312 23.065624 285.95312 23.70625Q285.95312 24.55 286.03125 25.14375Q286.125 25.7375 286.3125 26.1125Q286.51562 26.4875 286.8125 26.659374Q287.10938 26.83125 287.53125 26.83125Q287.85938 26.83125 288.09375 26.7375Q288.34375 26.628124 288.51562 26.440624Q288.70312 26.2375 288.8125 25.95625Q288.9375 25.675 289.0 25.346874Q289.07812 25.01875 289.10938 24.628124Q289.14062 24.2375 289.14062 23.815624ZM293.76562 24.596874Q293.76562 24.815624 293.71875 24.909374Q293.67188 24.9875 293.5625 24.9875L291.10938 24.9875Q291.01562 24.9875 290.95312 24.909374Q290.90625 24.815624 290.90625 24.596874Q290.90625 24.3625 290.95312 24.284374Q291.01562 24.190624 291.10938 24.190624L293.5625 24.190624Q293.60938 24.190624 293.64062 24.20625Q293.6875 24.221874 293.70312 24.284374Q293.73438 24.33125 293.75 24.409374Q293.76562 24.471874 293.76562 24.596874ZM299.9375 27.14375Q299.9375 27.26875 299.90625 27.346874Q299.89062 27.409374 299.85938 27.45625Q299.84375 27.503124 299.79688 27.534374Q299.76562 27.55 299.71875 27.55L295.76562 27.55Q295.71875 27.55 295.6875 27.534374Q295.65625 27.503124 295.60938 27.45625Q295.57812 27.409374 295.5625 27.346874Q295.54688 27.26875 295.54688 27.14375Q295.54688 27.05 295.5625 26.971874Q295.57812 26.89375 295.60938 26.846874Q295.64062 26.8 295.67188 26.76875Q295.71875 26.7375 295.76562 26.7375L297.34375 26.7375L297.34375 20.971874L295.875 21.846874Q295.76562 21.909374 295.6875 21.925Q295.625 21.925 295.57812 21.89375Q295.54688 21.846874 295.53125 21.76875Q295.51562 21.675 295.51562 21.55Q295.51562 21.440624 295.51562 21.378124Q295.53125 21.3 295.54688 21.253124Q295.57812 21.20625 295.60938 21.175Q295.64062 21.14375 295.6875 21.096874L297.4375 19.9875Q297.45312 19.971874 297.48438 19.95625Q297.53125 19.940624 297.57812 19.940624Q297.64062 19.925 297.70312 19.925Q297.78125 19.909374 297.875 19.909374Q298.01562 19.909374 298.10938 19.925Q298.20312 19.940624 298.25 19.95625Q298.3125 19.971874 298.32812 20.01875Q298.34375 20.05 298.34375 20.08125L298.34375 26.7375L299.71875 26.7375Q299.76562 26.7375 299.79688 26.76875Q299.84375 26.8 299.875 26.846874Q299.90625 26.89375 299.92188 26.971874Q299.9375 27.05 299.9375 27.14375ZM306.17188 23.7375Q306.17188 24.6125 306.03125 25.33125Q305.89062 26.05 305.5625 26.58125Q305.25 27.096874 304.73438 27.378124Q304.21875 27.659374 303.46875 27.659374Q302.75 27.659374 302.25 27.409374Q301.76562 27.14375 301.46875 26.659374Q301.17188 26.159374 301.04688 25.440624Q300.92188 24.70625 300.92188 23.76875Q300.92188 22.909374 301.0625 22.190624Q301.20312 21.45625 301.51562 20.940624Q301.84375 20.425 302.35938 20.14375Q302.875 19.8625 303.625 19.8625Q304.34375 19.8625 304.82812 20.1125Q305.3125 20.3625 305.60938 20.8625Q305.92188 21.3625 306.04688 22.08125Q306.17188 22.8 306.17188 23.7375ZM305.14062 23.815624Q305.14062 23.2375 305.09375 22.8Q305.04688 22.346874 304.96875 22.003124Q304.89062 21.64375 304.76562 21.39375Q304.64062 21.14375 304.46875 20.9875Q304.29688 20.83125 304.0625 20.753124Q303.84375 20.675 303.5625 20.675Q303.0625 20.675 302.75 20.909374Q302.4375 21.14375 302.25 21.565624Q302.07812 21.971874 302.01562 22.51875Q301.95312 23.065624 301.95312 23.70625Q301.95312 24.55 302.03125 25.14375Q302.125 25.7375 302.3125 26.1125Q302.51562 26.4875 302.8125 26.659374Q303.10938 26.83125 303.53125 26.83125Q303.85938 26.83125 304.09375 26.7375Q304.34375 26.628124 304.51562 26.440624Q304.70312 26.2375 304.8125 25.95625Q304.9375 25.675 305.0 25.346874Q305.07812 25.01875 305.10938 24.628124Q305.14062 24.2375 305.14062 23.815624ZM312.17188 23.7375Q312.17188 24.6125 312.03125 25.33125Q311.89062 26.05 311.5625 26.58125Q311.25 27.096874 310.73438 27.378124Q310.21875 27.659374 309.46875 27.659374Q308.75 27.659374 308.25 27.409374Q307.76562 27.14375 307.46875 26.659374Q307.17188 26.159374 307.04688 25.440624Q306.92188 24.70625 306.92188 23.76875Q306.92188 22.909374 307.0625 22.190624Q307.20312 21.45625 307.51562 20.940624Q307.84375 20.425 308.35938 20.14375Q308.875 19.8625 309.625 19.8625Q310.34375 19.8625 310.82812 20.1125Q311.3125 20.3625 311.60938 20.8625Q311.92188 21.3625 312.04688 22.08125Q312.17188 22.8 312.17188 23.7375ZM311.14062 23.815624Q311.14062 23.2375 311.09375 22.8Q311.04688 22.346874 310.96875 22.003124Q310.89062 21.64375 310.76562 21.39375Q310.64062 21.14375 310.46875 20.9875Q310.29688 20.83125 310.0625 20.753124Q309.84375 20.675 309.5625 20.675Q309.0625 20.675 308.75 20.909374Q308.4375 21.14375 308.25 21.565624Q308.07812 21.971874 308.01562 22.51875Q307.95312 23.065624 307.95312 23.70625Q307.95312 24.55 308.03125 25.14375Q308.125 25.7375 308.3125 26.1125Q308.51562 26.4875 308.8125 26.659374Q309.10938 26.83125 309.53125 26.83125Q309.85938 26.83125 310.09375 26.7375Q310.34375 26.628124 310.51562 26.440624Q310.70312 26.2375 310.8125 25.95625Q310.9375 25.675 311.0 25.346874Q311.07812 25.01875 311.10938 24.628124Q311.14062 24.2375 311.14062 23.815624Z" fill-rule="nonzero"/><path stroke="#ffc000" stroke-width="4.0" stroke-linecap="butt" d="M328.5 24.55L340.5 24.55" fill-rule="nonzero"/><path fill="#1a1a1a" d="M354.57812 26.471874Q354.57812 26.565624 354.5625 26.64375Q354.5625 26.70625 354.54688 26.76875Q354.53125 26.815624 354.5 26.8625Q354.48438 26.89375 354.42188 26.95625Q354.35938 27.01875 354.17188 27.14375Q353.98438 27.253124 353.70312 27.378124Q353.4375 27.4875 353.07812 27.565624Q352.71875 27.64375 352.28125 27.64375Q351.54688 27.64375 350.95312 27.39375Q350.35938 27.14375 349.9375 26.675Q349.51562 26.190624 349.28125 25.4875Q349.0625 24.784374 349.0625 23.8625Q349.0625 22.909374 349.3125 22.175Q349.5625 21.440624 350.0 20.925Q350.4375 20.409374 351.04688 20.14375Q351.65625 19.878124 352.40625 19.878124Q352.73438 19.878124 353.04688 19.940624Q353.35938 20.003124 353.60938 20.096874Q353.875 20.190624 354.07812 20.315624Q354.29688 20.425 354.375 20.503124Q354.45312 20.58125 354.46875 20.628124Q354.5 20.675 354.51562 20.7375Q354.53125 20.784374 354.53125 20.8625Q354.54688 20.940624 354.54688 21.034374Q354.54688 21.159374 354.53125 21.2375Q354.51562 21.315624 354.48438 21.378124Q354.46875 21.425 354.4375 21.45625Q354.40625 21.4875 354.35938 21.4875Q354.28125 21.4875 354.125 21.378124Q353.98438 21.253124 353.75 21.128124Q353.51562 20.9875 353.1875 20.878124Q352.85938 20.753124 352.39062 20.753124Q351.89062 20.753124 351.46875 20.95625Q351.0625 21.159374 350.76562 21.55Q350.48438 21.940624 350.3125 22.503124Q350.15625 23.065624 350.15625 23.8Q350.15625 24.51875 350.3125 25.08125Q350.46875 25.628124 350.75 26.003124Q351.04688 26.378124 351.46875 26.565624Q351.89062 26.753124 352.42188 26.753124Q352.875 26.753124 353.20312 26.64375Q353.54688 26.534374 353.78125 26.39375Q354.03125 26.253124 354.17188 26.14375Q354.32812 26.034374 354.42188 26.034374Q354.45312 26.034374 354.48438 26.05Q354.51562 26.065624 354.53125 26.1125Q354.54688 26.159374 354.5625 26.253124Q354.57812 26.346874 354.57812 26.471874ZM359.375 27.409374Q359.375 27.471874 359.32812 27.51875Q359.28125 27.55 359.1875 27.565624Q359.10938 27.58125 358.95312 27.58125Q358.79688 27.58125 358.70312 27.565624Q358.625 27.55 358.57812 27.51875Q358.53125 27.471874 358.53125 27.409374L358.53125 26.878124Q358.1875 27.253124 357.76562 27.45625Q357.34375 27.659374 356.875 27.659374Q356.45312 27.659374 356.10938 27.55Q355.78125 27.440624 355.53125 27.2375Q355.29688 27.034374 355.17188 26.7375Q355.04688 26.440624 355.04688 26.05Q355.04688 25.6125 355.21875 25.284374Q355.40625 24.95625 355.73438 24.7375Q356.07812 24.51875 356.5625 24.409374Q357.0625 24.3 357.6875 24.3L358.40625 24.3L358.40625 23.89375Q358.40625 23.58125 358.34375 23.346874Q358.28125 23.1125 358.14062 22.971874Q358.0 22.815624 357.76562 22.7375Q357.53125 22.64375 357.20312 22.64375Q356.84375 22.64375 356.5625 22.7375Q356.28125 22.815624 356.0625 22.925Q355.84375 23.01875 355.70312 23.1125Q355.5625 23.190624 355.48438 23.190624Q355.4375 23.190624 355.40625 23.175Q355.375 23.14375 355.34375 23.096874Q355.32812 23.05 355.3125 22.9875Q355.29688 22.909374 355.29688 22.815624Q355.29688 22.675 355.3125 22.596874Q355.34375 22.503124 355.42188 22.425Q355.5 22.346874 355.6875 22.253124Q355.89062 22.14375 356.14062 22.065624Q356.39062 21.971874 356.6875 21.925Q356.98438 21.8625 357.29688 21.8625Q357.85938 21.8625 358.25 22.003124Q358.65625 22.128124 358.89062 22.378124Q359.14062 22.628124 359.25 23.003124Q359.375 23.3625 359.375 23.846874L359.375 27.409374ZM358.40625 25.003124L357.57812 25.003124Q357.1875 25.003124 356.89062 25.065624Q356.59375 25.128124 356.40625 25.26875Q356.21875 25.39375 356.125 25.58125Q356.03125 25.76875 356.03125 26.003124Q356.03125 26.425 356.28125 26.675Q356.54688 26.909374 357.01562 26.909374Q357.40625 26.909374 357.71875 26.721874Q358.04688 26.51875 358.40625 26.1125L358.40625 25.003124ZM366.1875 26.596874Q366.1875 26.70625 366.17188 26.784374Q366.17188 26.846874 366.15625 26.89375Q366.14062 26.940624 366.125 26.9875Q366.10938 27.01875 366.03125 27.096874Q365.95312 27.175 365.78125 27.284374Q365.60938 27.378124 365.39062 27.471874Q365.17188 27.55 364.90625 27.596874Q364.65625 27.659374 364.375 27.659374Q363.8125 27.659374 363.375 27.471874Q362.9375 27.284374 362.64062 26.925Q362.34375 26.565624 362.1875 26.05Q362.03125 25.51875 362.03125 24.83125Q362.03125 24.05 362.21875 23.4875Q362.40625 22.925 362.73438 22.58125Q363.07812 22.221874 363.51562 22.05Q363.96875 21.878124 364.48438 21.878124Q364.73438 21.878124 364.96875 21.925Q365.21875 21.971874 365.40625 22.05Q365.60938 22.1125 365.76562 22.221874Q365.92188 22.315624 365.98438 22.39375Q366.0625 22.45625 366.09375 22.503124Q366.125 22.534374 366.14062 22.596874Q366.15625 22.64375 366.15625 22.721874Q366.17188 22.784374 366.17188 22.89375Q366.17188 23.128124 366.10938 23.221874Q366.0625 23.3 365.98438 23.3Q365.89062 23.3 365.78125 23.20625Q365.67188 23.1125 365.48438 23.003124Q365.3125 22.878124 365.0625 22.784374Q364.8125 22.690624 364.48438 22.690624Q363.78125 22.690624 363.40625 23.221874Q363.03125 23.753124 363.03125 24.784374Q363.03125 25.284374 363.125 25.675Q363.23438 26.05 363.42188 26.315624Q363.60938 26.565624 363.875 26.690624Q364.15625 26.815624 364.5 26.815624Q364.82812 26.815624 365.07812 26.721874Q365.34375 26.6125 365.51562 26.4875Q365.70312 26.3625 365.82812 26.26875Q365.95312 26.159374 366.03125 26.159374Q366.07812 26.159374 366.09375 26.190624Q366.125 26.20625 366.14062 26.26875Q366.17188 26.315624 366.17188 26.409374Q366.1875 26.4875 366.1875 26.596874ZM371.375 27.409374Q371.375 27.471874 371.32812 27.51875Q371.28125 27.55 371.1875 27.565624Q371.10938 27.58125 370.95312 27.58125Q370.79688 27.58125 370.70312 27.565624Q370.625 27.55 370.57812 27.51875Q370.53125 27.471874 370.53125 27.409374L370.53125 26.878124Q370.1875 27.253124 369.76562 27.45625Q369.34375 27.659374 368.875 27.659374Q368.45312 27.659374 368.10938 27.55Q367.78125 27.440624 367.53125 27.2375Q367.29688 27.034374 367.17188 26.7375Q367.04688 26.440624 367.04688 26.05Q367.04688 25.6125 367.21875 25.284374Q367.40625 24.95625 367.73438 24.7375Q368.07812 24.51875 368.5625 24.409374Q369.0625 24.3 369.6875 24.3L370.40625 24.3L370.40625 23.89375Q370.40625 23.58125 370.34375 23.346874Q370.28125 23.1125 370.14062 22.971874Q370.0 22.815624 369.76562 22.7375Q369.53125 22.64375 369.20312 22.64375Q368.84375 22.64375 368.5625 22.7375Q368.28125 22.815624 368.0625 22.925Q367.84375 23.01875 367.70312 23.1125Q367.5625 23.190624 367.48438 23.190624Q367.4375 23.190624 367.40625 23.175Q367.375 23.14375 367.34375 23.096874Q367.32812 23.05 367.3125 22.9875Q367.29688 22.909374 367.29688 22.815624Q367.29688 22.675 367.3125 22.596874Q367.34375 22.503124 367.42188 22.425Q367.5 22.346874 367.6875 22.253124Q367.89062 22.14375 368.14062 22.065624Q368.39062 21.971874 368.6875 21.925Q368.98438 21.8625 369.29688 21.8625Q369.85938 21.8625 370.25 22.003124Q370.65625 22.128124 370.89062 22.378124Q371.14062 22.628124 371.25 23.003124Q371.375 23.3625 371.375 23.846874L371.375 27.409374ZM370.40625 25.003124L369.57812 25.003124Q369.1875 25.003124 368.89062 25.065624Q368.59375 25.128124 368.40625 25.26875Q368.21875 25.39375 368.125 25.58125Q368.03125 25.76875 368.03125 26.003124Q368.03125 26.425 368.28125 26.675Q368.54688 26.909374 369.01562 26.909374Q369.40625 26.909374 369.71875 26.721874Q370.04688 26.51875 370.40625 26.1125L370.40625 25.003124ZM379.29688 24.70625Q379.29688 25.346874 379.125 25.89375Q378.96875 26.440624 378.625 26.83125Q378.28125 27.221874 377.78125 27.440624Q377.28125 27.659374 376.60938 27.659374Q375.95312 27.659374 375.46875 27.471874Q374.98438 27.26875 374.65625 26.909374Q374.34375 26.534374 374.1875 26.01875Q374.03125 25.4875 374.03125 24.815624Q374.03125 24.175 374.1875 23.628124Q374.35938 23.08125 374.6875 22.690624Q375.03125 22.3 375.53125 22.08125Q376.04688 21.8625 376.71875 21.8625Q377.375 21.8625 377.84375 22.065624Q378.32812 22.253124 378.65625 22.628124Q378.98438 22.9875 379.14062 23.51875Q379.29688 24.05 379.29688 24.70625ZM378.28125 24.76875Q378.28125 24.346874 378.20312 23.971874Q378.125 23.58125 377.9375 23.3Q377.76562 23.003124 377.45312 22.846874Q377.14062 22.675 376.67188 22.675Q376.25 22.675 375.9375 22.83125Q375.64062 22.971874 375.4375 23.253124Q375.23438 23.534374 375.14062 23.925Q375.04688 24.3 375.04688 24.753124Q375.04688 25.175 375.125 25.565624Q375.20312 25.940624 375.375 26.2375Q375.5625 26.51875 375.875 26.690624Q376.1875 26.846874 376.65625 26.846874Q377.07812 26.846874 377.39062 26.690624Q377.70312 26.534374 377.89062 26.26875Q378.09375 25.9875 378.1875 25.6125Q378.28125 25.221874 378.28125 24.76875Z" fill-rule="nonzero"/><path stroke="#4472c4" stroke-width="4.0" stroke-linecap="butt" d="M396.5 24.55L408.5 24.55" fill-rule="nonzero"/><path fill="#1a1a1a" d="M423.20312 21.003124Q423.20312 21.1125 423.1875 21.20625Q423.1875 21.284374 423.15625 21.346874Q423.14062 21.39375 423.09375 21.425Q423.0625 21.440624 423.01562 21.440624Q422.95312 21.440624 422.78125 21.33125Q422.625 21.221874 422.34375 21.08125Q422.07812 20.940624 421.6875 20.83125Q421.3125 20.721874 420.78125 20.721874Q420.15625 20.721874 419.65625 20.95625Q419.15625 21.175 418.8125 21.58125Q418.46875 21.9875 418.28125 22.55Q418.09375 23.096874 418.09375 23.753124Q418.09375 24.471874 418.29688 25.034374Q418.5 25.596874 418.85938 25.9875Q419.21875 26.378124 419.70312 26.58125Q420.20312 26.76875 420.79688 26.76875Q421.14062 26.76875 421.5 26.690624Q421.875 26.6125 422.17188 26.440624L422.17188 24.221874L420.42188 24.221874Q420.32812 24.221874 420.26562 24.128124Q420.21875 24.034374 420.21875 23.815624Q420.21875 23.70625 420.23438 23.628124Q420.25 23.55 420.26562 23.503124Q420.29688 23.440624 420.32812 23.425Q420.375 23.39375 420.42188 23.39375L422.82812 23.39375Q422.89062 23.39375 422.95312 23.425Q423.01562 23.440624 423.0625 23.4875Q423.125 23.534374 423.15625 23.628124Q423.1875 23.70625 423.1875 23.815624L423.1875 26.70625Q423.1875 26.846874 423.125 26.971874Q423.07812 27.08125 422.90625 27.159374Q422.73438 27.2375 422.46875 27.346874Q422.20312 27.440624 421.90625 27.51875Q421.625 27.58125 421.32812 27.6125Q421.04688 27.659374 420.75 27.659374Q419.875 27.659374 419.1875 27.39375Q418.5 27.1125 418.01562 26.6125Q417.53125 26.096874 417.28125 25.39375Q417.03125 24.690624 417.03125 23.83125Q417.03125 22.925 417.29688 22.190624Q417.57812 21.45625 418.0625 20.940624Q418.5625 20.425 419.25 20.14375Q419.95312 19.8625 420.79688 19.8625Q421.23438 19.8625 421.60938 19.940624Q422.0 20.01875 422.29688 20.128124Q422.59375 20.221874 422.79688 20.346874Q423.0 20.45625 423.0625 20.534374Q423.14062 20.6125 423.17188 20.721874Q423.20312 20.815624 423.20312 21.003124ZM428.48438 22.471874Q428.48438 22.596874 428.46875 22.690624Q428.46875 22.784374 428.45312 22.83125Q428.4375 22.878124 428.40625 22.909374Q428.375 22.925 428.32812 22.925Q428.28125 22.925 428.21875 22.909374Q428.15625 22.878124 428.0625 22.8625Q427.98438 22.83125 427.875 22.815624Q427.76562 22.784374 427.64062 22.784374Q427.5 22.784374 427.35938 22.846874Q427.21875 22.89375 427.0625 23.034374Q426.90625 23.159374 426.73438 23.39375Q426.5625 23.6125 426.35938 23.940624L426.35938 27.409374Q426.35938 27.45625 426.32812 27.4875Q426.3125 27.51875 426.26562 27.55Q426.21875 27.565624 426.125 27.565624Q426.03125 27.58125 425.875 27.58125Q425.73438 27.58125 425.64062 27.565624Q425.54688 27.565624 425.48438 27.55Q425.4375 27.51875 425.40625 27.4875Q425.39062 27.45625 425.39062 27.409374L425.39062 22.128124Q425.39062 22.08125 425.40625 22.05Q425.4375 22.01875 425.48438 22.003124Q425.53125 21.971874 425.60938 21.95625Q425.70312 21.940624 425.84375 21.940624Q425.96875 21.940624 426.04688 21.95625Q426.14062 21.971874 426.1875 22.003124Q426.23438 22.01875 426.25 22.05Q426.26562 22.08125 426.26562 22.128124L426.26562 22.89375Q426.48438 22.58125 426.67188 22.378124Q426.875 22.175 427.03125 22.065624Q427.20312 21.95625 427.375 21.909374Q427.54688 21.8625 427.71875 21.8625Q427.78125 21.8625 427.875 21.878124Q427.98438 21.878124 428.07812 21.909374Q428.1875 21.925 428.26562 21.95625Q428.35938 21.9875 428.39062 22.01875Q428.4375 22.05 428.4375 22.08125Q428.45312 22.096874 428.45312 22.14375Q428.46875 22.175 428.46875 22.26875Q428.48438 22.346874 428.48438 22.471874ZM430.35938 27.409374Q430.35938 27.45625 430.32812 27.4875Q430.3125 27.51875 430.26562 27.55Q430.21875 27.565624 430.125 27.565624Q430.03125 27.58125 429.875 27.58125Q429.73438 27.58125 429.64062 27.565624Q429.54688 27.565624 429.48438 27.55Q429.4375 27.51875 429.40625 27.4875Q429.39062 27.45625 429.39062 27.409374L429.39062 22.128124Q429.39062 22.08125 429.40625 22.05Q429.4375 22.01875 429.48438 22.003124Q429.54688 21.971874 429.64062 21.95625Q429.73438 21.940624 429.875 21.940624Q430.03125 21.940624 430.125 21.95625Q430.21875 21.971874 430.26562 22.003124Q430.3125 22.01875 430.32812 22.05Q430.35938 22.08125 430.35938 22.128124L430.35938 27.409374ZM430.46875 20.346874Q430.46875 20.690624 430.34375 20.815624Q430.21875 20.940624 429.875 20.940624Q429.53125 20.940624 429.40625 20.815624Q429.28125 20.690624 429.28125 20.3625Q429.28125 20.01875 429.40625 19.89375Q429.53125 19.76875 429.89062 19.76875Q430.21875 19.76875 430.34375 19.89375Q430.46875 20.01875 430.46875 20.346874ZM437.9375 27.409374Q437.9375 27.45625 437.90625 27.4875Q437.89062 27.51875 437.82812 27.55Q437.78125 27.565624 437.6875 27.565624Q437.59375 27.58125 437.45312 27.58125Q437.3125 27.58125 437.21875 27.565624Q437.125 27.565624 437.0625 27.55Q437.01562 27.51875 436.98438 27.4875Q436.96875 27.45625 436.96875 27.409374L436.96875 24.315624Q436.96875 23.8625 436.89062 23.596874Q436.82812 23.315624 436.6875 23.1125Q436.5625 22.909374 436.34375 22.815624Q436.14062 22.70625 435.85938 22.70625Q435.48438 22.70625 435.125 22.971874Q434.76562 23.221874 434.35938 23.721874L434.35938 27.409374Q434.35938 27.45625 434.32812 27.4875Q434.3125 27.51875 434.26562 27.55Q434.21875 27.565624 434.125 27.565624Q434.03125 27.58125 433.875 27.58125Q433.73438 27.58125 433.64062 27.565624Q433.54688 27.565624 433.48438 27.55Q433.4375 27.51875 433.40625 27.4875Q433.39062 27.45625 433.39062 27.409374L433.39062 22.128124Q433.39062 22.08125 433.40625 22.05Q433.4375 22.01875 433.48438 22.003124Q433.53125 21.971874 433.60938 21.95625Q433.70312 21.940624 433.84375 21.940624Q433.96875 21.940624 434.04688 21.95625Q434.14062 21.971874 434.1875 22.003124Q434.23438 22.01875 434.25 22.05Q434.26562 22.08125 434.26562 22.128124L434.26562 22.83125Q434.71875 22.33125 435.15625 22.096874Q435.59375 21.8625 436.04688 21.8625Q436.57812 21.8625 436.9375 22.05Q437.29688 22.221874 437.51562 22.51875Q437.75 22.815624 437.84375 23.221874Q437.9375 23.628124 437.9375 24.190624L437.9375 27.409374ZM444.92188 27.409374Q444.92188 27.45625 444.89062 27.4875Q444.875 27.51875 444.82812 27.55Q444.78125 27.565624 444.6875 27.565624Q444.60938 27.58125 444.5 27.58125Q444.375 27.58125 444.28125 27.565624Q444.20312 27.565624 444.14062 27.55Q444.09375 27.51875 444.0625 27.4875Q444.04688 27.45625 444.04688 27.409374L444.04688 26.70625Q443.64062 27.159374 443.1875 27.409374Q442.73438 27.659374 442.20312 27.659374Q441.625 27.659374 441.21875 27.440624Q440.8125 27.20625 440.54688 26.83125Q440.29688 26.440624 440.17188 25.925Q440.0625 25.409374 440.0625 24.83125Q440.0625 24.14375 440.20312 23.596874Q440.35938 23.05 440.64062 22.675Q440.9375 22.284374 441.35938 22.08125Q441.78125 21.8625 442.34375 21.8625Q442.79688 21.8625 443.17188 22.065624Q443.5625 22.26875 443.9375 22.659374L443.9375 19.596874Q443.9375 19.55 443.95312 19.51875Q443.98438 19.4875 444.03125 19.471874Q444.09375 19.440624 444.1875 19.425Q444.28125 19.409374 444.42188 19.409374Q444.5625 19.409374 444.65625 19.425Q444.75 19.440624 444.79688 19.471874Q444.85938 19.4875 444.89062 19.51875Q444.92188 19.55 444.92188 19.596874L444.92188 27.409374ZM443.9375 23.690624Q443.54688 23.20625 443.17188 22.95625Q442.8125 22.690624 442.42188 22.690624Q442.04688 22.690624 441.78125 22.878124Q441.53125 23.05 441.375 23.346874Q441.21875 23.628124 441.14062 23.9875Q441.0625 24.346874 441.0625 24.721874Q441.0625 25.128124 441.125 25.503124Q441.1875 25.878124 441.34375 26.175Q441.5 26.471874 441.75 26.659374Q442.0 26.83125 442.375 26.83125Q442.57812 26.83125 442.75 26.784374Q442.92188 26.721874 443.10938 26.6125Q443.29688 26.4875 443.5 26.3Q443.71875 26.096874 443.9375 25.8L443.9375 23.690624ZM448.35938 27.409374Q448.35938 27.45625 448.32812 27.4875Q448.3125 27.51875 448.26562 27.55Q448.21875 27.565624 448.125 27.565624Q448.03125 27.58125 447.875 27.58125Q447.73438 27.58125 447.64062 27.565624Q447.54688 27.565624 447.48438 27.55Q447.4375 27.51875 447.40625 27.4875Q447.39062 27.45625 447.39062 27.409374L447.39062 22.128124Q447.39062 22.08125 447.40625 22.05Q447.4375 22.01875 447.48438 22.003124Q447.54688 21.971874 447.64062 21.95625Q447.73438 21.940624 447.875 21.940624Q448.03125 21.940624 448.125 21.95625Q448.21875 21.971874 448.26562 22.003124Q448.3125 22.01875 448.32812 22.05Q448.35938 22.08125 448.35938 22.128124L448.35938 27.409374ZM448.46875 20.346874Q448.46875 20.690624 448.34375 20.815624Q448.21875 20.940624 447.875 20.940624Q447.53125 20.940624 447.40625 20.815624Q447.28125 20.690624 447.28125 20.3625Q447.28125 20.01875 447.40625 19.89375Q447.53125 19.76875 447.89062 19.76875Q448.21875 19.76875 448.34375 19.89375Q448.46875 20.01875 448.46875 20.346874ZM455.9375 27.409374Q455.9375 27.45625 455.90625 27.4875Q455.89062 27.51875 455.82812 27.55Q455.78125 27.565624 455.6875 27.565624Q455.59375 27.58125 455.45312 27.58125Q455.3125 27.58125 455.21875 27.565624Q455.125 27.565624 455.0625 27.55Q455.01562 27.51875 454.98438 27.4875Q454.96875 27.45625 454.96875 27.409374L454.96875 24.315624Q454.96875 23.8625 454.89062 23.596874Q454.82812 23.315624 454.6875 23.1125Q454.5625 22.909374 454.34375 22.815624Q454.14062 22.70625 453.85938 22.70625Q453.48438 22.70625 453.125 22.971874Q452.76562 23.221874 452.35938 23.721874L452.35938 27.409374Q452.35938 27.45625 452.32812 27.4875Q452.3125 27.51875 452.26562 27.55Q452.21875 27.565624 452.125 27.565624Q452.03125 27.58125 451.875 27.58125Q451.73438 27.58125 451.64062 27.565624Q451.54688 27.565624 451.48438 27.55Q451.4375 27.51875 451.40625 27.4875Q451.39062 27.45625 451.39062 27.409374L451.39062 22.128124Q451.39062 22.08125 451.40625 22.05Q451.4375 22.01875 451.48438 22.003124Q451.53125 21.971874 451.60938 21.95625Q451.70312 21.940624 451.84375 21.940624Q451.96875 21.940624 452.04688 21.95625Q452.14062 21.971874 452.1875 22.003124Q452.23438 22.01875 452.25 22.05Q452.26562 22.08125 452.26562 22.128124L452.26562 22.83125Q452.71875 22.33125 453.15625 22.096874Q453.59375 21.8625 454.04688 21.8625Q454.57812 21.8625 454.9375 22.05Q455.29688 22.221874 455.51562 22.51875Q455.75 22.815624 455.84375 23.221874Q455.9375 23.628124 455.9375 24.190624L455.9375 27.409374ZM462.79688 22.3625Q462.79688 22.58125 462.73438 22.675Q462.6875 22.753124 462.60938 22.753124L461.84375 22.753124Q462.04688 22.971874 462.125 23.221874Q462.21875 23.471874 462.21875 23.753124Q462.21875 24.20625 462.0625 24.565624Q461.92188 24.909374 461.64062 25.159374Q461.375 25.39375 461.0 25.534374Q460.625 25.659374 460.17188 25.659374Q459.84375 25.659374 459.54688 25.58125Q459.26562 25.4875 459.10938 25.3625Q459.0 25.45625 458.9375 25.596874Q458.875 25.7375 458.875 25.909374Q458.875 26.1125 459.0625 26.253124Q459.25 26.378124 459.5625 26.39375L460.95312 26.45625Q461.34375 26.471874 461.67188 26.565624Q462.0 26.659374 462.23438 26.846874Q462.46875 27.01875 462.60938 27.284374Q462.75 27.534374 462.75 27.878124Q462.75 28.253124 462.59375 28.58125Q462.4375 28.909374 462.125 29.159374Q461.8125 29.409374 461.32812 29.55Q460.84375 29.690624 460.17188 29.690624Q459.54688 29.690624 459.09375 29.58125Q458.64062 29.471874 458.34375 29.284374Q458.0625 29.096874 457.9375 28.83125Q457.8125 28.58125 457.8125 28.26875Q457.8125 28.08125 457.85938 27.89375Q457.90625 27.721874 458.0 27.55Q458.09375 27.378124 458.23438 27.2375Q458.39062 27.08125 458.57812 26.940624Q458.28125 26.8 458.14062 26.58125Q458.01562 26.346874 458.01562 26.096874Q458.01562 25.7375 458.15625 25.45625Q458.29688 25.175 458.51562 24.940624Q458.34375 24.7375 458.23438 24.471874Q458.125 24.190624 458.125 23.8Q458.125 23.346874 458.28125 22.9875Q458.4375 22.628124 458.70312 22.39375Q458.96875 22.14375 459.34375 22.01875Q459.73438 21.878124 460.17188 21.878124Q460.40625 21.878124 460.60938 21.909374Q460.82812 21.925 461.01562 21.971874L462.60938 21.971874Q462.70312 21.971874 462.75 22.08125Q462.79688 22.175 462.79688 22.3625ZM461.29688 23.753124Q461.29688 23.221874 461.0 22.925Q460.70312 22.6125 460.15625 22.6125Q459.875 22.6125 459.65625 22.70625Q459.45312 22.8 459.3125 22.971874Q459.1875 23.128124 459.10938 23.346874Q459.04688 23.565624 459.04688 23.8Q459.04688 24.315624 459.34375 24.6125Q459.64062 24.909374 460.17188 24.909374Q460.45312 24.909374 460.65625 24.83125Q460.875 24.7375 461.01562 24.58125Q461.15625 24.409374 461.21875 24.20625Q461.29688 23.9875 461.29688 23.753124ZM461.78125 27.940624Q461.78125 27.596874 461.5 27.409374Q461.21875 27.221874 460.75 27.221874L459.375 27.175Q459.1875 27.315624 459.0625 27.45625Q458.95312 27.58125 458.875 27.690624Q458.8125 27.815624 458.78125 27.925Q458.76562 28.05 458.76562 28.175Q458.76562 28.565624 459.14062 28.753124Q459.53125 28.95625 460.21875 28.95625Q460.67188 28.95625 460.95312 28.8625Q461.25 28.784374 461.4375 28.64375Q461.625 28.503124 461.70312 28.315624Q461.78125 28.14375 461.78125 27.940624Z" fill-rule="nonzero"/></svg>