<svg version="1.1" viewBox="0.0 0.0 600.0 371.0" fill="none" stroke="none" stroke-linecap="square" stroke-miterlimit="10" width="600" height="371" xmlns:xlink="http://www.w3.org/1999/xlink" xmlns="http://www.w3.org/2000/svg"><path fill="#ffffff" d="M0 0L600.0 0L600.0 371.0L0 371.0L0 0Z" fill-rule="nonzero"/><path stroke="#333333" stroke-width="1.0" stroke-linecap="butt" d="M42.5 334.5L581.5 334.5" fill-rule="nonzero"/><path stroke="#cccccc" stroke-width="1.0" stroke-linecap="butt" d="M42.5 239.5L581.5 239.5" fill-rule="nonzero"/><path stroke="#cccccc" stroke-width="1.0" stroke-linecap="butt" d="M42.5 144.5L581.5 144.5" fill-rule="nonzero"/><path stroke="#cccccc" stroke-width="1.0" stroke-linecap="butt" d="M42.5 48.5L581.5 48.5" fill-rule="nonzero"/><clipPath id="id_0"><path d="M42.55 48.916668L581.45 48.916668L581.45 334.45L42.55 334.45L42.55 48.916668Z" clip-rule="nonzero"/></clipPath><path stroke="#5b9bd5" stroke-width="2.0" stroke-linecap="butt" clip-path="url(#id_0)" d="M76.23125 130.09772L143.59375 166.48921L210.95625 204.2804L278.31876 111.90196L345.68124 142.69478L413.04376 208.47942L480.40625 174.88725L547.76874 120.3" fill-rule="nonzero"/><path stroke="#ed7d31" stroke-width="2.0" stroke-linecap="butt" clip-path="url(#id_0)" d="M76.23125 96.505554L143.59375 120.3L210.95625 144.09445L278.31876 96.505554L345.68124 144.09445L413.04376 215.47778L480.40625 144.09445L547.76874 96.505554" fill-rule="nonzero"/><path stroke="#a5a5a5" stroke-width="2.0" stroke-linecap="butt" clip-path="url(#id_0)" d="M76.23125 136.16296L143.59375 144.09445L210.95625 183.75185L278.31876 108.40278L345.68124 124.26574L413.04376 163.92314L480.40625 175.82037L547.76874 88.57407" fill-rule="nonzero"/><path stroke="#ffc000" stroke-width="2.0" stroke-linecap="butt" clip-path="url(#id_0)" d="M76.23125 284.35645L143.59375 301.0543L210.95625 277.67728L278.31876 301.0543L345.68124 284.35645L413.04376 277.67728L480.40625 277.67728L547.76874 291.03558" fill-rule="nonzero"/><path stroke="#4472c4" stroke-width="2.0" stroke-linecap="butt" clip-path="url(#id_0)" d="M76.23125 290.5218L143.59375 305.16452L210.95625 305.16452L278.31876 261.23633L345.68124 290.5218L413.04376 261.23633L480.40625 290.5218L547.76874 290.5218" fill-rule="nonzero"/><path fill="#000000" fill-opacity="0.0" clip-path="url(#id_0)" d="M79.23125 130.09772C79.23125 131.75456 77.88811 133.09772 76.23125 133.09772C74.574394 133.09772 73.23125 131.75456 73.23125 130.09772C73.23125 128.44086 74.574394 127.09771 76.23125 127.09771C77.88811 127.09771 79.23125 128.44086 79.23125 130.09772Z" fill-rule="nonzero"/><path fill="#000000" fill-opacity="0.0" clip-path="url(#id_0)" d="M146.59375 166.48921C146.59375 168.14607 145.25061 169.48921 143.59375 169.48921C141.93689 169.48921 140.59375 168.14607 140.59375 166.48921C140.59375 164.83237 141.93689 163.48921 143.59375 163.48921C145.25061 163.48921 146.59375 164.83237 146.59375 166.48921Z" fill-rule="nonzero"/><path fill="#000000" fill-opacity="0.0" clip-path="url(#id_0)" d="M213.95625 204.2804C213.95625 205.93724 212.6131 207.2804 210.95625 207.2804C209.2994 207.2804 207.95625 205.93724 207.95625 204.2804C207.95625 202.62354 209.2994 201.2804 210.95625 201.2804C212.6131 201.2804 213.95625 202.62354 213.95625 204.2804Z" fill-rule="nonzero"/><path fill="#000000" fill-opacity="0.0" clip-path="url(#id_0)" d="M281.31876 111.90196C281.31876 113.558815 279.97562 114.90196 278.31876 114.90196C276.6619 114.90196 275.31876 113.558815 275.31876 111.90196C275.31876 110.24511 276.6619 108.90196 278.31876 108.90196C279.97562 108.90196 281.31876 110.24511 281.31876 111.90196Z" fill-rule="nonzero"/><path fill="#000000" fill-opacity="0.0" clip-path="url(#id_0)" d="M348.68124 142.69478C348.68124 144.35162 347.3381 145.69478 345.68124 145.69478C344.02438 145.69478 342.68124 144.35162 342.68124 142.69478C342.68124 141.03792 344.02438 139.69478 345.68124 139.69478C347.3381 139.69478 348.68124 141.03792 348.68124 142.69478Z" fill-rule="nonzero"/><path fill="#000000" fill-opacity="0.0" clip-path="url(#id_0)" d="M416.04376 208.47942C416.04376 210.13626 414.7006 211.47942 413.04376 211.47942C411.3869 211.47942 410.04376 210.13626 410.04376 208.47942C410.04376 206.82256 411.3869 205.47942 413.04376 205.47942C414.7006 205.47942 416.04376 206.82256 416.04376 208.47942Z" fill-rule="nonzero"/><path fill="#000000" fill-opacity="0.0" clip-path="url(#id_0)" d="M483.40625 174.88725C483.40625 176.54411 482.0631 177.88725 480.40625 177.88725C478.7494 177.88725 477.40625 176.54411 477.40625 174.88725C477.40625 173.23041 478.7494 171.88725 480.40625 171.88725C482.0631 171.88725 483.40625 173.23041 483.40625 174.88725Z" fill-rule="nonzero"/><path fill="#000000" fill-opacity="0.0" clip-path="url(#id_0)" d="M550.76874 120.3C550.76874 121.956856 549.4256 123.3 547.76874 123.3C546.1119 123.3 544.76874 121.956856 544.76874 120.3C544.76874 118.64314 546.1119 117.3 547.76874 117.3C549.4256 117.3 550.76874 118.64314 550.76874 120.3Z" fill-rule="nonzero"/><path fill="#000000" fill-opacity="0.0" clip-path="url(#id_0)" d="M79.23125 96.505554C79.23125 98.16241 77.88811 99.505554 76.23125 99.505554C74.574394 99.505554 73.23125 98.16241 73.23125 96.505554C73.23125 94.8487 74.574394 93.505554 76.23125 93.505554C77.88811 93.505554 79.23125 94.8487 79.23125 96.505554Z" fill-rule="nonzero"/><path fill="#000000" fill-opacity="0.0" clip-path="url(#id_0)" d="M146.59375 120.3C146.59375 121.956856 145.25061 123.3 143.59375 123.3C141.93689 123.3 140.59375 121.956856 140.59375 120.3C140.59375 118.64314 141.93689 117.3 143.59375 117.3C145.25061 117.3 146.59375 118.64314 146.59375 120.3Z" fill-rule="nonzero"/><path fill="#000000" fill-opacity="0.0" clip-path="url(#id_0)" d="M213.95625 144.09445C213.95625 145.7513 212.6131 147.09445 210.95625 147.09445C209.2994 147.09445 207.95625 145.7513 207.95625 144.09445C207.95625 142.43759 209.2994 141.09445 210.95625 141.09445C212.6131 141.09445 213.95625 142.43759 213.95625 144.09445Z" fill-rule="nonzero"/><path fill="#000000" fill-opacity="0.0" clip-path="url(#id_0)" d="M281.31876 96.505554C281.31876 98.16241 279.97562 99.505554 278.31876 99.505554C276.6619 99.505554 275.31876 98.16241 275.31876 96.505554C275.31876 94.8487 276.6619 93.505554 278.31876 93.505554C279.97562 93.505554 281.31876 94.8487 281.31876 96.505554Z" fill-rule="nonzero"/><path fill="#000000" fill-opacity="0.0" clip-path="url(#id_0)" d="M348.68124 144.09445C348.68124 145.7513 347.3381 147.09445 345.68124 147.09445C344.02438 147.09445 342.68124 145.7513 342.68124 144.09445C342.68124 142.43759 344.02438 141.09445 345.68124 141.09445C347.3381 141.09445 348.68124 142.43759 348.68124 144.09445Z" fill-rule="nonzero"/><path fill="#000000" fill-opacity="0.0" clip-path="url(#id_0)" d="M416.04376 215.47778C416.04376 217.13463 414.7006 218.47778 413.04376 218.47778C411.3869 218.47778 410.04376 217.13463 410.04376 215.47778C410.04376 213.82092 411.3869 212.47778 413.04376 212.47778C414.7006 212.47778 416.04376 213.82092 416.04376 215.47778Z" fill-rule="nonzero"/><path fill="#000000" fill-opacity="0.0" clip-path="url(#id_0)" d="M483.40625 144.09445C483.40625 145.7513 482.0631 147.09445 480.40625 147.09445C478.7494 147.09445 477.40625 145.7513 477.40625 144.09445C477.40625 142.43759 478.7494 141.09445 480.40625 141.09445C482.0631 141.09445 483.40625 142.43759 483.40625 144.09445Z" fill-rule="nonzero"/><path fill="#000000" fill-opacity="0.0" clip-path="url(#id_0)" d="M550.76874 96.505554C550.76874 98.16241 549.4256 99.505554 547.76874 99.505554C546.1119 99.505554 544.76874 98.16241 544.76874 96.505554C544.76874 94.8487 546.1119 93.505554 547.76874 93.505554C549.4256 93.505554 550.76874 94.8487 550.76874 96.505554Z" fill-rule="nonzero"/><path fill="#000000" fill-opacity="0.0" clip-path="url(#id_0)" d="M79.23125 136.16296C79.23125 137.81982 77.88811 139.16296 76.23125 139.16296C74.574394 139.16296 73.23125 137.81982 73.23125 136.16296C73.23125 134.5061 74.574394 133.16296 76.23125 133.16296C77.88811 133.16296 79.23125 134.5061 79.23125 136.16296Z" fill-rule="nonzero"/><path fill="#000000" fill-opacity="0.0" clip-path="url(#id_0)" d="M146.59375 144.09445C146.59375 145.7513 145.25061 147.09445 143.59375 147.09445C141.93689 147.09445 140.59375 145.7513 140.59375 144.09445C140.59375 142.43759 141.93689 141.09445 143.59375 141.09445C145.25061 141.09445 146.59375 142.43759 146.59375 144.09445Z" fill-rule="nonzero"/><path fill="#000000" fill-opacity="0.0" clip-path="url(#id_0)" d="M213.95625 183.75185C213.95625 185.4087 212.6131 186.75185 210.95625 186.75185C209.2994 186.75185 207.95625 185.4087 207.95625 183.75185C207.95625 182.095 209.2994 180.75185 210.95625 180.75185C212.6131 180.75185 213.95625 182.095 213.95625 183.75185Z" fill-rule="nonzero"/><path fill="#000000" fill-opacity="0.0" clip-path="url(#id_0)" d="M281.31876 108.40278C281.31876 110.05963 279.97562 111.40278 278.31876 111.40278C276.6619 111.40278 275.31876 110.05963 275.31876 108.40278C275.31876 106.745926 276.6619 105.40278 278.31876 105.40278C279.97562 105.40278 281.31876 106.745926 281.31876 108.40278Z" fill-rule="nonzero"/><path fill="#000000" fill-opacity="0.0" clip-path="url(#id_0)" d="M348.68124 124.26574C348.68124 125.92259 347.3381 127.26574 345.68124 127.26574C344.02438 127.26574 342.68124 125.92259 342.68124 124.26574C342.68124 122.60889 344.02438 121.26574 345.68124 121.26574C347.3381 121.26574 348.68124 122.60889 348.68124 124.26574Z" fill-rule="nonzero"/><path fill="#000000" fill-opacity="0.0" clip-path="url(#id_0)" d="M416.04376 163.92314C416.04376 165.58 414.7006 166.92314 413.04376 166.92314C411.3869 166.92314 410.04376 165.58 410.04376 163.92314C410.04376 162.2663 411.3869 160.92314 413.04376 160.92314C414.7006 160.92314 416.04376 162.2663 416.04376 163.92314Z" fill-rule="nonzero"/><path fill="#000000" fill-opacity="0.0" clip-path="url(#id_0)" d="M483.40625 175.82037C483.40625 177.47722 482.0631 178.82037 480.40625 178.82037C478.7494 178.82037 477.40625 177.47722 477.40625 175.82037C477.40625 174.16351 478.7494 172.82037 480.40625 172.82037C482.0631 172.82037 483.40625 174.16351 483.40625 175.82037Z" fill-rule="nonzero"/><path fill="#000000" fill-opacity="0.0" clip-path="url(#id_0)" d="M550.76874 88.57407C550.76874 90.23093 549.4256 91.57407 547.76874 91.57407C546.1119 91.57407 544.76874 90.23093 544.76874 88.57407C544.76874 86.91722 546.1119 85.57407 547.76874 85.57407C549.4256 85.57407 550.76874 86.91722 550.76874 88.57407Z" fill-rule="nonzero"/><path fill="#000000" fill-opacity="0.0" clip-path="url(#id_0)" d="M79.23125 284.35645C79.23125 286.01328 77.88811 287.35645 76.23125 287.35645C74.574394 287.35645 73.23125 286.01328 73.23125 284.35645C73.23125 282.6996 74.574394 281.35645 76.23125 281.35645C77.88811 281.35645 79.23125 282.6996 79.23125 284.35645Z" fill-rule="nonzero"/><path fill="#000000" fill-opacity="0.0" clip-path="url(#id_0)" d="M146.59375 301.0543C146.59375 302.71115 145.25061 304.0543 143.59375 304.0543C141.93689 304.0543 140.59375 302.71115 140.59375 301.0543C140.59375 299.39743 141.93689 298.0543 143.59375 298.0543C145.25061 298.0543 146.59375 299.39743 146.59375 301.0543Z" fill-rule="nonzero"/><path fill="#000000" fill-opacity="0.0" clip-path="url(#id_0)" d="M213.95625 277.67728C213.95625 279.33414 212.6131 280.67728 210.95625 280.67728C209.2994 280.67728 207.95625 279.33414 207.95625 277.67728C207.95625 276.02045 209.2994 274.67728 210.95625 274.67728C212.6131 274.67728 213.95625 276.02045 213.95625 277.67728Z" fill-rule="nonzero"/><path fill="#000000" fill-opacity="0.0" clip-path="url(#id_0)" d="M281.31876 301.0543C281.31876 302.71115 279.97562 304.0543 278.31876 304.0543C276.6619 304.0543 275.31876 302.71115 275.31876 301.0543C275.31876 299.39743 276.6619 298.0543 278.31876 298.0543C279.97562 298.0543 281.31876 299.39743 281.31876 301.0543Z" fill-rule="nonzero"/><path fill="#000000" fill-opacity="0.0" clip-path="url(#id_0)" d="M348.68124 284.35645C348.68124 286.01328 347.3381 287.35645 345.68124 287.35645C344.02438 287.35645 342.68124 286.01328 342.68124 284.35645C342.68124 282.6996 344.02438 281.35645 345.68124 281.35645C347.3381 281.35645 348.68124 282.6996 348.68124 284.35645Z" fill-rule="nonzero"/><path fill="#000000" fill-opacity="0.0" clip-path="url(#id_0)" d="M416.04376 277.67728C416.04376 279.33414 414.7006 280.67728 413.04376 280.67728C411.3869 280.67728 410.04376 279.33414 410.04376 277.67728C410.04376 276.02045 411.3869 274.67728 413.04376 274.67728C414.7006 274.67728 416.04376 276.02045 416.04376 277.67728Z" fill-rule="nonzero"/><path fill="#000000" fill-opacity="0.0" clip-path="url(#id_0)" d="M483.40625 277.67728C483.40625 279.33414 482.0631 280.67728 480.40625 280.67728C478.7494 280.67728 477.40625 279.33414 477.40625 277.67728C477.40625 276.02045 478.7494 274.67728 480.40625 274.67728C482.0631 274.67728 483.40625 276.02045 483.40625 277.67728Z" fill-rule="nonzero"/><path fill="#000000" fill-opacity="0.0" clip-path="url(#id_0)" d="M550.76874 291.03558C550.76874 292.69244 549.4256 294.03558 547.76874 294.03558C546.1119 294.03558 544.76874 292.69244 544.76874 291.03558C544.76874 289.37872 546.1119 288.03558 547.76874 288.03558C549.4256 288.03558 550.76874 289.37872 550.76874 291.03558Z" fill-rule="nonzero"/><path fill="#000000" fill-opacity="0.0" clip-path="url(#id_0)" d="M79.23125 290.5218C79.23125 292.17865 77.88811 293.5218 76.23125 293.5218C74.574394 293.5218 73.23125 292.17865 73.23125 290.5218C73.23125 288.86493 74.574394 287.5218 76.23125 287.5218C77.88811 287.5218 79.23125 288.86493 79.23125 290.5218Z" fill-rule="nonzero"/><path fill="#000000" fill-opacity="0.0" clip-path="url(#id_0)" d="M146.59375 305.16452C146.59375 306.82138 145.25061 308.16452 143.59375 308.16452C141.93689 308.16452 140.59375 306.82138 140.59375 305.16452C140.59375 303.5077 141.93689 302.16452 143.59375 302.16452C145.25061 302.16452 146.59375 303.5077 146.59375 305.16452Z" fill-rule="nonzero"/><path fill="#000000" fill-opacity="0.0" clip-path="url(#id_0)" d="M213.95625 305.16452C213.95625 306.82138 212.6131 308.16452 210.95625 308.16452C209.2994 308.16452 207.95625 306.82138 207.95625 305.16452C207.95625 303.5077 209.2994 302.16452 210.95625 302.16452C212.6131 302.16452 213.95625 303.5077 213.95625 305.16452Z" fill-rule="nonzero"/><path fill="#000000" fill-opacity="0.0" clip-path="url(#id_0)" d="M281.31876 261.23633C281.31876 262.8932 279.97562 264.23633 278.31876 264.23633C276.6619 264.23633 275.31876 262.8932 275.31876 261.23633C275.31876 259.57947 276.6619 258.23633 278.31876 258.23633C279.97562 258.23633 281.31876 259.57947 281.31876 261.23633Z" fill-rule="nonzero"/><path fill="#000000" fill-opacity="0.0" clip-path="url(#id_0)" d="M348.68124 290.5218C348.68124 292.17865 347.3381 293.5218 345.68124 293.5218C344.02438 293.5218 342.68124 292.17865 342.68124 290.5218C342.68124 288.86493 344.02438 287.5218 345.68124 287.5218C347.3381 287.5218 348.68124 288.86493 348.68124 290.5218Z" fill-rule="nonzero"/><path fill="#000000" fill-opacity="0.0" clip-path="url(#id_0)" d="M416.04376 261.23633C416.04376 262.8932 414.7006 264.23633 413.04376 264.23633C411.3869 264.23633 410.04376 262.8932 410.04376 261.23633C410.04376 259.57947 411.3869 258.23633 413.04376 258.23633C414.7006 258.23633 416.04376 259.57947 416.04376 261.23633Z" fill-rule="nonzero"/><path fill="#000000" fill-opacity="0.0" clip-path="url(#id_0)" d="M483.40625 290.5218C483.40625 292.17865 482.0631 293.5218 480.40625 293.5218C478.7494 293.5218 477.40625 292.17865 477.40625 290.5218C477.40625 288.86493 478.7494 287.5218 480.40625 287.5218C482.0631 287.5218 483.40625 288.86493 483.40625 290.5218Z" fill-rule="nonzero"/><path fill="#000000" fill-opacity="0.0" clip-path="url(#id_0)" d="M550.76874 290.5218C550.76874 292.17865 549.4256 293.5218 547.76874 293.5218C546.1119 293.5218 544.76874 292.17865 544.76874 290.5218C544.76874 288.86493 546.1119 287.5218 547.76874 287.5218C549.4256 287.5218 550.76874 288.86493 550.76874 290.5218Z" fill-rule="nonzero"/><path fill="#000000" d="M36.221874 333.6375Q36.221874 334.5125 36.08125 335.23126Q35.940624 335.95 35.6125 336.48126Q35.3 336.9969 34.784374 337.27814Q34.26875 337.5594 33.51875 337.5594Q32.8 337.5594 32.3 337.3094Q31.815624 337.04376 31.51875 336.5594Q31.221874 336.0594 31.096874 335.34064Q30.971874 334.60626 30.971874 333.66876Q30.971874 332.8094 31.1125 332.09064Q31.253124 331.35626 31.565624 330.84064Q31.89375 330.325 32.409374 330.04376Q32.925 329.7625 33.675 329.7625Q34.39375 329.7625 34.878124 330.0125Q35.3625 330.2625 35.659374 330.7625Q35.971874 331.2625 36.096874 331.98126Q36.221874 332.7 36.221874 333.6375ZM35.190624 333.71564Q35.190624 333.1375 35.14375 332.7Q35.096874 332.2469 35.01875 331.90314Q34.940624 331.54376 34.815624 331.29376Q34.690624 331.04376 34.51875 330.8875Q34.346874 330.73126 34.1125 330.65314Q33.89375 330.575 33.6125 330.575Q33.1125 330.575 32.8 330.8094Q32.4875 331.04376 32.3 331.46564Q32.128124 331.8719 32.065624 332.41876Q32.003124 332.96564 32.003124 333.60626Q32.003124 334.45 32.08125 335.04376Q32.175 335.6375 32.3625 336.0125Q32.565624 336.3875 32.8625 336.5594Q33.159374 336.73126 33.58125 336.73126Q33.909374 336.73126 34.14375 336.6375Q34.39375 336.52814 34.565624 336.34064Q34.753124 336.1375 34.8625 335.85626Q34.9875 335.575 35.05 335.2469Q35.128124 334.91876 35.159374 334.52814Q35.190624 334.1375 35.190624 333.71564Z" fill-rule="nonzero"/><path fill="#000000" d="M35.971874 241.83472Q35.971874 241.94409 35.95625 242.02222Q35.940624 242.10034 35.909374 242.16284Q35.878124 242.22534 35.83125 242.25659Q35.8 242.27222 35.7375 242.27222L31.55 242.27222Q31.471874 242.27222 31.409374 242.25659Q31.346874 242.22534 31.3 242.17847Q31.253124 242.13159 31.2375 242.05347Q31.221874 241.95972 31.221874 241.83472Q31.221874 241.70972 31.221874 241.63159Q31.2375 241.53784 31.26875 241.47534Q31.3 241.39722 31.33125 241.33472Q31.378124 241.27222 31.45625 241.19409L32.925 239.63159Q33.440624 239.10034 33.7375 238.67847Q34.05 238.24097 34.20625 237.89722Q34.378124 237.53784 34.425 237.25659Q34.4875 236.95972 34.4875 236.70972Q34.4875 236.45972 34.409374 236.24097Q34.33125 236.00659 34.175 235.83472Q34.01875 235.66284 33.784374 235.56909Q33.55 235.47534 33.2375 235.47534Q32.878124 235.47534 32.596874 235.56909Q32.315624 235.66284 32.096874 235.78784Q31.89375 235.89722 31.7375 236.00659Q31.596874 236.10034 31.534374 236.10034Q31.4875 236.10034 31.45625 236.08472Q31.425 236.05347 31.39375 236.00659Q31.378124 235.94409 31.3625 235.86597Q31.3625 235.77222 31.3625 235.64722Q31.3625 235.56909 31.3625 235.50659Q31.378124 235.42847 31.378124 235.38159Q31.39375 235.33472 31.409374 235.30347Q31.440624 235.25659 31.503124 235.19409Q31.58125 235.13159 31.753124 235.03784Q31.940624 234.92847 32.190624 234.83472Q32.45625 234.72534 32.76875 234.66284Q33.08125 234.58472 33.425 234.58472Q33.971874 234.58472 34.378124 234.74097Q34.8 234.88159 35.065624 235.16284Q35.346874 235.42847 35.471874 235.78784Q35.6125 236.14722 35.6125 236.55347Q35.6125 236.91284 35.55 237.27222Q35.4875 237.63159 35.284374 238.05347Q35.08125 238.47534 34.675 238.99097Q34.284374 239.49097 33.64375 240.16284L32.440624 241.41284L35.7375 241.41284Q35.784374 241.41284 35.83125 241.44409Q35.878124 241.47534 35.909374 241.52222Q35.940624 241.56909 35.95625 241.64722Q35.971874 241.72534 35.971874 241.83472Z" fill-rule="nonzero"/><path fill="#000000" d="M36.284374 144.9382Q36.284374 145.1257 36.221874 145.2507Q36.175 145.36008 36.065624 145.36008L35.20625 145.36008L35.20625 146.95383Q35.20625 147.0007 35.175 147.03195Q35.159374 147.0632 35.096874 147.09445Q35.05 147.11008 34.95625 147.11008Q34.8625 147.1257 34.70625 147.1257Q34.565624 147.1257 34.471874 147.11008Q34.378124 147.11008 34.315624 147.09445Q34.26875 147.0632 34.253124 147.03195Q34.2375 147.0007 34.2375 146.95383L34.2375 145.36008L31.096874 145.36008Q31.034374 145.36008 30.9875 145.34445Q30.940624 145.3132 30.89375 145.26633Q30.8625 145.21945 30.846874 145.14133Q30.83125 145.04758 30.83125 144.90695Q30.83125 144.79758 30.83125 144.71945Q30.846874 144.6257 30.8625 144.54758Q30.878124 144.46945 30.909374 144.40695Q30.940624 144.34445 30.971874 144.26633L33.70625 139.65695Q33.7375 139.61008 33.784374 139.57883Q33.846874 139.54758 33.925 139.53195Q34.01875 139.5007 34.14375 139.48508Q34.284374 139.46945 34.45625 139.46945Q34.659374 139.46945 34.8 139.48508Q34.940624 139.5007 35.01875 139.53195Q35.1125 139.54758 35.159374 139.59445Q35.20625 139.6257 35.20625 139.6882L35.20625 144.51633L36.065624 144.51633Q36.159374 144.51633 36.221874 144.6257Q36.284374 144.71945 36.284374 144.9382ZM34.2375 140.36008L34.221874 140.36008L31.753124 144.51633L34.2375 144.51633L34.2375 140.36008Z" fill-rule="nonzero"/><path fill="#000000" d="M36.159374 49.463543Q36.159374 49.963543 36.003124 50.432293Q35.846874 50.885418 35.534374 51.244793Q35.221874 51.604168 34.7375 51.822918Q34.253124 52.026043 33.58125 52.026043Q33.1125 52.026043 32.7375 51.916668Q32.378124 51.791668 32.1125 51.572918Q31.846874 51.354168 31.659374 51.041668Q31.4875 50.729168 31.378124 50.322918Q31.26875 49.916668 31.221874 49.447918Q31.175 48.963543 31.175 48.401043Q31.175 47.916668 31.221874 47.416668Q31.284374 46.916668 31.409374 46.463543Q31.55 45.994793 31.784374 45.588543Q32.01875 45.182293 32.3625 44.885418Q32.70625 44.572918 33.190624 44.401043Q33.690624 44.229168 34.33125 44.229168Q34.55 44.229168 34.76875 44.260418Q34.9875 44.276043 35.175 44.322918Q35.3625 44.369793 35.4875 44.432293Q35.628124 44.479168 35.659374 44.510418Q35.70625 44.541668 35.721874 44.588543Q35.753124 44.619793 35.753124 44.666668Q35.76875 44.697918 35.76875 44.760418Q35.784374 44.807293 35.784374 44.901043Q35.784374 44.994793 35.784374 45.072918Q35.784374 45.151043 35.753124 45.197918Q35.7375 45.244793 35.70625 45.276043Q35.675 45.291668 35.6125 45.291668Q35.55 45.291668 35.440624 45.260418Q35.33125 45.213543 35.175 45.166668Q35.01875 45.119793 34.784374 45.072918Q34.565624 45.026043 34.26875 45.026043Q33.721874 45.026043 33.33125 45.260418Q32.940624 45.479168 32.690624 45.854168Q32.440624 46.229168 32.315624 46.729168Q32.190624 47.213543 32.175 47.760418Q32.33125 47.666668 32.51875 47.588543Q32.70625 47.494793 32.925 47.432293Q33.159374 47.354168 33.409374 47.307293Q33.675 47.260418 33.95625 47.260418Q34.565624 47.260418 34.9875 47.432293Q35.409374 47.604168 35.675 47.901043Q35.940624 48.182293 36.05 48.588543Q36.159374 48.994793 36.159374 49.463543ZM35.14375 49.557293Q35.14375 49.213543 35.065624 48.932293Q35.003124 48.651043 34.846874 48.463543Q34.690624 48.276043 34.425 48.166668Q34.159374 48.057293 33.76875 48.057293Q33.55 48.057293 33.33125 48.104168Q33.128124 48.135418 32.925 48.213543Q32.721874 48.276043 32.534374 48.369793Q32.346874 48.447918 32.190624 48.557293Q32.190624 49.307293 32.284374 49.822918Q32.39375 50.338543 32.565624 50.651043Q32.753124 50.947918 33.034374 51.088543Q33.315624 51.213543 33.675 51.213543Q34.05 51.213543 34.33125 51.072918Q34.6125 50.932293 34.784374 50.697918Q34.971874 50.463543 35.05 50.166668Q35.14375 49.869793 35.14375 49.557293Z" fill-rule="nonzero"/><path fill="#000000" d="M79.41875 349.09064Q79.46562 349.21564 79.46562 349.29376Q79.46562 349.3719 79.41875 349.41876Q79.37187 349.46564 79.2625 349.46564Q79.15312 349.48126 78.98125 349.48126Q78.79375 349.48126 78.68437 349.46564Q78.575 349.46564 78.5125 349.45Q78.46562 349.41876 78.43437 349.3875Q78.41875 349.35626 78.3875 349.3094L77.74687 347.45L74.59062 347.45L73.96562 349.27814Q73.95 349.325 73.91875 349.3719Q73.8875 349.40314 73.825 349.4344Q73.77812 349.46564 73.66875 349.46564Q73.575 349.48126 73.41875 349.48126Q73.24687 349.48126 73.1375 349.46564Q73.02812 349.45 72.98125 349.41876Q72.93437 349.3719 72.93437 349.29376Q72.95 349.21564 72.99687 349.09064L75.52812 342.04376Q75.55937 341.98126 75.59062 341.95Q75.6375 341.90314 75.7 341.8875Q75.77812 341.85626 75.8875 341.84064Q76.0125 341.825 76.18437 341.825Q76.37187 341.825 76.49687 341.84064Q76.62187 341.85626 76.68437 341.8875Q76.7625 341.90314 76.80937 341.95Q76.85625 341.98126 76.87187 342.04376L79.41875 349.09064ZM76.15312 342.8719L76.15312 342.8719L74.84062 346.65314L77.48125 346.65314L76.15312 342.8719Z" fill-rule="nonzero"/><path fill="#000000" d="M146.09375 347.27814Q146.09375 347.6375 146.0 347.9344Q145.92188 348.23126 145.75 348.48126Q145.59375 348.71564 145.35938 348.90314Q145.125 349.075 144.82812 349.2Q144.54688 349.325 144.21875 349.3875Q143.89062 349.45 143.45312 349.45L141.48438 349.45Q141.34375 349.45 141.21875 349.35626Q141.10938 349.2625 141.10938 349.04376L141.10938 342.27814Q141.10938 342.04376 141.21875 341.96564Q141.34375 341.8719 141.48438 341.8719L143.20312 341.8719Q143.875 341.8719 144.3125 341.9969Q144.75 342.1219 145.03125 342.3719Q145.32812 342.6219 145.46875 342.98126Q145.625 343.325 145.625 343.77814Q145.625 344.0594 145.54688 344.3094Q145.48438 344.54376 145.35938 344.7625Q145.23438 344.96564 145.04688 345.1375Q144.85938 345.29376 144.60938 345.3875Q144.92188 345.45 145.1875 345.60626Q145.46875 345.7625 145.65625 346.0125Q145.85938 346.2469 145.96875 346.575Q146.09375 346.8875 146.09375 347.27814ZM144.57812 343.8875Q144.57812 343.60626 144.5 343.3875Q144.4375 343.16876 144.26562 343.0125Q144.10938 342.85626 143.84375 342.77814Q143.57812 342.6844 143.14062 342.6844L142.09375 342.6844L142.09375 345.1375L143.25 345.1375Q143.64062 345.1375 143.875 345.04376Q144.125 344.9344 144.28125 344.7625Q144.4375 344.59064 144.5 344.35626Q144.57812 344.1219 144.57812 343.8875ZM145.04688 347.34064Q145.04688 346.9969 144.9375 346.7469Q144.82812 346.48126 144.60938 346.3094Q144.40625 346.1219 144.09375 346.04376Q143.78125 345.95 143.3125 345.95L142.09375 345.95L142.09375 348.6219L143.5625 348.6219Q143.90625 348.6219 144.15625 348.54376Q144.42188 348.45 144.60938 348.29376Q144.8125 348.1375 144.92188 347.90314Q145.04688 347.65314 145.04688 347.34064Z" fill-rule="nonzero"/><path fill="#000000" d="M214.03438 348.3719Q214.03438 348.46564 214.01875 348.54376Q214.01875 348.60626 214.00313 348.66876Q213.9875 348.71564 213.95625 348.7625Q213.94063 348.79376 213.87813 348.85626Q213.81563 348.91876 213.62813 349.04376Q213.44063 349.15314 213.15938 349.27814Q212.89375 349.3875 212.53438 349.46564Q212.175 349.54376 211.7375 349.54376Q211.00313 349.54376 210.40938 349.29376Q209.81563 349.04376 209.39375 348.575Q208.97188 348.09064 208.7375 347.3875Q208.51875 346.6844 208.51875 345.7625Q208.51875 344.8094 208.76875 344.075Q209.01875 343.34064 209.45625 342.825Q209.89375 342.3094 210.50313 342.04376Q211.1125 341.77814 211.8625 341.77814Q212.19063 341.77814 212.50313 341.84064Q212.81563 341.90314 213.06563 341.9969Q213.33125 342.09064 213.53438 342.21564Q213.75313 342.325 213.83125 342.40314Q213.90938 342.48126 213.925 342.52814Q213.95625 342.575 213.97188 342.6375Q213.9875 342.6844 213.9875 342.7625Q214.00313 342.84064 214.00313 342.9344Q214.00313 343.0594 213.9875 343.1375Q213.97188 343.21564 213.94063 343.27814Q213.925 343.325 213.89375 343.35626Q213.8625 343.3875 213.81563 343.3875Q213.7375 343.3875 213.58125 343.27814Q213.44063 343.15314 213.20625 343.02814Q212.97188 342.8875 212.64375 342.77814Q212.31563 342.65314 211.84688 342.65314Q211.34688 342.65314 210.925 342.85626Q210.51875 343.0594 210.22188 343.45Q209.94063 343.84064 209.76875 344.40314Q209.6125 344.96564 209.6125 345.7Q209.6125 346.41876 209.76875 346.98126Q209.925 347.52814 210.20625 347.90314Q210.50313 348.27814 210.925 348.46564Q211.34688 348.65314 211.87813 348.65314Q212.33125 348.65314 212.65938 348.54376Q213.00313 348.4344 213.2375 348.29376Q213.4875 348.15314 213.62813 348.04376Q213.78438 347.9344 213.87813 347.9344Q213.90938 347.9344 213.94063 347.95Q213.97188 347.96564 213.9875 348.0125Q214.00313 348.0594 214.01875 348.15314Q214.03438 348.2469 214.03438 348.3719Z" fill-rule="nonzero"/><path fill="#000000" d="M281.1625 345.54376Q281.1625 346.52814 280.89688 347.2625Q280.64688 347.9969 280.1625 348.48126Q279.69376 348.96564 278.99063 349.21564Q278.2875 349.45 277.30313 349.45L275.70938 349.45Q275.56876 349.45 275.44376 349.35626Q275.33438 349.2625 275.33438 349.04376L275.33438 342.27814Q275.33438 342.04376 275.44376 341.96564Q275.56876 341.8719 275.70938 341.8719L277.4125 341.8719Q278.39688 341.8719 279.06876 342.1219Q279.75626 342.3719 280.20938 342.85626Q280.67813 343.325 280.9125 344.0125Q281.1625 344.6844 281.1625 345.54376ZM280.1 345.59064Q280.1 344.96564 279.94376 344.45Q279.7875 343.91876 279.45938 343.52814Q279.14688 343.1375 278.64688 342.91876Q278.14688 342.7 277.36563 342.7L276.33438 342.7L276.33438 348.60626L277.36563 348.60626Q278.1 348.60626 278.6 348.4344Q279.1 348.2469 279.42813 347.8719Q279.75626 347.4969 279.92813 346.9344Q280.1 346.35626 280.1 345.59064Z" fill-rule="nonzero"/><path fill="#000000" d="M347.91562 349.02814Q347.91562 349.1375 347.9 349.21564Q347.88437 349.29376 347.85312 349.35626Q347.82187 349.40314 347.775 349.4344Q347.74374 349.45 347.69687 349.45L344.07187 349.45Q343.93124 349.45 343.80624 349.35626Q343.69687 349.2625 343.69687 349.04376L343.69687 342.27814Q343.69687 342.04376 343.80624 341.96564Q343.93124 341.8719 344.07187 341.8719L347.66562 341.8719Q347.7125 341.8719 347.74374 341.90314Q347.79062 341.91876 347.80624 341.96564Q347.8375 342.0125 347.85312 342.10626Q347.86874 342.1844 347.86874 342.29376Q347.86874 342.40314 347.85312 342.48126Q347.8375 342.5594 347.80624 342.60626Q347.79062 342.65314 347.74374 342.6844Q347.7125 342.7 347.66562 342.7L344.69687 342.7L344.69687 345.09064L347.24374 345.09064Q347.29062 345.09064 347.32187 345.1219Q347.36874 345.1375 347.38437 345.1844Q347.41562 345.23126 347.43124 345.3094Q347.44687 345.3875 347.44687 345.5125Q347.44687 345.60626 347.43124 345.6844Q347.41562 345.7625 347.38437 345.8094Q347.36874 345.85626 347.32187 345.8875Q347.29062 345.90314 347.24374 345.90314L344.69687 345.90314L344.69687 348.60626L347.69687 348.60626Q347.74374 348.60626 347.775 348.6375Q347.82187 348.65314 347.85312 348.71564Q347.88437 348.7625 347.9 348.84064Q347.91562 348.91876 347.91562 349.02814Z" fill-rule="nonzero"/><path fill="#000000" d="M415.04376 342.29376Q415.04376 342.41876 415.02814 342.4969Q415.0125 342.575 414.98126 342.6219Q414.95 342.66876 414.90314 342.7Q414.8719 342.71564 414.84064 342.71564L412.0594 342.71564L412.0594 345.29376L414.6844 345.29376Q414.73126 345.29376 414.7625 345.325Q414.8094 345.34064 414.825 345.3875Q414.85626 345.4344 414.8719 345.5125Q414.8875 345.59064 414.8875 345.71564Q414.8875 345.825 414.8719 345.90314Q414.85626 345.98126 414.825 346.04376Q414.8094 346.09064 414.7625 346.1219Q414.73126 346.1375 414.6844 346.1375L412.0594 346.1375L412.0594 349.29376Q412.0594 349.34064 412.02814 349.3875Q412.0125 349.41876 411.95 349.4344Q411.90314 349.45 411.8094 349.46564Q411.71564 349.48126 411.5594 349.48126Q411.41876 349.48126 411.3094 349.46564Q411.21564 349.45 411.15314 349.4344Q411.10626 349.41876 411.075 349.3875Q411.0594 349.34064 411.0594 349.29376L411.0594 342.27814Q411.0594 342.04376 411.16876 341.96564Q411.29376 341.8719 411.4344 341.8719L414.84064 341.8719Q414.8719 341.8719 414.90314 341.90314Q414.95 341.91876 414.98126 341.96564Q415.0125 342.0125 415.02814 342.10626Q415.04376 342.1844 415.04376 342.29376Z" fill-rule="nonzero"/><path fill="#000000" d="M483.10938 342.90314Q483.10938 343.0125 483.09375 343.10626Q483.09375 343.1844 483.0625 343.2469Q483.04688 343.29376 483.0 343.325Q482.96875 343.34064 482.92188 343.34064Q482.85938 343.34064 482.6875 343.23126Q482.53125 343.1219 482.25 342.98126Q481.98438 342.84064 481.59375 342.73126Q481.21875 342.6219 480.6875 342.6219Q480.0625 342.6219 479.5625 342.85626Q479.0625 343.075 478.71875 343.48126Q478.375 343.8875 478.1875 344.45Q478.0 344.9969 478.0 345.65314Q478.0 346.3719 478.20312 346.9344Q478.40625 347.4969 478.76562 347.8875Q479.125 348.27814 479.60938 348.48126Q480.10938 348.66876 480.70312 348.66876Q481.04688 348.66876 481.40625 348.59064Q481.78125 348.5125 482.07812 348.34064L482.07812 346.1219L480.32812 346.1219Q480.23438 346.1219 480.17188 346.02814Q480.125 345.9344 480.125 345.71564Q480.125 345.60626 480.14062 345.52814Q480.15625 345.45 480.17188 345.40314Q480.20312 345.34064 480.23438 345.325Q480.28125 345.29376 480.32812 345.29376L482.73438 345.29376Q482.79688 345.29376 482.85938 345.325Q482.92188 345.34064 482.96875 345.3875Q483.03125 345.4344 483.0625 345.52814Q483.09375 345.60626 483.09375 345.71564L483.09375 348.60626Q483.09375 348.7469 483.03125 348.8719Q482.98438 348.98126 482.8125 349.0594Q482.64062 349.1375 482.375 349.2469Q482.10938 349.34064 481.8125 349.41876Q481.53125 349.48126 481.23438 349.5125Q480.95312 349.5594 480.65625 349.5594Q479.78125 349.5594 479.09375 349.29376Q478.40625 349.0125 477.92188 348.5125Q477.4375 347.9969 477.1875 347.29376Q476.9375 346.59064 476.9375 345.73126Q476.9375 344.825 477.20312 344.09064Q477.48438 343.35626 477.96875 342.84064Q478.46875 342.325 479.15625 342.04376Q479.85938 341.7625 480.70312 341.7625Q481.14062 341.7625 481.51562 341.84064Q481.90625 341.91876 482.20312 342.02814Q482.5 342.1219 482.70312 342.2469Q482.90625 342.35626 482.96875 342.4344Q483.04688 342.5125 483.07812 342.6219Q483.10938 342.71564 483.10938 342.90314Z" fill-rule="nonzero"/><path fill="#000000" d="M550.2375 349.29376Q550.2375 349.34064 550.20624 349.3875Q550.1906 349.41876 550.1281 349.4344Q550.08124 349.45 549.97186 349.46564Q549.8781 349.48126 549.7375 349.48126Q549.58124 349.48126 549.4875 349.46564Q549.39374 349.45 549.33124 349.4344Q549.28436 349.41876 549.2531 349.3875Q549.2375 349.34064 549.2375 349.29376L549.2375 345.9344L545.78436 345.9344L545.78436 349.29376Q545.78436 349.34064 545.7531 349.3875Q545.7375 349.41876 545.675 349.4344Q545.6281 349.45 545.51874 349.46564Q545.425 349.48126 545.28436 349.48126Q545.14374 349.48126 545.03436 349.46564Q544.9406 349.45 544.8781 349.4344Q544.83124 349.41876 544.8 349.3875Q544.78436 349.34064 544.78436 349.29376L544.78436 342.0125Q544.78436 341.96564 544.8 341.9344Q544.83124 341.90314 544.8781 341.8875Q544.9406 341.85626 545.03436 341.84064Q545.14374 341.825 545.28436 341.825Q545.425 341.825 545.51874 341.84064Q545.6281 341.85626 545.675 341.8875Q545.7375 341.90314 545.7531 341.9344Q545.78436 341.96564 545.78436 342.0125L545.78436 345.0594L549.2375 345.0594L549.2375 342.0125Q549.2375 341.96564 549.2531 341.9344Q549.28436 341.90314 549.33124 341.8875Q549.39374 341.85626 549.4875 341.84064Q549.58124 341.825 549.7375 341.825Q549.8781 341.825 549.97186 341.84064Q550.08124 341.85626 550.1281 341.8875Q550.1906 341.90314 550.20624 341.9344Q550.2375 341.96564 550.2375 342.0125L550.2375 349.29376Z" fill-rule="nonzero"/><path stroke="#5b9bd5" stroke-width="4.0" stroke-linecap="butt" d="M125.5 24.55L137.5 24.55" fill-rule="nonzero"/><path fill="#1a1a1a" d="M151.5 25.378124Q151.5 25.7375 151.40625 26.034374Q151.32812 26.33125 151.15625 26.58125Q151.0 26.815624 150.76562 27.003124Q150.53125 27.175 150.23438 27.3Q149.95312 27.425 149.625 27.4875Q149.29688 27.55 148.85938 27.55L146.89062 27.55Q146.75 27.55 146.625 27.45625Q146.51562 27.3625 146.51562 27.14375L146.51562 20.378124Q146.51562 20.14375 146.625 20.065624Q146.75 19.971874 146.89062 19.971874L148.60938 19.971874Q149.28125 19.971874 149.71875 20.096874Q150.15625 20.221874 150.4375 20.471874Q150.73438 20.721874 150.875 21.08125Q151.03125 21.425 151.03125 21.878124Q151.03125 22.159374 150.95312 22.409374Q150.89062 22.64375 150.76562 22.8625Q150.64062 23.065624 150.45312 23.2375Q150.26562 23.39375 150.01562 23.4875Q150.32812 23.55 150.59375 23.70625Q150.875 23.8625 151.0625 24.1125Q151.26562 24.346874 151.375 24.675Q151.5 24.9875 151.5 25.378124ZM149.98438 21.9875Q149.98438 21.70625 149.90625 21.4875Q149.84375 21.26875 149.67188 21.1125Q149.51562 20.95625 149.25 20.878124Q148.98438 20.784374 148.54688 20.784374L147.5 20.784374L147.5 23.2375L148.65625 23.2375Q149.04688 23.2375 149.28125 23.14375Q149.53125 23.034374 149.6875 22.8625Q149.84375 22.690624 149.90625 22.45625Q149.98438 22.221874 149.98438 21.9875ZM150.45312 25.440624Q150.45312 25.096874 150.34375 24.846874Q150.23438 24.58125 150.01562 24.409374Q149.8125 24.221874 149.5 24.14375Q149.1875 24.05 148.71875 24.05L147.5 24.05L147.5 26.721874L148.96875 26.721874Q149.3125 26.721874 149.5625 26.64375Q149.82812 26.55 150.01562 26.39375Q150.21875 26.2375 150.32812 26.003124Q150.45312 25.753124 150.45312 25.440624ZM157.89062 24.534374Q157.89062 24.76875 157.78125 24.8625Q157.67188 24.95625 157.51562 24.95625L154.0625 24.95625Q154.0625 25.39375 154.14062 25.753124Q154.23438 26.096874 154.4375 26.3625Q154.65625 26.6125 154.98438 26.753124Q155.3125 26.878124 155.78125 26.878124Q156.15625 26.878124 156.45312 26.815624Q156.75 26.753124 156.95312 26.675Q157.17188 26.596874 157.3125 26.534374Q157.45312 26.471874 157.51562 26.471874Q157.5625 26.471874 157.59375 26.503124Q157.625 26.51875 157.64062 26.565624Q157.65625 26.596874 157.65625 26.675Q157.67188 26.753124 157.67188 26.846874Q157.67188 26.925 157.65625 26.9875Q157.65625 27.034374 157.64062 27.08125Q157.64062 27.128124 157.625 27.159374Q157.60938 27.190624 157.57812 27.2375Q157.54688 27.26875 157.375 27.346874Q157.21875 27.409374 156.96875 27.4875Q156.71875 27.55 156.39062 27.596874Q156.0625 27.659374 155.6875 27.659374Q155.03125 27.659374 154.53125 27.4875Q154.04688 27.3 153.71875 26.940624Q153.39062 26.58125 153.21875 26.05Q153.04688 25.503124 153.04688 24.784374Q153.04688 24.1125 153.21875 23.565624Q153.39062 23.01875 153.71875 22.64375Q154.0625 22.26875 154.53125 22.065624Q155.0 21.8625 155.57812 21.8625Q156.20312 21.8625 156.64062 22.065624Q157.07812 22.26875 157.35938 22.6125Q157.64062 22.940624 157.76562 23.39375Q157.89062 23.846874 157.89062 24.3625L157.89062 24.534374ZM156.92188 24.253124Q156.9375 23.4875 156.57812 23.065624Q156.23438 22.628124 155.53125 22.628124Q155.17188 22.628124 154.90625 22.76875Q154.64062 22.89375 154.45312 23.1125Q154.28125 23.33125 154.17188 23.628124Q154.07812 23.925 154.0625 24.253124L156.92188 24.253124ZM164.89062 24.534374Q164.89062 24.76875 164.78125 24.8625Q164.67188 24.95625 164.51562 24.95625L161.0625 24.95625Q161.0625 25.39375 161.14062 25.753124Q161.23438 26.096874 161.4375 26.3625Q161.65625 26.6125 161.98438 26.753124Q162.3125 26.878124 162.78125 26.878124Q163.15625 26.878124 163.45312 26.815624Q163.75 26.753124 163.95312 26.675Q164.17188 26.596874 164.3125 26.534374Q164.45312 26.471874 164.51562 26.471874Q164.5625 26.471874 164.59375 26.503124Q164.625 26.51875 164.64062 26.565624Q164.65625 26.596874 164.65625 26.675Q164.67188 26.753124 164.67188 26.846874Q164.67188 26.925 164.65625 26.9875Q164.65625 27.034374 164.64062 27.08125Q164.64062 27.128124 164.625 27.159374Q164.60938 27.190624 164.57812 27.2375Q164.54688 27.26875 164.375 27.346874Q164.21875 27.409374 163.96875 27.4875Q163.71875 27.55 163.39062 27.596874Q163.0625 27.659374 162.6875 27.659374Q162.03125 27.659374 161.53125 27.4875Q161.04688 27.3 160.71875 26.940624Q160.39062 26.58125 160.21875 26.05Q160.04688 25.503124 160.04688 24.784374Q160.04688 24.1125 160.21875 23.565624Q160.39062 23.01875 160.71875 22.64375Q161.0625 22.26875 161.53125 22.065624Q162.0 21.8625 162.57812 21.8625Q163.20312 21.8625 163.64062 22.065624Q164.07812 22.26875 164.35938 22.6125Q164.64062 22.940624 164.76562 23.39375Q164.89062 23.846874 164.89062 24.3625L164.89062 24.534374ZM163.92188 24.253124Q163.9375 23.4875 163.57812 23.065624Q163.23438 22.628124 162.53125 22.628124Q162.17188 22.628124 161.90625 22.76875Q161.64062 22.89375 161.45312 23.1125Q161.28125 23.33125 161.17188 23.628124Q161.07812 23.925 161.0625 24.253124L163.92188 24.253124ZM170.48438 22.471874Q170.48438 22.596874 170.46875 22.690624Q170.46875 22.784374 170.45312 22.83125Q170.4375 22.878124 170.40625 22.909374Q170.375 22.925 170.32812 22.925Q170.28125 22.925 170.21875 22.909374Q170.15625 22.878124 170.0625 22.8625Q169.98438 22.83125 169.875 22.815624Q169.76562 22.784374 169.64062 22.784374Q169.5 22.784374 169.35938 22.846874Q169.21875 22.89375 169.0625 23.034374Q168.90625 23.159374 168.73438 23.39375Q168.5625 23.6125 168.35938 23.940624L168.35938 27.409374Q168.35938 27.45625 168.32812 27.4875Q168.3125 27.51875 168.26562 27.55Q168.21875 27.565624 168.125 27.565624Q168.03125 27.58125 167.875 27.58125Q167.73438 27.58125 167.64062 27.565624Q167.54688 27.565624 167.48438 27.55Q167.4375 27.51875 167.40625 27.4875Q167.39062 27.45625 167.39062 27.409374L167.39062 22.128124Q167.39062 22.08125 167.40625 22.05Q167.4375 22.01875 167.48438 22.003124Q167.53125 21.971874 167.60938 21.95625Q167.70312 21.940624 167.84375 21.940624Q167.96875 21.940624 168.04688 21.95625Q168.14062 21.971874 168.1875 22.003124Q168.23438 22.01875 168.25 22.05Q168.26562 22.08125 168.26562 22.128124L168.26562 22.89375Q168.48438 22.58125 168.67188 22.378124Q168.875 22.175 169.03125 22.065624Q169.20312 21.95625 169.375 21.909374Q169.54688 21.8625 169.71875 21.8625Q169.78125 21.8625 169.875 21.878124Q169.98438 21.878124 170.07812 21.909374Q170.1875 21.925 170.26562 21.95625Q170.35938 21.9875 170.39062 22.01875Q170.4375 22.05 170.4375 22.08125Q170.45312 22.096874 170.45312 22.14375Q170.46875 22.175 170.46875 22.26875Q170.48438 22.346874 170.48438 22.471874Z" fill-rule="nonzero"/><path stroke="#ed7d31" stroke-width="4.0" stroke-linecap="butt" d="M186.5 24.55L198.5 24.55" fill-rule="nonzero"/><path fill="#1a1a1a" d="M212.57812 26.471874Q212.57812 26.565624 212.5625 26.64375Q212.5625 26.70625 212.54688 26.76875Q212.53125 26.815624 212.5 26.8625Q212.48438 26.89375 212.42188 26.95625Q212.35938 27.01875 212.17188 27.14375Q211.98438 27.253124 211.70312 27.378124Q211.4375 27.4875 211.07812 27.565624Q210.71875 27.64375 210.28125 27.64375Q209.54688 27.64375 208.95312 27.39375Q208.35938 27.14375 207.9375 26.675Q207.51562 26.190624 207.28125 25.4875Q207.0625 24.784374 207.0625 23.8625Q207.0625 22.909374 207.3125 22.175Q207.5625 21.440624 208.0 20.925Q208.4375 20.409374 209.04688 20.14375Q209.65625 19.878124 210.40625 19.878124Q210.73438 19.878124 211.04688 19.940624Q211.35938 20.003124 211.60938 20.096874Q211.875 20.190624 212.07812 20.315624Q212.29688 20.425 212.375 20.503124Q212.45312 20.58125 212.46875 20.628124Q212.5 20.675 212.51562 20.7375Q212.53125 20.784374 212.53125 20.8625Q212.54688 20.940624 212.54688 21.034374Q212.54688 21.159374 212.53125 21.2375Q212.51562 21.315624 212.48438 21.378124Q212.46875 21.425 212.4375 21.45625Q212.40625 21.4875 212.35938 21.4875Q212.28125 21.4875 212.125 21.378124Q211.98438 21.253124 211.75 21.128124Q211.51562 20.9875 211.1875 20.878124Q210.85938 20.753124 210.39062 20.753124Q209.89062 20.753124 209.46875 20.95625Q209.0625 21.159374 208.76562 21.55Q208.48438 21.940624 208.3125 22.503124Q208.15625 23.065624 208.15625 23.8Q208.15625 24.51875 208.3125 25.08125Q208.46875 25.628124 208.75 26.003124Q209.04688 26.378124 209.46875 26.565624Q209.89062 26.753124 210.42188 26.753124Q210.875 26.753124 211.20312 26.64375Q211.54688 26.534374 211.78125 26.39375Q212.03125 26.253124 212.17188 26.14375Q212.32812 26.034374 212.42188 26.034374Q212.45312 26.034374 212.48438 26.05Q212.51562 26.065624 212.53125 26.1125Q212.54688 26.159374 212.5625 26.253124Q212.57812 26.346874 212.57812 26.471874ZM218.29688 24.70625Q218.29688 25.346874 218.125 25.89375Q217.96875 26.440624 217.625 26.83125Q217.28125 27.221874 216.78125 27.440624Q216.28125 27.659374 215.60938 27.659374Q214.95312 27.659374 214.46875 27.471874Q213.98438 27.26875 213.65625 26.909374Q213.34375 26.534374 213.1875 26.01875Q213.03125 25.4875 213.03125 24.815624Q213.03125 24.175 213.1875 23.628124Q213.35938 23.08125 213.6875 22.690624Q214.03125 22.3 214.53125 22.08125Q215.04688 21.8625 215.71875 21.8625Q216.375 21.8625 216.84375 22.065624Q217.32812 22.253124 217.65625 22.628124Q217.98438 22.9875 218.14062 23.51875Q218.29688 24.05 218.29688 24.70625ZM217.28125 24.76875Q217.28125 24.346874 217.20312 23.971874Q217.125 23.58125 216.9375 23.3Q216.76562 23.003124 216.45312 22.846874Q216.14062 22.675 215.67188 22.675Q215.25 22.675 214.9375 22.83125Q214.64062 22.971874 214.4375 23.253124Q214.23438 23.534374 214.14062 23.925Q214.04688 24.3 214.04688 24.753124Q214.04688 25.175 214.125 25.565624Q214.20312 25.940624 214.375 26.2375Q214.5625 26.51875 214.875 26.690624Q215.1875 26.846874 215.65625 26.846874Q216.07812 26.846874 216.39062 26.690624Q216.70312 26.534374 216.89062 26.26875Q217.09375 25.9875 217.1875 25.6125Q217.28125 25.221874 217.28125 24.76875ZM224.1875 26.596874Q224.1875 26.70625 224.17188 26.784374Q224.17188 26.846874 224.15625 26.89375Q224.14062 26.940624 224.125 26.9875Q224.10938 27.01875 224.03125 27.096874Q223.95312 27.175 223.78125 27.284374Q223.60938 27.378124 223.39062 27.471874Q223.17188 27.55 222.90625 27.596874Q222.65625 27.659374 222.375 27.659374Q221.8125 27.659374 221.375 27.471874Q220.9375 27.284374 220.64062 26.925Q220.34375 26.565624 220.1875 26.05Q220.03125 25.51875 220.03125 24.83125Q220.03125 24.05 220.21875 23.4875Q220.40625 22.925 220.73438 22.58125Q221.07812 22.221874 221.51562 22.05Q221.96875 21.878124 222.48438 21.878124Q222.73438 21.878124 222.96875 21.925Q223.21875 21.971874 223.40625 22.05Q223.60938 22.1125 223.76562 22.221874Q223.92188 22.315624 223.98438 22.39375Q224.0625 22.45625 224.09375 22.503124Q224.125 22.534374 224.14062 22.596874Q224.15625 22.64375 224.15625 22.721874Q224.17188 22.784374 224.17188 22.89375Q224.17188 23.128124 224.10938 23.221874Q224.0625 23.3 223.98438 23.3Q223.89062 23.3 223.78125 23.20625Q223.67188 23.1125 223.48438 23.003124Q223.3125 22.878124 223.0625 22.784374Q222.8125 22.690624 222.48438 22.690624Q221.78125 22.690624 221.40625 23.221874Q221.03125 23.753124 221.03125 24.784374Q221.03125 25.284374 221.125 25.675Q221.23438 26.05 221.42188 26.315624Q221.60938 26.565624 221.875 26.690624Q222.15625 26.815624 222.5 26.815624Q222.82812 26.815624 223.07812 26.721874Q223.34375 26.6125 223.51562 26.4875Q223.70312 26.3625 223.82812 26.26875Q223.95312 26.159374 224.03125 26.159374Q224.07812 26.159374 224.09375 26.190624Q224.125 26.20625 224.14062 26.26875Q224.17188 26.315624 224.17188 26.409374Q224.1875 26.4875 224.1875 26.596874ZM229.375 27.409374Q229.375 27.471874 229.32812 27.51875Q229.28125 27.55 229.1875 27.565624Q229.10938 27.58125 228.95312 27.58125Q228.79688 27.58125 228.70312 27.565624Q228.625 27.55 228.57812 27.51875Q228.53125 27.471874 228.53125 27.409374L228.53125 26.878124Q228.1875 27.253124 227.76562 27.45625Q227.34375 27.659374 226.875 27.659374Q226.45312 27.659374 226.10938 27.55Q225.78125 27.440624 225.53125 27.2375Q225.29688 27.034374 225.17188 26.7375Q225.04688 26.440624 225.04688 26.05Q225.04688 25.6125 225.21875 25.284374Q225.40625 24.95625 225.73438 24.7375Q226.07812 24.51875 226.5625 24.409374Q227.0625 24.3 227.6875 24.3L228.40625 24.3L228.40625 23.89375Q228.40625 23.58125 228.34375 23.346874Q228.28125 23.1125 228.14062 22.971874Q228.0 22.815624 227.76562 22.7375Q227.53125 22.64375 227.20312 22.64375Q226.84375 22.64375 226.5625 22.7375Q226.28125 22.815624 226.0625 22.925Q225.84375 23.01875 225.70312 23.1125Q225.5625 23.190624 225.48438 23.190624Q225.4375 23.190624 225.40625 23.175Q225.375 23.14375 225.34375 23.096874Q225.32812 23.05 225.3125 22.9875Q225.29688 22.909374 225.29688 22.815624Q225.29688 22.675 225.3125 22.596874Q225.34375 22.503124 225.42188 22.425Q225.5 22.346874 225.6875 22.253124Q225.89062 22.14375 226.14062 22.065624Q226.39062 21.971874 226.6875 21.925Q226.98438 21.8625 227.29688 21.8625Q227.85938 21.8625 228.25 22.003124Q228.65625 22.128124 228.89062 22.378124Q229.14062 22.628124 229.25 23.003124Q229.375 23.3625 229.375 23.846874L229.375 27.409374ZM228.40625 25.003124L227.57812 25.003124Q227.1875 25.003124 226.89062 25.065624Q226.59375 25.128124 226.40625 25.26875Q226.21875 25.39375 226.125 25.58125Q226.03125 25.76875 226.03125 26.003124Q226.03125 26.425 226.28125 26.675Q226.54688 26.909374 227.01562 26.909374Q227.40625 26.909374 227.71875 26.721874Q228.04688 26.51875 228.40625 26.1125L228.40625 25.003124ZM240.57812 26.471874Q240.57812 26.565624 240.5625 26.64375Q240.5625 26.70625 240.54688 26.76875Q240.53125 26.815624 240.5 26.8625Q240.48438 26.89375 240.42188 26.95625Q240.35938 27.01875 240.17188 27.14375Q239.98438 27.253124 239.70312 27.378124Q239.4375 27.4875 239.07812 27.565624Q238.71875 27.64375 238.28125 27.64375Q237.54688 27.64375 236.95312 27.39375Q236.35938 27.14375 235.9375 26.675Q235.51562 26.190624 235.28125 25.4875Q235.0625 24.784374 235.0625 23.8625Q235.0625 22.909374 235.3125 22.175Q235.5625 21.440624 236.0 20.925Q236.4375 20.409374 237.04688 20.14375Q237.65625 19.878124 238.40625 19.878124Q238.73438 19.878124 239.04688 19.940624Q239.35938 20.003124 239.60938 20.096874Q239.875 20.190624 240.07812 20.315624Q240.29688 20.425 240.375 20.503124Q240.45312 20.58125 240.46875 20.628124Q240.5 20.675 240.51562 20.7375Q240.53125 20.784374 240.53125 20.8625Q240.54688 20.940624 240.54688 21.034374Q240.54688 21.159374 240.53125 21.2375Q240.51562 21.315624 240.48438 21.378124Q240.46875 21.425 240.4375 21.45625Q240.40625 21.4875 240.35938 21.4875Q240.28125 21.4875 240.125 21.378124Q239.98438 21.253124 239.75 21.128124Q239.51562 20.9875 239.1875 20.878124Q238.85938 20.753124 238.39062 20.753124Q237.89062 20.753124 237.46875 20.95625Q237.0625 21.159374 236.76562 21.55Q236.48438 21.940624 236.3125 22.503124Q236.15625 23.065624 236.15625 23.8Q236.15625 24.51875 236.3125 25.08125Q236.46875 25.628124 236.75 26.003124Q237.04688 26.378124 237.46875 26.565624Q237.89062 26.753124 238.42188 26.753124Q238.875 26.753124 239.20312 26.64375Q239.54688 26.534374 239.78125 26.39375Q240.03125 26.253124 240.17188 26.14375Q240.32812 26.034374 240.42188 26.034374Q240.45312 26.034374 240.48438 26.05Q240.51562 26.065624 240.53125 26.1125Q240.54688 26.159374 240.5625 26.253124Q240.57812 26.346874 240.57812 26.471874ZM246.29688 24.70625Q246.29688 25.346874 246.125 25.89375Q245.96875 26.440624 245.625 26.83125Q245.28125 27.221874 244.78125 27.440624Q244.28125 27.659374 243.60938 27.659374Q242.95312 27.659374 242.46875 27.471874Q241.98438 27.26875 241.65625 26.909374Q241.34375 26.534374 241.1875 26.01875Q241.03125 25.4875 241.03125 24.815624Q241.03125 24.175 241.1875 23.628124Q241.35938 23.08125 241.6875 22.690624Q242.03125 22.3 242.53125 22.08125Q243.04688 21.8625 243.71875 21.8625Q244.375 21.8625 244.84375 22.065624Q245.32812 22.253124 245.65625 22.628124Q245.98438 22.9875 246.14062 23.51875Q246.29688 24.05 246.29688 24.70625ZM245.28125 24.76875Q245.28125 24.346874 245.20312 23.971874Q245.125 23.58125 244.9375 23.3Q244.76562 23.003124 244.45312 22.846874Q244.14062 22.675 243.67188 22.675Q243.25 22.675 242.9375 22.83125Q242.64062 22.971874 242.4375 23.253124Q242.23438 23.534374 242.14062 23.925Q242.04688 24.3 242.04688 24.753124Q242.04688 25.175 242.125 25.565624Q242.20312 25.940624 242.375 26.2375Q242.5625 26.51875 242.875 26.690624Q243.1875 26.846874 243.65625 26.846874Q244.07812 26.846874 244.39062 26.690624Q244.70312 26.534374 244.89062 26.26875Q245.09375 25.9875 245.1875 25.6125Q245.28125 25.221874 245.28125 24.76875ZM249.35938 27.409374Q249.35938 27.45625 249.32812 27.4875Q249.3125 27.51875 249.26562 27.55Q249.21875 27.565624 249.125 27.565624Q249.03125 27.58125 248.875 27.58125Q248.73438 27.58125 248.64062 27.565624Q248.54688 27.565624 248.48438 27.55Q248.4375 27.51875 248.40625 27.4875Q248.39062 27.45625 248.39062 27.409374L248.39062 19.58125Q248.39062 19.534374 248.40625 19.503124Q248.4375 19.45625 248.48438 19.440624Q248.54688 19.409374 248.64062 19.409374Q248.73438 19.39375 248.875 19.39375Q249.03125 19.39375 249.125 19.409374Q249.21875 19.409374 249.26562 19.440624Q249.3125 19.45625 249.32812 19.503124Q249.35938 19.534374 249.35938 19.58125L249.35938 27.409374ZM256.375 27.409374Q256.375 27.471874 256.32812 27.51875Q256.28125 27.55 256.1875 27.565624Q256.10938 27.58125 255.95312 27.58125Q255.79688 27.58125 255.70312 27.565624Q255.625 27.55 255.57812 27.51875Q255.53125 27.471874 255.53125 27.409374L255.53125 26.878124Q255.1875 27.253124 254.76562 27.45625Q254.34375 27.659374 253.875 27.659374Q253.45312 27.659374 253.10938 27.55Q252.78125 27.440624 252.53125 27.2375Q252.29688 27.034374 252.17188 26.7375Q252.04688 26.440624 252.04688 26.05Q252.04688 25.6125 252.21875 25.284374Q252.40625 24.95625 252.73438 24.7375Q253.07812 24.51875 253.5625 24.409374Q254.0625 24.3 254.6875 24.3L255.40625 24.3L255.40625 23.89375Q255.40625 23.58125 255.34375 23.346874Q255.28125 23.1125 255.14062 22.971874Q255.0 22.815624 254.76562 22.7375Q254.53125 22.64375 254.20312 22.64375Q253.84375 22.64375 253.5625 22.7375Q253.28125 22.815624 253.0625 22.925Q252.84375 23.01875 252.70312 23.1125Q252.5625 23.190624 252.48438 23.190624Q252.4375 23.190624 252.40625 23.175Q252.375 23.14375 252.34375 23.096874Q252.32812 23.05 252.3125 22.9875Q252.29688 22.909374 252.29688 22.815624Q252.29688 22.675 252.3125 22.596874Q252.34375 22.503124 252.42188 22.425Q252.5 22.346874 252.6875 22.253124Q252.89062 22.14375 253.14062 22.065624Q253.39062 21.971874 253.6875 21.925Q253.98438 21.8625 254.29688 21.8625Q254.85938 21.8625 255.25 22.003124Q255.65625 22.128124 255.89062 22.378124Q256.14062 22.628124 256.25 23.003124Q256.375 23.3625 256.375 23.846874L256.375 27.409374ZM255.40625 25.003124L254.57812 25.003124Q254.1875 25.003124 253.89062 25.065624Q253.59375 25.128124 253.40625 25.26875Q253.21875 25.39375 253.125 25.58125Q253.03125 25.76875 253.03125 26.003124Q253.03125 26.425 253.28125 26.675Q253.54688 26.909374 254.01562 26.909374Q254.40625 26.909374 254.71875 26.721874Q255.04688 26.51875 255.40625 26.1125L255.40625 25.003124Z" fill-rule="nonzero"/><path stroke="#a5a5a5" stroke-width="4.0" stroke-linecap="butt" d="M274.5 24.55L286.5 24.55" fill-rule="nonzero"/><path fill="#1a1a1a" d="M302.76562 27.33125Q302.75 27.409374 302.70312 27.45625Q302.65625 27.503124 302.5625 27.534374Q302.48438 27.565624 302.35938 27.565624Q302.25 27.58125 302.07812 27.58125Q301.89062 27.58125 301.76562 27.565624Q301.64062 27.565624 301.54688 27.534374Q301.46875 27.503124 301.42188 27.45625Q301.39062 27.409374 301.375 27.33125L299.78125 21.596874L299.76562 21.596874L298.29688 27.33125Q298.28125 27.409374 298.23438 27.45625Q298.20312 27.503124 298.125 27.534374Q298.04688 27.565624 297.92188 27.565624Q297.8125 27.58125 297.625 27.58125Q297.4375 27.58125 297.29688 27.565624Q297.17188 27.565624 297.09375 27.534374Q297.01562 27.503124 296.96875 27.45625Q296.92188 27.409374 296.90625 27.33125L294.90625 20.33125Q294.85938 20.190624 294.85938 20.1125Q294.85938 20.034374 294.90625 20.003124Q294.95312 19.95625 295.0625 19.940624Q295.1875 19.925 295.375 19.925Q295.54688 19.925 295.65625 19.940624Q295.76562 19.95625 295.8125 19.9875Q295.875 20.003124 295.89062 20.05Q295.90625 20.08125 295.92188 20.14375L297.625 26.4875L297.64062 26.4875L299.25 20.159374Q299.26562 20.096874 299.29688 20.05Q299.32812 20.003124 299.375 19.9875Q299.4375 19.95625 299.54688 19.940624Q299.65625 19.925 299.82812 19.925Q300.0 19.925 300.09375 19.940624Q300.1875 19.95625 300.25 19.9875Q300.3125 20.003124 300.32812 20.05Q300.35938 20.096874 300.375 20.159374L302.125 26.4875L302.125 26.4875L303.79688 20.14375Q303.8125 20.096874 303.82812 20.05Q303.85938 20.003124 303.90625 19.9875Q303.96875 19.95625 304.0625 19.940624Q304.17188 19.925 304.34375 19.925Q304.51562 19.925 304.60938 19.940624Q304.71875 19.95625 304.76562 20.003124Q304.8125 20.05 304.8125 20.128124Q304.8125 20.190624 304.78125 20.33125L302.76562 27.33125ZM307.35938 27.409374Q307.35938 27.45625 307.32812 27.4875Q307.3125 27.51875 307.26562 27.55Q307.21875 27.565624 307.125 27.565624Q307.03125 27.58125 306.875 27.58125Q306.73438 27.58125 306.64062 27.565624Q306.54688 27.565624 306.48438 27.55Q306.4375 27.51875 306.40625 27.4875Q306.39062 27.45625 306.39062 27.409374L306.39062 22.128124Q306.39062 22.08125 306.40625 22.05Q306.4375 22.01875 306.48438 22.003124Q306.54688 21.971874 306.64062 21.95625Q306.73438 21.940624 306.875 21.940624Q307.03125 21.940624 307.125 21.95625Q307.21875 21.971874 307.26562 22.003124Q307.3125 22.01875 307.32812 22.05Q307.35938 22.08125 307.35938 22.128124L307.35938 27.409374ZM307.46875 20.346874Q307.46875 20.690624 307.34375 20.815624Q307.21875 20.940624 306.875 20.940624Q306.53125 20.940624 306.40625 20.815624Q306.28125 20.690624 306.28125 20.3625Q306.28125 20.01875 306.40625 19.89375Q306.53125 19.76875 306.89062 19.76875Q307.21875 19.76875 307.34375 19.89375Q307.46875 20.01875 307.46875 20.346874ZM314.9375 27.409374Q314.9375 27.45625 314.90625 27.4875Q314.89062 27.51875 314.82812 27.55Q314.78125 27.565624 314.6875 27.565624Q314.59375 27.58125 314.45312 27.58125Q314.3125 27.58125 314.21875 27.565624Q314.125 27.565624 314.0625 27.55Q314.01562 27.51875 313.98438 27.4875Q313.96875 27.45625 313.96875 27.409374L313.96875 24.315624Q313.96875 23.8625 313.89062 23.596874Q313.82812 23.315624 313.6875 23.1125Q313.5625 22.909374 313.34375 22.815624Q313.14062 22.70625 312.85938 22.70625Q312.48438 22.70625 312.125 22.971874Q311.76562 23.221874 311.35938 23.721874L311.35938 27.409374Q311.35938 27.45625 311.32812 27.4875Q311.3125 27.51875 311.26562 27.55Q311.21875 27.565624 311.125 27.565624Q311.03125 27.58125 310.875 27.58125Q310.73438 27.58125 310.64062 27.565624Q310.54688 27.565624 310.48438 27.55Q310.4375 27.51875 310.40625 27.4875Q310.39062 27.45625 310.39062 27.409374L310.39062 22.128124Q310.39062 22.08125 310.40625 22.05Q310.4375 22.01875 310.48438 22.003124Q310.53125 21.971874 310.60938 21.95625Q310.70312 21.940624 310.84375 21.940624Q310.96875 21.940624 311.04688 21.95625Q311.14062 21.971874 311.1875 22.003124Q311.23438 22.01875 311.25 22.05Q311.26562 22.08125 311.26562 22.128124L311.26562 22.83125Q311.71875 22.33125 312.15625 22.096874Q312.59375 21.8625 313.04688 21.8625Q313.57812 21.8625 313.9375 22.05Q314.29688 22.221874 314.51562 22.51875Q314.75 22.815624 314.84375 23.221874Q314.9375 23.628124 314.9375 24.190624L314.9375 27.409374ZM321.89062 24.534374Q321.89062 24.76875 321.78125 24.8625Q321.67188 24.95625 321.51562 24.95625L318.0625 24.95625Q318.0625 25.39375 318.14062 25.753124Q318.23438 26.096874 318.4375 26.3625Q318.65625 26.6125 318.98438 26.753124Q319.3125 26.878124 319.78125 26.878124Q320.15625 26.878124 320.45312 26.815624Q320.75 26.753124 320.95312 26.675Q321.17188 26.596874 321.3125 26.534374Q321.45312 26.471874 321.51562 26.471874Q321.5625 26.471874 321.59375 26.503124Q321.625 26.51875 321.64062 26.565624Q321.65625 26.596874 321.65625 26.675Q321.67188 26.753124 321.67188 26.846874Q321.67188 26.925 321.65625 26.9875Q321.65625 27.034374 321.64062 27.08125Q321.64062 27.128124 321.625 27.159374Q321.60938 27.190624 321.57812 27.2375Q321.54688 27.26875 321.375 27.346874Q321.21875 27.409374 320.96875 27.4875Q320.71875 27.55 320.39062 27.596874Q320.0625 27.659374 319.6875 27.659374Q319.03125 27.659374 318.53125 27.4875Q318.04688 27.3 317.71875 26.940624Q317.39062 26.58125 317.21875 26.05Q317.04688 25.503124 317.04688 24.784374Q317.04688 24.1125 317.21875 23.565624Q317.39062 23.01875 317.71875 22.64375Q318.0625 22.26875 318.53125 22.065624Q319.0 21.8625 319.57812 21.8625Q320.20312 21.8625 320.64062 22.065624Q321.07812 22.26875 321.35938 22.6125Q321.64062 22.940624 321.76562 23.39375Q321.89062 23.846874 321.89062 24.3625L321.89062 24.534374ZM320.92188 24.253124Q320.9375 23.4875 320.57812 23.065624Q320.23438 22.628124 319.53125 22.628124Q319.17188 22.628124 318.90625 22.76875Q318.64062 22.89375 318.45312 23.1125Q318.28125 23.33125 318.17188 23.628124Q318.07812 23.925 318.0625 24.253124L320.92188 24.253124Z" fill-rule="nonzero"/><path stroke="#ffc000" stroke-width="4.0" stroke-linecap="butt" d="M339.5 24.55L351.5 24.55" fill-rule="nonzero"/><path fill="#1a1a1a" d="M365.57812 26.471874Q365.57812 26.565624 365.5625 26.64375Q365.5625 26.70625 365.54688 26.76875Q365.53125 26.815624 365.5 26.8625Q365.48438 26.89375 365.42188 26.95625Q365.35938 27.01875 365.17188 27.14375Q364.98438 27.253124 364.70312 27.378124Q364.4375 27.4875 364.07812 27.565624Q363.71875 27.64375 363.28125 27.64375Q362.54688 27.64375 361.95312 27.39375Q361.35938 27.14375 360.9375 26.675Q360.51562 26.190624 360.28125 25.4875Q360.0625 24.784374 360.0625 23.8625Q360.0625 22.909374 360.3125 22.175Q360.5625 21.440624 361.0 20.925Q361.4375 20.409374 362.04688 20.14375Q362.65625 19.878124 363.40625 19.878124Q363.73438 19.878124 364.04688 19.940624Q364.35938 20.003124 364.60938 20.096874Q364.875 20.190624 365.07812 20.315624Q365.29688 20.425 365.375 20.503124Q365.45312 20.58125 365.46875 20.628124Q365.5 20.675 365.51562 20.7375Q365.53125 20.784374 365.53125 20.8625Q365.54688 20.940624 365.54688 21.034374Q365.54688 21.159374 365.53125 21.2375Q365.51562 21.315624 365.48438 21.378124Q365.46875 21.425 365.4375 21.45625Q365.40625 21.4875 365.35938 21.4875Q365.28125 21.4875 365.125 21.378124Q364.98438 21.253124 364.75 21.128124Q364.51562 20.9875 364.1875 20.878124Q363.85938 20.753124 363.39062 20.753124Q362.89062 20.753124 362.46875 20.95625Q362.0625 21.159374 361.76562 21.55Q361.48438 21.940624 361.3125 22.503124Q361.15625 23.065624 361.15625 23.8Q361.15625 24.51875 361.3125 25.08125Q361.46875 25.628124 361.75 26.003124Q362.04688 26.378124 362.46875 26.565624Q362.89062 26.753124 363.42188 26.753124Q363.875 26.753124 364.20312 26.64375Q364.54688 26.534374 364.78125 26.39375Q365.03125 26.253124 365.17188 26.14375Q365.32812 26.034374 365.42188 26.034374Q365.45312 26.034374 365.48438 26.05Q365.51562 26.065624 365.53125 26.1125Q365.54688 26.159374 365.5625 26.253124Q365.57812 26.346874 365.57812 26.471874ZM370.375 27.409374Q370.375 27.471874 370.32812 27.51875Q370.28125 27.55 370.1875 27.565624Q370.10938 27.58125 369.95312 27.58125Q369.79688 27.58125 369.70312 27.565624Q369.625 27.55 369.57812 27.51875Q369.53125 27.471874 369.53125 27.409374L369.53125 26.878124Q369.1875 27.253124 368.76562 27.45625Q368.34375 27.659374 367.875 27.659374Q367.45312 27.659374 367.10938 27.55Q366.78125 27.440624 366.53125 27.2375Q366.29688 27.034374 366.17188 26.7375Q366.04688 26.440624 366.04688 26.05Q366.04688 25.6125 366.21875 25.284374Q366.40625 24.95625 366.73438 24.7375Q367.07812 24.51875 367.5625 24.409374Q368.0625 24.3 368.6875 24.3L369.40625 24.3L369.40625 23.89375Q369.40625 23.58125 369.34375 23.346874Q369.28125 23.1125 369.14062 22.971874Q369.0 22.815624 368.76562 22.7375Q368.53125 22.64375 368.20312 22.64375Q367.84375 22.64375 367.5625 22.7375Q367.28125 22.815624 367.0625 22.925Q366.84375 23.01875 366.70312 23.1125Q366.5625 23.190624 366.48438 23.190624Q366.4375 23.190624 366.40625 23.175Q366.375 23.14375 366.34375 23.096874Q366.32812 23.05 366.3125 22.9875Q366.29688 22.909374 366.29688 22.815624Q366.29688 22.675 366.3125 22.596874Q366.34375 22.503124 366.42188 22.425Q366.5 22.346874 366.6875 22.253124Q366.89062 22.14375 367.14062 22.065624Q367.39062 21.971874 367.6875 21.925Q367.98438 21.8625 368.29688 21.8625Q368.85938 21.8625 369.25 22.003124Q369.65625 22.128124 369.89062 22.378124Q370.14062 22.628124 370.25 23.003124Q370.375 23.3625 370.375 23.846874L370.375 27.409374ZM369.40625 25.003124L368.57812 25.003124Q368.1875 25.003124 367.89062 25.065624Q367.59375 25.128124 367.40625 25.26875Q367.21875 25.39375 367.125 25.58125Q367.03125 25.76875 367.03125 26.003124Q367.03125 26.425 367.28125 26.675Q367.54688 26.909374 368.01562 26.909374Q368.40625 26.909374 368.71875 26.721874Q369.04688 26.51875 369.40625 26.1125L369.40625 25.003124ZM377.1875 26.596874Q377.1875 26.70625 377.17188 26.784374Q377.17188 26.846874 377.15625 26.89375Q377.14062 26.940624 377.125 26.9875Q377.10938 27.01875 377.03125 27.096874Q376.95312 27.175 376.78125 27.284374Q376.60938 27.378124 376.39062 27.471874Q376.17188 27.55 375.90625 27.596874Q375.65625 27.659374 375.375 27.659374Q374.8125 27.659374 374.375 27.471874Q373.9375 27.284374 373.64062 26.925Q373.34375 26.565624 373.1875 26.05Q373.03125 25.51875 373.03125 24.83125Q373.03125 24.05 373.21875 23.4875Q373.40625 22.925 373.73438 22.58125Q374.07812 22.221874 374.51562 22.05Q374.96875 21.878124 375.48438 21.878124Q375.73438 21.878124 375.96875 21.925Q376.21875 21.971874 376.40625 22.05Q376.60938 22.1125 376.76562 22.221874Q376.92188 22.315624 376.98438 22.39375Q377.0625 22.45625 377.09375 22.503124Q377.125 22.534374 377.14062 22.596874Q377.15625 22.64375 377.15625 22.721874Q377.17188 22.784374 377.17188 22.89375Q377.17188 23.128124 377.10938 23.221874Q377.0625 23.3 376.98438 23.3Q376.89062 23.3 376.78125 23.20625Q376.67188 23.1125 376.48438 23.003124Q376.3125 22.878124 376.0625 22.784374Q375.8125 22.690624 375.48438 22.690624Q374.78125 22.690624 374.40625 23.221874Q374.03125 23.753124 374.03125 24.784374Q374.03125 25.284374 374.125 25.675Q374.23438 26.05 374.42188 26.315624Q374.60938 26.565624 374.875 26.690624Q375.15625 26.815624 375.5 26.815624Q375.82812 26.815624 376.07812 26.721874Q376.34375 26.6125 376.51562 26.4875Q376.70312 26.3625 376.82812 26.26875Q376.95312 26.159374 377.03125 26.159374Q377.07812 26.159374 377.09375 26.190624Q377.125 26.20625 377.14062 26.26875Q377.17188 26.315624 377.17188 26.409374Q377.1875 26.4875 377.1875 26.596874ZM382.375 27.409374Q382.375 27.471874 382.32812 27.51875Q382.28125 27.55 382.1875 27.565624Q382.10938 27.58125 381.95312 27.58125Q381.79688 27.58125 381.70312 27.565624Q381.625 27.55 381.57812 27.51875Q381.53125 27.471874 381.53125 27.409374L381.53125 26.878124Q381.1875 27.253124 380.76562 27.45625Q380.34375 27.659374 379.875 27.659374Q379.45312 27.659374 379.10938 27.55Q378.78125 27.440624 378.53125 27.2375Q378.29688 27.034374 378.17188 26.7375Q378.04688 26.440624 378.04688 26.05Q378.04688 25.6125 378.21875 25.284374Q378.40625 24.95625 378.73438 24.7375Q379.07812 24.51875 379.5625 24.409374Q380.0625 24.3 380.6875 24.3L381.40625 24.3L381.40625 23.89375Q381.40625 23.58125 381.34375 23.346874Q381.28125 23.1125 381.14062 22.971874Q381.0 22.815624 380.76562 22.7375Q380.53125 22.64375 380.20312 22.64375Q379.84375 22.64375 379.5625 22.7375Q379.28125 22.815624 379.0625 22.925Q378.84375 23.01875 378.70312 23.1125Q378.5625 23.190624 378.48438 23.190624Q378.4375 23.190624 378.40625 23.175Q378.375 23.14375 378.34375 23.096874Q378.32812 23.05 378.3125 22.9875Q378.29688 22.909374 378.29688 22.815624Q378.29688 22.675 378.3125 22.596874Q378.34375 22.503124 378.42188 22.425Q378.5 22.346874 378.6875 22.253124Q378.89062 22.14375 379.14062 22.065624Q379.39062 21.971874 379.6875 21.925Q379.98438 21.8625 380.29688 21.8625Q380.85938 21.8625 381.25 22.003124Q381.65625 22.128124 381.89062 22.378124Q382.14062 22.628124 382.25 23.003124Q382.375 23.3625 382.375 23.846874L382.375 27.409374ZM381.40625 25.003124L380.57812 25.003124Q380.1875 25.003124 379.89062 25.065624Q379.59375 25.128124 379.40625 25.26875Q379.21875 25.39375 379.125 25.58125Q379.03125 25.76875 379.03125 26.003124Q379.03125 26.425 379.28125 26.675Q379.54688 26.909374 380.01562 26.909374Q380.40625 26.909374 380.71875 26.721874Q381.04688 26.51875 381.40625 26.1125L381.40625 25.003124ZM390.29688 24.70625Q390.29688 25.346874 390.125 25.89375Q389.96875 26.440624 389.625 26.83125Q389.28125 27.221874 388.78125 27.440624Q388.28125 27.659374 387.60938 27.659374Q386.95312 27.659374 386.46875 27.471874Q385.98438 27.26875 385.65625 26.909374Q385.34375 26.534374 385.1875 26.01875Q385.03125 25.4875 385.03125 24.815624Q385.03125 24.175 385.1875 23.628124Q385.35938 23.08125 385.6875 22.690624Q386.03125 22.3 386.53125 22.08125Q387.04688 21.8625 387.71875 21.8625Q388.375 21.8625 388.84375 22.065624Q389.32812 22.253124 389.65625 22.628124Q389.98438 22.9875 390.14062 23.51875Q390.29688 24.05 390.29688 24.70625ZM389.28125 24.76875Q389.28125 24.346874 389.20312 23.971874Q389.125 23.58125 388.9375 23.3Q388.76562 23.003124 388.45312 22.846874Q388.14062 22.675 387.67188 22.675Q387.25 22.675 386.9375 22.83125Q386.64062 22.971874 386.4375 23.253124Q386.23438 23.534374 386.14062 23.925Q386.04688 24.3 386.04688 24.753124Q386.04688 25.175 386.125 25.565624Q386.20312 25.940624 386.375 26.2375Q386.5625 26.51875 386.875 26.690624Q387.1875 26.846874 387.65625 26.846874Q388.07812 26.846874 388.39062 26.690624Q388.70312 26.534374 388.89062 26.26875Q389.09375 25.9875 389.1875 25.6125Q389.28125 25.221874 389.28125 24.76875Z" fill-rule="nonzero"/><path stroke="#4472c4" stroke-width="4.0" stroke-linecap="butt" d="M407.5 24.55L419.5 24.55" fill-rule="nonzero"/><path fill="#1a1a1a" d="M434.20312 21.003124Q434.20312 21.1125 434.1875 21.20625Q434.1875 21.284374 434.15625 21.346874Q434.14062 21.39375 434.09375 21.425Q434.0625 21.440624 434.01562 21.440624Q433.95312 21.440624 433.78125 21.33125Q433.625 21.221874 433.34375 21.08125Q433.07812 20.940624 432.6875 20.83125Q432.3125 20.721874 431.78125 20.721874Q431.15625 20.721874 430.65625 20.95625Q430.15625 21.175 429.8125 21.58125Q429.46875 21.9875 429.28125 22.55Q429.09375 23.096874 429.09375 23.753124Q429.09375 24.471874 429.29688 25.034374Q429.5 25.596874 429.85938 25.9875Q430.21875 26.378124 430.70312 26.58125Q431.20312 26.76875 431.79688 26.76875Q432.14062 26.76875 432.5 26.690624Q432.875 26.6125 433.17188 26.440624L433.17188 24.221874L431.42188 24.221874Q431.32812 24.221874 431.26562 24.128124Q431.21875 24.034374 431.21875 23.815624Q431.21875 23.70625 431.23438 23.628124Q431.25 23.55 431.26562 23.503124Q431.29688 23.440624 431.32812 23.425Q431.375 23.39375 431.42188 23.39375L433.82812 23.39375Q433.89062 23.39375 433.95312 23.425Q434.01562 23.440624 434.0625 23.4875Q434.125 23.534374 434.15625 23.628124Q434.1875 23.70625 434.1875 23.815624L434.1875 26.70625Q434.1875 26.846874 434.125 26.971874Q434.07812 27.08125 433.90625 27.159374Q433.73438 27.2375 433.46875 27.346874Q433.20312 27.440624 432.90625 27.51875Q432.625 27.58125 432.32812 27.6125Q432.04688 27.659374 431.75 27.659374Q430.875 27.659374 430.1875 27.39375Q429.5 27.1125 429.01562 26.6125Q428.53125 26.096874 428.28125 25.39375Q428.03125 24.690624 428.03125 23.83125Q428.03125 22.925 428.29688 22.190624Q428.57812 21.45625 429.0625 20.940624Q429.5625 20.425 430.25 20.14375Q430.95312 19.8625 431.79688 19.8625Q432.23438 19.8625 432.60938 19.940624Q433.0 20.01875 433.29688 20.128124Q433.59375 20.221874 433.79688 20.346874Q434.0 20.45625 434.0625 20.534374Q434.14062 20.6125 434.17188 20.721874Q434.20312 20.815624 434.20312 21.003124ZM439.48438 22.471874Q439.48438 22.596874 439.46875 22.690624Q439.46875 22.784374 439.45312 22.83125Q439.4375 22.878124 439.40625 22.909374Q439.375 22.925 439.32812 22.925Q439.28125 22.925 439.21875 22.909374Q439.15625 22.878124 439.0625 22.8625Q438.98438 22.83125 438.875 22.815624Q438.76562 22.784374 438.64062 22.784374Q438.5 22.784374 438.35938 22.846874Q438.21875 22.89375 438.0625 23.034374Q437.90625 23.159374 437.73438 23.39375Q437.5625 23.6125 437.35938 23.940624L437.35938 27.409374Q437.35938 27.45625 437.32812 27.4875Q437.3125 27.51875 437.26562 27.55Q437.21875 27.565624 437.125 27.565624Q437.03125 27.58125 436.875 27.58125Q436.73438 27.58125 436.64062 27.565624Q436.54688 27.565624 436.48438 27.55Q436.4375 27.51875 436.40625 27.4875Q436.39062 27.45625 436.39062 27.409374L436.39062 22.128124Q436.39062 22.08125 436.40625 22.05Q436.4375 22.01875 436.48438 22.003124Q436.53125 21.971874 436.60938 21.95625Q436.70312 21.940624 436.84375 21.940624Q436.96875 21.940624 437.04688 21.95625Q437.14062 21.971874 437.1875 22.003124Q437.23438 22.01875 437.25 22.05Q437.26562 22.08125 437.26562 22.128124L437.26562 22.89375Q437.48438 22.58125 437.67188 22.378124Q437.875 22.175 438.03125 22.065624Q438.20312 21.95625 438.375 21.909374Q438.54688 21.8625 438.71875 21.8625Q438.78125 21.8625 438.875 21.878124Q438.98438 21.878124 439.07812 21.909374Q439.1875 21.925 439.26562 21.95625Q439.35938 21.9875 439.39062 22.01875Q439.4375 22.05 439.4375 22.08125Q439.45312 22.096874 439.45312 22.14375Q439.46875 22.175 439.46875 22.26875Q439.48438 22.346874 439.48438 22.471874ZM441.35938 27.409374Q441.35938 27.45625 441.32812 27.4875Q441.3125 27.51875 441.26562 27.55Q441.21875 27.565624 441.125 27.565624Q441.03125 27.58125 440.875 27.58125Q440.73438 27.58125 440.64062 27.565624Q440.54688 27.565624 440.48438 27.55Q440.4375 27.51875 440.40625 27.4875Q440.39062 27.45625 440.39062 27.409374L440.39062 22.128124Q440.39062 22.08125 440.40625 22.05Q440.4375 22.01875 440.48438 22.003124Q440.54688 21.971874 440.64062 21.95625Q440.73438 21.940624 440.875 21.940624Q441.03125 21.940624 441.125 21.95625Q441.21875 21.971874 441.26562 22.003124Q441.3125 22.01875 441.32812 22.05Q441.35938 22.08125 441.35938 22.128124L441.35938 27.409374ZM441.46875 20.346874Q441.46875 20.690624 441.34375 20.815624Q441.21875 20.940624 440.875 20.940624Q440.53125 20.940624 440.40625 20.815624Q440.28125 20.690624 440.28125 20.3625Q440.28125 20.01875 440.40625 19.89375Q440.53125 19.76875 440.89062 19.76875Q441.21875 19.76875 441.34375 19.89375Q441.46875 20.01875 441.46875 20.346874ZM448.9375 27.409374Q448.9375 27.45625 448.90625 27.4875Q448.89062 27.51875 448.82812 27.55Q448.78125 27.565624 448.6875 27.565624Q448.59375 27.58125 448.45312 27.58125Q448.3125 27.58125 448.21875 27.565624Q448.125 27.565624 448.0625 27.55Q448.01562 27.51875 447.98438 27.4875Q447.96875 27.45625 447.96875 27.409374L447.96875 24.315624Q447.96875 23.8625 447.89062 23.596874Q447.82812 23.315624 447.6875 23.1125Q447.5625 22.909374 447.34375 22.815624Q447.14062 22.70625 446.85938 22.70625Q446.48438 22.70625 446.125 22.971874Q445.76562 23.221874 445.35938 23.721874L445.35938 27.409374Q445.35938 27.45625 445.32812 27.4875Q445.3125 27.51875 445.26562 27.55Q445.21875 27.565624 445.125 27.565624Q445.03125 27.58125 444.875 27.58125Q444.73438 27.58125 444.64062 27.565624Q444.54688 27.565624 444.48438 27.55Q444.4375 27.51875 444.40625 27.4875Q444.39062 27.45625 444.39062 27.409374L444.39062 22.128124Q444.39062 22.08125 444.40625 22.05Q444.4375 22.01875 444.48438 22.003124Q444.53125 21.971874 444.60938 21.95625Q444.70312 21.940624 444.84375 21.940624Q444.96875 21.940624 445.04688 21.95625Q445.14062 21.971874 445.1875 22.003124Q445.23438 22.01875 445.25 22.05Q445.26562 22.08125 445.26562 22.128124L445.26562 22.83125Q445.71875 22.33125 446.15625 22.096874Q446.59375 21.8625 447.04688 21.8625Q447.57812 21.8625 447.9375 22.05Q448.29688 22.221874 448.51562 22.51875Q448.75 22.815624 448.84375 23.221874Q448.9375 23.628124 448.9375 24.190624L448.9375 27.409374ZM455.92188 27.409374Q455.92188 27.45625 455.89062 27.4875Q455.875 27.51875 455.82812 27.55Q455.78125 27.565624 455.6875 27.565624Q455.60938 27.58125 455.5 27.58125Q455.375 27.58125 455.28125 27.565624Q455.20312 27.565624 455.14062 27.55Q455.09375 27.51875 455.0625 27.4875Q455.04688 27.45625 455.04688 27.409374L455.04688 26.70625Q454.64062 27.159374 454.1875 27.409374Q453.73438 27.659374 453.20312 27.659374Q452.625 27.659374 452.21875 27.440624Q451.8125 27.20625 451.54688 26.83125Q451.29688 26.440624 451.17188 25.925Q451.0625 25.409374 451.0625 24.83125Q451.0625 24.14375 451.20312 23.596874Q451.35938 23.05 451.64062 22.675Q451.9375 22.284374 452.35938 22.08125Q452.78125 21.8625 453.34375 21.8625Q453.79688 21.8625 454.17188 22.065624Q454.5625 22.26875 454.9375 22.659374L454.9375 19.596874Q454.9375 19.55 454.95312 19.51875Q454.98438 19.4875 455.03125 19.471874Q455.09375 19.440624 455.1875 19.425Q455.28125 19.409374 455.42188 19.409374Q455.5625 19.409374 455.65625 19.425Q455.75 19.440624 455.79688 19.471874Q455.85938 19.4875 455.89062 19.51875Q455.92188 19.55 455.92188 19.596874L455.92188 27.409374ZM454.9375 23.690624Q454.54688 23.20625 454.17188 22.95625Q453.8125 22.690624 453.42188 22.690624Q453.04688 22.690624 452.78125 22.878124Q452.53125 23.05 452.375 23.346874Q452.21875 23.628124 452.14062 23.9875Q452.0625 24.346874 452.0625 24.721874Q452.0625 25.128124 452.125 25.503124Q452.1875 25.878124 452.34375 26.175Q452.5 26.471874 452.75 26.659374Q453.0 26.83125 453.375 26.83125Q453.57812 26.83125 453.75 26.784374Q453.92188 26.721874 454.10938 26.6125Q454.29688 26.4875 454.5 26.3Q454.71875 26.096874 454.9375 25.8L454.9375 23.690624ZM459.35938 27.409374Q459.35938 27.45625 459.32812 27.4875Q459.3125 27.51875 459.26562 27.55Q459.21875 27.565624 459.125 27.565624Q459.03125 27.58125 458.875 27.58125Q458.73438 27.58125 458.64062 27.565624Q458.54688 27.565624 458.48438 27.55Q458.4375 27.51875 458.40625 27.4875Q458.39062 27.45625 458.39062 27.409374L458.39062 22.128124Q458.39062 22.08125 458.40625 22.05Q458.4375 22.01875 458.48438 22.003124Q458.54688 21.971874 458.64062 21.95625Q458.73438 21.940624 458.875 21.940624Q459.03125 21.940624 459.125 21.95625Q459.21875 21.971874 459.26562 22.003124Q459.3125 22.01875 459.32812 22.05Q459.35938 22.08125 459.35938 22.128124L459.35938 27.409374ZM459.46875 20.346874Q459.46875 20.690624 459.34375 20.815624Q459.21875 20.940624 458.875 20.940624Q458.53125 20.940624 458.40625 20.815624Q458.28125 20.690624 458.28125 20.3625Q458.28125 20.01875 458.40625 19.89375Q458.53125 19.76875 458.89062 19.76875Q459.21875 19.76875 459.34375 19.89375Q459.46875 20.01875 459.46875 20.346874ZM466.9375 27.409374Q466.9375 27.45625 466.90625 27.4875Q466.89062 27.51875 466.82812 27.55Q466.78125 27.565624 466.6875 27.565624Q466.59375 27.58125 466.45312 27.58125Q466.3125 27.58125 466.21875 27.565624Q466.125 27.565624 466.0625 27.55Q466.01562 27.51875 465.98438 27.4875Q465.96875 27.45625 465.96875 27.409374L465.96875 24.315624Q465.96875 23.8625 465.89062 23.596874Q465.82812 23.315624 465.6875 23.1125Q465.5625 22.909374 465.34375 22.815624Q465.14062 22.70625 464.85938 22.70625Q464.48438 22.70625 464.125 22.971874Q463.76562 23.221874 463.35938 23.721874L463.35938 27.409374Q463.35938 27.45625 463.32812 27.4875Q463.3125 27.51875 463.26562 27.55Q463.21875 27.565624 463.125 27.565624Q463.03125 27.58125 462.875 27.58125Q462.73438 27.58125 462.64062 27.565624Q462.54688 27.565624 462.48438 27.55Q462.4375 27.51875 462.40625 27.4875Q462.39062 27.45625 462.39062 27.409374L462.39062 22.128124Q462.39062 22.08125 462.40625 22.05Q462.4375 22.01875 462.48438 22.003124Q462.53125 21.971874 462.60938 21.95625Q462.70312 21.940624 462.84375 21.940624Q462.96875 21.940624 463.04688 21.95625Q463.14062 21.971874 463.1875 22.003124Q463.23438 22.01875 463.25 22.05Q463.26562 22.08125 463.26562 22.128124L463.26562 22.83125Q463.71875 22.33125 464.15625 22.096874Q464.59375 21.8625 465.04688 21.8625Q465.57812 21.8625 465.9375 22.05Q466.29688 22.221874 466.51562 22.51875Q466.75 22.815624 466.84375 23.221874Q466.9375 23.628124 466.9375 24.190624L466.9375 27.409374ZM473.79688 22.3625Q473.79688 22.58125 473.73438 22.675Q473.6875 22.753124 473.60938 22.753124L472.84375 22.753124Q473.04688 22.971874 473.125 23.221874Q473.21875 23.471874 473.21875 23.753124Q473.21875 24.20625 473.0625 24.565624Q472.92188 24.909374 472.64062 25.159374Q472.375 25.39375 472.0 25.534374Q471.625 25.659374 471.17188 25.659374Q470.84375 25.659374 470.54688 25.58125Q470.26562 25.4875 470.10938 25.3625Q470.0 25.45625 469.9375 25.596874Q469.875 25.7375 469.875 25.909374Q469.875 26.1125 470.0625 26.253124Q470.25 26.378124 470.5625 26.39375L471.95312 26.45625Q472.34375 26.471874 472.67188 26.565624Q473.0 26.659374 473.23438 26.846874Q473.46875 27.01875 473.60938 27.284374Q473.75 27.534374 473.75 27.878124Q473.75 28.253124 473.59375 28.58125Q473.4375 28.909374 473.125 29.159374Q472.8125 29.409374 472.32812 29.55Q471.84375 29.690624 471.17188 29.690624Q470.54688 29.690624 470.09375 29.58125Q469.64062 29.471874 469.34375 29.284374Q469.0625 29.096874 468.9375 28.83125Q468.8125 28.58125 468.8125 28.26875Q468.8125 28.08125 468.85938 27.89375Q468.90625 27.721874 469.0 27.55Q469.09375 27.378124 469.23438 27.2375Q469.39062 27.08125 469.57812 26.940624Q469.28125 26.8 469.14062 26.58125Q469.01562 26.346874 469.01562 26.096874Q469.01562 25.7375 469.15625 25.45625Q469.29688 25.175 469.51562 24.940624Q469.34375 24.7375 469.23438 24.471874Q469.125 24.190624 469.125 23.8Q469.125 23.346874 469.28125 22.9875Q469.4375 22.628124 469.70312 22.39375Q469.96875 22.14375 470.34375 22.01875Q470.73438 21.878124 471.17188 21.878124Q471.40625 21.878124 471.60938 21.909374Q471.82812 21.925 472.01562 21.971874L473.60938 21.971874Q473.70312 21.971874 473.75 22.08125Q473.79688 22.175 473.79688 22.3625ZM472.29688 23.753124Q472.29688 23.221874 472.0 22.925Q471.70312 22.6125 471.15625 22.6125Q470.875 22.6125 470.65625 22.70625Q470.45312 22.8 470.3125 22.971874Q470.1875 23.128124 470.10938 23.346874Q470.04688 23.565624 470.04688 23.8Q470.04688 24.315624 470.34375 24.6125Q470.64062 24.909374 471.17188 24.909374Q471.45312 24.909374 471.65625 24.83125Q471.875 24.7375 472.01562 24.58125Q472.15625 24.409374 472.21875 24.20625Q472.29688 23.9875 472.29688 23.753124ZM472.78125 27.940624Q472.78125 27.596874 472.5 27.409374Q472.21875 27.221874 471.75 27.221874L470.375 27.175Q470.1875 27.315624 470.0625 27.45625Q469.95312 27.58125 469.875 27.690624Q469.8125 27.815624 469.78125 27.925Q469.76562 28.05 469.76562 28.175Q469.76562 28.565624 470.14062 28.753124Q470.53125 28.95625 471.21875 28.95625Q471.67188 28.95625 471.95312 28.8625Q472.25 28.784374 472.4375 28.64375Q472.625 28.503124 472.70312 28.315624Q472.78125 28.14375 472.78125 27.940624Z" fill-rule="nonzero"/></svg>