<?xml version="1.0" encoding="UTF-8" standalone="no"?>
<!-- Created with Inkscape (http://www.inkscape.org/) -->

<svg
   xmlns:dc="http://purl.org/dc/elements/1.1/"
   xmlns:cc="http://creativecommons.org/ns#"
   xmlns:rdf="http://www.w3.org/1999/02/22-rdf-syntax-ns#"
   xmlns:svg="http://www.w3.org/2000/svg"
   xmlns="http://www.w3.org/2000/svg"
   xmlns:sodipodi="http://sodipodi.sourceforge.net/DTD/sodipodi-0.dtd"
   xmlns:inkscape="http://www.inkscape.org/namespaces/inkscape"
   width="210mm"
   height="297mm"
   viewBox="0 0 210 297"
   version="1.1"
   id="svg8"
   inkscape:version="0.92.4 (5da689c313, 2019-01-14)"
   sodipodi:docname="intevonkansmuffin.svg">
  <defs
     id="defs2" />
  <sodipodi:namedview
     id="base"
     pagecolor="#ffffff"
     bordercolor="#666666"
     borderopacity="1.0"
     inkscape:pageopacity="0.0"
     inkscape:pageshadow="2"
     inkscape:zoom="0.35"
     inkscape:cx="-64.285714"
     inkscape:cy="560"
     inkscape:document-units="mm"
     inkscape:current-layer="layer1"
     showgrid="false"
     inkscape:window-width="1920"
     inkscape:window-height="1017"
     inkscape:window-x="-8"
     inkscape:window-y="-8"
     inkscape:window-maximized="1" />
  <metadata
     id="metadata5">
    <rdf:RDF>
      <cc:Work
         rdf:about="">
        <dc:format>image/svg+xml</dc:format>
        <dc:type
           rdf:resource="http://purl.org/dc/dcmitype/StillImage" />
        <dc:title></dc:title>
      </cc:Work>
    </rdf:RDF>
  </metadata>
  <g
     inkscape:label="Layer 1"
     inkscape:groupmode="layer"
     id="layer1">
    <path
       style="fill:none;stroke:#000000;stroke-width:0.26458332px;stroke-linecap:butt;stroke-linejoin:miter;stroke-opacity:1"
       d="m 29.482142,114.05952 c 0,-5.29167 0,-10.58333 0,-15.874998 0,-0.251984 0,-0.503968 0,-0.755952 0,-0.251984 0.112691,-0.530572 0,-0.755952 -0.159369,-0.318738 -0.596582,-0.437216 -0.755952,-0.755951 -0.112691,-0.225383 0,-0.503971 0,-0.755954 0,-0.251984 0,-0.503968 0,-0.755952 0,-1.259922 0,-2.519841 0,-3.779761 0,-2.519841 0,-5.039683 0,-7.559524 0,-0.251984 0,-0.50397 0,-0.755954 0,-0.251984 -0.178181,-0.577771 0,-0.755952 0.178179,-0.178178 0.577774,0.178181 0.755952,0 0.377976,-0.377976 -0.377976,-1.889881 0,-2.267857 0.178181,-0.178179 0.577773,0.178181 0.755952,0 0.178181,-0.178179 -0.112689,-0.530572 0,-0.755952 0.159369,-0.318738 0.596585,-0.437216 0.755954,-0.755952 0.112689,-0.225382 -0.178181,-0.577773 0,-0.755954 0.178178,-0.178178 0.577771,0.178181 0.755952,0 0.178181,-0.178178 -0.112692,-0.530569 0,-0.755951 0.159369,-0.318739 0.596582,-0.437214 0.755951,-0.755952 0.112692,-0.225383 -0.178178,-0.577773 0,-0.755952 0.178181,-0.178181 0.530572,0.112689 0.755954,0 0.318736,-0.159369 0.437214,-0.596585 0.755952,-0.755954 0.22538,-0.112691 0.577773,0.178181 0.755952,0 0.178181,-0.178178 -0.178179,-0.577773 0,-0.755952 0.178181,-0.178181 0.577773,0.178179 0.755951,0 0.178181,-0.178181 -0.178178,-0.577773 0,-0.755951 0.35636,-0.356359 1.155547,0.356359 1.511906,0 0.178181,-0.178181 -0.178181,-0.577773 0,-0.755954 0.35636,-0.35636 1.155547,0.356359 1.511906,0 0.178178,-0.178179 -0.178181,-0.577771 0,-0.755952 0.181904,-0.181906 2.841903,0.181906 3.023809,0 0.178179,-0.178178 -0.178181,-0.577773 0,-0.755952 0.178179,-0.178181 0.503968,0 0.755952,0 1.76389,0 3.527777,0 5.291666,0 0.183338,0 2.243545,-0.02432 2.267858,0 0.178178,0.178179 -0.178181,0.577774 0,0.755952 0.356359,0.356359 1.06114,-0.22538 1.511903,0 0.318738,0.159369 0.437216,0.596585 0.755954,0.755952 0.22538,0.112691 0.530569,-0.112689 0.755952,0 0.318738,0.159369 0.437216,0.596585 0.755952,0.755954 0.225382,0.112689 0.577773,-0.178181 0.755954,0 0.178178,0.178178 -0.178181,0.57777 0,0.755951 0.178178,0.178179 0.530569,-0.112691 0.755951,0 0.318739,0.15937 0.437214,0.596583 0.755952,0.755952 0.225383,0.112691 0.577773,-0.178178 0.755952,0 0.178181,0.178181 -0.178179,0.577773 0,0.755954 0.178181,0.178179 0.530571,-0.112691 0.755954,0 0.743879,0.371938 2.27993,2.651869 3.023809,3.023809 0.22538,0.112689 0.577773,-0.178181 0.755952,0 0.178181,0.178179 -0.178179,0.577771 0,0.755952 0.178181,0.178178 0.577773,-0.178181 0.755951,0 0.178181,0.178178 -0.178178,0.577773 0,0.755952 0.178181,0.178181 0.577774,-0.178179 0.755955,0 0.178178,0.178181 -0.178181,0.577773 0,0.755954 0.178178,0.178178 0.503967,0 0.755951,0 0,0.251984 -0.112691,0.530569 0,0.755952 1.573046,3.146091 -0.05219,-0.808141 1.511906,0.755951 0.178178,0.178181 -0.112691,0.530572 0,0.755952 1.573046,3.146094 -0.05219,-0.808138 1.511903,0.755954 0.178181,0.178178 -0.112691,0.530569 0,0.755952 0.318739,0.637474 1.193168,0.874429 1.511906,1.511906 0.112689,0.22538 -0.178181,0.57777 0,0.755951 0.178179,0.178179 0.577771,-0.178181 0.755952,0 0.178181,0.178179 -0.178181,0.577773 0,0.755952 0.178181,0.178181 0.577773,-0.178179 0.755951,0 0.178181,0.178181 -0.178178,0.577773 0,0.755951 0.178181,0.178181 0.577774,-0.178178 0.755955,0 0.50297,0.502971 -0.502971,1.008936 0,1.511906 0.178178,0.178179 0.57777,-0.178181 0.755951,0 0.03042,0.03042 0,2.746195 0,3.023809 0,0.395304 -0.09938,2.825039 0,3.02381 0.159369,0.318738 0.596583,0.437216 0.755952,0.755954 0.11503,0.23006 0,1.927407 0,2.267855 0,1.259922 0,2.519838 0,3.779758 0,0.25199 -0.178178,0.57778 0,0.75596 0.178181,0.17818 0.577773,-0.17818 0.755952,0 0.178181,0.17818 0.251986,0.75595 0,0.75595 -0.251984,0 0,-0.50397 0,-0.75595 0,-0.75596 0,-1.51191 0,-2.26786 0,-1.763888 0,-3.527778 0,-5.291667 0,-2.015874 0,-4.031745 0,-6.047619 0,-0.395303 -0.09939,-2.825038 0,-3.023809 0.159369,-0.318738 0.596585,-0.437216 0.755954,-0.755951 0.237567,-0.475134 -0.237567,-2.548679 0,-3.023812 0.159369,-0.318736 0.596582,-0.437214 0.755951,-0.755952 0.225383,-0.450762 -0.225382,-1.06114 0,-1.511903 0.15937,-0.318738 0.596583,-0.437216 0.755952,-0.755954 0.225383,-0.450763 -0.356359,-1.155544 0,-1.511904 0.178181,-0.178181 0.577773,0.178179 0.755954,0 0.35636,-0.356359 -0.356359,-1.155546 0,-1.511905 0.178179,-0.178179 0.577771,0.178181 0.755952,0 0.178178,-0.178179 -0.178181,-0.577774 0,-0.755952 0.178178,-0.178181 0.577773,0.178178 0.755952,0 0.356359,-0.356359 -0.35636,-1.155547 0,-1.511906 0.178181,-0.178178 0.530571,0.112691 0.755951,0 0.318738,-0.159369 0.437216,-0.596582 0.755954,-0.755952 0.22538,-0.112691 0.577771,0.178179 0.755952,0 0.178181,-0.178181 -0.178181,-0.577773 0,-0.755951 0.178181,-0.178181 0.530572,0.112689 0.755952,0 0.318738,-0.159369 0.437216,-0.596585 0.755954,-0.755954 0.450763,-0.22538 1.155544,0.356359 1.511903,0 0.178181,-0.178179 -0.178178,-0.577771 0,-0.755952 0.178181,-0.178178 0.503968,0 0.755952,0 1.763889,0 3.527779,0 5.291666,0 0.183341,0 2.243548,-0.02432 2.267858,0 0.178181,0.178181 -0.178179,0.577773 0,0.755952 0.178181,0.178181 0.530571,-0.112689 0.755954,0 0.318736,0.159369 0.437213,0.596585 0.755952,0.755954 0.22538,0.112689 0.577773,-0.178181 0.755951,0 0.178181,0.178178 -0.178178,0.57777 0,0.755951 0.178181,0.178179 0.530572,-0.112691 0.755952,0 0.318738,0.15937 0.437216,0.596583 0.755954,0.755952 0.22538,0.112691 0.577771,-0.178178 0.755952,0 0.178181,0.178181 -0.178181,0.577773 0,0.755954 0.178181,0.178179 0.577773,-0.178181 0.755951,0 0.178181,0.178179 -0.178178,0.577771 0,0.755952 0.178181,0.178178 0.577774,-0.178181 0.755955,0 0.178178,0.178178 -0.178181,0.577773 0,0.755952 0.178178,0.178181 0.57777,-0.178179 0.755951,0 0,2.015873 -0.251984,-0.251984 0.755952,0.755951 1.564092,1.564093 -2.39014,-0.06114 0.755952,1.511906 0.225382,0.112691 0.577773,-0.178181 0.755954,0 0.178178,0.178178 -0.112692,0.530572 0,0.755952 0.453566,0.907142 1.814286,1.360715 2.267856,2.267857 0.11269,0.225383 -0.17818,0.577773 0,0.755952 0.17818,0.178181 0.57777,-0.178179 0.75595,0 0.50297,0.50297 -0.50297,1.008935 0,1.511906 0.17818,0.178178 0.57778,-0.178181 0.75595,0 0.17819,0.178178 -0.17817,0.577773 0,0.755951 0.17819,0.178181 0.57778,-0.178178 0.75596,0 0.50297,0.502971 -0.50297,1.008936 0,1.511906 0.17818,0.178179 0.57777,-0.178181 0.75595,0 0.35636,0.35636 -0.22538,1.061141 0,1.511903 0.15937,0.318739 0.59658,0.437216 0.75595,0.755955 0.11503,0.23006 0,1.927407 0,2.267857 0,0.251984 0,0.503968 0,0.755952 0,0.251984 -0.17818,0.577773 0,0.755951 0.17818,0.178181 0.57778,-0.178178 0.75595,0 0.17818,0.178181 0.25199,0.755952 0,0.755952 -0.25198,0 0,-0.503968 0,-0.755952 0,-0.183337 -0.0243,-2.243545 0,-2.267857 1.00794,-1.007936 0.75596,1.259922 0.75596,-0.755952 0,-0.277614 -0.0304,-2.99339 0,-3.023809 0.17818,-0.178181 0.57777,0.178179 0.75595,0 0.37798,-0.377976 -0.37798,-1.889881 0,-2.267857 0.17818,-0.178181 0.57777,0.178178 0.75595,0 0.37798,-0.377976 -0.37797,-1.889882 0,-2.267858 0.17818,-0.178178 0.57777,0.178181 0.75595,0 0.37798,-0.377976 -0.37797,-1.889881 0,-2.267857 0.17818,-0.178179 0.57778,0.178181 0.75596,0 0.17818,-0.178179 -0.11269,-0.530572 0,-0.755952 0.15937,-0.318738 0.59658,-0.437216 0.75595,-0.755952 0.22538,-0.450762 -0.35636,-1.155546 0,-1.511905 0.17818,-0.178179 0.57777,0.178181 0.75595,0 0.17818,-0.178179 -0.17818,-0.577774 0,-0.755952 0.17818,-0.178181 0.57777,0.178178 0.75595,0 0.17818,-0.178181 -0.11269,-0.530572 0,-0.755952 0.20187,-0.403743 1.86988,-1.869876 2.26786,-2.267857 0.25199,-0.251984 0.50397,-0.503971 0.75595,-0.755954 0.25199,-0.251984 0.43722,-0.596583 0.75596,-0.755952 0.22538,-0.112691 0.57777,0.178181 0.75595,0 0.17818,-0.178178 -0.17818,-0.577773 0,-0.755952 0.17818,-0.178181 0.53057,0.112692 0.75595,0 0.31874,-0.159369 0.43721,-0.596585 0.75595,-0.755951 0.22538,-0.112692 0.53057,0.112688 0.75595,0 0.31874,-0.159369 0.43722,-0.596585 0.75596,-0.755954 0.45076,-0.225381 1.15554,0.356359 1.5119,0 0.17818,-0.178179 -0.22538,-0.643261 0,-0.755952 0.67615,-0.338071 1.59171,0.338071 2.26786,0 0.31874,-0.159369 0.43721,-0.596583 0.75595,-0.755952 0.47691,-0.238455 3.30286,0.238453 3.77976,0 0.31874,-0.159369 0.43722,-0.596585 0.75596,-0.755954 0.23006,-0.11503 1.9274,0 2.26785,0 2.01587,0 4.03175,0 6.04762,0 2.26786,0 4.53572,0 6.80357,0 0.25199,0 0.50397,0 0.75596,0 0.25198,0 0.57777,-0.178178 0.75595,0 0.17818,0.178181 -0.17818,0.577773 0,0.755954 0.11731,0.117314 1.9737,-0.09805 2.26785,0 0.50397,0.251984 1.00794,0.503968 1.51191,0.755952 0,0.251984 -0.17818,0.577773 0,0.755952 0.35636,0.356359 1.15554,-0.35636 1.5119,0 0.17818,0.178181 -0.17817,0.577773 0,0.755954 0.17818,0.178178 0.57778,-0.178181 0.75596,0 0.17818,0.178178 -0.17818,0.57777 0,0.755951 0.17818,0.178179 0.57777,-0.178181 0.75595,0 0.17818,0.178179 -0.17818,0.577774 0,0.755952 0.17818,0.178181 0.57777,-0.178178 0.75595,0 0.17818,0.178181 -0.17818,0.577773 0,0.755952 0.17818,0.178181 0.50397,0 0.75595,0 0,0.251983 -0.11269,0.530571 0,0.755954 0.15937,0.318735 0.50397,0.503968 0.75596,0.755951 0.44461,0.444609 2.84877,2.673745 3.02381,3.02381 0.11269,0.225382 -0.17818,0.577773 0,0.755951 0.17817,0.178181 0.53057,-0.112688 0.75595,0 0.31874,0.159369 0.50397,0.503971 0.75595,0.755954 0.25198,0.251984 0.55828,0.459444 0.75595,0.755952 0.31255,0.468821 0.44341,1.043083 0.75596,1.511906 0.21361,0.320418 1.95508,2.111468 2.26785,2.267855 0.22538,0.112691 0.57777,-0.178179 0.75595,0 0.17819,0.178181 -0.11269,0.530571 0,0.755954 0.15937,0.318736 0.59659,0.437213 0.75596,0.755952 0.11269,0.22538 -0.17818,0.577773 0,0.755951 0.17818,0.178181 0.57777,-0.178178 0.75595,0 0.17818,0.178181 -0.11269,0.530572 0,0.755955 0.15937,0.318735 0.59658,0.437213 0.75595,0.755951 0.11269,0.22538 -0.17818,0.577773 0,0.755952 0.17818,0.178181 0.57778,-0.178179 0.75595,0 0.23408,0.234079 -0.23407,3.545684 0,3.779763 0.17818,0.178179 0.57778,-0.178181 0.75596,0 0.0304,0.03042 0,2.746195 0,3.023809 0,2.015871 0,4.031745 0,6.047618 0,0.251984 0,0.503973 0,0.755953 0,0.25198 0.17818,0.57777 0,0.75595 -0.17818,0.17818 -0.57778,-0.17818 -0.75596,0 -0.17817,0.17818 0,0.50397 0,0.75595 0,1.25992 0,2.51985 0,3.77977"
       id="path815"
       inkscape:connector-curvature="0" />
    <path
       style="fill:none;stroke:#000000;stroke-width:0.26458332px;stroke-linecap:butt;stroke-linejoin:miter;stroke-opacity:1"
       d="m 29.482142,114.05952 c -4.031746,-1.5119 -7.985336,-3.25137 -12.095237,-4.53571 -0.240514,-0.0752 -0.17818,0.57777 0,0.75595 0.178179,0.17818 0.577772,-0.17818 0.755952,0 0.356359,0.35636 -0.225382,1.06114 0,1.51191 0.159369,0.31873 0.596584,0.43721 0.755952,0.75595 0.225382,0.45076 -0.225381,1.06114 0,1.5119 0.159369,0.31874 0.596584,0.43722 0.755953,0.75596 0.225381,0.45076 -0.225382,1.06114 0,1.5119 0.159368,0.31874 0.596583,0.43721 0.755952,0.75595 0.225382,0.45077 -0.225381,1.06114 0,1.51191 0.159369,0.31873 0.596584,0.43721 0.755952,0.75595 0.225382,0.45076 -0.12223,1.02298 0,1.5119 0.193263,0.77306 0.56269,1.49481 0.755953,2.26786 0.06111,0.24446 -0.17818,0.57777 0,0.75595 0.178179,0.17818 0.577773,-0.17818 0.755952,0 0.35636,0.35636 -0.159369,1.0338 0,1.51191 0.981334,2.944 0.755953,0.0707 0.755953,3.02381 0,2.01587 -0.251985,-0.25199 0.755952,0.75595 0.178179,0.17818 -0.07969,0.5169 0,0.75595 0.178179,0.53454 0.577773,0.97737 0.755952,1.51191 0.159369,0.4781 -0.225381,1.06114 0,1.5119 0.159369,0.31874 0.596584,0.43722 0.755953,0.75595 0.302381,0.60477 -0.302381,1.6631 0,2.26786 0.11269,0.22538 0.577772,-0.17818 0.755952,0 0.154543,0.15455 -0.149864,1.96813 0,2.26786 0.159369,0.31874 0.596582,0.43721 0.755952,0.75595 0.149865,0.29973 -0.154544,2.11331 0,2.26786 0.178181,0.17818 0.577773,-0.17818 0.755954,0 0.377976,0.37797 -0.377979,1.88988 0,2.26786 0.178178,0.17817 0.57777,-0.17818 0.755951,0 0.178179,0.17817 0,0.50396 0,0.75595 0,0.50397 -0.225382,1.06114 0,1.5119 0.112692,0.22538 0.577774,-0.17818 0.755952,0 0.181906,0.18191 -0.181906,2.84191 0,3.02381 0.178181,0.17818 0.577773,-0.17818 0.755952,0 0.377978,0.37798 -0.377976,1.88988 0,2.26786 0.178181,0.17818 0.577773,-0.17818 0.755954,0 0.154543,0.15454 -0.149865,1.96813 0,2.26786 0.159369,0.31873 0.596582,0.43721 0.755952,0.75595 0.302381,0.60476 -0.302382,1.66309 0,2.26785 0.934132,1.86827 0.755951,-0.26093 0.755951,1.51191 0,0.25198 0,0.50397 0,0.75595 0,0.25199 -0.112688,0.53057 0,0.75596 0.159369,0.31873 0.596585,0.43721 0.755954,0.75595 0.149863,0.29973 -0.154545,2.11331 0,2.26786 0.178179,0.17817 0.577771,-0.17819 0.755952,0 0.377976,0.37797 -0.377976,1.88987 0,2.26785 0.178178,0.17818 0.577773,-0.17818 0.755952,0 7.93e-4,8e-4 -0.0011,2.26443 0,2.26786 0.112691,0.33807 0.643263,0.41788 0.755951,0.75595 0.159369,0.47811 -0.159366,1.0338 0,1.5119 0.112692,0.33808 0.558282,0.45945 0.755955,0.75596 0.312547,0.46882 0.57777,0.97736 0.755951,1.5119 0.159369,0.47811 -0.356359,1.15555 0,1.51191 0.178181,0.17818 0.577773,-0.17818 0.755952,0 0.178181,0.17818 -0.112689,0.53057 0,0.75595 0.159369,0.31874 0.596585,0.43721 0.755954,0.75595 0.112689,0.22538 -0.112691,0.53057 0,0.75596 0.159367,0.31873 0.596583,0.43721 0.755952,0.75595 0.112691,0.22538 -0.112692,0.53057 0,0.75595 0.159369,0.31874 0.596582,0.43722 0.755951,0.75595 0.112692,0.22538 -0.178178,0.57777 0,0.75595 0.178181,0.17818 0.577774,-0.17818 0.755952,0 0.356359,0.35636 -0.356359,1.15555 0,1.51191 0.178181,0.17818 0.577773,-0.17818 0.755954,0 0.178179,0.17818 0,0.50397 0,0.75595 0.251984,0 0.577771,-0.17818 0.755952,0 0.356359,0.35636 -0.35636,1.15555 0,1.51191 0.178181,0.17818 0.577773,-0.17818 0.755951,0 0.178181,0.17818 -0.112688,0.53057 0,0.75595 0.15937,0.31874 0.596586,0.43721 0.755955,0.75595 0.112688,0.22538 -0.178181,0.57777 0,0.75595 0.178178,0.17818 0.57777,-0.17818 0.755951,0 0.35636,0.35636 -0.356359,1.15555 0,1.51191 0.178179,0.17818 0.577774,-0.17818 0.755952,0 0.356359,0.35636 -0.356359,1.15554 0,1.5119 0.178181,0.17818 0.577773,-0.17818 0.755952,0 0.356359,0.35636 -0.35636,1.15555 0,1.51191 0.178181,0.17818 0.577773,-0.17818 0.755954,0 0.377976,0.37797 -0.377976,1.88988 0,2.26786 0.178178,0.17817 0.57777,-0.17819 0.755951,0 0.35636,0.35635 -0.225382,1.06114 0,1.5119 0.15937,0.31874 0.596583,0.43721 0.755952,0.75595 0.149865,0.29973 -0.154543,2.11331 0,2.26786 0.178181,0.17818 0.577773,-0.17818 0.755954,0 0.377976,0.37797 -0.377978,1.88988 0,2.26786 0.178179,0.17818 0.577771,-0.17818 0.755952,0 0.377976,0.37797 -0.377976,1.88988 0,2.26785 0.178178,0.17818 0.577773,-0.17818 0.755952,0 0.377975,0.37798 -0.377976,1.88988 0,2.26786 0.178181,0.17818 0.577773,-0.17818 0.755951,0 0.03426,0.0343 0,3.42333 0,3.77976 0,0.25198 -0.178178,0.57777 0,0.75596 0.178181,0.17817 0.577773,-0.17819 0.755954,0 0.377976,0.37797 -0.377975,1.88987 0,2.26785 0.178179,0.17818 0.577771,-0.17818 0.755952,0 0.356359,0.35636 -0.356359,1.15555 0,1.51191 0.178181,0.17817 0.577773,-0.17818 0.755952,0 0.493204,0.4932 -0.493202,1.0187 0,1.5119 0.178181,0.17818 0.577773,-0.17818 0.755954,0 0.251484,0.25149 -0.251487,1.26042 0,1.51191 0.178178,0.17818 0.57777,-0.17818 0.755951,0 0.35636,0.35635 -0.356359,1.15554 0,1.5119 0.178179,0.17818 0.577774,-0.17818 0.755952,0 0.251487,0.25148 -0.251484,1.26042 0,1.5119 0.178181,0.17819 0.577773,-0.17817 0.755952,0 0.377978,0.37798 -0.377976,1.88989 0,2.26786 0.178181,0.17818 0.577773,-0.17818 0.755954,0 0.356359,0.35636 -0.356359,1.15555 0,1.51191 0.178178,0.17818 0.577771,-0.17818 0.755952,0 0.50297,0.50297 -0.502971,1.00893 0,1.5119 0.178181,0.17818 0.577773,-0.17818 0.755951,0 0.35636,0.35636 -0.356359,1.15555 0,1.51191 0.178181,0.17818 0.577773,-0.17818 0.755954,0 0.35636,0.35636 -0.356359,1.15554 0,1.5119 0.234077,0.23408 3.545682,-0.23408 3.779761,0 0.178181,0.17818 -0.178181,0.57777 0,0.75595 0.178181,0.17818 0.503968,0 0.755952,0 0.251984,0 0.503968,0 0.755954,0 2.519841,0 5.03968,0 7.559522,0 6.551588,0 13.103174,0 19.654763,0 0.535821,0 4.340262,0.0977 4.535715,0 1.868262,-0.93413 -0.26094,-0.75595 1.511903,-0.75595 2.519842,0 5.039682,0 7.559522,0 0.39531,0 2.82504,0.0994 3.02381,0 0.31874,-0.15937 0.43722,-0.59658 0.75595,-0.75595 0.22539,-0.11269 0.50397,0 0.75596,0 0.25198,0 0.50396,0 0.75595,0 1.25992,0 2.51984,0 3.77976,0 0.25199,0 0.50397,0 0.75595,0 0.25199,0 0.57777,0.17818 0.75596,0 0.17818,-0.17818 -0.17819,-0.57777 0,-0.75595 0.17818,-0.17818 0.50396,0 0.75595,0 0.318,0 4.31083,0.11243 4.53571,0 0.31874,-0.15937 0.41024,-0.66953 0.75595,-0.75595 0.73339,-0.18335 1.51191,0 2.26786,0 1.76389,0 3.52778,0 5.29167,0 4.03174,0 8.06349,0 12.09524,0 0.27761,0 2.99338,-0.0304 3.02381,0 0.17817,0.17817 -0.17819,0.57777 0,0.75595 0.17817,0.17818 0.50396,0 0.75595,0 0.25198,0 0.50397,0 0.75595,0 2.01587,0 4.03175,0 6.04762,0 0.25198,0 0.50397,0 0.75595,0 0.25199,0 0.57777,0.17818 0.75595,0 0.35636,-0.35636 -0.22538,-1.06115 0,-1.51191 0.15937,-0.31874 0.59659,-0.43721 0.75596,-0.75595 0.14986,-0.29973 -0.15455,-2.11332 0,-2.26786 0.17818,-0.17818 0.57777,0.17818 0.75595,0 0.35636,-0.35636 -0.35636,-1.15554 0,-1.5119 0.17818,-0.17818 0.57777,0.17818 0.75595,0 0.17818,-0.17818 -0.0797,-0.5169 0,-0.75596 0.17818,-0.53453 0.57777,-0.97736 0.75595,-1.5119 0.0797,-0.23905 -0.11269,-0.53057 0,-0.75595 0.15937,-0.31874 0.59659,-0.43722 0.75596,-0.75595 0.11269,-0.22538 -0.0797,-0.5169 0,-0.75596 0.17817,-0.53454 0.57777,-0.97736 0.75595,-1.5119 0.15937,-0.47811 -0.35636,-1.15555 0,-1.51191 0.17818,-0.17818 0.57777,0.17818 0.75595,0 0.17818,-0.17818 -0.0797,-0.5169 0,-0.75595 0.17818,-0.53454 0.57777,-0.97737 0.75595,-1.5119 0.15937,-0.47811 -0.15937,-1.0338 0,-1.51191 0.35636,-1.06908 1.15555,-1.95473 1.51191,-3.02381 0.0797,-0.23905 -0.0797,-0.5169 0,-0.75595 0.17818,-0.53454 0.57777,-0.97737 0.75595,-1.51191 0.0797,-0.23905 -0.11269,-0.53057 0,-0.75595 1.78488,-3.56975 -0.39756,4.61404 1.5119,-3.02381 0.18899,-0.75595 -0.37797,-1.5119 0,-2.26785 0.1127,-0.22539 0.57778,0.17817 0.75596,0 0.11731,-0.11732 -0.0981,-1.9737 0,-2.26786 0.17818,-0.53454 0.57777,-0.97737 0.75595,-1.5119 0.15937,-0.47811 -0.35636,-1.15555 0,-1.51191 0.17818,-0.17818 0.57777,0.17818 0.75595,0 0.0243,-0.0243 0,-2.08452 0,-2.26786 0,-2.01587 -0.25198,0.25199 0.75595,-0.75595 0.16162,-0.16162 -0.13892,-2.60703 0,-3.02381 0.17818,-0.53454 0.57778,-0.97736 0.75596,-1.5119 0.0981,-0.29416 -0.11732,-2.15055 0,-2.26786 0.17818,-0.17818 0.57777,0.17818 0.75595,0 0.16162,-0.16162 -0.13893,-2.60703 0,-3.02381 0.17818,-0.53454 0.57777,-0.97737 0.75595,-1.5119 0.0797,-0.23906 -0.0797,-0.5169 0,-0.75596 0.17818,-0.53454 0.57777,-0.97736 0.75595,-1.5119 0.22679,-0.68036 -0.22678,-1.5875 0,-2.26786 0.17818,-0.53454 0.57778,-0.97736 0.75596,-1.51191 0.13892,-0.41677 -0.16163,-2.86218 0,-3.0238 0.17818,-0.17818 0.57777,0.17818 0.75595,0 0.11731,-0.11732 -0.0981,-1.9737 0,-2.26786 0.17818,-0.53454 0.57777,-0.97737 0.75595,-1.5119 0.0797,-0.23906 -0.0797,-0.51691 0,-0.75596 0.17818,-0.53454 0.57777,-0.97736 0.75595,-1.5119 0.15937,-0.47811 -0.12223,-1.02299 0,-1.51191 0.19327,-0.77305 0.56269,-1.4948 0.75596,-2.26786 0.0611,-0.24445 -0.17818,-0.57777 0,-0.75595 0.17817,-0.17818 0.57777,0.17818 0.75595,0 0.35636,-0.35636 -0.15937,-1.0338 0,-1.5119 0.17818,-0.53454 0.57777,-0.97737 0.75595,-1.51191 0.15937,-0.4781 -0.0988,-1.01772 0,-1.5119 2.0102,-10.05099 -0.37926,0.003 1.51191,-3.77976 0.11269,-0.22539 -0.0797,-0.5169 0,-0.75595 0.17817,-0.53455 0.57777,-0.97737 0.75595,-1.51191 0.22678,-0.68036 -0.22679,-1.5875 0,-2.26786 0.11269,-0.33807 0.50396,-0.50397 0.75595,-0.75595 0,-0.75595 -0.18334,-1.53447 0,-2.26786 0.0864,-0.34572 0.64326,-0.41788 0.75595,-0.75595 0.18235,-0.54704 -0.24919,-2.77462 0,-3.02381 0.17818,-0.17818 0.57777,0.17818 0.75595,0 0.17819,-0.17818 0,-0.50397 0,-0.75595 0,-0.75595 0,-1.51191 0,-2.26786 0,-2.43337 -0.17818,1.29049 0.75596,-1.5119 0.11525,-0.34577 -0.16819,-2.68743 0,-3.02381 0.15937,-0.31874 0.59658,-0.43722 0.75595,-0.75595 0.23756,-0.47514 -0.23757,-2.54868 0,-3.02382 0.15937,-0.31873 0.59658,-0.43721 0.75595,-0.75595 0.14987,-0.29972 -0.15454,-2.11331 0,-2.26785 0.17818,-0.17818 0.57778,0.17818 0.75595,0 0.37798,-0.37798 -0.37797,-1.88988 0,-2.26786 0.17818,-0.17818 0.57778,0.17818 0.75596,0 0.35635,-0.35636 -0.22538,-1.06114 0,-1.51191 0.15936,-0.31873 0.59658,-0.43721 0.75595,-0.75595 0.22538,-0.45076 -0.35636,-1.15554 0,-1.5119 0.17818,-0.17818 0.57777,0.17818 0.75595,0 0.37798,-0.37798 -0.37797,-1.88988 0,-2.26786 0.17818,-0.17818 0.57777,0.17818 0.75595,0 0.35636,-0.35636 -0.35636,-1.15554 0,-1.5119 0.17818,-0.17818 0.57778,0.17817 0.75596,0 0.37797,-0.37798 -0.37798,-1.88989 0,-2.26786 0.17818,-0.17818 0.57777,0.17818 0.75595,0 0.37797,-0.37798 -0.37798,-1.88988 0,-2.26786 0.17818,-0.17818 0.57777,0.17818 0.75595,0 0.17818,-0.17818 0,-0.50397 0,-0.75595 0,-0.25199 0,-0.50397 0,-0.75595 0,-1.25992 0,-2.51985 0,-3.77977 0,-0.25198 0.17818,-0.57777 0,-0.75595 -0.17818,-0.17818 -0.57777,0.17818 -0.75595,0 -0.35636,-0.35636 0.35636,-1.15554 0,-1.511903 -0.17818,-0.178181 -0.57777,0.178179 -0.75595,0 -0.17818,-0.178181 0.17818,-0.577773 0,-0.755951 -0.17818,-0.178181 -0.50397,0 -0.75596,0 -0.27761,0 -2.99338,-0.03042 -3.02381,0 -0.17817,0.178178 0.17818,0.57777 0,0.755951 -0.37797,0.377973 -1.88988,-0.377975 -2.26785,0 -0.17818,0.178179 0.17818,0.577773 0,0.755953 -0.15455,0.15454 -1.96813,-0.14986 -2.26786,0 -0.31874,0.15937 -0.43721,0.59658 -0.75595,0.75595 -0.4101,0.20505 -2.81697,-0.20684 -3.02381,0 -0.17818,0.17818 0.17818,0.57777 0,0.75595 -0.0243,0.0243 -2.08452,0 -2.26786,0 -0.25198,0 -0.50397,0 -0.75595,0 -0.25199,0 -0.57777,-0.17818 -0.75595,0 -0.17818,0.17818 0.17818,0.57778 0,0.75596 -0.37798,0.37797 -1.88988,-0.37798 -2.26786,0 -1.00794,1.00793 1.25992,0.75595 -0.75595,0.75595 -0.18334,0 -2.24355,-0.0243 -2.26786,0 -0.17818,0.17818 0.17818,0.57777 0,0.75595 -0.26978,0.26978 -2.2145,-0.4684 -1.51191,0 0.93765,0.6251 2.01587,1.00794 3.02381,1.51191"
       id="path819"
       inkscape:connector-curvature="0" />
    <path
       style="fill:none;stroke:#000000;stroke-width:0.26458332px;stroke-linecap:butt;stroke-linejoin:miter;stroke-opacity:1"
       d="M 29.482142,114.05952 69.547617,138.25 c -2.546402,-11.48343 3.934692,-0.91088 5.291669,-2.26786 0.178179,-0.17818 -0.17818,-0.57777 0,-0.75595 0.178179,-0.17818 0.530571,0.11269 0.755952,0 0.318738,-0.15937 0.437215,-0.59658 0.755952,-0.75595 0.225382,-0.11269 0.577773,0.17818 0.755953,0 0.17818,-0.17818 -0.17818,-0.57777 0,-0.75595 0.356359,-0.35636 1.155545,0.35636 1.511905,0 0.178179,-0.17818 -0.17818,-0.57778 0,-0.75596 0.356359,-0.35636 1.155545,0.35636 1.511904,0 0.17818,-0.17818 -0.178179,-0.57777 0,-0.75595 0.17818,-0.17818 0.577773,0.17818 0.755953,0 0.178179,-0.17818 -0.17818,-0.57777 0,-0.75595 0.356359,-0.35636 1.155545,0.35636 1.511905,0 0.178179,-0.17818 -0.17818,-0.57777 0,-0.75595 0.178179,-0.17818 0.577772,0.17818 0.755952,0 0.17818,-0.17818 -0.17818,-0.57778 0,-0.75596 0.17818,-0.17818 0.530571,0.11269 0.755952,0 0.318738,-0.15936 0.437215,-0.59658 0.755953,-0.75595 0.225381,-0.11269 0.577772,0.17818 0.755952,0 0.17818,-0.17818 -0.17818,-0.57777 0,-0.75595 0.17818,-0.17818 0.577773,0.17818 0.755952,0 0.17818,-0.17818 -0.178179,-0.57777 0,-0.75595 0.17818,-0.17818 0.577773,0.17818 0.755953,0 0.178179,-0.17818 -0.17818,-0.57778 0,-0.75596 0.178179,-0.17818 0.577773,0.17818 0.755952,0 0.17818,-0.17818 -0.178179,-0.57777 0,-0.75595 0.17818,-0.17818 0.577773,0.17818 0.755953,0 0.178179,-0.17818 -0.17818,-0.57777 0,-0.75595 0.178179,-0.17818 0.577772,0.17818 0.755952,0 0.17818,-0.17818 -0.17818,-0.57777 0,-0.75595 0.17818,-0.17818 0.577773,0.17818 0.755952,0 0.17818,-0.17818 -0.178179,-0.57778 0,-0.75596 0.17818,-0.17817 0.577773,0.17818 0.755953,0 0.178179,-0.17817 -0.17818,-0.57777 0,-0.75595 0.178179,-0.17818 0.503968,0 0.755952,0 0,-0.25198 -0.112691,-0.53057 0,-0.75595 0.835726,-1.67145 0.469177,-0.23459 1.511905,-0.75595 3.146093,-1.57305 -0.80814,0.0522 0.755952,-1.51191 0.17818,-0.17818 0.577773,0.17818 0.755953,0 1.564092,-1.56409 -2.390141,0.0611 0.755952,-1.5119 0.225381,-0.11269 0.577773,0.17818 0.755952,0 0.17818,-0.17818 -0.178179,-0.57777 0,-0.75595 0.17818,-0.17818 0.577773,0.17818 0.755953,0 0.178179,-0.17818 -0.17818,-0.57778 0,-0.75596 0.178179,-0.17818 0.530571,0.11269 0.755952,0 0.637475,-0.31873 0.87443,-1.19316 1.511905,-1.5119 0.225381,-0.11269 0.577773,0.17818 0.755952,0 0.17818,-0.17818 -0.178179,-0.57777 0,-0.75595 0.17818,-0.17818 0.577776,0.17818 0.755956,0 0.17818,-0.17818 -0.17818,-0.57778 0,-0.75596 0.35636,-0.35636 1.15554,0.35636 1.5119,0 0.17818,-0.17818 -0.17818,-0.57777 0,-0.75595 0.50297,-0.50297 1.00894,0.50297 1.51191,0 0.17818,-0.17818 -0.17818,-0.57777 0,-0.75595 0.17818,-0.17818 0.50396,0 0.75595,0 0.35643,0 3.7455,-0.0343 3.77976,0 0.17818,0.17818 -0.17818,0.57777 0,0.75595 0.0304,0.0304 2.7462,0 3.02381,0 0.27761,0 2.99339,0.0304 3.02381,0 0.17818,-0.17818 -0.17818,-0.57777 0,-0.75595 0.0304,-0.0304 2.7462,0 3.02381,0 3.02381,0 6.04762,0 9.07143,0 0.25198,0 0.50397,0 0.75595,0 0.25198,0 0.57777,0.17818 0.75595,0 0.17818,-0.17818 -0.17818,-0.57777 0,-0.75595 0.0343,-0.0343 3.42333,0 3.77976,0 0.25199,0 0.57778,0.17818 0.75596,0 0.17818,-0.17818 -0.17818,-0.57778 0,-0.75596 0.1819,-0.1819 2.8419,0.18191 3.02381,0 0.17818,-0.17818 -0.17818,-0.57777 0,-0.75595 0.20684,-0.20684 2.61371,0.20505 3.02381,0 0.31873,-0.15937 0.43721,-0.59658 0.75595,-0.75595 0.29973,-0.14986 2.11331,0.15454 2.26786,0 0.17817,-0.17818 -0.17818,-0.57777 0,-0.75595 0.1819,-0.18191 2.8419,0.1819 3.0238,0 0.17818,-0.17818 -0.17817,-0.57778 0,-0.75596 0.15455,-0.15454 1.96813,0.14987 2.26786,0 0.31874,-0.15936 0.43722,-0.59658 0.75595,-0.75595 0.23007,-0.11503 1.92741,0 2.26786,0 1.76389,0 3.52778,0 5.29167,0 1.5119,0 3.02381,0 4.53571,0 0.25199,0 0.57778,0.17818 0.75595,0 0.17818,-0.17818 -0.17817,-0.57777 0,-0.75595 0.35636,-0.35636 1.15555,0.35636 1.51191,0 0.17818,-0.17818 -0.17818,-0.57777 0,-0.75595 2.01587,0 -0.25198,0.25198 0.75595,-0.75595 0.35636,-0.35636 1.15555,0.35635 1.51191,0 0.17818,-0.17818 -0.17818,-0.57778 0,-0.75596 0.17818,-0.17818 0.50396,0 0.75595,0 1.46867,0 0.57777,-0.17818 2.26785,1.51191"
       id="path821"
       inkscape:connector-curvature="0" />
    <path
       style="fill:none;stroke:#000000;stroke-width:0.26458332px;stroke-linecap:butt;stroke-linejoin:miter;stroke-opacity:1"
       d="m 46.869048,67.190476 c 3.186252,-0.606044 0.18134,-2.630537 0.755951,-3.779763 0.15937,-0.318738 0.596583,-0.437213 0.755952,-0.755952 0.112691,-0.225382 -0.112689,-0.530571 0,-0.755951 0.159369,-0.318739 0.596585,-0.437216 0.755954,-0.755955 0.112689,-0.22538 -0.178181,-0.57777 0,-0.755951 0.178179,-0.178179 0.577771,0.178181 0.755952,0 0.178178,-0.178179 -0.112691,-0.530572 0,-0.755952 0.159369,-0.318738 0.596582,-0.437216 0.755952,-0.755951 0.112691,-0.225383 -0.112692,-0.530572 0,-0.755955 2.507178,-2.507178 -0.35636,0.712719 0.755951,-1.511903 0.159369,-0.318738 0.596585,-0.437216 0.755954,-0.755954 0.112689,-0.22538 -0.112691,-0.530569 0,-0.755952 0.318736,-0.637474 1.193168,-0.874429 1.511904,-1.511903 0.112691,-0.225383 -0.112689,-0.530572 0,-0.755954 0.159369,-0.318739 0.596585,-0.437214 0.755954,-0.755952 0.112689,-0.225383 -0.178181,-0.577773 0,-0.755952 0.178178,-0.178181 0.57777,0.178179 0.755951,0 0.398423,-0.398422 0.443405,-1.043082 0.755952,-1.511905 0.197673,-0.296508 0.596585,-0.437214 0.755952,-0.755952 0.112691,-0.225383 -0.178179,-0.577773 0,-0.755952 0.178181,-0.178181 0.577773,0.178179 0.755954,0 0.178178,-0.178181 -0.178181,-0.577773 0,-0.755954 0.178178,-0.178178 0.577771,0.178181 0.755952,0 1.564092,-1.564092 -2.39014,0.06114 0.755951,-1.511903 0.225383,-0.112691 0.577773,0.178178 0.755954,0 1.564093,-1.564092 -2.390142,0.06114 0.755952,-1.511906 0.22538,-0.112691 0.577773,0.178181 0.755952,0 0.178181,-0.178178 -0.178179,-0.577773 0,-0.755952 0.178181,-0.178181 0.530571,0.112692 0.755951,0 1.172308,-0.586155 0.339598,-0.92575 1.511906,-1.511905 0.225383,-0.112692 0.530572,0.112691 0.755952,0 0.318738,-0.15937 0.437216,-0.596583 0.755954,-0.755952 0.22538,-0.112691 0.530569,0.112691 0.755952,0 0.318738,-0.159369 0.437213,-0.596583 0.755951,-0.755952 0.450763,-0.225382 1.155547,0.35636 1.511906,0 0.178179,-0.178181 -0.178181,-0.577773 0,-0.755954 0.154543,-0.154543 1.968127,0.149865 2.267858,0 0.318735,-0.159366 0.437213,-0.596582 0.755951,-0.755952 0.22538,-0.112691 0.503968,0 0.755952,0 0.251984,0 0.503968,0 0.755952,0 1.259922,0 2.519841,0 3.779763,0 2.015874,0 4.031744,0 6.047618,0 0.251984,0 0.577773,-0.178178 0.755952,0 0.178181,0.178181 -0.178179,0.577774 0,0.755952 0.50297,0.50297 1.008935,-0.50297 1.511906,0 0.178181,0.178181 -0.178181,0.577773 0,0.755954 0.356359,0.35636 1.155546,-0.356359 1.511905,0 0.178179,0.178179 -0.178181,0.577771 0,0.755952 0.178179,0.178178 0.530569,-0.112691 0.755952,0 0.200713,0.100356 2.167501,2.067144 2.267858,2.267857 0.112688,0.22538 -0.178181,0.577774 0,0.755952 0.178178,0.178181 0.57777,-0.178178 0.755951,0 0.178181,0.178181 -0.112691,0.530572 0,0.755952 0.159369,0.318738 0.596583,0.437216 0.755952,0.755954 0.112691,0.22538 -0.112689,0.530569 0,0.755951 0.159369,0.318739 0.596585,0.437214 0.755954,0.755952 0.22538,0.450763 -0.356359,1.155547 0,1.511906 0.178178,0.178178 0.577771,-0.178181 0.755952,0 0.377975,0.377976 -0.377976,1.889882 0,2.267857 0.178178,0.178179 0.577773,-0.178181 0.755951,0 0.181907,0.181904 -0.181906,2.841903 0,3.02381 0.178181,0.178178 0.577774,-0.178181 0.755952,0 0.02431,0.02432 0,2.084517 0,2.267857 0,1.763887 0,3.527777 0,5.291667 0,0.251984 0.178181,0.57777 0,0.755951 -0.178178,0.178179 -0.577771,-0.178181 -0.755952,0 -0.178178,0.178179 0.112692,0.530572 0,0.755952 -0.159369,0.318738 -0.596582,0.437216 -0.755951,0.755954 -0.112692,0.22538 0.178178,0.577771 0,0.755952 -0.178181,0.178178 -0.577774,-0.178181 -0.755952,0 -0.377978,0.377976 0.377976,1.889881 0,2.267857 -1.007938,1.007936 -0.755954,-1.259922 -0.755954,0.755952 0,0.745154 0,2.257057 0,1.511906 0,-0.503971 0,-1.007938 0,-1.511906 0,-0.251984 0,1.007935 0,0.755952 0,-0.503968 -0.22538,-1.061141 0,-1.511904 0.112691,-0.225382 0.577773,0.178179 0.755954,0 0.178178,-0.178181 -0.178181,-0.577773 0,-0.755954 0.178178,-0.178178 0.577771,0.178181 0.755952,0 0.356359,-0.356359 -0.35636,-1.155544 0,-1.511903 0.178178,-0.178181 0.577773,0.178178 0.755951,0 0.178181,-0.178181 -0.112691,-0.530572 0,-0.755952 0.318739,-0.637476 1.193168,-0.874432 1.511906,-1.511906 0.112689,-0.225382 -0.112691,-0.530571 0,-0.755951 0.318736,-0.637477 1.193168,-0.87443 1.511903,-1.511906 0.112692,-0.22538 -0.178178,-0.577773 0,-0.755952 2.015874,0 -0.251983,0.251984 0.755955,-0.755951 0.178178,-0.178181 0.57777,0.178178 0.755951,0 0.178179,-0.178181 -0.112691,-0.530572 0,-0.755955 1.244082,-2.488162 0.267822,0.97626 1.511904,-1.511903 0.112691,-0.225383 -0.178179,-0.577773 0,-0.755954 0.178181,-0.178179 0.577773,0.178181 0.755954,0 0.178178,-0.178179 -0.178181,-0.577771 0,-0.755952 0.178178,-0.178178 0.577766,0.178181 0.755956,0 0.17818,-0.178178 -0.13978,-0.546288 0,-0.755951 0.37272,-0.559091 2.71287,-2.401946 3.0238,-3.02381 0.1127,-0.225382 -0.17817,-0.577773 0,-0.755954 0.17819,-0.178178 0.53058,0.112692 0.75596,0 3.14609,-1.573046 -0.80814,0.05219 0.75595,-1.511903 0.17818,-0.178181 0.54629,0.139774 0.75595,0 0.59302,-0.395346 1.00794,-1.007938 1.51191,-1.511906 0.25198,-0.251984 0.59658,-0.437213 0.75595,-0.755952 0.11269,-0.225382 -0.17818,-0.577773 0,-0.755951 0.17818,-0.178181 0.53057,0.112689 0.75595,0 0.31874,-0.159369 0.43722,-0.596585 0.75595,-0.755954 0.22539,-0.112689 0.57778,0.178181 0.75596,0 0.17818,-0.178179 -0.17818,-0.577771 0,-0.755952 0.39842,-0.398423 1.04308,-0.443405 1.5119,-0.755952 0.29651,-0.197672 0.43722,-0.596585 0.75595,-0.755951 0.45077,-0.225383 1.15555,0.356359 1.51191,0 0.17818,-0.178181 -0.17818,-0.577773 0,-0.755954 0.17818,-0.178179 0.50397,0 0.75595,0 0.25199,0 0.50397,0 0.75595,0 1.76389,0 3.52778,0 5.29167,0 0.25198,0 0.57777,-0.178179 0.75595,0 0.17818,0.178181 0,0.503967 0,0.755954 0.25199,0 0.57778,-0.178181 0.75595,0 0.17818,0.178178 -0.17817,0.57777 0,0.755951 0.17818,0.178179 0.57778,-0.178181 0.75596,0 0.17818,0.178179 -0.17818,0.577774 0,0.755952 0.17818,0.178181 0.57777,-0.178178 0.75595,0 0.17818,0.178181 -0.17818,0.577773 0,0.755952 0.17818,0.178181 0.57777,-0.178179 0.75595,0 0.17818,0.178181 -0.17818,0.577773 0,0.755954 0.17818,0.178178 0.57777,-0.178181 0.75595,0 0.17818,0.178178 -0.11269,0.530569 0,0.755951 0.15937,0.318739 0.59659,0.437214 0.75596,0.755952 0.11269,0.225383 0,0.503968 0,0.755954 0.25198,0.251984 0.59658,0.437214 0.75595,0.755952 0.22538,0.450763 -0.35636,1.155544 0,1.511903 0.17818,0.178181 0.57777,-0.178178 0.75595,0 0.15455,0.154546 -0.14986,1.96813 0,2.267858 0.15937,0.318738 0.59659,0.437216 0.75595,0.755954 0.30238,0.604761 -0.30238,1.663094 0,2.267855 0.15937,0.318738 0.64326,0.41788 0.75596,0.755954 10e-4,0.0034 -8e-4,2.267135 0,2.267858 0.17817,0.178178 0.57777,-0.178181 0.75595,0 0.15454,0.154543 -0.14987,1.968126 0,2.267854 0.15937,0.318739 0.59658,0.437216 0.75595,0.755955 0.30238,0.60476 -0.30238,1.663094 0,2.267857 0.15937,0.318736 0.59658,0.437214 0.75595,0.755952 0.0994,0.198771 0,2.628506 0,3.023809 0,0.183338 -0.0243,2.243545 0,2.267857 0.17818,0.178179 0.50397,0 0.75596,0"
       id="path823"
       inkscape:connector-curvature="0" />
  </g>
</svg>
