<?xml version="1.0" encoding="UTF-8" standalone="no"?>
<!-- Created with Inkscape (http://www.inkscape.org/) -->

<svg
   xmlns:dc="http://purl.org/dc/elements/1.1/"
   xmlns:cc="http://creativecommons.org/ns#"
   xmlns:rdf="http://www.w3.org/1999/02/22-rdf-syntax-ns#"
   xmlns:svg="http://www.w3.org/2000/svg"
   xmlns="http://www.w3.org/2000/svg"
   xmlns:sodipodi="http://sodipodi.sourceforge.net/DTD/sodipodi-0.dtd"
   xmlns:inkscape="http://www.inkscape.org/namespaces/inkscape"
   width="210mm"
   height="297mm"
   viewBox="0 0 210 297"
   version="1.1"
   id="svg8"
   inkscape:version="0.92.4 (5da689c313, 2019-01-14)"
   sodipodi:docname="vonkansmuffin.svg">
  <defs
     id="defs2">
    <inkscape:path-effect
       effect="bspline"
       id="path-effect5671"
       is_visible="true"
       weight="33.333333"
       steps="2"
       helper_size="0"
       apply_no_weight="true"
       apply_with_weight="true"
       only_selected="false" />
    <inkscape:path-effect
       effect="bspline"
       id="path-effect5667"
       is_visible="true"
       weight="33.333333"
       steps="2"
       helper_size="0"
       apply_no_weight="true"
       apply_with_weight="true"
       only_selected="false" />
    <inkscape:path-effect
       effect="bspline"
       id="path-effect5663"
       is_visible="true"
       weight="33.333333"
       steps="2"
       helper_size="0"
       apply_no_weight="true"
       apply_with_weight="true"
       only_selected="false" />
    <inkscape:path-effect
       effect="bspline"
       id="path-effect5659"
       is_visible="true"
       weight="33.333333"
       steps="2"
       helper_size="0"
       apply_no_weight="true"
       apply_with_weight="true"
       only_selected="false" />
    <inkscape:path-effect
       effect="bspline"
       id="path-effect5655"
       is_visible="true"
       weight="33.333333"
       steps="2"
       helper_size="0"
       apply_no_weight="true"
       apply_with_weight="true"
       only_selected="false" />
    <inkscape:path-effect
       effect="bspline"
       id="path-effect5651"
       is_visible="true"
       weight="33.333333"
       steps="2"
       helper_size="0"
       apply_no_weight="true"
       apply_with_weight="true"
       only_selected="false" />
    <inkscape:path-effect
       effect="bspline"
       id="path-effect5647"
       is_visible="true"
       weight="33.333333"
       steps="2"
       helper_size="0"
       apply_no_weight="true"
       apply_with_weight="true"
       only_selected="false" />
    <inkscape:path-effect
       effect="bspline"
       id="path-effect5639"
       is_visible="true"
       weight="33.333333"
       steps="2"
       helper_size="0"
       apply_no_weight="true"
       apply_with_weight="true"
       only_selected="false" />
    <inkscape:path-effect
       effect="bspline"
       id="path-effect5635"
       is_visible="true"
       weight="33.333333"
       steps="2"
       helper_size="0"
       apply_no_weight="true"
       apply_with_weight="true"
       only_selected="false" />
    <inkscape:path-effect
       effect="bspline"
       id="path-effect5631"
       is_visible="true"
       weight="33.333333"
       steps="2"
       helper_size="0"
       apply_no_weight="true"
       apply_with_weight="true"
       only_selected="false" />
    <inkscape:path-effect
       effect="bspline"
       id="path-effect5627"
       is_visible="true"
       weight="33.333333"
       steps="2"
       helper_size="0"
       apply_no_weight="true"
       apply_with_weight="true"
       only_selected="false" />
    <inkscape:path-effect
       effect="bspline"
       id="path-effect5623"
       is_visible="true"
       weight="33.333333"
       steps="2"
       helper_size="0"
       apply_no_weight="true"
       apply_with_weight="true"
       only_selected="false" />
    <inkscape:path-effect
       effect="bspline"
       id="path-effect5619"
       is_visible="true"
       weight="33.333333"
       steps="2"
       helper_size="0"
       apply_no_weight="true"
       apply_with_weight="true"
       only_selected="false" />
    <inkscape:path-effect
       effect="bspline"
       id="path-effect5615"
       is_visible="true"
       weight="33.333333"
       steps="2"
       helper_size="0"
       apply_no_weight="true"
       apply_with_weight="true"
       only_selected="false" />
    <inkscape:path-effect
       effect="bspline"
       id="path-effect5611"
       is_visible="true"
       weight="33.333333"
       steps="2"
       helper_size="0"
       apply_no_weight="true"
       apply_with_weight="true"
       only_selected="false" />
    <inkscape:path-effect
       effect="bspline"
       id="path-effect5607"
       is_visible="true"
       weight="33.333333"
       steps="2"
       helper_size="0"
       apply_no_weight="true"
       apply_with_weight="true"
       only_selected="false" />
    <inkscape:path-effect
       effect="bspline"
       id="path-effect5603"
       is_visible="true"
       weight="33.333333"
       steps="2"
       helper_size="0"
       apply_no_weight="true"
       apply_with_weight="true"
       only_selected="false" />
    <inkscape:path-effect
       effect="bspline"
       id="path-effect1805"
       is_visible="true"
       weight="33.333333"
       steps="2"
       helper_size="0"
       apply_no_weight="true"
       apply_with_weight="true"
       only_selected="false" />
    <inkscape:path-effect
       effect="bspline"
       id="path-effect1795"
       is_visible="true"
       weight="33.333333"
       steps="2"
       helper_size="0"
       apply_no_weight="true"
       apply_with_weight="true"
       only_selected="false" />
    <inkscape:perspective
       sodipodi:type="inkscape:persp3d"
       inkscape:vp_x="0 : 148.5 : 1"
       inkscape:vp_y="0 : 1000 : 0"
       inkscape:vp_z="210 : 148.5 : 1"
       inkscape:persp3d-origin="105 : 99 : 1"
       id="perspective815" />
  </defs>
  <sodipodi:namedview
     id="base"
     pagecolor="#ffffff"
     bordercolor="#666666"
     borderopacity="1.0"
     inkscape:pageopacity="0.0"
     inkscape:pageshadow="2"
     inkscape:zoom="0.35"
     inkscape:cx="-75.714286"
     inkscape:cy="560"
     inkscape:document-units="mm"
     inkscape:current-layer="layer1"
     showgrid="false"
     inkscape:window-width="1920"
     inkscape:window-height="1017"
     inkscape:window-x="-8"
     inkscape:window-y="-8"
     inkscape:window-maximized="1" />
  <metadata
     id="metadata5">
    <rdf:RDF>
      <cc:Work
         rdf:about="">
        <dc:format>image/svg+xml</dc:format>
        <dc:type
           rdf:resource="http://purl.org/dc/dcmitype/StillImage" />
        <dc:title></dc:title>
      </cc:Work>
    </rdf:RDF>
  </metadata>
  <g
     inkscape:label="Layer 1"
     inkscape:groupmode="layer"
     id="layer1">
    <path
       style="fill:none;stroke:#000000;stroke-width:0.26458332px;stroke-linecap:butt;stroke-linejoin:miter;stroke-opacity:1"
       d="m 22.678571,139.7619 170.845239,-3.77976 -44.60119,111.88095 -86.934527,4.53572 z"
       id="path1797"
       inkscape:connector-curvature="0" />
    <path
       style="fill:#2b0000;stroke:#000000;stroke-width:0.26458332px;stroke-linecap:butt;stroke-linejoin:miter;stroke-opacity:1"
       d="M 22.678571,139.7619 C 46.617176,71.977851 70.555668,4.1941243 99.029714,3.5641141 127.50376,2.9341039 160.51384,69.458223 193.52381,135.98214"
       id="path1803"
       inkscape:connector-curvature="0"
       inkscape:path-effect="#path-effect1805"
       inkscape:original-d="M 22.678571,139.7619 C 46.617328,71.977905 70.55582,4.1941781 94.494047,-63.589285 127.50408,2.933945 160.51415,69.458067 193.52381,135.98214" />
    <path
       style="opacity:1;fill:#280b0b;fill-opacity:1;stroke:#470000;stroke-width:0.26499999;stroke-miterlimit:4;stroke-dasharray:none;stroke-opacity:1"
       id="path5575"
       d="m 34.198335,138.03667 c -0.730854,-1.88514 -1.375532,-3.78704 -1.783845,-5.76881 -0.211063,-1.46081 -0.662284,-2.86488 -0.896969,-4.32217 -0.198914,-1.45866 -0.214847,-2.93325 -0.230664,-4.40276 -0.05647,-1.35151 0.175911,-2.69467 0.65527,-3.95602 0.332594,-1.10317 0.941432,-2.05247 1.564833,-3.00437 0.530624,-0.96375 1.15548,-1.87954 1.898531,-2.69172 0.707358,-0.80469 1.439373,-1.5973 2.226693,-2.32565 0.806723,-0.72577 1.437558,-1.58132 2.045031,-2.47498 0.710994,-0.82321 1.184132,-1.80804 1.851874,-2.66414 0.560742,-0.92819 1.187014,-1.80843 1.807017,-2.6971 0.514591,-0.97795 1.247389,-1.80883 1.796185,-2.76356 0.625203,-0.89197 1.204468,-1.808345 1.809647,-2.712818 0.66281,-1.059026 1.285412,-2.142167 2.064943,-3.121236 0.60873,-0.950026 1.252339,-1.869453 1.925333,-2.775011 0.771851,-0.859033 1.562989,-1.689145 2.23619,-2.630712 0.680593,-0.958901 1.473557,-1.822744 2.237364,-2.712771 0.804024,-0.725154 1.31209,-1.693669 1.992588,-2.524233 0.6756,-0.899107 1.487672,-1.677501 2.198057,-2.548816 0.701974,-0.969735 1.418535,-1.93539 2.240209,-2.807734 0.851466,-0.840754 1.556583,-1.796783 2.291704,-2.736401 0.655291,-0.944208 1.507654,-1.722426 2.133804,-2.685393 0.578893,-0.912278 1.302324,-1.709669 1.97575,-2.548441 0.587377,-0.91767 1.207352,-1.820717 1.945801,-2.624029 0.799031,-0.930867 1.452618,-1.971161 2.245339,-2.906834 0.704575,-0.852151 1.444657,-1.684432 2.249466,-2.443993 0.751205,-0.759561 1.479984,-1.545862 2.266932,-2.269347 0.756139,-0.753933 1.482494,-1.541127 2.268108,-2.26513 0.755672,-0.755152 1.482082,-1.543071 2.26789,-2.267661 0.755562,-0.755317 1.482016,-1.543267 2.267855,-2.267887 0.755562,-0.755309 1.482018,-1.543248 2.267854,-2.267863 0.772679,-0.864769 1.672445,-1.59971 2.476717,-2.432886 0.810795,-0.827667 1.646436,-1.633712 2.429971,-2.487462 0.754718,-0.76672 1.543973,-1.501272 2.274988,-2.291093 0.822375,-0.690618 1.324147,-1.656008 1.997604,-2.477606 0.624205,-0.908999 1.085522,-1.955498 1.440003,-3.000115 0.430508,-1.149697 0.816718,-2.283566 1.004739,-3.50038 0.170643,-1.437732 0.171169,-2.888374 0.17985,-4.33406 0.13062,-1.362226 -0.179744,-2.667129 -0.422201,-3.993404 -0.08885,-1.291533 -0.474829,-2.520815 -0.742701,-3.779149 -0.113088,-1.28784 -0.494567,-2.517906 -0.760492,-3.776614 C 95.784732,18.487479 95.404531,17.256302 95.139154,15.996735 95.028804,14.707782 94.648614,13.47655 94.38324,12.216936 93.9934,11.117128 93.706896,9.9903543 93.289495,8.9009965 92.977223,8.1175131 92.868852,7.2804538 92.63844,6.4742684 c 0,0 9.85919,-5.3957968 9.85919,-5.3957968 v 0 c 0.24818,0.7779446 0.3385,1.5838812 0.6152,2.3546376 0.44244,1.1489817 0.74423,2.3314305 1.17582,3.4859182 0.24298,1.2657783 0.68064,2.4847806 0.75591,3.7797926 0.24294,1.265557 0.68054,2.484316 0.75621,3.779048 0.24332,1.264353 0.68179,2.481544 0.75968,3.774929 0.24747,1.273536 0.69303,2.499934 0.75441,3.805677 0.23831,1.389977 0.63813,2.752232 0.50047,4.179279 -0.002,1.483606 0.003,2.969413 -0.1077,4.449847 -0.12377,1.25658 -0.29721,2.521675 -0.92488,3.641465 -0.26372,1.19683 -0.80548,2.244778 -1.25765,3.372197 -0.61114,0.912053 -1.36183,1.717672 -1.91417,2.673686 -0.84831,0.657627 -1.52939,1.524749 -2.28087,2.284193 -0.90739,0.720508 -1.635204,1.662189 -2.442432,2.488848 -0.871617,0.741622 -1.60805,1.631804 -2.494026,2.352471 -0.660932,0.838258 -1.509085,1.524974 -2.267857,2.26786 -0.660935,0.838261 -1.509089,1.524984 -2.267858,2.267881 -0.660908,0.838245 -1.509022,1.524985 -2.267807,2.267816 -0.660646,0.837845 -1.508501,1.524357 -2.267609,2.266095 -0.661284,0.837369 -1.510676,1.521817 -2.270109,2.263447 -0.680691,0.861224 -1.554348,1.554596 -2.291268,2.367058 -0.715462,0.997434 -1.578359,1.879031 -2.225812,2.930472 -0.633513,0.859565 -1.440593,1.570712 -2.007328,2.486967 -0.489495,1.015449 -1.377222,1.668753 -1.938486,2.634697 -0.739224,0.871926 -1.242803,1.928918 -2.152449,2.672445 -0.651253,0.995166 -1.358897,2.021975 -2.246585,2.815997 -0.716732,0.942033 -1.612198,1.734772 -2.294474,2.71117 -0.575974,0.983879 -1.345711,1.807606 -2.16862,2.57811 -0.61581,0.916271 -1.371696,1.725663 -1.925029,2.689037 -0.892101,0.723882 -1.609336,1.68452 -2.301505,2.592594 -0.542168,0.601554 -0.893865,1.342123 -1.461809,1.925487 -0.120031,0.12329 -0.283729,0.198755 -0.402323,0.323426 -0.127236,0.13376 -0.21938,0.296977 -0.32907,0.445466 -0.832491,0.722228 -1.458207,1.711539 -1.978055,2.673326 -0.705252,1.007473 -1.545658,1.908485 -2.100691,3.02246 -0.538228,0.966663 -1.162544,1.859108 -1.787035,2.761927 -0.676066,0.840986 -1.094825,1.870414 -1.83796,2.673728 -0.460658,1.033314 -1.318985,1.767354 -1.752756,2.814554 -0.606692,0.91634 -1.347658,1.72686 -1.82073,2.73468 -0.785244,0.76996 -1.122627,1.87436 -2.021502,2.5299 -0.66105,0.83445 -1.509376,1.51048 -2.251744,2.26723 -0.634555,0.85661 -1.445858,1.56079 -1.989333,2.49283 -0.455811,1.0287 -1.325714,1.78722 -1.618996,2.89478 -0.489747,1.13473 -0.939522,2.3043 -0.872792,3.57039 0.0093,1.42066 0.01339,2.84517 0.167788,4.25916 0.198377,1.45425 0.654434,2.84598 0.839245,4.29997 0.347465,1.95984 0.930233,3.85398 1.775968,5.66025 0,0 -9.860676,5.375 -9.860676,5.375 z"
       inkscape:connector-curvature="0" />
    <path
       style="opacity:1;fill:#280b0b;fill-opacity:1;stroke:#470000;stroke-width:0.26499999;stroke-miterlimit:4;stroke-dasharray:none;stroke-opacity:1"
       id="path5577"
       d="m 46.23975,138.85359 c -0.793899,-1.89683 -1.551829,-3.81603 -2.367876,-5.70457 -0.598434,-1.37899 -1.041244,-2.82607 -1.445956,-4.27295 -0.215519,-1.36173 -0.649893,-2.66881 -0.949467,-4.01135 -0.282274,-1.42984 -0.321448,-2.89036 -0.35264,-4.34275 -0.0208,-1.51105 -0.01429,-3.02231 -0.01177,-4.53346 0.01558,-1.47736 -0.0768,-2.95474 0.162759,-4.4175 0.29024,-1.31173 0.884817,-2.51358 1.678122,-3.5894 0.714335,-1.04405 1.757868,-1.79069 2.763629,-2.53235 0.836064,-0.7847 1.875091,-1.28587 2.76937,-1.99352 19.916192,-11.588849 7.330762,-4.247037 0.93309,-0.59345 -0.160904,0.0919 0.299688,-0.21929 0.460467,-0.31139 3.379277,-1.93578 6.727121,-3.929244 10.158307,-5.771456 3.103009,-1.66601 -12.1763,7.083126 -9.173461,5.242696 3.316128,-2.032454 6.742488,-3.879325 10.113729,-5.818985 -3.05712,1.760971 -6.103871,3.540064 -9.171363,5.282905 -0.158806,0.0902 0.28466,-0.2312 0.442344,-0.32338 3.360274,-1.964193 6.780871,-3.825936 10.10894,-5.84422 3.01366,-1.827612 -6.10421,3.525374 -9.165476,5.27207 0.608473,-0.4029 0.304284,-0.21196 0.91172,-0.57417 6.007454,-3.913329 20.532442,-11.872583 1.362482,-0.927149 -0.160872,0.09186 0.304168,-0.21169 0.460037,-0.3118 0.754004,-0.484278 0.150815,-0.03746 0.876927,-0.609632 0.849384,-0.634892 1.645547,-1.354032 2.376585,-2.1233 0.761976,-0.747726 1.543055,-1.480563 2.268053,-2.265241 0.766874,-0.76554 1.561497,-1.506423 2.295105,-2.304753 0.746876,-0.960988 1.496086,-1.91914 2.255964,-2.870491 0.69932,-0.822717 1.495269,-1.554814 2.21348,-2.358753 0.66121,-0.868788 1.198121,-1.813129 1.710508,-2.775016 0.493506,-1.011044 1.011637,-2.009031 1.515007,-3.015567 0.371184,-1.137846 0.741825,-2.285685 1.049726,-3.444669 0.404355,-1.194046 0.743355,-2.391852 1.018492,-3.62291 0.336632,-1.475539 0.835158,-2.905702 1.197057,-4.373891 0.398095,-1.251794 0.708822,-2.538841 1.162905,-3.772215 0.355611,-1.146087 0.751647,-2.273805 1.164161,-3.401128 0.491342,-1.029902 1.076831,-2.026 1.723763,-2.966292 0.922404,-1.181745 2.05626,-2.172351 3.18919,-3.145253 0.942276,-0.744132 1.677472,-1.656122 2.361189,-2.633596 0.74363,-1.039302 1.125178,-2.278592 1.577279,-3.462269 0.44917,-1.279757 0.516742,-2.639742 0.571532,-3.982116 0.03034,-1.400842 0.114589,-2.798493 -0.144367,-4.180983 -0.186277,-1.248971 -0.482952,-2.456728 -0.823682,-3.669935 -0.236138,-1.265473 -0.474023,-2.514957 -0.791785,-3.763317 -0.210621,-1.274442 -0.442094,-2.527321 -0.757158,-3.780438 -0.36532,-1.328647 -0.318738,-2.71603 -0.519578,-4.066794 -0.330594,-1.309128 -0.520568,-2.639326 -0.628179,-3.983286 -0.0947,-1.493764 -0.09555,-2.991317 -0.09973,-4.48744 -0.165317,-1.295502 -0.449468,-2.568068 -0.593836,-3.868287 -0.09561,-0.977654 -0.120295,-1.959921 -0.142994,-2.94131 0,0 9.984036,-5.1121951 9.984036,-5.1121951 v 0 c 0.01587,0.9522939 0.03206,1.9053072 0.108149,2.8551687 0.125981,1.3405205 0.389752,2.6513024 0.635921,3.9733834 0.0016,1.471339 -0.0013,2.94363 0.07065,4.413608 0.08433,1.308267 0.23368,2.609208 0.582655,3.877307 0.2628,1.318611 0.158673,2.68395 0.487645,3.997358 0.305718,1.255561 0.611291,2.490414 0.755891,3.777755 0.305829,1.243472 0.614294,2.46698 0.780074,3.738962 0.336642,1.242491 0.696015,2.460471 0.85767,3.743203 0.309886,1.463079 0.304308,2.923196 0.249899,4.416105 -0.0326,1.430803 -0.06714,2.875626 -0.411831,4.272475 -0.383826,1.281687 -0.921436,2.522443 -1.444821,3.748718 -0.691896,1.001961 -1.280697,2.126347 -2.2821,2.849485 -1.019625,1.062432 -2.273422,1.867451 -3.23808,2.992401 -0.749554,0.816107 -1.244917,1.800016 -1.82151,2.730177 -0.611836,1.000622 -0.868511,2.207604 -1.207479,3.320092 -0.46536,1.204346 -0.768789,2.440178 -1.256271,3.641318 -0.301763,1.49661 -0.830834,2.917049 -1.168696,4.403452 -0.358773,1.1908 -0.38947,2.479614 -1.024763,3.58616 -0.236347,1.240848 -0.73872,2.37758 -0.957276,3.619656 -0.375772,1.063246 -0.954423,2.054717 -1.507762,3.029852 -0.207455,0.577853 -0.492864,0.977035 -0.775113,1.503267 -0.268457,0.500513 -0.369737,1.075643 -0.850548,1.450229 -0.520721,1.027925 -1.440167,1.647743 -2.141421,2.537912 -0.906712,0.792729 -1.610818,1.834248 -2.279616,2.826314 -0.707631,0.860523 -1.491922,1.599258 -2.237753,2.414669 -0.842566,0.655143 -1.518386,1.517918 -2.264751,2.273393 -0.851075,0.66071 -1.523601,1.528903 -2.330249,2.24136 -1.929077,1.26743 1.068623,-0.744691 -0.84682,0.690438 -3.256034,2.439556 -7.047516,4.068151 -10.541498,6.152688 -3.024142,1.80422 6.075998,-3.561634 9.121434,-5.329675 0.154588,-0.08975 -0.298807,0.196262 -0.448212,0.294396 -0.591844,0.585915 -0.174456,0.246425 -0.880285,0.656693 -3.360809,1.953485 -6.722308,3.905836 -10.074399,5.874236 -3.035763,1.78265 6.079881,-3.551059 9.12541,-5.316976 0.155557,-0.0902 -0.303408,0.19307 -0.455115,0.289605 -3.347889,1.973567 -6.695781,3.947131 -10.043673,5.920701 23.423642,-13.543915 0.123785,-0.0575 -0.981959,0.52123 -3.116305,1.63112 6.090396,-3.52062 9.131663,-5.287712 0.157257,-0.09137 -0.322361,0.168796 -0.479454,0.260453 -3.357391,1.958889 -6.721393,3.906629 -10.063763,5.891029 -3.027067,1.79721 6.078553,-3.55294 9.117829,-5.329417 -0.949893,0.622906 -1.783069,1.400637 -2.814854,1.905597 -0.870368,0.87185 -1.973977,1.43143 -2.864596,2.28664 -0.707562,1.01722 -1.530633,1.93005 -1.885389,3.15809 -0.330211,1.4001 -0.310274,2.79317 -0.2764,4.23094 -0.0026,1.50419 -0.0087,3.00844 0.004,4.5126 0.02011,1.38454 0.0372,2.77656 0.265864,4.14584 0.267557,1.33195 0.738553,2.61004 0.90746,3.96263 0.370081,1.40628 0.824177,2.79765 1.353643,4.15062 0.789471,1.8987 1.472824,3.83976 2.391481,5.68589 0,0 -9.787472,5.49694 -9.787472,5.49694 z"
       inkscape:connector-curvature="0" />
    <path
       style="opacity:1;fill:#280b0b;fill-opacity:1;stroke:#470000;stroke-width:0.26499999;stroke-miterlimit:4;stroke-dasharray:none;stroke-opacity:1"
       id="path5579"
       d="m 106.51844,3.0328224 c 1.12369,1.7303657 2.27115,3.4468316 3.45527,5.1358358 0.7499,1.0633625 1.48765,2.1257418 2.16894,3.2361808 0.52906,0.998778 1.04147,2.002613 1.57014,3.002324 0.43627,1.140849 0.93242,2.260603 1.25576,3.441469 0.26869,1.244507 0.68869,2.437524 0.9093,3.694884 0.20362,1.361126 0.14537,2.733958 0.41685,4.084377 0.3273,1.354127 0.45159,2.739917 0.527,4.127042 0.0624,1.50249 0.0597,3.006667 0.0607,4.510154 -7.9e-4,1.513552 -0.003,3.027101 -0.004,4.54065 0.0772,1.557842 -0.0465,3.086097 -0.30263,4.620386 -0.18285,1.337893 -0.53725,2.657645 -1.07745,3.895511 -0.4292,1.159097 -1.06614,2.216626 -1.67351,3.287519 -0.67016,0.968034 -1.32715,1.940007 -1.99489,2.909023 -0.59698,0.914238 -1.29219,1.771912 -2.06669,2.541955 -0.77278,0.879999 -1.61539,1.686462 -2.57133,2.365555 -0.97044,0.688655 -1.84035,1.496539 -2.75109,2.257589 -0.98115,0.721119 -1.93387,1.475618 -2.88981,2.229421 -0.82384,0.707433 -1.564145,1.502053 -2.364925,2.233338 -0.76335,0.871378 -1.392913,1.860663 -1.992398,2.851618 -0.788976,1.070771 -1.321977,2.291006 -1.817356,3.516598 -0.477793,1.129004 -1.019824,2.22753 -1.509099,3.351186 -0.605674,1.095693 -1.035698,2.273422 -1.638863,3.370263 -0.558753,1.051567 -1.054347,2.138161 -1.635813,3.177002 -0.488514,1.10399 -1.143236,2.120686 -1.676594,3.201477 -0.519453,1.110303 -1.065088,2.207144 -1.601274,3.309297 -0.369927,1.14703 -0.744003,2.301934 -1.053772,3.468892 -0.234132,1.402918 -0.399007,2.808599 -0.671491,4.20674 -0.293637,1.466019 -0.381519,2.959039 -0.434562,4.449611 -0.03916,1.50789 -0.03423,3.01646 -0.03314,4.52472 -0.08011,1.38873 0.02943,2.7327 0.303596,4.0904 0.130622,1.2622 0.556223,2.45352 0.840539,3.6826 0.411173,1.09146 0.698897,2.21715 1.117616,3.30498 0.365339,1.06362 0.862981,2.07839 1.3771,3.07753 0.632526,0.90597 1.240849,1.84516 1.718001,2.84381 0.565507,0.90819 1.10635,1.83238 1.706065,2.71836 0.597934,0.96196 1.038992,2.01116 1.597424,2.99374 0.53163,1.06608 0.959329,2.1927 1.35644,3.31762 0.483081,0.83445 0.722722,1.76663 1.081476,2.65181 0,0 -9.809803,5.49436 -9.809803,5.49436 v 0 c -0.380904,-0.90154 -0.601641,-1.86442 -1.112718,-2.71352 -0.357222,-1.067 -0.78136,-2.12197 -1.261499,-3.13588 -0.540237,-0.96209 -0.979731,-1.98041 -1.55783,-2.92243 -0.615764,-0.94119 -1.211624,-1.89389 -1.784672,-2.86233 -0.460775,-0.9931 -1.098328,-1.89826 -1.699877,-2.80974 -0.531585,-1.03455 -1.053026,-2.08434 -1.432729,-3.18404 -0.44118,-1.1414 -0.743008,-2.3169 -1.19158,-3.45718 -0.261387,-1.2429 -0.738272,-2.42722 -0.848831,-3.70075 -0.290798,-1.42884 -0.511387,-2.82922 -0.390208,-4.29715 -0.0019,-1.51854 -0.0076,-3.03723 0.0177,-4.55562 0.0372,-1.54038 0.09542,-3.08503 0.356182,-4.60691 0.257704,-1.411232 0.555659,-2.796908 0.635532,-4.234024 0.237646,-1.248339 0.742508,-2.392807 0.965769,-3.641836 0.413205,-1.158703 1.047109,-2.231504 1.609778,-3.321145 0.424979,-1.166641 1.144129,-2.154545 1.619448,-3.285893 0.544602,-1.067128 1.156174,-2.093565 1.644301,-3.186699 0.587309,-1.105186 1.176808,-2.190787 1.62856,-3.364304 0.671905,-1.004954 1.018321,-2.21895 1.549863,-3.302069 0.649071,-1.18776 0.949836,-2.56004 1.734357,-3.687908 0.739289,-0.915133 1.251961,-2.023309 1.917158,-2.986715 0.675484,-0.857398 1.545011,-1.565653 2.342531,-2.302433 0.808604,-0.914074 1.851506,-1.642964 2.867107,-2.305801 0.927814,-0.756037 1.766856,-1.591686 2.746735,-2.27271 0.587533,-0.528273 1.317558,-0.864738 1.879682,-1.425827 0.130749,-0.130508 0.212513,-0.304535 0.34296,-0.435342 0.121942,-0.12228 0.27246,-0.212257 0.408689,-0.318387 0.654205,-0.845193 1.494555,-1.523452 2.142615,-2.378419 0.59487,-1.035589 1.29427,-1.982745 1.99222,-2.944209 0.73078,-0.916456 1.27984,-2.04521 1.74452,-3.110209 0.5361,-1.166918 1.07587,-2.356495 1.22595,-3.649781 0.2514,-1.48413 0.51788,-2.936616 0.38419,-4.453197 10e-4,-1.513231 0.003,-3.026463 0.005,-4.539694 5.3e-4,-1.486519 0.005,-2.97347 -0.0411,-4.459454 -0.0563,-1.329759 -0.14241,-2.663063 -0.45575,-3.961683 -0.30249,-1.369174 -0.31983,-2.738073 -0.43842,-4.132122 -0.18483,-1.233549 -0.6022,-2.388421 -0.86583,-3.600063 -0.2712,-1.109263 -0.76112,-2.135577 -1.13818,-3.208732 -0.51722,-0.979139 -1.02009,-1.961069 -1.53288,-2.941525 -0.66921,-1.094419 -1.38537,-2.149421 -2.10015,-3.213372 -1.156911,-1.744812 -2.290267,-3.503445 -3.518018,-5.2016588 0,0 9.718248,-5.6050658 9.718248,-5.6050658 z"
       inkscape:connector-curvature="0" />
    <path
       style="opacity:1;fill:#280b0b;fill-opacity:1;stroke:#470000;stroke-width:0.26499999;stroke-miterlimit:4;stroke-dasharray:none;stroke-opacity:1"
       id="path5581"
       d="m 79.551622,23.961392 c -1.442429,1.467037 -2.690763,3.099294 -3.961943,4.712033 -0.851207,1.006377 -1.554173,2.129062 -2.259094,3.240415 -0.651899,1.022131 -1.279991,2.057159 -1.861148,3.121618 -0.457261,1.094478 -0.890167,2.190366 -1.231408,3.326841 -0.520488,1.107747 -0.679172,2.32341 -1.035391,3.482012 -0.440283,1.26814 -0.540732,2.611171 -0.82549,3.915873 -0.359142,1.443133 -0.501409,2.921331 -0.583501,4.401947 -2.65e-4,1.44222 -0.06121,2.856579 -0.34426,4.271598 -0.294058,1.337042 -0.377701,2.703734 -0.431528,4.067542 -0.120829,1.373415 -0.01061,2.701055 0.26012,4.044572 0.168373,1.282793 0.406458,2.532943 0.724477,3.785899 0.174779,1.254932 0.59754,2.446872 0.88134,3.676959 0.409271,1.093108 0.695423,2.220106 1.113457,3.309147 0.357,1.113287 0.67051,2.24954 1.167545,3.311424 0.470797,1.090925 0.89648,2.206551 1.291053,3.32898 0.38463,1.125431 0.709179,2.278843 1.116481,3.396329 0.384662,1.13737 0.78159,2.267863 1.162563,3.407188 0.280207,1.254014 0.518346,2.505326 0.836541,3.752006 0.210397,1.275413 0.44023,2.529509 0.754656,3.783777 0.312028,1.29133 0.324746,2.618398 0.628589,3.909793 0.329557,1.251455 0.398113,2.541265 0.726202,3.791495 0.412805,1.27762 0.418036,2.62778 0.646893,3.9368 0.358528,1.30039 0.548624,2.6289 0.657799,3.97048 0.09559,1.49408 0.09569,2.99206 0.09953,4.48854 0.05969,1.45101 -0.0026,2.87233 -0.288049,4.29524 -0.205608,1.20819 -0.574138,2.3931 -1.090911,3.50406 -0.383921,1.06741 -0.988912,2.00424 -1.605347,2.94447 -0.529373,0.96475 -1.151993,1.88219 -1.894091,2.69568 -0.548754,0.6183 -1.002199,1.30874 -1.505333,1.96233 0,0 -10.306606,4.47517 -10.306606,4.47517 v 0 c 0.457409,-0.70145 0.985592,-1.3411 1.460767,-2.02989 0.634035,-0.85714 1.444443,-1.5624 1.984989,-2.49658 0.453647,-1.03109 1.316154,-1.791 1.631916,-2.88982 0.495731,-1.04979 1.038518,-2.10556 1.215723,-3.26717 0.281096,-1.36847 0.553889,-2.6864 0.40558,-4.10048 -0.0013,-1.47127 0.0024,-2.94352 -0.06993,-4.41342 -0.08456,-1.29772 -0.231468,-2.5892 -0.601768,-3.84139 -0.283816,-1.27666 -0.219856,-2.61112 -0.616344,-3.87139 -0.346136,-1.26079 -0.456118,-2.54058 -0.73778,-3.81595 -0.323528,-1.29262 -0.391952,-2.59682 -0.626886,-3.90616 -0.305062,-1.256345 -0.609396,-2.492029 -0.752914,-3.780084 -0.301418,-1.225685 -0.606256,-2.433386 -0.802142,-3.68074 -0.359836,-1.129149 -0.782212,-2.232689 -1.139884,-3.361794 -0.433805,-1.117443 -0.729726,-2.298406 -1.131787,-3.426833 -0.36404,-1.08939 -0.799057,-2.15705 -1.233889,-3.217505 -0.516761,-1.082471 -0.868479,-2.23819 -1.206246,-3.386161 -0.440531,-1.142632 -0.74082,-2.319346 -1.187387,-3.461359 -0.256632,-1.227976 -0.7245,-2.396416 -0.867799,-3.64822 -0.313319,-1.272085 -0.626869,-2.521993 -0.745815,-3.831905 -0.290526,-1.424419 -0.513744,-2.819146 -0.367017,-4.282421 0.03463,-1.413928 0.07952,-2.834037 0.335013,-4.228844 0.279315,-1.376553 0.547981,-2.706124 0.436803,-4.127306 0.05971,-1.534256 0.156123,-3.072633 0.494414,-4.575215 0.306541,-1.329121 0.445619,-2.669947 0.762021,-3.996648 0.402614,-1.207156 0.564504,-2.355395 1.006456,-3.537722 0.274445,-0.566968 0.344403,-1.13574 0.553713,-1.726594 0.06529,-0.184306 0.149225,-0.361463 0.223837,-0.542195 0.08631,-0.162179 0.193728,-0.314785 0.258937,-0.48654 0.07774,-0.204774 0.111377,-0.42368 0.167063,-0.635518 0.437417,-1.148755 1.120969,-2.221632 1.830687,-3.217032 0.620128,-1.218994 1.442529,-2.318268 2.201336,-3.44828 1.389681,-1.500793 2.442183,-3.289419 3.946258,-4.690547 0,0 10.328923,-4.388505 10.328923,-4.388505 z"
       inkscape:connector-curvature="0" />
    <path
       style="opacity:1;fill:#280b0b;fill-opacity:1;stroke:#470000;stroke-width:0.26499999;stroke-miterlimit:4;stroke-dasharray:none;stroke-opacity:1"
       id="path5583"
       d="m 125.55962,32.836577 c -2.08764,0.390676 -4.04344,1.125509 -5.97147,1.986084 -3.47954,1.825766 -8.42002,4.682908 7.4422,-4.328183 1.43233,-0.813681 -1.31056,0.849836 -1.6179,1.088228 -0.86537,0.669142 -1.67801,1.417294 -2.42468,2.217283 -0.75333,0.752395 -1.53115,1.483881 -2.25313,2.267315 -0.79916,0.708284 -1.40294,1.617432 -1.89184,2.560465 -0.70023,1.040823 -1.19551,2.189597 -1.77116,3.297399 -0.47076,1.109879 -0.93618,2.236684 -1.29467,3.389873 -0.41322,1.159677 -0.80465,2.297684 -0.99389,3.518329 -0.25501,1.258258 -0.60254,2.484083 -0.76896,3.760536 -0.0587,1.316966 -0.45357,2.577992 -0.67182,3.870743 -0.20326,1.413116 -0.22322,2.84335 -0.24292,4.268237 -0.0128,1.5093 -0.008,3.018682 -0.006,4.528016 0.002,1.513088 0.003,3.026177 0.003,4.539265 -0.0853,1.50426 0.051,2.973526 0.29877,4.453613 0.25882,1.424694 0.27201,2.871732 0.59529,4.283718 0.32828,1.258696 0.39947,2.555152 0.73068,3.811568 0.24979,1.230284 0.5437,2.436252 0.88292,3.644628 0.24339,1.179115 0.4818,2.367452 0.94928,3.482377 0.43883,1.103169 0.86382,2.21425 1.25714,3.335747 0.54743,1.016006 0.86834,2.121064 1.30635,3.183665 0.47579,1.062477 0.8532,2.16389 1.2914,3.241604 0.41408,1.095943 0.89815,2.160053 1.36768,3.233893 0.45534,1.27197 1.06226,2.47852 1.45208,3.77376 0.48181,1.09266 0.77337,2.24645 1.20219,3.35803 0.35265,1.19598 0.65796,2.40027 1.00311,3.60015 0.36853,1.37751 0.43959,2.80536 0.49129,4.22291 0.20494,1.28841 0.48324,2.55814 0.62696,3.85715 0.13572,1.47961 0.14485,2.96673 0.15497,4.45132 -0.007,1.29847 -0.39254,2.49091 -1.12913,3.55039 -0.6337,0.87398 -1.3863,1.67047 -2.18159,2.4004 -0.71617,0.84335 -1.57451,1.50069 -2.44769,2.16361 -4.33016,2.60159 -8.41875,5.8213 -13.43194,6.70473 0,0 8.93098,-6.78959 8.93098,-6.78959 v 0 c 4.29582,-1.14786 10.78824,-5.25334 -5.97725,4.17739 0.94379,-0.53098 1.78002,-1.15669 2.5468,-1.9138 0.66452,-0.82699 1.51888,-1.48378 2.24696,-2.25127 0.64687,-0.93966 1.37958,-1.72436 1.45298,-2.94495 -0.006,-1.45062 -0.008,-2.90309 -0.11458,-4.3506 -0.12349,-1.32819 -0.3783,-2.62704 -0.65679,-3.93043 -0.0351,-1.33006 -0.071,-2.67216 -0.38146,-3.97253 -0.32197,-1.17158 -0.67019,-2.32588 -0.95592,-3.5055 -0.44188,-1.14431 -0.74232,-2.32646 -1.24063,-3.45071 -0.34088,-1.25567 -0.94627,-2.40598 -1.37544,-3.63111 -0.49753,-1.07243 -0.97063,-2.15468 -1.39285,-3.25786 -0.45378,-1.07114 -0.7989,-2.18989 -1.29324,-3.24518 -0.44633,-1.08505 -0.77501,-2.208618 -1.33706,-3.24438 -0.36749,-1.100953 -0.80778,-2.176275 -1.21864,-3.259934 -0.50402,-1.15207 -0.80208,-2.384684 -1.01812,-3.620206 -0.32778,-1.214472 -0.67901,-2.406552 -0.8855,-3.650007 -0.34996,-1.270116 -0.46131,-2.560042 -0.74313,-3.845745 -0.3481,-1.438838 -0.40571,-2.893399 -0.61242,-4.35715 -0.25947,-1.536769 -0.51147,-3.05062 -0.38635,-4.618271 -2.6e-4,-1.512744 -7.9e-4,-3.025491 -0.003,-4.538239 -0.002,-1.513004 -0.006,-3.026018 -10e-4,-4.539019 0.0101,-1.466432 0.0179,-2.935952 0.16376,-4.396574 0.15999,-1.301149 0.55733,-2.542629 0.6925,-3.835847 0.11318,-1.285764 0.29251,-2.564299 0.75896,-3.777083 0.12464,-1.257845 0.30292,-2.520529 0.92353,-3.644722 0.26918,-1.257322 0.83052,-2.379091 1.19549,-3.605062 0.55203,-1.140659 1.08816,-2.277555 1.71989,-3.378666 0.65355,-0.900559 1.00887,-2.003671 1.76801,-2.844588 0.83958,-0.652312 1.51309,-1.512549 2.25288,-2.268387 0.8753,-0.687374 1.557,-1.597136 2.39167,-2.335202 0.68724,-0.483978 0.35324,-0.214508 0.99689,-0.814702 3.78358,-2.830703 8.11194,-5.005591 12.40053,-7.029548 1.9863,-0.823158 4.06485,-1.407485 6.18805,-1.753972 0,0 -8.99349,6.706591 -8.99349,6.706591 z"
       inkscape:connector-curvature="0" />
    <path
       style="opacity:1;fill:#280b0b;fill-opacity:1;stroke:#470000;stroke-width:0.26499999;stroke-miterlimit:4;stroke-dasharray:none;stroke-opacity:1"
       id="path5585"
       d="m 97.91816,137.00227 c 0.744704,-1.85454 1.414399,-3.72048 1.821503,-5.67944 0.173501,-1.45036 0.612387,-2.84503 0.860127,-4.28119 0.20593,-1.41117 0.22161,-2.84014 0.23884,-4.26332 0.0103,-1.50717 0.005,-3.0144 0.002,-4.52159 -0.002,-1.51298 -0.003,-3.02597 -0.004,-4.53895 0.0538,-1.49901 -0.28115,-2.96697 -0.68791,-4.39853 -0.410305,-1.28528 -0.830852,-2.58405 -1.32243,-3.84234 -0.416541,-1.06199 -0.823751,-2.13822 -1.364588,-3.14472 -0.518853,-0.99463 -0.950108,-2.03748 -1.499558,-3.01568 -0.484351,-1.07401 -1.089244,-2.084057 -1.63744,-3.126322 -0.671788,-1.036101 -1.33513,-2.093429 -1.858484,-3.213875 -0.583223,-0.927429 -0.933751,-1.973535 -1.590071,-2.855109 -0.646314,-0.918797 -1.121341,-1.939512 -1.69762,-2.898981 -0.453067,-1.011259 -1.020881,-1.937261 -1.6369,-2.853446 -0.57817,-0.968444 -1.12005,-1.952496 -1.66392,-2.941625 -0.667602,-1.190551 -1.32321,-2.381342 -2.027433,-3.550264 -0.619458,-1.119155 -1.211355,-2.274546 -1.938938,-3.328783 -0.689102,-1.157515 -1.51897,-2.224982 -2.155261,-3.412088 -0.643565,-0.988864 -1.145289,-2.054471 -1.74674,-3.069992 -0.626073,-1.08099 -1.27586,-2.146099 -1.902031,-3.229025 -0.520208,-1.02702 -1.044589,-2.049558 -1.583532,-3.067691 -0.474442,-1.021865 -0.985268,-2.025769 -1.510355,-3.023412 -0.462007,-1.07293 -0.795015,-2.202828 -1.302157,-3.256769 -0.477753,-1.089594 -0.90111,-2.20875 -1.294985,-3.333142 -0.257096,-1.235292 -0.68072,-2.424401 -0.966766,-3.652533 -0.230855,-1.252254 -0.653243,-2.447938 -0.873094,-3.704876 -0.06067,-1.312796 -0.411085,-2.571017 -0.664104,-3.852513 -0.09829,-1.291288 -0.478168,-2.523402 -0.74336,-3.783698 -0.268113,-1.426564 -0.308832,-2.880738 -0.340825,-4.327778 0,0 9.984496,-5.111002 9.984496,-5.111002 v 0 c 0.0213,1.382861 0.04111,2.772442 0.261805,4.141018 0.243846,1.270431 0.682728,2.494605 0.748774,3.795599 0.234399,1.295402 0.651433,2.551977 0.675928,3.878881 0.186859,1.245939 0.612458,2.415834 0.84672,3.646742 0.25096,1.197244 0.706567,2.332595 0.912529,3.539646 0.362019,1.087577 0.793343,2.154965 1.232223,3.210994 0.507743,1.040137 0.859835,2.150247 1.284943,3.2244 0.524217,0.997299 1.037538,1.99944 1.508985,3.021481 0.531524,1.00675 1.050166,2.016902 1.55869,3.034408 0.619919,1.07859 1.255371,2.143382 1.887103,3.213735 0.625441,1.025607 1.127588,2.111518 1.7735,3.123546 0.607533,1.15642 1.426249,2.187215 2.094426,3.309141 0.721106,1.084715 1.36109,2.231983 1.964904,3.384915 0.705374,1.183744 1.367528,2.388481 2.066671,3.575707 0.527518,0.959119 1.050139,1.914363 1.614085,2.85179 0.63228,0.931426 1.203098,1.883741 1.66868,2.910168 0.552248,0.93703 1.024371,1.921991 1.65065,2.815674 0.6679,0.961306 1.09746,2.03938 1.68943,3.04537 0.49901,1.108448 1.17355,2.136511 1.81941,3.163324 0.55003,1.031574 1.16834,2.024939 1.6388,3.09662 0.54827,0.986708 0.99505,2.028142 1.50888,3.032908 0.55871,1.045417 0.99748,2.154349 1.41902,3.260627 0.51828,1.28635 0.91102,2.63947 1.35116,3.95256 0.4415,1.51908 0.86039,3.07942 0.83859,4.67352 2.7e-4,1.51256 7.9e-4,3.02512 0.003,4.53768 0.002,1.51032 0.007,3.02064 0.004,4.53096 -0.008,1.46704 -0.011,2.93751 -0.15962,4.39859 -0.18818,1.4778 -0.65195,2.87568 -0.87608,4.34095 -0.35098,1.98085 -0.90497,3.91329 -1.73831,5.74962 0,0 -10.144429,4.81811 -10.144429,4.81811 z"
       inkscape:connector-curvature="0" />
    <path
       style="opacity:1;fill:#280b0b;fill-opacity:1;stroke:#470000;stroke-width:0.26499999;stroke-miterlimit:4;stroke-dasharray:none;stroke-opacity:1"
       id="path5587"
       d="m 134.53076,28.558924 c 1.41571,1.48445 2.74586,3.02874 4.06045,4.59963 0.96932,1.244867 1.80224,2.584204 2.43587,4.028792 0.55947,1.154951 1.16361,2.293337 1.65945,3.477577 0.44639,1.110232 0.77735,2.262775 1.1917,3.383307 0.37198,1.128119 0.93189,2.169961 1.28175,3.305693 0.46707,1.166934 0.93644,2.335104 1.32617,3.5306 0.62857,1.154949 0.87337,2.435723 1.25132,3.676399 0.48563,1.265094 0.68164,2.597028 0.79909,3.938495 0.0997,1.494271 0.0961,2.992866 0.0984,4.489709 -8e-4,1.51412 -0.004,3.028235 -0.006,4.542356 0.0598,1.372693 -0.24817,2.71957 -0.55236,4.048733 -0.30889,1.146075 -0.82445,2.208059 -1.28663,3.295021 -0.50185,1.011343 -1.04023,2.004964 -1.50711,3.033252 -0.51943,0.998714 -1.05118,1.993677 -1.51514,3.020036 -0.51745,1.000419 -1.04849,1.99631 -1.51219,3.023423 -0.53907,0.986348 -0.96243,2.02317 -1.61628,2.942902 -0.62325,0.909304 -1.10516,1.900973 -1.66208,2.84889 -0.5344,1.008113 -1.048,2.009394 -1.42072,3.089236 -0.51836,1.169371 -0.86372,2.406996 -1.22317,3.632356 -0.39401,1.379241 -0.39622,2.820265 -0.6914,4.217159 -0.35006,1.29563 -0.48606,2.62665 -0.56497,3.96173 -0.0659,1.48577 -0.0622,2.97347 -0.063,4.46036 10e-4,1.51323 0.004,3.02647 0.005,4.53971 -0.12683,1.36097 0.17872,2.66556 0.41912,3.99123 0.36548,1.10439 0.6584,2.22647 1.07731,3.31194 0.27356,1.09555 0.99321,1.9646 1.50693,2.94359 0.51545,0.76275 0.92564,1.58658 1.37024,2.3918 0,0 -9.75114,5.60515 -9.75114,5.60515 v 0 c -0.44925,-0.81323 -0.86732,-1.64076 -1.38268,-2.41479 -0.5279,-1.01626 -1.28753,-1.91822 -1.56544,-3.05541 -0.44787,-1.15457 -0.75767,-2.34194 -1.1722,-3.50995 -0.23601,-1.38755 -0.63182,-2.74769 -0.49373,-4.17167 -0.001,-1.5134 -0.003,-3.02681 -0.005,-4.54021 -10e-4,-1.50209 -0.007,-3.00453 0.0335,-4.50621 0.0524,-1.3892 0.12482,-2.78666 0.46309,-4.14136 0.36842,-1.40404 0.42904,-2.82344 0.68805,-4.25211 0.30942,-1.27423 0.70526,-2.531519 1.13363,-3.76693 0.28869,-0.548904 0.36922,-1.111099 0.61055,-1.679035 0.65078,-1.531562 -0.14407,0.449088 0.55415,-0.937927 0.0913,-0.181382 0.13785,-0.382026 0.20677,-0.573042 0.51589,-0.999861 1.09948,-1.949498 1.61895,-2.941505 0.59981,-0.93426 1.31094,-1.770542 1.65711,-2.85514 0.63599,-0.92365 0.96861,-2.043081 1.51199,-3.02383 0.63614,-0.923314 0.96905,-2.042367 1.51419,-3.022053 0.63725,-0.920268 0.97383,-2.036246 1.51567,-3.015289 0.63347,-0.932416 0.96751,-2.068542 1.37946,-3.110376 0.49402,-1.140182 0.64333,-2.523823 0.72752,-3.749627 0.002,-1.513483 0.004,-3.026963 0.007,-4.540446 1.7e-4,-1.469625 0.007,-2.940338 -0.0664,-4.408585 -0.0861,-1.259819 -0.22525,-2.517907 -0.68935,-3.704251 -0.40567,-1.230932 -0.57669,-2.53669 -1.23902,-3.682114 -0.37656,-1.208394 -0.88074,-2.372048 -1.35213,-3.545567 -0.31118,-1.118918 -0.89264,-2.1198 -1.24242,-3.225967 -0.43262,-1.102545 -0.72575,-2.264042 -1.17639,-3.361486 -0.47358,-1.18672 -1.0884,-2.315642 -1.62694,-3.473757 -0.5707,-1.360123 -1.38178,-2.590782 -2.26753,-3.766757 -1.27201,-1.603385 -2.60406,-3.146541 -4.07379,-4.576908 0,0 9.62157,-5.776774 9.62157,-5.776774 z"
       inkscape:connector-curvature="0" />
    <path
       style="opacity:1;fill:#280b0b;fill-opacity:1;stroke:#470000;stroke-width:0.26499999;stroke-miterlimit:4;stroke-dasharray:none;stroke-opacity:1"
       id="path5589"
       d="m 150.93531,132.98664 c 1.89554,-0.72538 3.71767,-1.63191 5.54288,-2.51754 -2.98963,1.70803 -5.97443,3.42453 -8.96888,5.12408 -0.19799,0.11237 0.38171,-0.24863 0.57899,-0.36225 3.39387,-1.95454 6.78716,-3.91024 10.19405,-5.842 3.0454,-1.72679 -6.0683,3.49298 -9.10954,5.22707 -1.04122,0.5937 0.77429,-0.48093 0.9554,-0.58842 0.93186,-0.57203 1.57625,-1.38259 2.19453,-2.26471 0.75693,-0.80627 1.14635,-1.85091 1.58262,-2.84864 0.32118,-1.1729 0.68295,-2.3385 0.98563,-3.51781 0.30062,-1.35541 0.33423,-2.7486 0.36655,-4.13076 -0.0228,-1.45074 0.10446,-2.91304 -0.0482,-4.35811 -0.15093,-1.21894 -0.52039,-2.36956 -0.88841,-3.53315 -0.41335,-1.25515 -0.95441,-2.45655 -1.42281,-3.68984 -0.504,-1.03584 -0.97983,-2.07429 -1.55929,-3.07151 -0.73492,-1.27762 -1.32463,-2.6382 -2.10026,-3.89103 -0.80454,-1.33112 -1.66401,-2.63318 -2.56698,-3.900228 -0.79769,-1.187051 -1.62976,-2.380091 -2.64274,-3.395578 -0.87981,-0.835642 -1.56216,-1.832488 -2.32875,-2.765155 -0.81352,-1.016765 -1.72461,-1.946873 -2.56575,-2.938635 -0.78082,-0.784841 -1.5347,-1.581771 -2.37071,-2.310645 -1.06016,-0.834994 -2.07691,-1.728505 -3.14392,-2.555606 -0.77047,-0.856337 -1.82677,-1.334301 -2.68756,-2.083808 -0.9545,-0.573876 -1.86277,-1.232016 -2.85181,-1.755452 -0.99789,-0.672949 -2.02921,-1.361969 -3.15209,-1.810051 -1.06194,-0.567569 -1.99732,-1.26278 -2.82381,-2.137357 -0.87513,-1.058966 -1.77793,-2.098191 -2.63707,-3.170791 -0.58803,-1.02571 -1.39373,-1.895107 -1.97139,-2.924088 -0.61855,-0.942509 -1.18191,-1.938586 -1.63772,-2.971567 -0.52168,-0.998114 -1.06922,-1.989272 -1.51421,-3.025005 -0.51478,-1.001249 -1.06443,-1.989889 -1.51011,-3.024722 -0.36672,-1.093004 -0.80621,-2.159796 -1.30205,-3.200087 -0.42664,-1.16377 -0.75012,-2.364195 -1.10392,-3.554225 -0.24629,-1.266436 -0.47719,-2.521119 -0.79223,-3.773509 -0.33483,-1.386924 -0.40722,-2.814486 -0.45786,-4.234481 -0.0381,-1.509088 -0.0323,-3.018843 -0.0309,-4.528283 0.002,-1.513414 0.004,-3.026828 0.005,-4.540245 8e-4,-1.51204 8e-4,-3.024081 8e-4,-4.536122 0,-1.51189 -2e-5,-3.02378 -3e-5,-4.53567 -1e-5,-0.755949 -1e-5,-1.511898 -1e-5,-2.26785 0,0 9.99204,-5.091204 9.99204,-5.091204 v 0 c 0,0.755949 0,1.511897 1e-5,2.267845 1e-5,1.511898 3e-5,3.023797 4e-5,4.535695 -2e-5,1.512226 0,3.024455 -5.3e-4,4.536681 -8e-4,1.513647 -0.002,3.027291 -0.005,4.540932 -0.002,1.498137 -0.008,2.996441 0.0179,4.494419 0.0352,1.343993 0.0754,2.697284 0.36314,4.015936 0.30184,1.241827 0.60421,2.46435 0.77284,3.732858 0.32184,1.138147 0.67325,2.264828 1.02161,3.39168 0.50212,1.055116 0.96747,2.131666 1.32513,3.244255 0.43106,1.041077 1.00254,2.021089 1.51061,3.025637 0.42873,1.038374 0.99628,2.017226 1.50933,3.015197 0.42619,1.004893 0.99556,1.953702 1.58298,2.870788 0.54388,0.971841 1.32039,1.793173 1.86692,2.767245 0.84237,1.03827 1.67816,2.088227 2.58221,3.071807 0.76731,0.739743 1.64001,1.336405 2.60531,1.793962 1.10178,0.563489 2.15881,1.214938 3.1951,1.890152 1.01477,0.596672 2.02782,1.211966 2.973,1.913086 0.89992,0.68344 1.88557,1.258996 2.6712,2.083461 1.04764,0.875496 2.11284,1.72756 3.17009,2.590729 0.87268,0.761865 1.65435,1.6135 2.45538,2.448819 0.86095,0.990097 1.73767,1.965515 2.58041,2.97131 0.73057,0.925198 1.45102,1.847898 2.28423,2.686384 0.9969,1.100558 1.87411,2.306346 2.68534,3.548782 0.92473,1.285626 1.81562,2.602251 2.62635,3.962072 0.76096,1.267801 1.38255,2.614874 2.12592,3.893832 0.6277,1.04776 1.12088,2.15063 1.65459,3.24702 0.45606,1.25868 1.01045,2.47749 1.45797,3.74028 0.37361,1.22602 0.79938,2.42078 0.96592,3.70135 0.24344,1.49026 0.0774,3.01189 0.11758,4.51743 -0.0179,1.44323 -0.0337,2.893 -0.25143,4.32298 -0.23329,1.24768 -0.73038,2.39817 -0.91235,3.6544 -0.34148,1.09439 -0.86174,2.20499 -1.41673,3.19939 -0.78791,0.77155 -1.13583,1.90748 -2.1064,2.48799 -0.60332,0.58641 -0.19796,0.26371 -0.92589,0.68511 -3.37735,1.95513 -6.75289,3.9134 -10.12583,5.87612 -3.00907,1.75098 6.01996,-3.49884 9.03421,-5.2409 0.19971,-0.11543 -0.39364,0.24059 -0.59046,0.36088 -3.41317,1.97275 -6.82633,3.94551 -10.2395,5.91826 -1.83378,0.89846 -3.72158,1.68732 -5.59794,2.49147 0,0 8.80706,-6.96036 8.80706,-6.96036 z"
       inkscape:connector-curvature="0" />
    <path
       style="opacity:1;fill:#280b0b;fill-opacity:1;stroke:#470000;stroke-width:0.26499999;stroke-miterlimit:4;stroke-dasharray:none;stroke-opacity:1"
       id="path5591"
       d="m 151.95493,68.447223 c 1.39139,1.510808 2.98708,2.781427 4.57512,4.067905 1.03976,0.757069 2.07586,1.549686 2.96871,2.479006 0.88187,0.748472 1.67303,1.587979 2.32557,2.545768 0.8216,1.024091 1.53507,2.13011 2.26267,3.22159 0.65237,1.082196 1.2362,2.220071 1.95602,3.259686 0.66482,1.090829 1.3409,2.16907 1.76534,3.379411 0.51901,1.060339 0.80375,2.202664 1.22732,3.299725 0.45932,1.205039 0.53886,2.49473 0.87395,3.732114 0.39217,1.337167 0.5124,2.724817 0.58911,4.109329 0.23052,1.280858 0.5093,2.545663 0.65472,3.841293 0.0806,1.29967 0.47303,2.54746 0.67317,3.83139 0.13761,1.28181 0.54318,2.50768 0.7512,3.77958 0.32279,1.34873 0.56995,2.71078 1.00013,4.0301 0.32685,1.16084 0.64167,2.3357 1.15148,3.43273 0.46958,1.09023 0.89661,2.20391 1.29158,3.32498 0.48437,0.95821 0.82261,1.98434 1.46243,2.85498 0.59723,0.91652 1.43952,1.61205 2.03135,2.53273 0.58,0.88987 1.30095,1.66163 1.96653,2.48346 0.72405,0.77344 1.5153,1.48278 2.22053,2.27396 0.79639,0.84237 1.97391,0.76649 2.99149,1.12472 0.19363,0.0606 0.38726,0.12112 0.5809,0.18168 0,0 -9.28596,6.33193 -9.28596,6.33193 v 0 c -0.19173,-0.0581 -0.38347,-0.11609 -0.5752,-0.17413 -1.24386,-0.29685 -2.45228,-0.61912 -3.32894,-1.62629 -0.74406,-0.78148 -1.52522,-1.52667 -2.25132,-2.32562 -0.70791,-0.84097 -1.419,-1.67523 -2.0292,-2.59229 -0.59314,-0.89167 -1.45742,-1.57059 -2.01075,-2.49634 -0.67186,-0.97933 -1.09744,-2.07189 -1.61315,-3.13638 -0.36486,-1.08939 -0.80167,-2.1564 -1.23574,-3.21751 -0.53717,-1.1345 -0.89372,-2.34805 -1.20691,-3.56061 -0.45093,-1.37867 -0.70344,-2.79347 -1.08641,-4.19269 -0.18149,-1.28239 -0.60105,-2.50489 -0.75422,-3.78643 -0.1773,-1.30615 -0.58999,-2.56331 -0.69192,-3.87498 -0.12391,-1.319 -0.37786,-2.60798 -0.67786,-3.89761 -0.0552,-1.30503 -0.13108,-2.61864 -0.48904,-3.882575 -0.33802,-1.204791 -0.44789,-2.438278 -0.8244,-3.631687 -0.43076,-1.114533 -0.7211,-2.269455 -1.24763,-3.346982 -0.35554,-1.125675 -1.0123,-2.105038 -1.60892,-3.115056 -0.70458,-1.05524 -1.32785,-2.16931 -1.96017,-3.26853 -0.72346,-1.08599 -1.43921,-2.179224 -2.25436,-3.199849 -0.6355,-0.889085 -1.43313,-1.633064 -2.23537,-2.370654 -0.89912,-0.865238 -1.87511,-1.64787 -2.86567,-2.405242 -1.58686,-1.299596 -3.07789,-2.692773 -4.60142,-4.066336 0,0 9.51524,-5.950276 9.51524,-5.950276 z"
       inkscape:connector-curvature="0" />
    <path
       style="opacity:1;fill:#280b0b;fill-opacity:1;stroke:#470000;stroke-width:0.26499999;stroke-miterlimit:4;stroke-dasharray:none;stroke-opacity:1"
       id="path5593"
       d="m 127.23529,138.62326 c -0.22135,-2.21797 -0.51737,-4.42536 -0.2219,-6.64735 1.10276,-5.18678 7.47513,-6.30342 11.88311,-8.49629 0.767,-0.41074 1.65814,-0.3302 2.47286,-0.52156 0.38834,-0.0912 0.74838,-0.27726 1.12838,-0.39863 3.36082,-2.41457 -0.14224,0.1255 -8.74964,4.94965 -0.15442,0.0865 0.27094,-0.22791 0.40473,-0.34382 0.44385,-0.38454 0.7796,-0.80644 1.1311,-1.27553 0.64741,-1.05929 1.10962,-2.21528 1.68318,-3.3124 0.45891,-1.07225 0.90841,-2.16336 1.2563,-3.27879 0.34406,-1.33082 0.37257,-2.71295 0.40573,-4.07907 0.0227,-1.50642 0.0148,-3.01309 0.0117,-4.51962 -0.003,-1.51381 -0.005,-3.02763 -0.005,-4.54144 0.12724,-1.36068 -0.17809,-2.66501 -0.41836,-3.99042 -0.2647,-1.11373 -0.78142,-2.12738 -1.20306,-3.182265 -0.52997,-0.933442 -0.88129,-1.954223 -1.52777,-2.817839 -0.59305,-0.892892 -1.33047,-1.678316 -2.22823,-2.267818 -0.9125,-0.820457 -2.05962,-1.269833 -3.01102,-2.038924 -0.89417,-0.646705 -1.92662,-1.060532 -2.84842,-1.654506 -0.93363,-0.578609 -1.83652,-1.194757 -2.79231,-1.744466 -1.03456,-0.438701 -1.99977,-1.087266 -2.81851,-1.857746 -0.93426,-0.644676 -1.57361,-1.545415 -2.26077,-2.422837 -0.67102,-0.887494 -1.27922,-1.809665 -1.8566,-2.76297 -0.49015,-1.124349 -0.99143,-2.250754 -1.31908,-3.436265 -0.32791,-1.415717 -0.36068,-2.874436 -0.39184,-4.320505 -0.0199,-1.513729 -0.012,-3.027657 -0.009,-4.541465 0.003,-1.513263 0.005,-3.026526 0.005,-4.539792 0.14051,-1.527011 0.37885,-3.051625 0.64536,-4.562602 0.38743,-1.237483 0.54787,-2.5293 0.91427,-3.770225 0.37326,-1.291749 0.63302,-2.612025 0.95199,-3.918728 0.19366,-1.363972 0.57072,-2.68243 0.89065,-4.018597 0.15042,-1.286989 0.48252,-2.530798 0.77098,-3.79009 0.28008,-1.363314 0.31872,-2.758488 0.35185,-4.14505 0.0137,-1.407134 0.102,-2.810563 -0.15689,-4.199237 -0.22548,-1.358333 -0.51499,-2.697189 -0.8243,-4.038454 -0.16935,-1.374029 -0.60668,-2.684203 -0.90799,-4.029689 -0.17471,-1.173318 -0.55356,-2.30051 -1.02984,-3.382046 -0.22654,-0.424077 -0.61813,-0.686936 -0.95539,-1.018417 0,0 9.58713,-5.888338 9.58713,-5.888338 v 0 c 0.43537,0.425384 0.89642,0.830861 1.16662,1.39018 0.50712,1.14813 0.95032,2.342127 1.12857,3.590537 0.27335,1.34962 0.75273,2.646169 0.88933,4.023365 0.30213,1.35218 0.65619,2.683714 0.85211,4.057521 0.30874,1.464847 0.29961,2.926379 0.25414,4.420782 -0.0189,1.441982 -0.0377,2.889708 -0.24682,4.319392 -0.22641,1.28298 -0.70737,2.491436 -0.76859,3.801234 -0.25492,1.365118 -0.77908,2.648977 -0.89462,4.040357 -0.28606,1.335958 -0.64444,2.646185 -0.8948,3.988932 -0.40558,1.223704 -0.59253,2.470301 -0.95737,3.709649 -0.44709,1.391592 -0.40694,2.909491 -0.77418,4.328755 -5.3e-4,1.51387 -0.001,3.027741 -0.005,4.54161 -0.003,1.506787 -0.0106,3.013618 7.9e-4,4.520383 0.0192,1.360815 0.0282,2.732648 0.28506,4.074022 0.26894,1.093216 0.74967,2.107742 1.16956,3.146518 0.55931,0.915961 1.14414,1.803791 1.79588,2.656022 0.63125,0.834131 1.29501,1.614088 2.14934,2.238478 0.82997,0.675937 1.7465,1.215062 2.70679,1.686134 0.92866,0.582118 1.85249,1.169207 2.78795,1.738212 1.00185,0.534522 1.99462,1.094058 2.91473,1.762271 0.98763,0.686165 2.07317,1.226402 2.98573,2.019371 0.9459,0.723932 1.78024,1.57076 2.43277,2.573107 0.67074,0.961449 1.10704,2.036078 1.66139,3.064391 0.43493,1.130062 0.99545,2.204389 1.30055,3.385352 0.23593,1.387369 0.6316,2.747354 0.49314,4.171126 5.3e-4,1.51329 0.001,3.02658 0.004,4.53986 0.003,1.51291 0.0103,3.02584 7.9e-4,4.53873 -0.0176,1.4383 -0.0305,2.88501 -0.27099,4.30716 -0.25927,1.22035 -0.80282,2.30406 -1.15027,3.49474 -0.5543,1.137 -1.1519,2.24667 -1.6485,3.41001 -2.2758,4.33444 -7.51817,6.57521 -11.96182,8.06989 -1.17728,0.32904 -2.42265,0.43018 -3.51073,1.0417 -3.827,1.57208 -0.017,0.0362 8.54596,-5.08167 0.16262,-0.0972 -0.36716,0.10406 -0.5349,0.19211 -0.60724,0.31876 -0.84789,0.8753 -1.00757,1.51173 -0.58883,2.06758 -0.21547,4.22299 0.0735,6.31505 0,0 -9.9319,5.21713 -9.9319,5.21713 z"
       inkscape:connector-curvature="0" />
    <path
       style="opacity:1;fill:#280b0b;fill-opacity:1;stroke:#470000;stroke-width:0.26499999;stroke-miterlimit:4;stroke-dasharray:none;stroke-opacity:1"
       id="path5595"
       d="m 108.73049,31.813079 c 0.8203,2.091851 1.4043,4.25586 1.7856,6.467313 0.26306,1.675548 0.30529,3.372636 0.32527,5.065049 0.0564,1.355725 -0.1765,2.70292 -0.6618,3.966667 -0.46747,1.007915 -1.09392,1.935197 -1.651,2.896278 -0.4821,1.00176 -1.08528,1.944698 -1.822,2.777431 -0.6234,0.892406 -1.25431,1.77617 -1.90928,2.647162 -0.67565,0.818139 -1.45684,1.537642 -2.1619,2.327738 -0.61893,0.892162 -1.23788,1.789697 -1.97541,2.588945 -0.63346,0.882978 -1.260008,1.769113 -1.912651,2.639994 -0.757711,0.769721 -1.253601,1.737794 -1.929304,2.573949 -0.660757,0.897281 -1.200187,1.848305 -1.585225,2.89292 -0.577432,1.06975 -0.732443,2.276924 -1.086913,3.421951 -0.44069,1.234146 -0.567481,2.53465 -0.648814,3.832722 -0.06805,1.487282 -0.06209,2.976658 -0.06198,4.465117 -0.126092,1.362807 0.182179,2.668778 0.423886,3.995891 0.0879,1.290957 0.473417,2.519669 0.740998,3.777374 0.112964,1.287801 0.49444,2.517814 0.760359,3.776466 0.25386,1.331079 0.22588,2.683995 0.511186,4.008472 0.341151,1.350587 0.464645,2.736541 0.540374,4.122982 -0.05029,1.50076 0.248529,2.96364 0.476494,4.43748 0.221403,1.42795 0.19172,2.872 0.491656,4.28667 0.340083,1.35374 0.466733,2.7419 0.543325,4.13125 0.0082,1.31754 0.386673,2.58998 0.578922,3.88707 0.187721,1.45871 0.210222,2.93128 0.229372,4.39978 0.01225,1.51286 0.0077,3.0258 0.0058,4.53869 -0.0021,1.51272 -0.0027,3.02543 -0.0031,4.53815 -0.01048,1.25212 0.03548,2.50438 -0.05054,3.75407 0,0 -10.072389,4.96196 -10.072389,4.96196 v 0 c 0.258241,-1.18827 0.08048,-2.41533 0.130789,-3.62509 2.65e-4,-1.51306 7.94e-4,-3.02613 0.0028,-4.53919 0.0019,-1.50864 0.0062,-3.01729 -0.0011,-4.52593 -0.01233,-1.42324 -0.02257,-2.84986 -0.174815,-4.26656 -0.173948,-1.33499 -0.581081,-2.63381 -0.617943,-3.98019 -0.05678,-1.32931 -0.143901,-2.6624 -0.466306,-3.95872 -0.329211,-1.44289 -0.355458,-2.8945 -0.510644,-4.36361 -0.217852,-1.50915 -0.598294,-2.99842 -0.534588,-4.53357 -0.05612,-1.32451 -0.140173,-2.65353 -0.463214,-3.94486 -0.311173,-1.334495 -0.350813,-2.673615 -0.52129,-4.030406 -0.243321,-1.264332 -0.681804,-2.481506 -0.759621,-3.774882 -0.247256,-1.273077 -0.692536,-2.49909 -0.753073,-3.804419 -0.237228,-1.389269 -0.635066,-2.750921 -0.498951,-4.176956 -0.0021,-1.504514 -0.0095,-3.009395 0.03082,-4.513519 0.05275,-1.372611 0.117745,-2.759282 0.503097,-4.086794 0.121899,-0.36661 0.298331,-0.715719 0.393793,-1.090084 0.207203,-0.81258 0.198297,-1.69152 0.636772,-2.441916 0.293878,-0.543311 0.378185,-1.107297 0.636514,-1.665147 0.509436,-1.100101 0.01894,0.07026 0.6019,-0.900486 0.102484,-0.170656 0.162867,-0.363291 0.244301,-0.544935 0.610851,-0.91018 1.362025,-1.710971 1.87943,-2.688747 0.808416,-0.698785 1.427176,-1.652545 1.938057,-2.580727 0.634167,-0.861957 1.440535,-1.577544 2.021475,-2.485599 0.510215,-1.009266 1.406607,-1.61653 2.089679,-2.492126 0.808599,-0.696487 1.430399,-1.647386 1.940502,-2.57451 0.630383,-0.861274 1.435426,-1.573741 1.932538,-2.53882 0.390694,-1.005353 1.031542,-1.985578 1.678466,-2.841085 0.495696,-1.13761 0.949446,-2.309101 0.884566,-3.581053 -0.004,-1.646076 -0.0121,-3.296796 -0.21515,-4.933035 -0.30718,-2.129263 -0.797231,-4.234518 -1.697256,-6.199642 0,0 9.787466,-5.496933 9.787466,-5.496933 z"
       inkscape:connector-curvature="0" />
    <path
       style="opacity:1;fill:#280b0b;fill-opacity:1;stroke:#470000;stroke-width:0.26499999;stroke-miterlimit:4;stroke-dasharray:none;stroke-opacity:1"
       id="path5597"
       d="m 54.721606,70.771508 c -0.917583,1.973954 -1.463797,4.080632 -1.823747,6.219074 -0.245475,1.626947 -0.276039,3.273809 -0.291245,4.915699 -0.0047,1.510403 0.0045,3.020811 0.0089,4.531209 0.16905,1.291683 0.456464,2.559936 0.602588,3.85672 0.2623,1.158663 0.51598,2.317983 0.91707,3.437194 0.306605,1.18836 0.795287,2.313427 1.110615,3.49889 0.339715,1.092412 0.85013,2.11088 1.27213,3.169716 0.506918,0.93164 1.049689,1.85005 1.644314,2.7292 0.614524,1.09501 1.369272,2.10162 1.949979,3.21415 0.622543,1.01104 1.344957,1.91863 1.797159,3.0243 0.571534,1.02713 0.862967,2.1642 1.290219,3.25163 0.464061,1.20474 0.542647,2.49622 0.877496,3.73482 0.391641,1.33756 0.511746,2.72547 0.588356,4.11024 0.105188,1.44881 -0.0306,2.90926 0.119119,4.35354 0.285157,1.31902 0.480689,2.64808 0.588568,3.99268 0.05435,0.97926 0.03167,0.48802 0.06788,1.47372 0,0 -9.978982,5.12518 -9.978982,5.12518 v 0 c -0.0266,-0.9594 -0.0096,-0.48229 -0.05088,-1.43132 -0.08643,-1.32376 -0.245364,-2.63759 -0.561539,-3.92865 -0.236172,-1.46694 -0.06322,-2.96156 -0.156263,-4.44257 -0.05516,-1.30544 -0.130955,-2.61942 -0.488444,-3.88387 -0.33718,-1.20388 -0.445903,-2.43681 -0.824921,-3.62831 -0.427312,-1.08846 -0.719473,-2.22125 -1.288219,-3.2504 -0.406596,-1.0782 -1.184471,-1.92292 -1.735299,-2.92822 -0.553437,-1.08034 -1.300009,-2.04743 -1.901095,-3.10185 -0.624289,-0.95597 -1.230968,-1.92646 -1.757661,-2.94025 -0.424098,-1.10792 -0.970156,-2.16188 -1.333987,-3.29561 -0.277773,-1.16088 -0.788675,-2.23781 -1.062257,-3.3997 -0.437642,-1.20513 -0.713203,-2.442332 -1.031917,-3.684601 -0.127532,-1.337447 -0.39488,-2.644164 -0.645039,-3.962482 -0.0039,-1.514215 -0.01191,-3.028426 -0.0113,-4.542647 0.009,-1.696455 0.02772,-3.397504 0.249171,-5.082384 0.329091,-2.203013 0.85839,-4.364997 1.659123,-6.447882 0,0 10.200047,-4.687216 10.200047,-4.687216 z"
       inkscape:connector-curvature="0" />
    <path
       style="opacity:1;fill:#ff7f2a;fill-opacity:1;stroke:#ff8400;stroke-width:2.86164212;stroke-miterlimit:4;stroke-dasharray:none;stroke-opacity:1"
       d="M 162.14489,742.12654 88.861217,531.37683 130.71632,529.55777 c 83.9915,-3.65035 281.96125,-5.58934 277.65214,-2.71944 -9.10646,6.065 0.81383,6.6524 14.95228,0.88536 13.41155,-5.47053 20.45175,-6.10699 67.82212,-6.13138 33.02077,-0.017 51.27983,0.9514 48.65417,2.58045 -8.9338,5.54281 -0.228,5.63467 12.60688,0.13302 11.72075,-5.0241 19.65346,-5.78609 60.23578,-5.78609 28.07625,0 47.4424,1.14078 48.50317,2.85714 2.60488,4.21481 13.80968,3.47162 20.1682,-1.33771 7.26911,-5.49808 48.33603,-6.21488 46.12888,-0.80515 -0.80143,1.96429 -38.35483,96.14286 -83.45203,209.28572 -45.0972,113.14285 -82.18617,205.9122 -82.41997,206.15408 -0.23371,0.242 -65.35365,3.75749 -144.7108,7.8124 C 337.5,946.54111 264.21429,950.53771 254,951.36751 l -18.57143,1.50875 z"
       id="path5599"
       inkscape:connector-curvature="0"
       transform="scale(0.26458333)" />
    <path
       style="fill:none;stroke:#ff8900;stroke-width:0.26458332px;stroke-linecap:butt;stroke-linejoin:miter;stroke-opacity:1"
       d="m 34.198335,138.03667 c -0.06016,11.41013 -0.120317,22.82053 -0.150398,28.27373 -0.03008,5.45321 -0.03008,4.94925 -0.03008,4.44555"
       id="path5601"
       inkscape:connector-curvature="0"
       inkscape:path-effect="#path-effect5603"
       inkscape:original-d="m 34.198335,138.03667 c -0.05989,11.41013 -0.120055,22.82053 -0.180478,34.23118 0.252254,-0.50424 2.65e-4,-1.0082 0,-1.5119" />
    <path
       style="fill:none;stroke:#ffff00;stroke-width:0.26458332px;stroke-linecap:butt;stroke-linejoin:miter;stroke-opacity:1"
       d="m 34.198335,138.03667 c -0.06016,10.90616 -0.120317,21.81259 -0.180478,32.71928"
       id="path5605"
       inkscape:connector-curvature="0"
       inkscape:path-effect="#path-effect5607"
       inkscape:original-d="m 34.198335,138.03667 c -0.05989,10.90616 -0.120055,21.81259 -0.180478,32.71928" />
    <path
       style="fill:none;stroke:#ffff00;stroke-width:0.26458332px;stroke-linecap:butt;stroke-linejoin:miter;stroke-opacity:1"
       d="m 46.239795,138.85359 c -1.11297,19.16663 -2.225957,38.33354 -3.33896,57.50072"
       id="path5609"
       inkscape:connector-curvature="0"
       inkscape:path-effect="#path-effect5611"
       inkscape:original-d="m 46.239795,138.85359 c -1.112722,19.16664 -2.22571,38.33355 -3.33896,57.50072" />
    <path
       style="fill:none;stroke:#fff300;stroke-width:0.26458332px;stroke-linecap:butt;stroke-linejoin:miter;stroke-opacity:1"
       d="m 55.462024,135.40947 c 0.159482,32.44459 0.318966,64.88945 0.478451,97.33457"
       id="path5613"
       inkscape:connector-curvature="0"
       inkscape:path-effect="#path-effect5615"
       inkscape:original-d="m 55.462024,135.40947 c 0.15975,32.44459 0.319233,64.88945 0.478451,97.33457" />
    <path
       style="fill:none;stroke:#fffe00;stroke-width:0.26458332px;stroke-linecap:butt;stroke-linejoin:miter;stroke-opacity:1"
       d="m 62.394768,134.27161 c -0.03476,39.28092 -0.06953,78.56211 -0.104293,117.84356"
       id="path5617"
       inkscape:connector-curvature="0"
       inkscape:path-effect="#path-effect5619"
       inkscape:original-d="m 62.394768,134.27161 c -0.0345,39.28092 -0.06927,78.56211 -0.104293,117.84356" />
    <path
       style="fill:none;stroke:#fffb00;stroke-width:0.26458332px;stroke-linecap:butt;stroke-linejoin:miter;stroke-opacity:1"
       d="m 85.297448,136.03513 c 0.79767,38.28367 1.595346,76.56759 2.393027,114.85177"
       id="path5621"
       inkscape:connector-curvature="0"
       inkscape:path-effect="#path-effect5623"
       inkscape:original-d="m 85.297448,136.03513 c 0.797941,38.28366 1.595615,76.56758 2.393027,114.85177" />
    <path
       style="fill:none;stroke:#fff900;stroke-width:0.26458332px;stroke-linecap:butt;stroke-linejoin:miter;stroke-opacity:1"
       d="M 86.410167,138.74865 C 78.370336,176.53718 70.330439,214.32602 62.290475,252.11517"
       id="path5625"
       inkscape:connector-curvature="0"
       inkscape:path-effect="#path-effect5627"
       inkscape:original-d="M 86.410167,138.74865 C 78.370532,176.53722 70.330636,214.32606 62.290475,252.11517" />
    <path
       style="fill:none;stroke:#fbf400;stroke-width:0.26458332px;stroke-linecap:butt;stroke-linejoin:miter;stroke-opacity:1"
       d="m 107.51614,140.55343 c 0.95096,36.52558 1.90193,73.05143 2.85291,109.57752"
       id="path5629"
       inkscape:connector-curvature="0"
       inkscape:path-effect="#path-effect5631"
       inkscape:original-d="m 107.51614,140.55343 c 0.95123,36.52557 1.9022,73.05142 2.85291,109.57752" />
    <path
       style="fill:none;stroke:#fff600;stroke-width:0.26458332px;stroke-linecap:butt;stroke-linejoin:miter;stroke-opacity:1"
       d="m 127.23433,138.62326 c 0.67784,36.91698 1.35568,73.83423 2.03353,110.75174"
       id="path5633"
       inkscape:connector-curvature="0"
       inkscape:path-effect="#path-effect5635"
       inkscape:original-d="m 127.23433,138.62326 c 0.67811,36.91698 1.35595,73.83423 2.03353,110.75174" />
    <path
       style="fill:none;stroke:#fff300;stroke-width:0.26458332px;stroke-linecap:butt;stroke-linejoin:miter;stroke-opacity:1"
       d="m 142.12805,139.947 c 2.26484,35.97178 4.5297,71.94381 6.79457,107.91609"
       id="path5637"
       inkscape:connector-curvature="0"
       inkscape:path-effect="#path-effect5639"
       inkscape:original-d="m 142.12805,139.947 c 2.26512,35.97176 4.52998,71.94379 6.79457,107.91609" />
    <path
       style="fill:none;stroke:#fdf900;stroke-width:0.26458332px;stroke-linecap:butt;stroke-linejoin:miter;stroke-opacity:1"
       d="m 156.47819,130.4691 c 1.00924,30.8156 2.0185,61.63145 3.02776,92.44757"
       id="path5645"
       inkscape:connector-curvature="0"
       inkscape:path-effect="#path-effect5647"
       inkscape:original-d="m 156.47819,130.4691 c 1.00952,30.81559 2.01877,61.63144 3.02776,92.44757" />
    <path
       style="fill:none;stroke:#faf900;stroke-width:0.26458332px;stroke-linecap:butt;stroke-linejoin:miter;stroke-opacity:1"
       d="m 177.98829,138.56529 c -0.8691,13.75374 -1.73821,27.50778 -2.60734,41.26209"
       id="path5649"
       inkscape:connector-curvature="0"
       inkscape:path-effect="#path-effect5651"
       inkscape:original-d="m 177.98829,138.56529 c -0.86885,13.75376 -1.73796,27.5078 -2.60734,41.26209" />
    <path
       style="fill:none;stroke:#f9f900;stroke-width:0.26458332px;stroke-linecap:butt;stroke-linejoin:miter;stroke-opacity:1"
       d="m 107.51614,140.55343 c 7.25053,36.27365 14.5011,72.5475 21.75172,108.82157"
       id="path5653"
       inkscape:connector-curvature="0"
       inkscape:path-effect="#path-effect5655"
       inkscape:original-d="m 107.51614,140.55343 c 7.25084,36.27359 14.50141,72.54744 21.75172,108.82157" />
    <path
       style="fill:none;stroke:#faf400;stroke-width:0.26458332px;stroke-linecap:butt;stroke-linejoin:miter;stroke-opacity:1"
       d="m 177.98829,138.56529 c -6.16071,28.11682 -12.32149,56.23395 -18.48234,84.35138"
       id="path5657"
       inkscape:connector-curvature="0"
       inkscape:path-effect="#path-effect5659"
       inkscape:original-d="m 177.98829,138.56529 c -6.16052,28.11686 -12.3213,56.23399 -18.48234,84.35138" />
    <path
       style="fill:none;stroke:#f0f100;stroke-width:0.26458332px;stroke-linecap:butt;stroke-linejoin:miter;stroke-opacity:1"
       d="m 127.23529,138.62326 c 7.22907,36.41307 14.45818,72.82635 21.68733,109.23983"
       id="path5661"
       inkscape:connector-curvature="0"
       inkscape:path-effect="#path-effect5663"
       inkscape:original-d="m 127.23529,138.62326 c 7.22937,36.41301 14.45848,72.82629 21.68733,109.23983" />
    <path
       style="fill:none;stroke:#f9f500;stroke-width:0.26458332px;stroke-linecap:butt;stroke-linejoin:miter;stroke-opacity:1"
       d="m 34.198335,138.03667 c 7.247336,31.56893 14.494715,63.13805 21.74214,94.70737"
       id="path5665"
       inkscape:connector-curvature="0"
       inkscape:path-effect="#path-effect5667"
       inkscape:original-d="m 34.198335,138.03667 c 7.247644,31.56886 14.495023,63.13798 21.74214,94.70737" />
    <path
       style="fill:none;stroke:#f5f400;stroke-width:0.26458332px;stroke-linecap:butt;stroke-linejoin:miter;stroke-opacity:1"
       d="m 87.690475,250.8869 c 6.60861,-36.77813 13.217165,-73.55595 19.825665,-110.33347"
       id="path5669"
       inkscape:connector-curvature="0"
       inkscape:path-effect="#path-effect5671"
       inkscape:original-d="M 87.690475,250.8869 C 94.299293,214.10881 100.90785,177.33099 107.51614,140.55343" />
  </g>
</svg>
